<svg width="13" height="13" viewBox="0 0 13 13" fill="none" xmlns="http://www.w3.org/2000/svg">
<path d="M12.4969 7.04443C12.5448 7.33164 12.5687 7.61885 12.5208 7.90607C12.473 8.21721 12.4012 8.48049 12.2576 8.6959C12.3054 8.98311 12.2815 9.27032 12.2097 9.55753C12.114 9.84474 11.9943 10.108 11.8268 10.2995C11.8268 10.9697 11.6592 11.4962 11.2763 11.8792C10.8933 12.2621 10.3428 12.4536 9.64873 12.4536H8.66742C8.18874 12.4536 7.66218 12.3818 7.08776 12.2382C6.75268 12.1664 6.27399 12.0228 5.69957 11.8074L4.98154 11.568C4.7422 11.5201 4.57466 11.4723 4.43105 11.4723V11.6877C4.43105 11.9031 4.33531 12.0946 4.19171 12.2382C4.0481 12.3818 3.85663 12.4536 3.66515 12.4536H1.36746C1.15205 12.4536 0.960577 12.3818 0.816971 12.2382C0.673365 12.0946 0.601562 11.9031 0.601562 11.6877V5.5605C0.601562 5.36903 0.673365 5.17755 0.816971 5.03395C0.960577 4.89034 1.15205 4.79461 1.36746 4.79461H3.66515C3.92843 4.79461 4.14384 4.91428 4.28745 5.12969C4.35925 5.12969 4.43105 5.10575 4.47892 5.08182C4.62253 5.01001 4.79007 4.84247 5.02941 4.5792C5.17302 4.43559 5.38842 4.17231 5.67564 3.78936C6.01072 3.31068 6.27399 2.99953 6.44153 2.85593C6.53727 2.76019 6.60907 2.61658 6.68088 2.40118C6.72875 2.2815 6.77661 2.09003 6.82448 1.80282C7.01596 0.749708 7.39891 0.199219 7.94939 0.199219C8.61956 0.199219 9.12218 0.390693 9.45726 0.773642C9.7684 1.15659 9.93594 1.70708 9.93594 2.42511C9.93594 2.73626 9.88807 3.0474 9.79234 3.33461C9.72053 3.52609 9.6248 3.7415 9.48119 4.02871L9.43332 4.10051H11.1087C11.5874 4.10051 11.9943 4.29199 12.3294 4.62707C12.6645 4.98608 12.8559 5.39296 12.8559 5.87165C12.8559 6.35034 12.7363 6.73328 12.4969 7.04443ZM1.36746 11.6877H3.66515V5.5605H1.36746V11.6877ZM11.5156 6.80509C11.7071 6.75722 11.8507 6.66148 11.9464 6.47001C12.0422 6.30247 12.09 6.08706 12.09 5.84772C12.09 5.60837 11.9943 5.36903 11.8028 5.17755C11.6113 4.98608 11.372 4.86641 11.1087 4.86641H8.42808C8.42808 4.651 8.45202 4.43559 8.54775 4.22018C8.59562 4.10051 8.66742 3.90904 8.7871 3.66969C8.90677 3.43035 9.0025 3.23888 9.05037 3.09527C9.12218 2.87986 9.17004 2.66445 9.17004 2.42511C9.17004 1.99429 9.09824 1.65921 9.0025 1.46774C8.81103 1.13266 8.47595 0.965117 7.94939 0.965117C7.85366 1.06085 7.75792 1.20446 7.71005 1.39593C7.66218 1.51561 7.61431 1.70708 7.56645 1.94642C7.49464 2.30544 7.44677 2.56872 7.39891 2.71232C7.27923 2.99953 7.13563 3.23888 6.96809 3.40642C6.80055 3.57396 6.53727 3.8851 6.20219 4.33985C5.81924 4.84247 5.53203 5.17755 5.34056 5.36903C5.00548 5.70411 4.69433 5.84772 4.43105 5.84772V10.7064C4.62253 10.7064 4.86187 10.7542 5.14908 10.8261C5.31662 10.8739 5.60383 10.9697 6.01072 11.1133C6.53727 11.3047 6.96809 11.4244 7.2553 11.4962C7.75792 11.6398 8.23661 11.6877 8.66742 11.6877H9.64873C10.1274 11.6877 10.5104 11.568 10.7497 11.3047C11.013 11.0175 11.1087 10.5867 11.013 9.98835C11.2284 9.89261 11.372 9.6772 11.4677 9.36606C11.5635 9.05491 11.5156 8.7677 11.372 8.50442C11.5395 8.43262 11.6592 8.26508 11.731 8.02574C11.7789 7.78639 11.8028 7.54705 11.7549 7.30771C11.7071 7.06837 11.6353 6.90083 11.5156 6.80509ZM3.09073 10.5388C3.09073 10.3952 3.01893 10.2516 2.92319 10.132C2.80352 10.0362 2.65991 9.96442 2.51631 9.96442C2.34877 9.96442 2.20516 10.0362 2.10942 10.132C1.98975 10.2516 1.94188 10.3952 1.94188 10.5388C1.94188 10.7064 1.98975 10.85 2.10942 10.9457C2.20516 11.0654 2.34877 11.1133 2.51631 11.1133C2.65991 11.1133 2.80352 11.0654 2.92319 10.9457C3.01893 10.85 3.09073 10.7064 3.09073 10.5388Z" fill="#606770"/>
</svg>
