<svg width="14" height="13" viewBox="0 0 14 13" fill="none" xmlns="http://www.w3.org/2000/svg">
<path d="M13.6479 4.89034C13.8154 5.08182 13.9112 5.32116 13.9112 5.5605C13.9112 5.82378 13.8154 6.03919 13.6479 6.23066L9.43544 10.6346C9.24397 10.826 9.00463 10.9218 8.74135 10.9218C8.47807 10.9218 8.26266 10.85 8.07119 10.6585C7.87971 10.467 7.78398 10.2516 7.78398 9.96442V7.8582C6.39579 7.88213 5.41448 7.95393 4.81612 8.09754C4.05023 8.28901 3.54761 8.64803 3.3322 9.15065C3.09285 9.6772 3.14072 10.4431 3.45187 11.4723C3.49974 11.7116 3.4758 11.9031 3.35613 12.0946C3.23646 12.286 3.06892 12.3818 2.85351 12.4296C2.6381 12.4775 2.44663 12.4536 2.25515 12.31C1.68073 11.9031 1.22598 11.4244 0.890898 10.85C0.364343 10.0362 0.125 9.12671 0.125 8.12147C0.125 6.82902 0.484015 5.82378 1.22598 5.05788C1.84827 4.41166 2.80564 3.93297 4.05023 3.64576C5.0076 3.40642 6.25218 3.28674 7.78398 3.26281V1.15659C7.78398 0.893314 7.87971 0.677905 8.07119 0.48643C8.26266 0.294956 8.47807 0.199219 8.74135 0.199219C9.00463 0.199219 9.24397 0.294956 9.43544 0.48643L13.6479 4.89034ZM13.0974 5.70411C13.1213 5.65624 13.1453 5.60837 13.1453 5.5605C13.1453 5.51263 13.1213 5.46477 13.0974 5.4169L8.88496 1.01299C8.81315 0.965117 8.74135 0.965117 8.66955 0.989051C8.57381 1.03692 8.54988 1.08479 8.54988 1.15659V4.02871C6.97021 4.02871 5.74956 4.10051 4.88793 4.24412C3.64334 4.43559 2.68597 4.81854 2.03974 5.36903C1.27385 6.01525 0.890898 6.92476 0.890898 8.12147C0.890898 8.93524 1.08237 9.6772 1.48926 10.3234C1.77647 10.85 2.18335 11.3047 2.7099 11.6877C2.32696 10.2995 2.32696 9.27032 2.75777 8.55229C3.14072 7.93 3.85875 7.52312 4.9358 7.30771C5.70169 7.1641 6.89841 7.0923 8.54988 7.0923V9.96442C8.54988 10.0602 8.57381 10.108 8.66955 10.132C8.74135 10.1798 8.81315 10.1559 8.88496 10.108L13.0974 5.70411Z" fill="#606770"/>
</svg>
