<svg width="13" height="13" viewBox="0 0 13 13" fill="none" xmlns="http://www.w3.org/2000/svg">
<path d="M10.9765 0.199219C11.3834 0.199219 11.7424 0.366759 12.0535 0.653971C12.3407 0.965117 12.5083 1.32413 12.5083 1.73101V8.62409C12.5083 9.05491 12.3407 9.41393 12.0535 9.70114C11.7424 10.0123 11.3834 10.1559 10.9765 10.1559H7.52994L4.53815 12.4057C4.49028 12.4536 4.41848 12.4536 4.34667 12.4536C4.27487 12.4536 4.20307 12.4297 4.1552 12.3818C4.10733 12.3339 4.0834 12.2621 4.0834 12.1664V10.1559H1.7857C1.35488 10.1559 0.99587 10.0123 0.708658 9.70114C0.397512 9.41393 0.253906 9.05491 0.253906 8.62409V1.73101C0.253906 1.32413 0.397512 0.965117 0.708658 0.653971C0.99587 0.366759 1.35488 0.199219 1.7857 0.199219H10.9765ZM11.7424 8.62409V1.73101C11.7424 1.53954 11.6466 1.34807 11.503 1.20446C11.3594 1.06085 11.168 0.965117 10.9765 0.965117H1.7857C1.57029 0.965117 1.37882 1.06085 1.23521 1.20446C1.09161 1.34807 1.0198 1.53954 1.0198 1.73101V8.62409C1.0198 8.8395 1.09161 9.03098 1.23521 9.17458C1.37882 9.31819 1.57029 9.38999 1.7857 9.38999H4.84929V11.209L7.26666 9.38999H10.9765C11.168 9.38999 11.3594 9.31819 11.503 9.17458C11.6466 9.03098 11.7424 8.8395 11.7424 8.62409Z" fill="#606770"/>
</svg>
