<svg width="156" height="371" viewBox="0 0 156 371" fill="none" xmlns="http://www.w3.org/2000/svg">
<g clip-path="url(#clip0_887_4616)">
<rect width="156" height="370.618" fill="#C21F22"/>
<path d="M34.6862 63.8928C34.3746 65.6377 33.4554 67.1178 31.9285 68.3331C30.4017 69.5483 28.6723 70.1559 26.7404 70.1559C25.0889 70.1559 23.5932 69.7197 22.2533 68.8472C20.9446 68.0059 19.9008 66.7751 19.1218 65.1548C18.3739 63.5344 18 61.6493 18 59.4992L18 46.5055L50.4843 46.5055L50.4843 58.8916C50.4843 61.104 50.1104 63.0047 49.3625 64.5939C48.6147 66.183 47.602 67.3827 46.3244 68.1929C45.078 69.003 43.6758 69.4081 42.1178 69.4081C40.2482 69.4081 38.6902 68.9095 37.4438 67.9124C36.1974 66.9153 35.2782 65.5754 34.6862 63.8928ZM36.8362 51.8339L36.8362 58.4242C36.8362 60.1692 37.2257 61.5246 38.0047 62.4906C38.8149 63.4877 39.9678 63.9863 41.4635 63.9863C42.928 63.9863 44.0653 63.4877 44.8755 62.4906C45.7168 61.5246 46.1375 60.1692 46.1375 58.4242L46.1375 51.8339L36.8362 51.8339ZM22.3468 59.0318C22.3468 60.8391 22.7831 62.2569 23.6555 63.2852C24.528 64.3134 25.7433 64.8276 27.3013 64.8276C28.8904 64.8276 30.1524 64.2823 31.0872 63.1917C32.022 62.1011 32.4894 60.6521 32.4894 58.8449L32.4894 51.8339L22.3468 51.8339L22.3468 59.0318ZM30.9937 76.0397C33.58 76.0397 35.8703 76.5694 37.8645 77.6289C39.8587 78.7195 41.4012 80.184 42.4918 82.0224C43.6135 83.892 44.1744 85.9486 44.1744 88.1921C44.1744 90.2175 43.7693 91.978 42.9592 93.4737C42.1802 95.0006 41.1986 96.2158 40.0145 97.1194L43.7537 97.1194L43.7537 102.495L18 102.495L18 97.1194L21.8327 97.1194C20.6174 96.2158 19.6047 94.985 18.7946 93.427C17.9844 91.869 17.5793 90.0929 17.5793 88.0986C17.5793 85.8863 18.1402 83.8609 19.262 82.0224C20.4149 80.184 22.0041 78.7195 24.0295 77.6289C26.086 76.5694 28.4074 76.0397 30.9937 76.0397ZM30.9002 97.1194C32.6764 97.1194 34.2188 96.7455 35.5275 95.9977C36.8362 95.281 37.8333 94.3306 38.5189 93.1465C39.2044 91.9625 39.5471 90.6849 39.5471 89.3139C39.5471 87.9428 39.2044 86.6653 38.5189 85.4812C37.8645 84.2971 36.883 83.3311 35.5742 82.5833C34.2967 81.8666 32.7698 81.5083 30.9937 81.5083C29.2176 81.5083 27.6596 81.8666 26.3197 82.5833C24.9798 83.3311 23.9516 84.2971 23.2349 85.4812C22.5494 86.6964 22.2066 87.974 22.2066 89.3139C22.2066 90.6849 22.5494 91.9625 23.2349 93.1465C23.9204 94.3306 24.9175 95.281 26.2262 95.9977C27.5661 96.7455 29.1241 97.1194 30.9002 97.1194ZM17.5793 120.711C17.5793 118.685 17.9377 116.862 18.6544 115.242C19.4022 113.653 20.3993 112.391 21.6457 111.456C22.9233 110.521 24.3411 110.023 25.8991 109.961L25.8991 115.476C24.8085 115.569 23.8892 116.083 23.1414 117.018C22.4247 117.984 22.0664 119.184 22.0664 120.617C22.0664 122.113 22.3468 123.266 22.9077 124.076C23.4997 124.917 24.2476 125.338 25.1512 125.338C26.1172 125.338 26.8339 124.871 27.3013 123.936C27.7687 123.032 28.2828 121.583 28.8437 119.589C29.3734 117.657 29.8875 116.083 30.3861 114.868C30.8847 113.653 31.6481 112.594 32.6764 111.69C33.7046 110.817 35.0601 110.381 36.7427 110.381C38.1138 110.381 39.3602 110.786 40.4819 111.596C41.6349 112.407 42.5385 113.56 43.1929 115.055C43.8472 116.582 44.1744 118.327 44.1744 120.29C44.1744 123.219 43.4266 125.572 41.9309 127.348C40.4664 129.155 38.4565 130.121 35.9014 130.246L35.9014 124.917C37.0543 124.824 37.9736 124.356 38.6591 123.515C39.3446 122.674 39.6874 121.536 39.6874 120.103C39.6874 118.701 39.4225 117.626 38.8928 116.878C38.3631 116.13 37.662 115.756 36.7895 115.756C36.104 115.756 35.5275 116.006 35.0601 116.504C34.5927 117.003 34.2188 117.61 33.9383 118.327C33.6891 119.044 33.3619 120.103 32.9568 121.505C32.4582 123.375 31.9441 124.902 31.4144 126.086C30.9158 127.301 30.168 128.345 29.1709 129.217C28.1737 130.09 26.8494 130.542 25.198 130.573C23.7334 130.573 22.4247 130.168 21.2718 129.358C20.1189 128.547 19.2152 127.395 18.5609 125.899C17.9065 124.434 17.5793 122.705 17.5793 120.711ZM47.1658 140.911C47.1658 139.945 47.4929 139.135 48.1473 138.48C48.8017 137.826 49.6118 137.499 50.5778 137.499C51.5437 137.499 52.3539 137.826 53.0083 138.48C53.6626 139.135 53.9898 139.945 53.9898 140.911C53.9898 141.846 53.6626 142.64 53.0083 143.295C52.3539 143.949 51.5437 144.276 50.5778 144.276C49.6118 144.276 48.8017 143.949 48.1473 143.295C47.4929 142.64 47.1658 141.846 47.1658 140.911ZM43.7537 143.528L18 143.528L18 138.2L43.7537 138.2L43.7537 143.528ZM30.9002 150.617C33.5488 150.617 35.8703 151.147 37.8645 152.207C39.8899 153.297 41.4479 154.793 42.5385 156.694C43.6291 158.594 44.1744 160.776 44.1744 163.237C44.1744 166.353 43.4266 168.924 41.9309 170.949C40.4664 173.006 38.3631 174.392 35.621 175.109L35.621 169.36C36.8985 168.893 37.8957 168.145 38.6123 167.117C39.329 166.088 39.6874 164.795 39.6874 163.237C39.6874 161.056 38.9084 159.311 37.3504 158.002C35.8235 156.725 33.6735 156.086 30.9002 156.086C28.127 156.086 25.9614 156.725 24.4034 158.002C22.8454 159.311 22.0664 161.056 22.0664 163.237C22.0664 166.322 23.4218 168.363 26.1328 169.36L26.1328 175.109C23.5153 174.361 21.4276 172.959 19.8696 170.903C18.3428 168.846 17.5793 166.291 17.5793 163.237C17.5793 160.776 18.1246 158.594 19.2152 156.694C20.337 154.793 21.895 153.297 23.8892 152.207C25.9146 151.147 28.2516 150.617 30.9002 150.617Z" fill="white"/>
<path d="M70.7619 333.1C70.793 329.152 71.5749 326.048 73.1077 323.788C74.6634 321.528 77.1398 320.411 80.5368 320.438C83.9338 320.464 86.3808 321.62 87.8778 323.904C89.3977 326.188 90.1421 329.305 90.111 333.252C90.0796 337.246 89.286 340.373 87.7303 342.633C86.1975 344.894 83.7326 346.011 80.3356 345.984C76.9386 345.957 74.4802 344.802 72.9602 342.517C71.4632 340.233 70.7305 337.094 70.7619 333.1ZM84.327 333.207C84.3452 330.889 84.1067 329.108 83.6115 327.864C83.1165 326.598 82.0771 325.959 80.4934 325.946C78.9097 325.934 77.8604 326.557 77.3455 327.815C76.8307 329.051 76.5643 330.827 76.546 333.146C76.5337 334.706 76.6153 336.004 76.7908 337.038C76.9665 338.05 77.3272 338.879 77.873 339.526C78.4419 340.15 79.2773 340.467 80.379 340.475C81.4807 340.484 82.3095 340.181 82.8652 339.565C83.4441 338.927 83.8293 338.104 84.0209 337.095C84.2127 336.064 84.3147 334.768 84.327 333.207ZM113.419 339.324C113.409 340.586 113.067 341.754 112.393 342.828C111.742 343.878 110.771 344.743 109.481 345.421C108.213 346.077 106.707 346.433 104.962 346.488L104.94 349.276L102.736 349.259L102.759 346.436C100.327 346.21 98.3705 345.472 96.8883 344.221C95.4063 342.946 94.6279 341.23 94.5531 339.072L100.819 339.121C100.946 340.499 101.605 341.388 102.795 341.788L102.838 336.348C101.051 335.875 99.6203 335.416 98.545 334.972C97.4926 334.527 96.5685 333.82 95.7728 332.849C94.977 331.879 94.5857 330.556 94.5989 328.881C94.6154 326.792 95.3975 325.122 96.9453 323.872C98.516 322.622 100.518 321.926 102.953 321.785L102.975 318.996L105.178 319.013L105.156 321.802C107.565 322.005 109.464 322.72 110.855 323.947C112.245 325.175 113.013 326.868 113.156 329.027L106.856 328.977C106.728 327.737 106.149 326.929 105.119 326.553L105.077 331.89C106.978 332.433 108.443 332.915 109.473 333.336C110.502 333.757 111.415 334.453 112.211 335.424C113.029 336.371 113.432 337.671 113.419 339.324ZM100.833 328.654C100.828 329.228 100.997 329.711 101.338 330.104C101.702 330.497 102.216 330.846 102.879 331.149L102.917 326.364C102.273 326.473 101.766 326.722 101.396 327.109C101.026 327.474 100.838 327.989 100.833 328.654ZM104.998 341.909C105.687 341.799 106.229 341.528 106.623 341.095C107.039 340.662 107.25 340.124 107.255 339.482C107.26 338.885 107.068 338.401 106.681 338.031C106.317 337.638 105.769 337.301 105.036 337.02L104.998 341.909ZM123.673 332.326L119.562 349.172L117.113 349.153L121.224 332.306L123.673 332.326ZM135.862 338.152C136.891 338.16 137.705 338.478 138.304 339.106C138.912 339.735 139.212 340.603 139.203 341.711L139.165 346.55L136.642 346.531L136.677 342.033C136.681 341.498 136.541 341.087 136.256 340.797C135.982 340.498 135.597 340.347 135.102 340.343C134.607 340.339 134.215 340.484 133.926 340.779C133.647 341.064 133.505 341.473 133.501 342.008L133.465 346.506L130.942 346.486L130.977 341.988C130.981 341.453 130.841 341.042 130.556 340.752C130.282 340.453 129.897 340.302 129.402 340.298C128.907 340.294 128.515 340.439 128.226 340.734C127.946 341.019 127.805 341.428 127.8 341.963L127.765 346.461L125.227 346.441L125.292 338.158L127.83 338.178L127.822 339.217C128.082 338.872 128.421 338.603 128.838 338.408C129.255 338.204 129.726 338.103 130.25 338.108C130.874 338.112 131.427 338.25 131.91 338.521C132.403 338.793 132.786 339.177 133.059 339.674C133.349 339.221 133.743 338.853 134.24 338.569C134.737 338.286 135.278 338.147 135.862 338.152Z" fill="white"/>
</g>
<defs>
<clipPath id="clip0_887_4616">
<rect width="156" height="370.618" fill="white"/>
</clipPath>
</defs>
</svg>
