<svg width="156" height="371" viewBox="0 0 156 371" fill="none" xmlns="http://www.w3.org/2000/svg">
<g clip-path="url(#clip0_887_4661)">
<rect width="156" height="370.618" fill="#F3A403"/>
<path d="M34.6856 51.8921C34.374 53.637 33.4548 55.117 31.9281 56.3322C30.4013 57.5474 28.6719 58.155 26.7401 58.155C25.0887 58.155 23.593 57.7188 22.2532 56.8464C20.9445 56.0051 19.9007 54.7743 19.1217 53.154C18.3739 51.5338 18 49.6486 18 47.4987L18 34.5054L50.4832 34.5054L50.4832 46.8911C50.4832 49.1034 50.1093 51.0041 49.3615 52.5932C48.6137 54.1823 47.601 55.3819 46.3235 56.192C45.0771 57.0022 43.675 57.4072 42.117 57.4072C40.2475 57.4072 38.6896 56.9087 37.4432 55.9116C36.1968 54.9145 35.2776 53.5747 34.6856 51.8921ZM36.8356 39.8336L36.8356 46.4237C36.8356 48.1686 37.2251 49.524 38.0041 50.4899C38.8142 51.487 39.9671 51.9856 41.4627 51.9856C42.9272 51.9856 44.0645 51.487 44.8746 50.4899C45.7159 49.524 46.1366 48.1686 46.1366 46.4237L46.1366 39.8336L36.8356 39.8336ZM22.3467 47.0313C22.3467 48.8385 22.7829 50.2562 23.6554 51.2845C24.5278 52.3127 25.743 52.8269 27.301 52.8269C28.8901 52.8269 30.152 52.2816 31.0868 51.191C32.0215 50.1004 32.4889 48.6516 32.4889 46.8443L32.4889 39.8336L22.3467 39.8336L22.3467 47.0313ZM43.7529 89.1372L18 89.1372L18 83.809L21.038 83.809C19.9786 82.9677 19.1373 81.8615 18.5141 80.4905C17.9221 79.1507 17.6261 77.7174 17.6261 76.1906C17.6261 74.1653 18.0467 72.3425 18.888 70.7222C19.7293 69.1331 20.9757 67.8712 22.6271 66.9364C24.2785 66.0328 26.2727 65.581 28.6096 65.581L43.7529 65.581L43.7529 70.8624L29.4042 70.8624C27.0984 70.8624 25.3224 71.4389 24.076 72.5917C22.8608 73.7446 22.2532 75.3182 22.2532 77.3123C22.2532 79.3065 22.8608 80.88 24.076 82.0329C25.3224 83.217 27.0984 83.809 29.4042 83.809L43.7529 83.809L43.7529 89.1372ZM17.5794 107.385C17.5794 105.359 17.9377 103.536 18.6543 101.916C19.4022 100.327 20.3992 99.0651 21.6456 98.1303C22.9231 97.1955 24.3408 96.697 25.8988 96.6347L25.8988 102.15C24.8082 102.243 23.889 102.757 23.1412 103.692C22.4246 104.658 22.0662 105.858 22.0662 107.291C22.0662 108.787 22.3467 109.94 22.9075 110.75C23.4996 111.591 24.2474 112.012 25.151 112.012C26.1169 112.012 26.8336 111.544 27.301 110.609C27.7683 109.706 28.2825 108.257 28.8433 106.263C29.373 104.331 29.8871 102.757 30.3857 101.542C30.8842 100.327 31.6476 99.2676 32.6759 98.364C33.7041 97.4915 35.0595 97.0553 36.7421 97.0553C38.1131 97.0553 39.3595 97.4604 40.4812 98.2705C41.6341 99.0806 42.5377 100.234 43.192 101.729C43.8464 103.256 44.1735 105.001 44.1735 106.964C44.1735 109.893 43.4257 112.245 41.9301 114.021C40.4656 115.829 38.4559 116.795 35.9008 116.919L35.9008 111.591C37.0537 111.497 37.9729 111.03 38.6584 110.189C39.3439 109.348 39.6866 108.21 39.6866 106.777C39.6866 105.375 39.4218 104.3 38.8921 103.552C38.3624 102.804 37.6613 102.43 36.7889 102.43C36.1034 102.43 35.5269 102.68 35.0595 103.178C34.5921 103.677 34.2182 104.284 33.9378 105.001C33.6885 105.718 33.3614 106.777 32.9563 108.179C32.4578 110.049 31.9436 111.575 31.4139 112.759C30.9154 113.975 30.1676 115.018 29.1705 115.891C28.1734 116.763 26.8491 117.215 25.1977 117.246C23.7332 117.246 22.4246 116.841 21.2717 116.031C20.1188 115.221 19.2152 114.068 18.5609 112.572C17.9065 111.108 17.5794 109.379 17.5794 107.385ZM47.1648 127.584C47.1648 126.618 47.492 125.808 48.1463 125.154C48.8006 124.499 49.6108 124.172 50.5767 124.172C51.5426 124.172 52.3528 124.499 53.0071 125.154C53.6614 125.808 53.9886 126.618 53.9886 127.584C53.9886 128.519 53.6614 129.313 53.0071 129.968C52.3528 130.622 51.5426 130.949 50.5767 130.949C49.6108 130.949 48.8006 130.622 48.1463 129.968C47.492 129.313 47.1648 128.519 47.1648 127.584ZM43.7529 130.201L18 130.201L18 124.873L43.7529 124.873L43.7529 130.201ZM44.1735 152.06C44.1735 154.085 43.7529 155.892 42.9116 157.481C42.0703 159.101 40.8239 160.363 39.1725 161.267C37.5211 162.171 35.5269 162.622 33.19 162.622L18 162.622L18 157.341L32.3954 157.341C34.7012 157.341 36.4617 156.765 37.6769 155.612C38.9232 154.459 39.5464 152.885 39.5464 150.891C39.5464 148.897 38.9232 147.308 37.6769 146.124C36.4617 144.971 34.7012 144.394 32.3954 144.394L18 144.394L18 139.066L43.7529 139.066L43.7529 144.394L40.8084 144.394C41.8678 145.267 42.6935 146.373 43.2855 147.713C43.8775 149.084 44.1735 150.533 44.1735 152.06ZM31.5074 194.891C30.5415 194.891 29.669 194.829 28.8901 194.704L28.8901 175.027C26.8336 175.183 25.1821 175.947 23.9358 177.318C22.6894 178.689 22.0662 180.371 22.0662 182.365C22.0662 185.232 23.2659 187.257 25.6651 188.441L25.6651 194.19C23.297 193.411 21.3496 191.994 19.8228 189.937C18.3272 187.912 17.5793 185.388 17.5793 182.365C17.5793 179.904 18.1246 177.692 19.2152 175.729C20.3369 173.797 21.8949 172.27 23.889 171.148C25.9144 170.058 28.2513 169.512 30.8998 169.512C33.5483 169.512 35.8697 170.042 37.8638 171.101C39.8892 172.192 41.4471 173.703 42.5377 175.635C43.6282 177.598 44.1735 179.842 44.1735 182.365C44.1735 184.796 43.6438 186.961 42.5844 188.862C41.525 190.763 40.0294 192.243 38.0975 193.302C36.1968 194.362 34.0001 194.891 31.5074 194.891ZM33.19 189.329C35.153 189.298 36.7265 188.597 37.9106 187.226C39.0946 185.855 39.6866 184.157 39.6866 182.132C39.6866 180.293 39.0946 178.72 37.9106 177.411C36.7577 176.102 35.1842 175.323 33.19 175.074L33.19 189.329ZM17.5793 211.352C17.5793 209.327 17.9377 207.504 18.6543 205.884C19.4021 204.295 20.3992 203.033 21.6456 202.098C22.9231 201.163 24.3408 200.664 25.8988 200.602L25.8988 206.117C24.8082 206.211 23.889 206.725 23.1412 207.66C22.4246 208.626 22.0662 209.825 22.0662 211.259C22.0662 212.754 22.3467 213.907 22.9075 214.717C23.4996 215.558 24.2474 215.979 25.151 215.979C26.1169 215.979 26.8336 215.512 27.3009 214.577C27.7683 213.673 28.2825 212.224 28.8433 210.23C29.373 208.298 29.8871 206.725 30.3857 205.51C30.8842 204.295 31.6476 203.235 32.6759 202.331C33.7041 201.459 35.0595 201.023 36.7421 201.023C38.1131 201.023 39.3595 201.428 40.4812 202.238C41.6341 203.048 42.5377 204.201 43.192 205.697C43.8464 207.223 44.1735 208.968 44.1735 210.931C44.1735 213.86 43.4257 216.213 41.9301 217.989C40.4656 219.796 38.4559 220.762 35.9008 220.887L35.9008 215.558C37.0537 215.465 37.9729 214.998 38.6584 214.156C39.3439 213.315 39.6866 212.178 39.6866 210.744C39.6866 209.342 39.4218 208.267 38.8921 207.519C38.3624 206.772 37.6613 206.398 36.7889 206.398C36.1034 206.398 35.5269 206.647 35.0595 207.146C34.5921 207.644 34.2182 208.252 33.9378 208.968C33.6885 209.685 33.3614 210.744 32.9563 212.147C32.4578 214.016 31.9436 215.543 31.4139 216.727C30.9154 217.942 30.1676 218.986 29.1705 219.858C28.1734 220.731 26.8491 221.183 25.1977 221.214C23.7332 221.214 22.4246 220.809 21.2717 219.999C20.1188 219.189 19.2152 218.036 18.5609 216.54C17.9065 215.076 17.5793 213.346 17.5793 211.352ZM17.5793 238.188C17.5793 236.163 17.9377 234.34 18.6543 232.72C19.4021 231.131 20.3992 229.869 21.6456 228.934C22.9231 227.999 24.3408 227.501 25.8988 227.438L25.8988 232.954C24.8082 233.047 23.889 233.561 23.1412 234.496C22.4246 235.462 22.0662 236.662 22.0662 238.095C22.0662 239.59 22.3467 240.743 22.9075 241.553C23.4995 242.395 24.2474 242.815 25.151 242.815C26.1169 242.815 26.8336 242.348 27.3009 241.413C27.7683 240.51 28.2825 239.061 28.8433 237.067C29.373 235.135 29.8871 233.561 30.3857 232.346C30.8842 231.131 31.6476 230.071 32.6759 229.168C33.7041 228.295 35.0595 227.859 36.7421 227.859C38.1131 227.859 39.3595 228.264 40.4812 229.074C41.6341 229.884 42.5377 231.037 43.192 232.533C43.8464 234.06 44.1735 235.805 44.1735 237.768C44.1735 240.697 43.4257 243.049 41.9301 244.825C40.4656 246.632 38.4559 247.598 35.9008 247.723L35.9008 242.395C37.0537 242.301 37.9729 241.834 38.6584 240.993C39.3439 240.151 39.6866 239.014 39.6866 237.581C39.6866 236.179 39.4218 235.104 38.8921 234.356C38.3624 233.608 37.6613 233.234 36.7889 233.234C36.1034 233.234 35.5269 233.483 35.0595 233.982C34.5921 234.48 34.2182 235.088 33.9378 235.805C33.6885 236.521 33.3614 237.581 32.9563 238.983C32.4578 240.852 31.9436 242.379 31.4139 243.563C30.9154 244.778 30.1676 245.822 29.1705 246.695C28.1734 247.567 26.8491 248.019 25.1977 248.05C23.7332 248.05 22.4246 247.645 21.2717 246.835C20.1188 246.025 19.2152 244.872 18.5609 243.376C17.9065 241.912 17.5793 240.182 17.5793 238.188ZM39.5151 294.239L39.5151 280.354L25.2863 280.354L25.2863 273.068L39.5151 273.068L39.5151 259.183L46.114 259.183L46.114 273.068L60.3429 273.068L60.3429 280.354L46.114 280.354L46.114 294.239L39.5151 294.239Z" fill="white"/>
<path d="M38.4908 352.293C39.2761 351.679 39.6341 351.395 39.5649 351.44C41.8289 349.599 43.6083 348.086 44.903 346.903C46.2207 345.72 47.3323 344.477 48.2378 343.176C49.1432 341.875 49.6008 340.605 49.6106 339.365C49.618 338.424 49.4057 337.688 48.9738 337.157C48.5418 336.625 47.8898 336.356 47.0176 336.349C46.1454 336.342 45.4542 336.67 44.944 337.331C44.4569 337.97 44.2087 338.887 44.1993 340.08L38.5185 340.035C38.5797 338.085 39.0057 336.458 39.7964 335.156C40.6101 333.854 41.662 332.898 42.9522 332.289C44.2654 331.679 45.7139 331.381 47.2976 331.393C50.029 331.415 52.0777 332.131 53.4439 333.542C54.833 334.953 55.5187 336.783 55.5009 339.033C55.4816 341.489 54.6258 343.766 52.9337 345.864C51.2417 347.94 49.091 349.966 46.4816 351.942L55.7775 352.016L55.7398 356.801L38.4564 356.665L38.4908 352.293ZM66.0993 349.859C66.4293 351.675 67.478 352.59 69.2454 352.604C70.4619 352.613 71.3268 352.081 71.8403 351.006C72.3537 349.931 72.6201 348.177 72.6392 345.744C72.1287 346.452 71.4357 346.997 70.5605 347.38C69.6852 347.764 68.7082 347.951 67.6294 347.943C66.1604 347.931 64.8545 347.622 63.7115 347.017C62.5688 346.388 61.6693 345.474 61.013 344.275C60.3799 343.054 60.0702 341.582 60.0837 339.861C60.0971 338.162 60.453 336.685 61.1516 335.428C61.873 334.171 62.8792 333.203 64.1699 332.525C65.4837 331.846 67.0242 331.514 68.7916 331.528C72.1886 331.555 74.5559 332.629 75.8934 334.752C77.231 336.874 77.8836 339.99 77.8513 344.098C77.8278 347.082 77.5329 349.547 76.9667 351.494C76.4236 353.418 75.5054 354.879 74.2121 355.879C72.9418 356.879 71.2048 357.371 69.0014 357.353C67.257 357.339 65.7678 356.983 64.5337 356.285C63.3227 355.587 62.3888 354.673 61.732 353.543C61.0982 352.413 60.7407 351.171 60.6595 349.816L66.0993 349.859ZM69.0087 343.305C69.9727 343.313 70.7439 343.032 71.3222 342.463C71.9008 341.871 72.194 341.069 72.2019 340.06C72.2106 338.958 71.9189 338.106 71.3268 337.505C70.7348 336.903 69.9338 336.599 68.9239 336.591C67.9139 336.583 67.1082 336.886 66.5065 337.501C65.928 338.093 65.6346 338.918 65.6263 339.973C65.6185 340.96 65.8991 341.766 66.468 342.39C67.0601 342.992 67.907 343.297 69.0087 343.305ZM88.6584 350.036C88.9884 351.852 90.0371 352.767 91.8045 352.781C93.021 352.791 93.8859 352.258 94.3994 351.183C94.9128 350.109 95.1792 348.355 95.1983 345.922C94.6878 346.629 93.9948 347.175 93.1196 347.558C92.2443 347.941 91.2673 348.129 90.1885 348.12C88.7195 348.109 87.4136 347.8 86.2706 347.194C85.1279 346.566 84.2284 345.652 83.5721 344.453C82.939 343.231 82.6293 341.76 82.6428 340.038C82.6562 338.34 83.0121 336.862 83.7107 335.605C84.4321 334.348 85.4383 333.381 86.729 332.702C88.0428 332.024 89.5833 331.692 91.3507 331.706C94.7477 331.733 97.115 332.807 98.4525 334.929C99.7901 337.052 100.443 340.167 100.41 344.276C100.387 347.26 100.092 349.725 99.5258 351.671C98.9827 353.595 98.0645 355.057 96.7712 356.057C95.5009 357.057 93.7639 357.548 91.5605 357.531C89.8161 357.517 88.3269 357.161 87.0928 356.463C85.8818 355.765 84.9479 354.851 84.2911 353.721C83.6573 352.591 83.2998 351.349 83.2186 349.994L88.6584 350.036ZM91.5678 343.483C92.5318 343.491 93.303 343.21 93.8813 342.64C94.4599 342.048 94.7531 341.247 94.761 340.237C94.7697 339.135 94.478 338.284 93.8859 337.682C93.2939 337.081 92.4929 336.776 91.483 336.768C90.473 336.76 89.6673 337.064 89.0656 337.679C88.4871 338.271 88.1937 339.095 88.1854 340.151C88.1776 341.138 88.4582 341.944 89.0271 342.568C89.6192 343.169 90.4661 343.474 91.5678 343.483ZM123.747 350.657C123.737 351.919 123.395 353.087 122.721 354.161C122.07 355.212 121.099 356.076 119.808 356.755C118.541 357.41 117.034 357.766 115.289 357.821L115.267 360.61L113.064 360.592L113.086 357.769C110.655 357.543 108.698 356.805 107.216 355.554C105.734 354.28 104.955 352.563 104.881 350.405L111.147 350.455C111.274 351.833 111.932 352.722 113.123 353.121L113.166 347.682C111.379 347.208 109.948 346.749 108.873 346.305C107.82 345.86 106.896 345.153 106.1 344.183C105.305 343.212 104.913 341.889 104.926 340.214C104.943 338.125 105.725 336.456 107.273 335.205C108.844 333.955 110.846 333.26 113.28 333.118L113.302 330.329L115.506 330.347L115.484 333.135C117.892 333.338 119.792 334.053 121.182 335.281C122.573 336.508 123.34 338.201 123.484 340.36L117.183 340.31C117.055 339.07 116.476 338.262 115.446 337.887L115.404 343.223C117.305 343.766 118.77 344.248 119.8 344.669C120.83 345.091 121.742 345.786 122.538 346.757C123.357 347.704 123.76 349.004 123.747 350.657ZM111.16 339.988C111.156 340.561 111.324 341.045 111.665 341.438C112.03 341.831 112.543 342.179 113.207 342.483L113.244 337.697C112.601 337.807 112.094 338.055 111.723 338.443C111.353 338.807 111.166 339.322 111.16 339.988ZM115.325 353.242C116.015 353.133 116.556 352.861 116.95 352.428C117.367 351.996 117.577 351.458 117.583 350.815C117.587 350.218 117.396 349.735 117.009 349.364C116.644 348.971 116.096 348.634 115.364 348.353L115.325 353.242ZM134.001 343.659L129.89 360.505L127.44 360.486L131.551 343.64L134.001 343.659ZM146.189 349.485C147.218 349.493 148.032 349.811 148.631 350.44C149.24 351.068 149.54 351.936 149.531 353.045L149.493 357.884L146.969 357.864L147.005 353.366C147.009 352.832 146.869 352.42 146.584 352.131C146.309 351.832 145.924 351.68 145.43 351.676C144.935 351.672 144.543 351.818 144.253 352.112C143.974 352.397 143.832 352.807 143.828 353.341L143.793 357.839L141.269 357.819L141.305 353.321C141.309 352.787 141.169 352.375 140.884 352.086C140.609 351.787 140.224 351.635 139.729 351.631C139.235 351.627 138.843 351.773 138.553 352.067C138.274 352.352 138.132 352.762 138.128 353.296L138.093 357.794L135.554 357.774L135.619 349.491L138.158 349.511L138.15 350.55C138.41 350.206 138.748 349.936 139.165 349.741C139.583 349.537 140.054 349.437 140.578 349.441C141.202 349.446 141.755 349.584 142.237 349.855C142.73 350.126 143.113 350.51 143.386 351.007C143.677 350.554 144.071 350.186 144.568 349.903C145.065 349.62 145.605 349.48 146.189 349.485Z" fill="white"/>
</g>
<defs>
<clipPath id="clip0_887_4661">
<rect width="156" height="370.618" fill="white"/>
</clipPath>
</defs>
</svg>
