<svg width="156" height="371" viewBox="0 0 156 371" fill="none" xmlns="http://www.w3.org/2000/svg">
<g clip-path="url(#clip0_887_4565)">
<rect width="156" height="370.618" fill="#1FC2BA"/>
<path d="M34.6856 63.8921C34.374 65.637 33.4548 67.117 31.9281 68.3322C30.4013 69.5474 28.6719 70.155 26.7401 70.155C25.0887 70.155 23.593 69.7188 22.2532 68.8464C20.9445 68.0051 19.9007 66.7743 19.1217 65.154C18.3739 63.5338 18 61.6486 18 59.4987L18 46.5054L50.4832 46.5054L50.4832 58.8911C50.4832 61.1034 50.1093 63.0041 49.3615 64.5932C48.6137 66.1823 47.601 67.3819 46.3235 68.192C45.0771 69.0022 43.675 69.4072 42.117 69.4072C40.2475 69.4072 38.6896 68.9087 37.4432 67.9116C36.1968 66.9145 35.2776 65.5747 34.6856 63.8921ZM36.8356 51.8336L36.8356 58.4237C36.8356 60.1686 37.2251 61.524 38.0041 62.4899C38.8142 63.487 39.9671 63.9856 41.4627 63.9856C42.9272 63.9856 44.0645 63.487 44.8746 62.4899C45.7159 61.524 46.1366 60.1686 46.1366 58.4237L46.1366 51.8336L36.8356 51.8336ZM22.3467 59.0313C22.3467 60.8385 22.7829 62.2562 23.6554 63.2845C24.5278 64.3127 25.743 64.8269 27.301 64.8269C28.8901 64.8269 30.152 64.2816 31.0868 63.191C32.0215 62.1004 32.4889 60.6516 32.4889 58.8443L32.4889 51.8336L22.3467 51.8336L22.3467 59.0313ZM43.7529 101.137L18 101.137L18 95.809L21.038 95.809C19.9786 94.9677 19.1373 93.8615 18.5141 92.4905C17.9221 91.1507 17.6261 89.7174 17.6261 88.1906C17.6261 86.1653 18.0467 84.3425 18.888 82.7222C19.7293 81.1331 20.9757 79.8712 22.6271 78.9364C24.2785 78.0328 26.2727 77.581 28.6096 77.581L43.7529 77.581L43.7529 82.8624L29.4042 82.8624C27.0984 82.8624 25.3224 83.4389 24.076 84.5917C22.8608 85.7446 22.2532 87.3182 22.2532 89.3123C22.2532 91.3065 22.8608 92.88 24.076 94.0329C25.3224 95.217 27.0984 95.809 29.4042 95.809L43.7529 95.809L43.7529 101.137ZM17.5794 119.385C17.5794 117.359 17.9377 115.536 18.6543 113.916C19.4022 112.327 20.3992 111.065 21.6456 110.13C22.9231 109.196 24.3408 108.697 25.8988 108.635L25.8988 114.15C24.8082 114.243 23.889 114.757 23.1412 115.692C22.4246 116.658 22.0662 117.858 22.0662 119.291C22.0662 120.787 22.3467 121.94 22.9075 122.75C23.4996 123.591 24.2474 124.012 25.151 124.012C26.1169 124.012 26.8336 123.544 27.301 122.609C27.7683 121.706 28.2825 120.257 28.8433 118.263C29.373 116.331 29.8871 114.757 30.3857 113.542C30.8842 112.327 31.6476 111.268 32.6759 110.364C33.7041 109.492 35.0595 109.055 36.7421 109.055C38.1131 109.055 39.3595 109.46 40.4812 110.271C41.6341 111.081 42.5377 112.234 43.192 113.729C43.8464 115.256 44.1735 117.001 44.1735 118.964C44.1735 121.893 43.4257 124.245 41.9301 126.021C40.4656 127.829 38.4559 128.795 35.9008 128.919L35.9008 123.591C37.0537 123.497 37.9729 123.03 38.6584 122.189C39.3439 121.348 39.6866 120.21 39.6866 118.777C39.6866 117.375 39.4218 116.3 38.8921 115.552C38.3624 114.804 37.6613 114.43 36.7889 114.43C36.1034 114.43 35.5269 114.68 35.0595 115.178C34.5921 115.677 34.2182 116.284 33.9378 117.001C33.6885 117.718 33.3614 118.777 32.9563 120.179C32.4578 122.049 31.9436 123.575 31.4139 124.759C30.9154 125.975 30.1676 127.018 29.1705 127.891C28.1734 128.763 26.8491 129.215 25.1977 129.246C23.7332 129.246 22.4246 128.841 21.2717 128.031C20.1188 127.221 19.2152 126.068 18.5609 124.572C17.9065 123.108 17.5794 121.379 17.5794 119.385ZM47.1648 139.584C47.1648 138.618 47.492 137.808 48.1463 137.154C48.8006 136.499 49.6108 136.172 50.5767 136.172C51.5426 136.172 52.3528 136.499 53.0071 137.154C53.6614 137.808 53.9886 138.618 53.9886 139.584C53.9886 140.519 53.6614 141.313 53.0071 141.968C52.3528 142.622 51.5426 142.949 50.5767 142.949C49.6108 142.949 48.8006 142.622 48.1463 141.968C47.492 141.313 47.1648 140.519 47.1648 139.584ZM43.7529 142.201L18 142.201L18 136.873L43.7529 136.873L43.7529 142.201ZM44.1735 164.06C44.1735 166.085 43.7529 167.892 42.9116 169.481C42.0703 171.101 40.8239 172.363 39.1725 173.267C37.5211 174.171 35.5269 174.622 33.19 174.622L18 174.622L18 169.341L32.3954 169.341C34.7012 169.341 36.4617 168.765 37.6769 167.612C38.9232 166.459 39.5464 164.885 39.5464 162.891C39.5464 160.897 38.9232 159.308 37.6769 158.124C36.4617 156.971 34.7012 156.394 32.3954 156.394L18 156.394L18 151.066L43.7529 151.066L43.7529 156.394L40.8084 156.394C41.8678 157.267 42.6935 158.373 43.2855 159.713C43.8775 161.084 44.1735 162.533 44.1735 164.06ZM31.5074 206.891C30.5415 206.891 29.669 206.829 28.8901 206.704L28.8901 187.027C26.8336 187.183 25.1821 187.947 23.9358 189.318C22.6894 190.689 22.0662 192.371 22.0662 194.365C22.0662 197.232 23.2659 199.257 25.6651 200.441L25.6651 206.19C23.297 205.411 21.3496 203.994 19.8228 201.937C18.3272 199.912 17.5793 197.388 17.5793 194.365C17.5793 191.904 18.1246 189.692 19.2152 187.729C20.3369 185.797 21.8949 184.27 23.889 183.148C25.9144 182.058 28.2513 181.512 30.8998 181.512C33.5483 181.512 35.8697 182.042 37.8638 183.101C39.8892 184.192 41.4471 185.703 42.5377 187.635C43.6282 189.598 44.1735 191.842 44.1735 194.365C44.1735 196.796 43.6438 198.961 42.5844 200.862C41.525 202.763 40.0294 204.243 38.0975 205.302C36.1968 206.362 34.0001 206.891 31.5074 206.891ZM33.19 201.329C35.153 201.298 36.7265 200.597 37.9106 199.226C39.0946 197.855 39.6866 196.157 39.6866 194.132C39.6866 192.293 39.0946 190.72 37.9106 189.411C36.7577 188.102 35.1842 187.323 33.19 187.074L33.19 201.329ZM17.5793 223.352C17.5793 221.327 17.9377 219.504 18.6543 217.884C19.4021 216.295 20.3992 215.033 21.6456 214.098C22.9231 213.163 24.3408 212.664 25.8988 212.602L25.8988 218.117C24.8082 218.211 23.889 218.725 23.1412 219.66C22.4246 220.626 22.0662 221.825 22.0662 223.259C22.0662 224.754 22.3467 225.907 22.9075 226.717C23.4996 227.558 24.2474 227.979 25.151 227.979C26.1169 227.979 26.8336 227.512 27.3009 226.577C27.7683 225.673 28.2825 224.224 28.8433 222.23C29.373 220.298 29.8871 218.725 30.3857 217.51C30.8842 216.295 31.6476 215.235 32.6759 214.331C33.7041 213.459 35.0595 213.023 36.7421 213.023C38.1131 213.023 39.3595 213.428 40.4812 214.238C41.6341 215.048 42.5377 216.201 43.192 217.697C43.8464 219.223 44.1735 220.968 44.1735 222.931C44.1735 225.86 43.4257 228.213 41.9301 229.989C40.4656 231.796 38.4559 232.762 35.9008 232.887L35.9008 227.558C37.0537 227.465 37.9729 226.998 38.6584 226.156C39.3439 225.315 39.6866 224.178 39.6866 222.744C39.6866 221.342 39.4218 220.267 38.8921 219.519C38.3624 218.772 37.6613 218.398 36.7889 218.398C36.1034 218.398 35.5269 218.647 35.0595 219.146C34.5921 219.644 34.2182 220.252 33.9378 220.968C33.6885 221.685 33.3614 222.744 32.9563 224.147C32.4578 226.016 31.9436 227.543 31.4139 228.727C30.9154 229.942 30.1676 230.986 29.1705 231.858C28.1734 232.731 26.8491 233.183 25.1977 233.214C23.7332 233.214 22.4246 232.809 21.2717 231.999C20.1188 231.189 19.2152 230.036 18.5609 228.54C17.9065 227.076 17.5793 225.346 17.5793 223.352ZM17.5793 250.188C17.5793 248.163 17.9377 246.34 18.6543 244.72C19.4021 243.131 20.3992 241.869 21.6456 240.934C22.9231 239.999 24.3408 239.501 25.8988 239.438L25.8988 244.954C24.8082 245.047 23.889 245.561 23.1412 246.496C22.4246 247.462 22.0662 248.662 22.0662 250.095C22.0662 251.59 22.3467 252.743 22.9075 253.553C23.4995 254.395 24.2474 254.815 25.151 254.815C26.1169 254.815 26.8336 254.348 27.3009 253.413C27.7683 252.51 28.2825 251.061 28.8433 249.067C29.373 247.135 29.8871 245.561 30.3857 244.346C30.8842 243.131 31.6476 242.071 32.6759 241.168C33.7041 240.295 35.0595 239.859 36.7421 239.859C38.1131 239.859 39.3595 240.264 40.4812 241.074C41.6341 241.884 42.5377 243.037 43.192 244.533C43.8464 246.06 44.1735 247.805 44.1735 249.768C44.1735 252.697 43.4257 255.049 41.9301 256.825C40.4656 258.632 38.4559 259.598 35.9008 259.723L35.9008 254.395C37.0537 254.301 37.9729 253.834 38.6584 252.993C39.3439 252.151 39.6866 251.014 39.6866 249.581C39.6866 248.179 39.4218 247.104 38.8921 246.356C38.3624 245.608 37.6613 245.234 36.7889 245.234C36.1034 245.234 35.5269 245.483 35.0595 245.982C34.5921 246.48 34.2182 247.088 33.9378 247.805C33.6885 248.521 33.3614 249.581 32.9563 250.983C32.4578 252.852 31.9436 254.379 31.4139 255.563C30.9154 256.778 30.1676 257.822 29.1705 258.695C28.1734 259.567 26.8491 260.019 25.1977 260.05C23.7332 260.05 22.4246 259.645 21.2717 258.835C20.1188 258.025 19.2152 256.872 18.5609 255.376C17.9065 253.912 17.5793 252.182 17.5793 250.188Z" fill="white"/>
<path d="M43.1953 327.347L43.2384 321.873L52.7753 321.948L52.5774 347.081L46.449 347.033L46.6038 327.374L43.1953 327.347ZM64.3749 339.806C64.7049 341.622 65.7536 342.537 67.5209 342.551C68.7374 342.56 69.6024 342.028 70.1159 340.953C70.6293 339.878 70.8956 338.124 70.9148 335.691C70.4042 336.399 69.7113 336.944 68.836 337.328C67.9608 337.711 66.9837 337.898 65.905 337.89C64.436 337.878 63.13 337.57 61.9871 336.964C60.8443 336.335 59.9448 335.421 59.2886 334.222C58.6555 333.001 58.3457 331.529 58.3593 329.808C58.3727 328.109 58.7286 326.632 59.4271 325.375C60.1486 324.118 61.1547 323.15 62.4455 322.472C63.7592 321.793 65.2998 321.461 67.0671 321.475C70.4641 321.502 72.8314 322.577 74.169 324.699C75.5066 326.821 76.1592 329.937 76.1269 334.045C76.1034 337.029 75.8085 339.494 75.2423 341.441C74.6992 343.365 73.781 344.827 72.4877 345.826C71.2173 346.826 69.4804 347.318 67.277 347.3C65.5326 347.287 64.0433 346.931 62.8093 346.232C61.5982 345.534 60.6643 344.62 60.0076 343.49C59.3737 342.36 59.0163 341.118 58.9351 339.763L64.3749 339.806ZM67.2843 333.252C68.2483 333.26 69.0195 332.979 69.5978 332.41C70.1763 331.818 70.4696 331.017 70.4775 330.007C70.4862 328.905 70.1945 328.053 69.6024 327.452C69.0103 326.85 68.2094 326.546 67.1994 326.538C66.1895 326.53 65.3837 326.833 64.7821 327.448C64.2036 328.041 63.9101 328.865 63.9018 329.92C63.8941 330.907 64.1746 331.713 64.7436 332.337C65.3357 332.939 66.1826 333.244 67.2843 333.252ZM86.934 339.983C87.264 341.799 88.3127 342.714 90.0801 342.728C91.2965 342.738 92.1615 342.205 92.675 341.13C93.1884 340.056 93.4547 338.302 93.4739 335.869C92.9633 336.576 92.2704 337.122 91.3951 337.505C90.5199 337.888 89.5428 338.076 88.4641 338.067C86.9951 338.056 85.6891 337.747 84.5462 337.141C83.4034 336.513 82.5039 335.599 81.8477 334.4C81.2146 333.178 80.9048 331.707 80.9184 329.986C80.9318 328.287 81.2877 326.809 81.9862 325.552C82.7077 324.296 83.7138 323.328 85.0046 322.649C86.3183 321.971 87.8589 321.639 89.6262 321.653C93.0232 321.68 95.3905 322.754 96.7281 324.876C98.0657 326.999 98.7183 330.114 98.686 334.223C98.6625 337.207 98.3676 339.672 97.8014 341.618C97.2583 343.542 96.3401 345.004 95.0468 346.004C93.7764 347.004 92.0395 347.495 89.8361 347.478C88.0917 347.464 86.6024 347.108 85.3684 346.41C84.1573 345.712 83.2234 344.798 82.5667 343.668C81.9328 342.538 81.5754 341.296 81.4942 339.941L86.934 339.983ZM89.8434 333.43C90.8074 333.438 91.5786 333.157 92.1569 332.587C92.7354 331.995 93.0287 331.194 93.0366 330.184C93.0453 329.082 92.7536 328.231 92.1615 327.629C91.5695 327.028 90.7685 326.723 89.7585 326.715C88.7486 326.707 87.9428 327.011 87.3412 327.626C86.7627 328.218 86.4693 329.042 86.4609 330.098C86.4532 331.085 86.7337 331.891 87.3027 332.515C87.8948 333.116 88.7417 333.421 89.8434 333.43ZM122.023 340.604C122.013 341.867 121.671 343.034 120.996 344.108C120.345 345.159 119.375 346.023 118.084 346.702C116.816 347.358 115.31 347.713 113.565 347.768L113.543 350.557L111.34 350.539L111.362 347.716C108.93 347.491 106.974 346.752 105.491 345.501C104.009 344.227 103.231 342.511 103.156 340.352L109.422 340.402C109.549 341.78 110.208 342.669 111.398 343.068L111.441 337.629C109.654 337.155 108.223 336.697 107.148 336.252C106.096 335.808 105.172 335.1 104.376 334.13C103.58 333.159 103.189 331.837 103.202 330.161C103.219 328.072 104.001 326.403 105.548 325.153C107.119 323.902 109.122 323.207 111.556 323.065L111.578 320.276L113.781 320.294L113.759 323.082C116.168 323.285 118.067 324 119.458 325.228C120.849 326.455 121.616 328.148 121.759 330.307L115.459 330.257C115.331 329.017 114.752 328.209 113.722 327.834L113.68 333.17C115.581 333.713 117.046 334.195 118.076 334.616C119.105 335.038 120.018 335.734 120.814 336.704C121.633 337.651 122.036 338.952 122.023 340.604ZM109.436 329.935C109.431 330.508 109.6 330.992 109.941 331.385C110.305 331.778 110.819 332.126 111.482 332.43L111.52 327.644C110.876 327.754 110.369 328.002 109.999 328.39C109.629 328.754 109.441 329.269 109.436 329.935ZM113.601 343.189C114.29 343.08 114.832 342.808 115.226 342.375C115.642 341.943 115.853 341.405 115.858 340.762C115.863 340.165 115.672 339.682 115.284 339.312C114.92 338.918 114.372 338.581 113.639 338.3L113.601 343.189ZM132.276 333.606L128.165 350.452L125.716 350.433L129.827 333.587L132.276 333.606ZM144.465 339.432C145.494 339.44 146.308 339.758 146.907 340.387C147.515 341.015 147.815 341.883 147.807 342.992L147.768 347.831L145.245 347.811L145.28 343.313C145.285 342.779 145.144 342.367 144.86 342.078C144.585 341.779 144.2 341.627 143.705 341.623C143.21 341.619 142.818 341.765 142.529 342.059C142.25 342.344 142.108 342.754 142.104 343.288L142.068 347.786L139.545 347.766L139.58 343.268C139.584 342.734 139.444 342.322 139.159 342.033C138.885 341.734 138.5 341.582 138.005 341.578C137.51 341.574 137.118 341.72 136.829 342.014C136.549 342.299 136.408 342.709 136.404 343.243L136.368 347.741L133.83 347.721L133.895 339.438L136.433 339.458L136.425 340.497C136.685 340.153 137.024 339.883 137.441 339.689C137.858 339.484 138.329 339.384 138.854 339.388C139.477 339.393 140.03 339.531 140.513 339.802C141.006 340.073 141.389 340.457 141.662 340.954C141.952 340.501 142.346 340.133 142.843 339.85C143.34 339.567 143.881 339.427 144.465 339.432Z" fill="white"/>
</g>
<defs>
<clipPath id="clip0_887_4565">
<rect width="156" height="370.618" fill="white"/>
</clipPath>
</defs>
</svg>
