<svg width="26" height="22" viewBox="0 0 26 22" fill="none" xmlns="http://www.w3.org/2000/svg">
<g clip-path="url(#clip0_887_4637)">
<path d="M10.3536 10.6272C10.156 10.4633 9.88793 10.3712 9.60845 10.3712C9.32898 10.3712 9.06095 10.4633 8.86333 10.6272C8.66571 10.7911 8.55469 11.0134 8.55469 11.2452C8.55469 11.477 8.66571 11.6993 8.86333 11.8633L12.0117 14.4747C12.1098 14.5554 12.2261 14.6192 12.354 14.6626C12.4818 14.7059 12.6187 14.7278 12.7569 14.7272C12.9005 14.7234 13.0417 14.6952 13.1717 14.6443C13.3017 14.5933 13.4177 14.5208 13.5125 14.4312L20.8588 7.46731C21.0284 7.29262 21.1102 7.07037 21.0871 6.84689C21.064 6.62342 20.9378 6.41596 20.7348 6.26778C20.5317 6.1196 20.2676 6.04214 19.9974 6.05155C19.7273 6.06095 19.4719 6.1565 19.2846 6.31826L12.7569 12.5858L10.3536 10.6272Z" fill="#FE396A"/>
<path d="M22.2018 10.3774C21.9235 10.3774 21.6565 10.4691 21.4597 10.6323C21.2629 10.7956 21.1523 11.017 21.1523 11.2478C21.1523 13.0948 20.2678 14.8661 18.6933 16.1721C17.1188 17.478 14.9833 18.2117 12.7566 18.2117C11.0985 18.2111 9.4778 17.8033 8.09879 17.0397C6.71979 16.276 5.64425 15.1908 5.00781 13.9209C4.37137 12.651 4.20251 11.2531 4.52254 9.90371C4.84257 8.55428 5.63716 7.31366 6.8061 6.33829C7.58344 5.68489 8.5101 5.16665 9.53184 4.81391C10.5536 4.46116 11.6499 4.28099 12.7566 4.28394C13.4277 4.28743 14.0963 4.35164 14.7506 4.47545C14.8875 4.51058 15.0316 4.52207 15.1741 4.50922C15.3166 4.49638 15.4544 4.45946 15.579 4.40074C15.7037 4.34203 15.8125 4.26277 15.8987 4.16784C15.985 4.07291 16.0469 3.96433 16.0807 3.8488C16.1144 3.73326 16.1193 3.61322 16.0949 3.49606C16.0706 3.37891 16.0176 3.26713 15.9392 3.16762C15.8608 3.06811 15.7586 2.98297 15.6391 2.91746C15.5195 2.85195 15.385 2.80745 15.2438 2.78671C14.4286 2.62762 13.5941 2.54585 12.7566 2.54297C10.6832 2.5519 8.65945 3.07007 6.94074 4.03207C5.22203 4.99407 3.88539 6.3568 3.09949 7.94828C2.3136 9.53977 2.11366 11.2887 2.52493 12.9743C2.93619 14.66 3.94021 16.2068 5.4103 17.4196C7.35884 19.0366 10.0003 19.9474 12.7566 19.9527C15.54 19.9527 18.2093 19.0356 20.1775 17.4031C22.1456 15.7706 23.2513 13.5565 23.2513 11.2478C23.2513 11.017 23.1407 10.7956 22.9439 10.6323C22.7471 10.4691 22.4802 10.3774 22.2018 10.3774Z" fill="#FE396A"/>
</g>
<defs>
<clipPath id="clip0_887_4637">
<rect width="25.1873" height="20.8917" fill="white" transform="translate(0.164062 0.800781)"/>
</clipPath>
</defs>
</svg>
