<svg width="889" height="1130" viewBox="0 0 889 1130" fill="none" xmlns="http://www.w3.org/2000/svg">
<mask id="mask0_963_3326" style="mask-type:alpha" maskUnits="userSpaceOnUse" x="0" y="0" width="889" height="1130">
<rect width="888.165" height="1129.84" fill="#D9D9D9"/>
</mask>
<g mask="url(#mask0_963_3326)">
<rect width="863.997" height="1119.77" fill="#076976"/>
<path d="M318.796 4.5L319.032 93.6221C319.032 108.527 331.112 120.609 346.013 120.609H536.567C551.468 120.609 563.548 132.691 563.548 147.596V338.191C563.548 353.095 575.628 365.178 590.529 365.178H781.083C795.985 365.178 808.064 377.26 808.064 392.165V582.76C808.064 597.664 820.144 609.747 835.045 609.747H862.5M74.5156 4.5V93.6221C74.5156 108.527 86.5955 120.609 101.497 120.609H292.051C306.952 120.609 319.032 132.691 319.032 147.596V338.191C319.032 353.095 331.112 365.178 346.013 365.178H536.567C551.468 365.178 563.548 377.26 563.548 392.165V582.76C563.548 597.664 551.468 609.747 536.567 609.747H346.013C331.112 609.747 319.032 597.664 319.032 582.76V388.792L318.796 387.198C316.985 374.974 306.612 365.847 294.26 365.61L271.815 365.178H101.497C86.5955 365.178 74.5156 377.26 74.5156 392.165V582.76C74.5156 597.664 86.5955 609.747 101.497 609.747H293.737L300.142 610.174C310.772 610.883 319.032 619.714 319.032 630.369V651.071M319.032 629.987V827.329C319.032 842.233 331.112 854.316 346.013 854.316H536.567C551.468 854.316 563.548 866.398 563.548 881.303V1071.9C563.548 1086.8 575.628 1098.88 590.529 1098.88H781.083C795.985 1098.88 808.064 1110.97 808.064 1125.87" stroke="white" stroke-opacity="0.14" stroke-width="4.02796"/>
<path d="M301.613 586.057C301.613 584.701 302.108 583.581 303.098 582.695C304.088 581.757 305.339 581.288 306.851 581.288H328.585C332.337 581.288 335.647 582.043 338.514 583.555C341.432 585.014 343.674 587.125 345.237 589.887C346.853 592.598 347.661 595.751 347.661 599.347C347.661 602.996 346.879 606.201 345.315 608.963C343.752 611.674 341.537 613.784 338.67 615.296C335.803 616.755 332.442 617.485 328.585 617.485H312.089V628.977C312.089 631.479 311.177 633.408 309.352 634.763C307.58 636.066 305 636.717 301.613 636.717V586.057ZM328.585 608.416C331.347 608.416 333.484 607.608 334.996 605.992C336.507 604.377 337.263 602.136 337.263 599.269C337.263 596.454 336.481 594.265 334.917 592.702C333.406 591.138 331.295 590.356 328.585 590.356H312.089V608.416H328.585ZM374.802 636.717C370.528 636.717 366.619 635.883 363.074 634.216C359.53 632.496 356.716 630.176 354.631 627.257C352.598 624.339 351.582 621.159 351.582 617.72V599.504C351.582 596.064 352.598 592.91 354.631 590.044C356.716 587.125 359.53 584.832 363.074 583.164C366.619 581.444 370.528 580.584 374.802 580.584C379.075 580.584 382.984 581.444 386.529 583.164C390.125 584.832 392.939 587.125 394.972 590.044C397.057 592.91 398.099 596.064 398.099 599.504V617.72C398.099 621.159 397.057 624.339 394.972 627.257C392.939 630.176 390.125 632.496 386.529 634.216C382.984 635.883 379.075 636.717 374.802 636.717ZM374.802 627.57C378.711 627.57 381.838 626.658 384.183 624.834C386.529 622.958 387.701 620.534 387.701 617.563V599.738C387.701 596.715 386.529 594.292 384.183 592.467C381.838 590.591 378.711 589.653 374.802 589.653C370.945 589.653 367.843 590.591 365.498 592.467C363.153 594.292 361.98 596.715 361.98 599.738V617.563C361.98 620.534 363.153 622.958 365.498 624.834C367.843 626.658 370.945 627.57 374.802 627.57ZM405.675 586.057C405.675 584.701 406.17 583.581 407.16 582.695C408.15 581.757 409.401 581.288 410.913 581.288H432.647C436.4 581.288 439.709 582.043 442.576 583.555C445.495 585.014 447.736 587.125 449.299 589.887C450.915 592.598 451.723 595.751 451.723 599.347C451.723 602.996 450.941 606.201 449.377 608.963C447.814 611.674 445.599 613.784 442.732 615.296C439.866 616.755 436.504 617.485 432.647 617.485H416.151V628.977C416.151 631.479 415.239 633.408 413.415 634.763C411.642 636.066 409.063 636.717 405.675 636.717V586.057ZM432.647 608.416C435.409 608.416 437.546 607.608 439.058 605.992C440.569 604.377 441.325 602.136 441.325 599.269C441.325 596.454 440.543 594.265 438.98 592.702C437.468 591.138 435.357 590.356 432.647 590.356H416.151V608.416H432.647ZM481.943 636.717C477.565 636.717 473.604 635.831 470.06 634.059C466.568 632.287 463.831 629.837 461.851 626.71C459.87 623.583 458.88 620.039 458.88 616.078V588.324C458.88 585.822 459.766 583.92 461.538 582.617C463.31 581.261 465.916 580.584 469.356 580.584V616.078C469.356 619.57 470.503 622.358 472.796 624.443C475.089 626.528 478.138 627.57 481.943 627.57C485.748 627.57 488.797 626.528 491.09 624.443C493.384 622.358 494.53 619.57 494.53 616.078V588.324C494.53 585.77 495.416 583.841 497.188 582.538C498.96 581.235 501.566 580.584 505.006 580.584V616.078C505.006 620.039 504.016 623.583 502.035 626.71C500.055 629.837 497.293 632.287 493.748 634.059C490.256 635.831 486.321 636.717 481.943 636.717ZM519.256 636.014C517.744 636.014 516.441 635.466 515.347 634.372C514.304 633.277 513.783 631.974 513.783 630.463V588.324C513.783 585.718 514.643 583.789 516.363 582.538C518.083 581.235 520.715 580.584 524.259 580.584V626.945H545.368C547.818 626.945 549.668 627.727 550.919 629.29C552.17 630.802 552.795 633.043 552.795 636.014H519.256ZM563.158 636.717C560.917 636.457 559.144 635.675 557.841 634.372C556.591 633.069 555.965 631.427 555.965 629.447C555.965 627.935 556.33 626.371 557.06 624.756L574.963 584.024C575.953 581.731 577.673 580.584 580.123 580.584C582.52 580.584 584.214 581.731 585.205 584.024L603.108 624.756C603.838 626.476 604.202 628.039 604.202 629.447C604.202 631.427 603.551 633.069 602.248 634.372C600.997 635.675 599.225 636.457 596.932 636.717L590.364 621.863H569.803L563.158 636.717ZM587.159 612.951L578.559 591.529L577.621 591.92L579.497 596.767L572.93 612.951H587.159Z" fill="white"/>
<path fill-rule="evenodd" clip-rule="evenodd" d="M538.15 547.969C538.15 547.969 538.15 471.185 538.15 439.339C533.447 373.846 478.484 369.934 468.765 385.837C450.327 416.007 403.972 379.795 398.404 445.022C398.404 478.792 432.1 507.533 432.1 487.797C432.1 468.062 432.1 406.715 432.1 406.715C432.1 397.198 427.629 368.059 449.754 369.675C470.115 371.162 501.745 396.12 503.685 406.715C505.625 417.311 503.685 469.928 503.685 469.928C503.685 476.034 494.567 498.841 461.393 494.531V504.408V511.95C459.841 520.391 449.839 524.701 439.666 524.701C423.176 524.701 341.906 504.408 341.906 432.062C341.906 383.001 389.498 352.087 465.079 344.76H467.407C496.313 343.383 551.673 326.481 562.181 396.56C569.192 443.318 565.366 547.969 538.15 547.969ZM459.647 409.708C465.265 399.652 480.599 409.589 480.599 417.311C480.599 425.033 480.599 464.9 480.599 464.9C479.176 467.474 474.818 472.335 468.765 471.185C462.712 470.036 460.164 465.798 459.647 463.822V409.708Z" fill="white"/>
</g>
</svg>
