<svg width="39" height="39" viewBox="0 0 39 39" fill="none" xmlns="http://www.w3.org/2000/svg">
<path d="M5.52832 35.8199H34.1483M9.66232 14.1641H7.11832C6.24382 14.1641 5.52832 14.8796 5.52832 15.7541V29.4599C5.52832 30.3344 6.24382 31.0499 7.11832 31.0499H9.66232C10.5368 31.0499 11.2523 30.3344 11.2523 29.4599V15.7541C11.2523 14.8796 10.5368 14.1641 9.66232 14.1641ZM21.1103 9.09201H18.5663C17.6918 9.09201 16.9763 9.80751 16.9763 10.682V29.4599C16.9763 30.3344 17.6918 31.0499 18.5663 31.0499H21.1103C21.9848 31.0499 22.7003 30.3344 22.7003 29.4599V10.682C22.7003 9.80751 21.9848 9.09201 21.1103 9.09201ZM32.5583 4.01991H30.0143C29.1398 4.01991 28.4243 4.73541 28.4243 5.60991V29.4599C28.4243 30.3344 29.1398 31.0499 30.0143 31.0499H32.5583C33.4328 31.0499 34.1483 30.3344 34.1483 29.4599V5.60991C34.1483 4.73541 33.4328 4.01991 32.5583 4.01991Z" stroke="#C0C2C9" stroke-width="1.59" stroke-linecap="round" stroke-linejoin="round"/>
</svg>
