<svg width="1600" height="1225" viewBox="0 0 1600 1225" fill="none" xmlns="http://www.w3.org/2000/svg">
<path d="M1600 271L0 271L5.24537e-06 211L1600 0L1600 271Z" fill="#5D0089"/>
<path d="M1600 1225L-0.000244141 1225L8.71605e-05 227.998L1600 16.9984L1600 1225Z" fill="#72388D"/>
<path d="M255.36 1088.44C255.36 1087.75 255.613 1087.17 256.12 1086.72C256.627 1086.24 257.267 1086 258.04 1086H269.16C271.08 1086 272.773 1086.39 274.24 1087.16C275.733 1087.91 276.88 1088.99 277.68 1090.4C278.507 1091.79 278.92 1093.4 278.92 1095.24C278.92 1097.11 278.52 1098.75 277.72 1100.16C276.92 1101.55 275.787 1102.63 274.32 1103.4C272.853 1104.15 271.133 1104.52 269.16 1104.52H260.72V1110.4C260.72 1111.68 260.253 1112.67 259.32 1113.36C258.413 1114.03 257.093 1114.36 255.36 1114.36V1088.44ZM269.16 1099.88C270.573 1099.88 271.667 1099.47 272.44 1098.64C273.213 1097.81 273.6 1096.67 273.6 1095.2C273.6 1093.76 273.2 1092.64 272.4 1091.84C271.627 1091.04 270.547 1090.64 269.16 1090.64H260.72V1099.88H269.16ZM292.806 1114.36C290.62 1114.36 288.62 1113.93 286.806 1113.08C284.993 1112.2 283.553 1111.01 282.486 1109.52C281.446 1108.03 280.926 1106.4 280.926 1104.64V1095.32C280.926 1093.56 281.446 1091.95 282.486 1090.48C283.553 1088.99 284.993 1087.81 286.806 1086.96C288.62 1086.08 290.62 1085.64 292.806 1085.64C294.993 1085.64 296.993 1086.08 298.806 1086.96C300.646 1087.81 302.086 1088.99 303.126 1090.48C304.193 1091.95 304.726 1093.56 304.726 1095.32V1104.64C304.726 1106.4 304.193 1108.03 303.126 1109.52C302.086 1111.01 300.646 1112.2 298.806 1113.08C296.993 1113.93 294.993 1114.36 292.806 1114.36ZM292.806 1109.68C294.806 1109.68 296.406 1109.21 297.606 1108.28C298.806 1107.32 299.406 1106.08 299.406 1104.56V1095.44C299.406 1093.89 298.806 1092.65 297.606 1091.72C296.406 1090.76 294.806 1090.28 292.806 1090.28C290.833 1090.28 289.246 1090.76 288.046 1091.72C286.846 1092.65 286.246 1093.89 286.246 1095.44V1104.56C286.246 1106.08 286.846 1107.32 288.046 1108.28C289.246 1109.21 290.833 1109.68 292.806 1109.68ZM308.602 1088.44C308.602 1087.75 308.856 1087.17 309.362 1086.72C309.869 1086.24 310.509 1086 311.282 1086H322.402C324.322 1086 326.016 1086.39 327.482 1087.16C328.976 1087.91 330.122 1088.99 330.922 1090.4C331.749 1091.79 332.162 1093.4 332.162 1095.24C332.162 1097.11 331.762 1098.75 330.962 1100.16C330.162 1101.55 329.029 1102.63 327.562 1103.4C326.096 1104.15 324.376 1104.52 322.402 1104.52H313.962V1110.4C313.962 1111.68 313.496 1112.67 312.562 1113.36C311.656 1114.03 310.336 1114.36 308.602 1114.36V1088.44ZM322.402 1099.88C323.816 1099.88 324.909 1099.47 325.682 1098.64C326.456 1097.81 326.842 1096.67 326.842 1095.2C326.842 1093.76 326.442 1092.64 325.642 1091.84C324.869 1091.04 323.789 1090.64 322.402 1090.64H313.962V1099.88H322.402ZM347.624 1114.36C345.384 1114.36 343.357 1113.91 341.544 1113C339.757 1112.09 338.357 1110.84 337.344 1109.24C336.331 1107.64 335.824 1105.83 335.824 1103.8V1089.6C335.824 1088.32 336.277 1087.35 337.184 1086.68C338.091 1085.99 339.424 1085.64 341.184 1085.64V1103.8C341.184 1105.59 341.771 1107.01 342.944 1108.08C344.117 1109.15 345.677 1109.68 347.624 1109.68C349.571 1109.68 351.131 1109.15 352.304 1108.08C353.477 1107.01 354.064 1105.59 354.064 1103.8V1089.6C354.064 1088.29 354.517 1087.31 355.424 1086.64C356.331 1085.97 357.664 1085.64 359.424 1085.64V1103.8C359.424 1105.83 358.917 1107.64 357.904 1109.24C356.891 1110.84 355.477 1112.09 353.664 1113C351.877 1113.91 349.864 1114.36 347.624 1114.36ZM366.715 1114C365.941 1114 365.275 1113.72 364.715 1113.16C364.181 1112.6 363.915 1111.93 363.915 1111.16V1089.6C363.915 1088.27 364.355 1087.28 365.235 1086.64C366.115 1085.97 367.461 1085.64 369.275 1085.64V1109.36H380.075C381.328 1109.36 382.275 1109.76 382.915 1110.56C383.555 1111.33 383.875 1112.48 383.875 1114H366.715ZM389.177 1114.36C388.03 1114.23 387.123 1113.83 386.457 1113.16C385.817 1112.49 385.497 1111.65 385.497 1110.64C385.497 1109.87 385.683 1109.07 386.057 1108.24L395.217 1087.4C395.723 1086.23 396.603 1085.64 397.857 1085.64C399.083 1085.64 399.95 1086.23 400.457 1087.4L409.617 1108.24C409.99 1109.12 410.177 1109.92 410.177 1110.64C410.177 1111.65 409.843 1112.49 409.177 1113.16C408.537 1113.83 407.63 1114.23 406.457 1114.36L403.097 1106.76H392.577L389.177 1114.36ZM401.457 1102.2L397.057 1091.24L396.577 1091.44L397.537 1093.92L394.177 1102.2H401.457Z" fill="white"/>
<path fill-rule="evenodd" clip-rule="evenodd" d="M230.145 1125.52C230.145 1125.52 230.145 1107.06 230.145 1099.4C229.015 1083.66 215.811 1082.72 213.476 1086.54C209.047 1093.79 197.91 1085.09 196.573 1100.77C196.573 1108.89 204.668 1115.8 204.668 1111.05C204.668 1106.31 204.668 1091.56 204.668 1091.56C204.668 1089.27 203.594 1082.26 208.909 1082.65C213.8 1083.01 221.399 1089.01 221.865 1091.56C222.331 1094.11 221.865 1106.76 221.865 1106.76C221.865 1108.22 219.675 1113.71 211.705 1112.67V1115.04V1116.86C211.332 1118.89 208.929 1119.92 206.485 1119.92C202.524 1119.92 183 1115.04 183 1097.65C183 1085.86 194.433 1078.42 212.591 1076.66H213.15C220.094 1076.33 233.394 1072.27 235.918 1089.12C237.602 1100.36 236.683 1125.52 230.145 1125.52ZM211.286 1092.28C212.635 1089.86 216.319 1092.25 216.319 1094.11C216.319 1095.96 216.319 1105.55 216.319 1105.55C215.977 1106.16 214.93 1107.33 213.476 1107.06C212.022 1106.78 211.41 1105.76 211.286 1105.29V1092.28Z" fill="white"/>
</svg>
