<svg width="16" height="18" viewBox="0 0 16 18" fill="none" xmlns="http://www.w3.org/2000/svg">
<path d="M13.9961 2.25024H13.2461V1.50024C13.2461 1.08774 12.9086 0.750244 12.4961 0.750244C12.0836 0.750244 11.7461 1.08774 11.7461 1.50024V2.25024H4.24609V1.50024C4.24609 1.08774 3.90859 0.750244 3.49609 0.750244C3.08359 0.750244 2.74609 1.08774 2.74609 1.50024V2.25024H1.99609C1.17109 2.25024 0.496094 2.92524 0.496094 3.75024V15.7502C0.496094 16.5752 1.17109 17.2502 1.99609 17.2502H13.9961C14.8211 17.2502 15.4961 16.5752 15.4961 15.7502V3.75024C15.4961 2.92524 14.8211 2.25024 13.9961 2.25024ZM13.2461 15.7502H2.74609C2.33359 15.7502 1.99609 15.4127 1.99609 15.0002V6.00024H13.9961V15.0002C13.9961 15.4127 13.6586 15.7502 13.2461 15.7502Z" fill="#A3AED0"/>
</svg>
