<svg width="60" height="60" viewBox="0 0 60 60" fill="none" xmlns="http://www.w3.org/2000/svg">
<path d="M33 41H27C26.448 41 26 41.448 26 42C26 42.5519 26.448 42.9999 27 42.9999H33C33.5519 42.9999 33.9999 42.5519 33.9999 42C33.9999 41.448 33.5519 41 33 41Z" fill="#270139"/>
<path d="M55.999 1H4.00102C1.79496 1 0 2.79508 0 5.00102V38C0 38.5519 0.448008 38.9999 0.999961 38.9999H58.9999C59.5519 38.9999 59.9999 38.5519 59.9999 38V5.00102C60 2.79508 58.205 1 55.999 1ZM58 37H2.00004V5.00102C2.00004 3.89699 2.89805 3.00004 4.00102 3.00004H55.999C57.102 3.00004 58 3.89699 58 5.00102V37Z" fill="#270139"/>
<path d="M59 36.9999H0.999961C0.448008 36.9999 0 37.448 0 38V42.9989C0 45.2049 1.79496 46.9999 4.00102 46.9999H55.999C58.205 46.9999 60 45.2049 60 42.9989L59.9999 38C59.9999 37.448 59.552 36.9999 59 36.9999ZM58 42.999C58 44.103 57.102 45 55.999 45H4.00102C2.89805 45 2.00004 44.103 2.00004 42.999V39H58.0001L58 42.999Z" fill="#270139"/>
<path d="M54.9999 5.00005H5.00001C4.44806 5.00005 4.00005 5.44806 4.00005 6.00001V38C4.00005 38.552 4.44806 39 5.00001 39H55C55.552 39 56 38.552 56 38V6.00001C56 5.44806 55.552 5.00005 54.9999 5.00005ZM54 37H5.99997V6.99997H54V37Z" fill="#270139"/>
<path d="M42.9999 53.0001H17C15.346 53.0001 14 54.3461 14 56.0001C14 57.6541 15.346 59.0001 17 59.0001H43C44.654 59.0001 46 57.6541 46 56.0001C46 54.3461 44.6539 53.0001 42.9999 53.0001ZM42.9999 57H17C16.4481 57 16 56.5511 16 56.0001C16 55.4491 16.4481 55.0001 17 55.0001H43C43.552 55.0001 44 55.4491 44 56.0001C44 56.5511 43.552 57 42.9999 57Z" fill="#270139"/>
<path d="M41 53.0001C37.6819 53.0001 35.9999 50.6451 35.9999 46.0001C35.9999 45.4482 35.5519 45.0001 35 45.0001H25C24.4481 45.0001 24 45.4482 24 46.0001C24 50.6451 22.3181 53.0001 19 53.0001C18.4481 53.0001 18 53.4481 18 54C18 54.552 18.4481 55 19 55H41C41.5519 55 41.9999 54.552 41.9999 54C41.9999 53.4481 41.5519 53.0001 41 53.0001ZM23.8709 53.0001C25.102 51.6361 25.8269 49.605 25.9729 47.0001H34.0279C34.1729 49.605 34.8979 51.6361 36.1299 53.0001H23.8709Z" fill="#270139"/>
<path d="M47.7832 30.4637L45.3693 28.0498L46.7123 26.7068C46.9613 26.4578 47.0612 26.0958 46.9752 25.7548C46.8892 25.4137 46.6302 25.1437 46.2932 25.0418L36.2932 22.0418C35.9403 21.9357 35.5593 22.0328 35.2993 22.2928C35.0383 22.5528 34.9423 22.9348 35.0482 23.2868L38.0482 33.2868C38.1493 33.6247 38.4202 33.8837 38.7612 33.9697C39.1012 34.0537 39.4642 33.9557 39.7132 33.7068L41.1272 32.2917L43.5412 34.7067C43.7282 34.8947 43.9832 34.9997 44.2482 34.9997C44.5131 34.9997 44.7681 34.8947 44.9551 34.7067L47.7831 31.8777C48.1742 31.4868 48.1742 30.8548 47.7832 30.4637ZM44.2482 32.5857L42.0502 30.3867C41.7952 30.1317 41.4612 30.0047 41.1272 30.0047C40.7922 30.0047 40.4582 30.1327 40.2043 30.3857L39.4823 31.1077L37.4972 24.4907L44.1142 26.4757L43.3402 27.2497C43.1271 27.4637 43.0102 27.7478 43.0102 28.0498C43.0102 28.3528 43.1282 28.6387 43.3422 28.8507L45.6621 31.1707L44.2482 32.5857Z" fill="#270139"/>
<path d="M41.9999 9H14C13.448 9 13 9.44801 13 9.99996V15C13 15.552 13.448 16 14 16H41.9999C42.5519 16 42.9999 15.552 42.9999 15V9.99996C42.9999 9.44801 42.5519 9 41.9999 9ZM41 14H14.9999V11H41V14Z" fill="#270139"/>
<path d="M26.0001 20.0001H18.0001C17.4481 20.0001 17.0001 20.4481 17.0001 21.0001V25C17.0001 25.552 17.4481 26 18.0001 26H26.0001C26.5521 26 27.0001 25.552 27.0001 25V21.0001C27.0001 20.4481 26.5521 20.0001 26.0001 20.0001ZM25.0001 24.0001H19.0001V22H25.0001V24.0001Z" fill="#270139"/>
<path d="M41.9999 9H14C13.448 9 13 9.44801 13 9.99996V28.9999C13 29.5519 13.448 29.9999 14 29.9999H37.806C38.123 29.9999 38.42 29.8509 38.608 29.5969C38.7971 29.3429 38.8551 29.0149 38.764 28.7119L37.498 24.4909L41.713 25.7559C42.0161 25.847 42.3441 25.789 42.597 25.6C42.8509 25.412 43 25.114 43 24.7979L42.9999 9.99996C42.9999 9.44801 42.5519 9 41.9999 9ZM41 23.454L36.2929 22.042C35.9399 21.936 35.5589 22.033 35.2989 22.293C35.0379 22.554 34.942 22.935 35.0479 23.2881L36.4619 28.0001H14.9999V11H41V23.454Z" fill="#270139"/>
</svg>
