<svg width="28" height="28" viewBox="0 0 28 28" fill="none" xmlns="http://www.w3.org/2000/svg">
<path fill-rule="evenodd" clip-rule="evenodd" d="M12.1865 0.860433C13.3025 0.758966 14.407 1.11996 15.2455 1.85133L15.4495 2.04183L26.1171 12.7095C27.6508 14.2431 27.7122 16.6916 26.3011 18.2985L26.1171 18.4948L18.4031 26.2088C16.8695 27.7424 14.421 27.8037 12.8141 26.3928L12.6178 26.2088L1.95017 15.5412C1.15772 14.7487 0.727967 13.6691 0.752987 12.5567L0.76877 12.278L1.4116 5.207C1.58294 3.32223 3.02117 1.81261 4.87169 1.53273L5.11533 1.50326L12.1865 0.860433ZM8.75947 8.8525C7.69441 9.91757 7.69441 11.6443 8.75947 12.7095C9.82454 13.7745 11.5514 13.7745 12.6164 12.7095C13.6815 11.6443 13.6815 9.91757 12.6164 8.8525C11.5514 7.78743 9.82454 7.78743 8.75947 8.8525Z" fill="#956AFF"/>
</svg>
