<svg width="26" height="25" viewBox="0 0 26 25" fill="none" xmlns="http://www.w3.org/2000/svg">
<path fill-rule="evenodd" clip-rule="evenodd" d="M22.7264 4.07534V5.45453C24.2327 5.45453 25.4537 6.67557 25.4537 8.1818V21.8182C25.4537 23.3245 24.2327 24.5455 22.7264 24.5455H3.63548C2.12924 24.5455 0.908203 23.3245 0.908203 21.8182V8.1818C0.908203 6.7574 2.04661 5.46431 3.38075 5.08313L18.3807 0.797413C20.5585 0.175186 22.7264 1.8104 22.7264 4.07534ZM17.9537 12.9545C16.824 12.9545 15.9082 13.8704 15.9082 15C15.9082 16.1296 16.824 17.0455 17.9537 17.0455C19.0833 17.0455 19.9991 16.1296 19.9991 15C19.9991 13.8704 19.0833 12.9545 17.9537 12.9545ZM19.9991 4.07534C19.9991 3.6601 19.6347 3.35069 19.2385 3.39786L19.1299 3.41975L12.0083 5.45453H19.9991V4.07534Z" fill="#FDAD15"/>
</svg>
