<svg width="39" height="39" viewBox="0 0 39 39" fill="none" xmlns="http://www.w3.org/2000/svg">
<path d="M27.7417 23.5195C29.92 23.8852 32.3209 23.5036 34.0063 22.3747C36.2482 20.8801 36.2482 18.4315 34.0063 16.9369C32.305 15.808 29.8723 15.4264 27.694 15.808M11.8894 23.5195C9.71108 23.8852 7.31018 23.5036 5.62478 22.3747C3.38288 20.8801 3.38288 18.4315 5.62478 16.9369C7.32608 15.808 9.75878 15.4264 11.9371 15.808M29.3794 11.9443C29.2793 11.9284 29.1774 11.9284 29.0773 11.9443C28.0162 11.9059 27.0115 11.4565 26.2757 10.691C25.5399 9.9255 25.1305 8.9039 25.1341 7.8421C25.1341 5.5684 26.9626 3.7399 29.2363 3.7399C30.3243 3.7399 31.3677 4.17209 32.137 4.94141C32.9063 5.71072 33.3385 6.75413 33.3385 7.8421C33.3356 8.90465 32.9219 9.92493 32.184 10.6895C31.4461 11.454 30.4412 11.9037 29.3794 11.9443ZM10.2517 11.9443C10.3471 11.9284 10.4584 11.9284 10.5538 11.9443C11.6149 11.9059 12.6195 11.4565 13.3554 10.691C14.0912 9.9255 14.5006 8.9039 14.497 7.8421C14.497 5.5684 12.6685 3.7399 10.3948 3.7399C9.30681 3.7399 8.2634 4.17209 7.49409 4.94141C6.72478 5.71072 6.29258 6.75413 6.29258 7.8421C6.30848 10.0681 8.05748 11.8648 10.2517 11.9443ZM19.8394 23.8216C19.7393 23.8057 19.6374 23.8057 19.5373 23.8216C18.4762 23.7832 17.4715 23.3338 16.7357 22.5683C15.9999 21.8028 15.5905 20.7812 15.5941 19.7194C15.5941 17.4457 17.4226 15.6172 19.6963 15.6172C20.7843 15.6172 21.8277 16.0494 22.597 16.8187C23.3663 17.588 23.7985 18.6314 23.7985 19.7194C23.7826 21.9454 22.0336 23.758 19.8394 23.8216ZM15.2125 28.8301C12.9706 30.3247 12.9706 32.7733 15.2125 34.2679C17.7565 35.9692 21.9223 35.9692 24.4663 34.2679C26.7082 32.7733 26.7082 30.3247 24.4663 28.8301C21.9382 27.1447 17.7565 27.1447 15.2125 28.8301Z" stroke="#C0C2C9" stroke-width="1.59" stroke-linecap="round" stroke-linejoin="round"/>
</svg>
