<svg width="610" height="412" viewBox="0 0 610 412" fill="none" xmlns="http://www.w3.org/2000/svg">
<g filter="url(#filter0_d_165_1609)">
<g filter="url(#filter1_d_165_1609)">
<rect x="8.5" y="7" width="589" height="390.611" rx="16" fill="white"/>
</g>
<path d="M40.3164 53V41.625H42.7305V51.1641H47.6758V53H40.3164ZM48.5373 49.0234V48.7734C48.5373 47.5078 48.9202 46.4922 49.6858 45.7266C50.4514 44.9557 51.4306 44.5703 52.6233 44.5703C53.8264 44.5703 54.7691 44.9323 55.4514 45.6562C56.1337 46.375 56.4748 47.3698 56.4748 48.6406V49.4688H50.1155V48.0234H54.1702V47.8516C54.1702 47.4036 54.0347 47.026 53.7639 46.7188C53.4983 46.4062 53.1181 46.25 52.6233 46.25C52.0504 46.25 51.6129 46.4661 51.3108 46.8984C51.0139 47.3255 50.8655 47.9062 50.8655 48.6406V49.1406C50.8655 49.8698 51.0269 50.4479 51.3498 50.875C51.6728 51.2969 52.1467 51.5078 52.7717 51.5078C53.2092 51.5078 53.5868 51.401 53.9045 51.1875C54.2222 50.974 54.4801 50.7266 54.678 50.4453L56.3342 51.4922C56.0738 51.9974 55.6337 52.4141 55.0139 52.7422C54.3941 53.0703 53.6597 53.2344 52.8108 53.2344C51.4827 53.2344 50.4384 52.8516 49.678 52.0859C48.9176 51.3151 48.5373 50.2943 48.5373 49.0234ZM57.5317 50.5938C57.5317 49.6771 57.8833 48.9922 58.5864 48.5391C59.2895 48.0807 60.1776 47.849 61.2505 47.8438H62.852V47.3828C62.852 47.013 62.7583 46.7161 62.5708 46.4922C62.3833 46.263 62.0526 46.1484 61.5786 46.1484C61.0994 46.1484 60.7609 46.2422 60.563 46.4297C60.3651 46.6172 60.2661 46.849 60.2661 47.125V47.2422H57.9692V47.125C57.9692 46.3854 58.313 45.776 59.0005 45.2969C59.688 44.8177 60.5786 44.5781 61.6723 44.5781C62.7765 44.5781 63.6385 44.8073 64.2583 45.2656C64.8781 45.724 65.188 46.4349 65.188 47.3984V51.1641C65.188 51.4922 65.2192 51.8073 65.2817 52.1094C65.3442 52.4115 65.4249 52.6667 65.5239 52.875V53H63.227C63.1645 52.8802 63.1098 52.724 63.063 52.5312C63.0161 52.3333 62.9822 52.1432 62.9614 51.9609C62.8052 52.2682 62.5005 52.5443 62.0473 52.7891C61.5994 53.0286 61.0395 53.1484 60.3677 53.1484C59.5604 53.1484 58.8859 52.9375 58.3442 52.5156C57.8026 52.0885 57.5317 51.4479 57.5317 50.5938ZM59.8755 50.3828C59.8755 50.7422 59.9796 51.0312 60.188 51.25C60.3963 51.4688 60.7244 51.5781 61.1723 51.5781C61.6567 51.5781 62.0578 51.4245 62.3755 51.1172C62.6932 50.8099 62.852 50.4453 62.852 50.0234V49.2422H61.5942C61.0109 49.2422 60.5786 49.3411 60.2973 49.5391C60.0161 49.737 59.8755 50.0182 59.8755 50.3828ZM66.7917 49.0312V48.7812C66.7917 47.5573 67.1198 46.5625 67.7761 45.7969C68.4376 45.0312 69.2969 44.6484 70.3542 44.6484C70.8698 44.6484 71.3152 44.7422 71.6902 44.9297C72.0704 45.112 72.362 45.3516 72.5652 45.6484V41.0625H74.8933V53H72.6745L72.6277 52.0469H72.5886C72.4167 52.3646 72.1303 52.6302 71.7292 52.8438C71.3334 53.0521 70.8777 53.1562 70.362 53.1562C69.2527 53.1562 68.3803 52.7734 67.7448 52.0078C67.1094 51.2422 66.7917 50.25 66.7917 49.0312ZM69.1823 49.1328C69.1823 49.8099 69.3282 50.3568 69.6198 50.7734C69.9115 51.1901 70.3464 51.3984 70.9245 51.3984C71.3256 51.3984 71.6641 51.2917 71.9402 51.0781C72.2162 50.8594 72.4219 50.599 72.5573 50.2969V47.5C72.4271 47.1979 72.2266 46.9401 71.9558 46.7266C71.6902 46.513 71.349 46.4062 70.9323 46.4062C70.3594 46.4062 69.9245 46.6172 69.6277 47.0391C69.3308 47.4557 69.1823 48 69.1823 48.6719V49.1328ZM81.007 53V41.625H84.8273C86.3534 41.625 87.6268 42.0938 88.6477 43.0312C89.6737 43.9688 90.1867 45.276 90.1867 46.9531V47.6641C90.1867 49.3464 89.6737 50.6562 88.6477 51.5938C87.6268 52.5312 86.3534 53 84.8273 53H81.007ZM83.4055 51.2109H84.7805C85.6607 51.2109 86.3716 50.9193 86.9133 50.3359C87.4549 49.7474 87.7258 48.8776 87.7258 47.7266V46.8984C87.7258 45.7474 87.4549 44.8828 86.9133 44.3047C86.3716 43.7214 85.6607 43.4297 84.7805 43.4297H83.4055V51.2109ZM91.5092 49.0234V48.7734C91.5092 47.5078 91.892 46.4922 92.6577 45.7266C93.4233 44.9557 94.4024 44.5703 95.5952 44.5703C96.7983 44.5703 97.741 44.9323 98.4233 45.6562C99.1056 46.375 99.4467 47.3698 99.4467 48.6406V49.4688H93.0873V48.0234H97.142V47.8516C97.142 47.4036 97.0066 47.026 96.7358 46.7188C96.4702 46.4062 96.0899 46.25 95.5952 46.25C95.0222 46.25 94.5847 46.4661 94.2827 46.8984C93.9858 47.3255 93.8373 47.9062 93.8373 48.6406V49.1406C93.8373 49.8698 93.9988 50.4479 94.3217 50.875C94.6446 51.2969 95.1186 51.5078 95.7436 51.5078C96.1811 51.5078 96.5587 51.401 96.8764 51.1875C97.1941 50.974 97.4519 50.7266 97.6498 50.4453L99.3061 51.4922C99.0457 51.9974 98.6056 52.4141 97.9858 52.7422C97.366 53.0703 96.6316 53.2344 95.7827 53.2344C94.4545 53.2344 93.4103 52.8516 92.6498 52.0859C91.8894 51.3151 91.5092 50.2943 91.5092 49.0234ZM99.9255 46.5078V44.8047H105.004V46.5078H99.9255ZM101.144 50.5547V45.6641L101.152 45.4375V42.8438H103.472V50.4766C103.472 50.8568 103.54 51.1198 103.675 51.2656C103.816 51.4062 104.011 51.4766 104.261 51.4766C104.381 51.4766 104.501 51.4635 104.621 51.4375C104.741 51.4062 104.858 51.3672 104.972 51.3203V52.9922C104.847 53.0547 104.673 53.1094 104.449 53.1562C104.225 53.2031 103.98 53.2266 103.715 53.2266C102.938 53.2266 102.316 53.013 101.847 52.5859C101.379 52.1536 101.144 51.4766 101.144 50.5547ZM105.92 50.5938C105.92 49.6771 106.271 48.9922 106.975 48.5391C107.678 48.0807 108.566 47.849 109.639 47.8438H111.24V47.3828C111.24 47.013 111.146 46.7161 110.959 46.4922C110.771 46.263 110.441 46.1484 109.967 46.1484C109.488 46.1484 109.149 46.2422 108.951 46.4297C108.753 46.6172 108.654 46.849 108.654 47.125V47.2422H106.357V47.125C106.357 46.3854 106.701 45.776 107.389 45.2969C108.076 44.8177 108.967 44.5781 110.06 44.5781C111.165 44.5781 112.027 44.8073 112.646 45.2656C113.266 45.724 113.576 46.4349 113.576 47.3984V51.1641C113.576 51.4922 113.607 51.8073 113.67 52.1094C113.732 52.4115 113.813 52.6667 113.912 52.875V53H111.615C111.553 52.8802 111.498 52.724 111.451 52.5312C111.404 52.3333 111.37 52.1432 111.35 51.9609C111.193 52.2682 110.889 52.5443 110.435 52.7891C109.988 53.0286 109.428 53.1484 108.756 53.1484C107.948 53.1484 107.274 52.9375 106.732 52.5156C106.191 52.0885 105.92 51.4479 105.92 50.5938ZM108.264 50.3828C108.264 50.7422 108.368 51.0312 108.576 51.25C108.784 51.4688 109.113 51.5781 109.56 51.5781C110.045 51.5781 110.446 51.4245 110.764 51.1172C111.081 50.8099 111.24 50.4453 111.24 50.0234V49.2422H109.982C109.399 49.2422 108.967 49.3411 108.685 49.5391C108.404 49.737 108.264 50.0182 108.264 50.3828ZM115.649 53V44.8047H118V53H115.649ZM115.453 42.5078C115.453 42.1589 115.57 41.8646 115.805 41.625C116.044 41.3802 116.386 41.2578 116.828 41.2578C117.266 41.2578 117.602 41.3776 117.836 41.6172C118.076 41.8568 118.195 42.1536 118.195 42.5078C118.195 42.8672 118.076 43.1693 117.836 43.4141C117.602 43.6536 117.263 43.7734 116.82 43.7734C116.383 43.7734 116.044 43.6536 115.805 43.4141C115.57 43.1693 115.453 42.8672 115.453 42.5078ZM120.041 53V41.0625H122.385V53H120.041ZM123.911 50.4141L126.192 50.4219V50.5469C126.192 50.9323 126.32 51.2135 126.575 51.3906C126.835 51.5625 127.187 51.6484 127.63 51.6484C128.077 51.6484 128.416 51.5651 128.645 51.3984C128.874 51.2318 128.989 51.0078 128.989 50.7266C128.989 50.4453 128.869 50.237 128.63 50.1016C128.39 49.9661 127.822 49.8073 126.926 49.625C125.963 49.4271 125.26 49.1224 124.817 48.7109C124.374 48.2995 124.153 47.7656 124.153 47.1094C124.153 46.3229 124.468 45.7031 125.098 45.25C125.728 44.7969 126.577 44.5703 127.645 44.5703C128.713 44.5703 129.567 44.8073 130.208 45.2812C130.848 45.75 131.169 46.3906 131.169 47.2031V47.2969H128.895V47.1719C128.895 46.8542 128.791 46.6068 128.583 46.4297C128.38 46.2526 128.064 46.1641 127.637 46.1641C127.215 46.1641 126.908 46.237 126.715 46.3828C126.528 46.5234 126.434 46.7135 126.434 46.9531C126.434 47.1927 126.557 47.3828 126.801 47.5234C127.046 47.6641 127.619 47.8255 128.52 48.0078C129.478 48.2005 130.182 48.4974 130.63 48.8984C131.083 49.2995 131.309 49.8516 131.309 50.5547C131.309 51.3932 130.997 52.0495 130.372 52.5234C129.752 52.9974 128.843 53.2344 127.645 53.2344C126.458 53.2344 125.538 52.9974 124.887 52.5234C124.236 52.0495 123.911 51.375 123.911 50.5V50.4141Z" fill="#414D55"/>
<path opacity="0.5" d="M44.4769 222.227V396.974" stroke="url(#paint0_linear_165_1609)" stroke-width="2" stroke-linecap="round"/>
<path opacity="0.5" d="M105.125 237.646V395.946" stroke="url(#paint1_linear_165_1609)" stroke-width="2" stroke-linecap="round"/>
<path opacity="0.5" d="M75.3147 202.696V395.945" stroke="url(#paint2_linear_165_1609)" stroke-width="2" stroke-linecap="round"/>
<path opacity="0.5" d="M135.963 217.49V395.361" stroke="url(#paint3_linear_165_1609)" stroke-width="2" stroke-linecap="round"/>
<path opacity="0.5" d="M165.772 246.896V395.945" stroke="url(#paint4_linear_165_1609)" stroke-width="2" stroke-linecap="round"/>
<path opacity="0.5" d="M196.61 267.455V395.945" stroke="url(#paint5_linear_165_1609)" stroke-width="2" stroke-linecap="round"/>
<path opacity="0.5" d="M227.448 241.41V395.946" stroke="url(#paint6_linear_165_1609)" stroke-width="2" stroke-linecap="round"/>
<path opacity="0.5" d="M257.258 277.271V395.946" stroke="url(#paint7_linear_165_1609)" stroke-width="2" stroke-linecap="round"/>
<path opacity="0.5" d="M288.096 261.925V395.945" stroke="url(#paint8_linear_165_1609)" stroke-width="2" stroke-linecap="round"/>
<path opacity="0.5" d="M317.905 232.506V395.946" stroke="url(#paint9_linear_165_1609)" stroke-width="2" stroke-linecap="round"/>
<path opacity="0.5" d="M348.742 202.696V395.945" stroke="url(#paint10_linear_165_1609)" stroke-width="2" stroke-linecap="round"/>
<path opacity="0.5" d="M378.553 193.029V395.945" stroke="url(#paint11_linear_165_1609)" stroke-width="2" stroke-linecap="round"/>
<path fill-rule="evenodd" clip-rule="evenodd" d="M75.3154 182.775C78.1539 182.775 80.455 180.474 80.455 177.635C80.455 174.797 78.1539 172.496 75.3154 172.496C72.4769 172.496 70.1758 174.797 70.1758 177.635C70.1758 180.474 72.4769 182.775 75.3154 182.775Z" fill="#956AAA"/>
<path fill-rule="evenodd" clip-rule="evenodd" d="M44.4775 203.333C47.316 203.333 49.6171 201.032 49.6171 198.194C49.6171 195.355 47.316 193.054 44.4775 193.054C41.639 193.054 39.3379 195.355 39.3379 198.194C39.3379 201.032 41.639 203.333 44.4775 203.333Z" fill="#956AAA"/>
<path fill-rule="evenodd" clip-rule="evenodd" d="M105.124 215.668C107.963 215.668 110.264 213.367 110.264 210.529C110.264 207.69 107.963 205.389 105.124 205.389C102.285 205.389 99.9844 207.69 99.9844 210.529C99.9844 213.367 102.285 215.668 105.124 215.668Z" fill="#956AAA"/>
<path fill-rule="evenodd" clip-rule="evenodd" d="M135.962 198.194C138.8 198.194 141.101 195.893 141.101 193.054C141.101 190.216 138.8 187.915 135.962 187.915C133.123 187.915 130.822 190.216 130.822 193.054C130.822 195.893 133.123 198.194 135.962 198.194Z" fill="#956AAA"/>
<path fill-rule="evenodd" clip-rule="evenodd" d="M165.772 229.031C168.611 229.031 170.912 226.73 170.912 223.892C170.912 221.053 168.611 218.752 165.772 218.752C162.934 218.752 160.633 221.053 160.633 223.892C160.633 226.73 162.934 229.031 165.772 229.031Z" fill="#956AAA"/>
<path fill-rule="evenodd" clip-rule="evenodd" d="M196.61 249.59C199.449 249.59 201.75 247.289 201.75 244.45C201.75 241.612 199.449 239.311 196.61 239.311C193.772 239.311 191.471 241.612 191.471 244.45C191.471 247.289 193.772 249.59 196.61 249.59Z" fill="#956AAA"/>
<path fill-rule="evenodd" clip-rule="evenodd" d="M227.448 221.836C230.287 221.836 232.588 219.535 232.588 216.696C232.588 213.858 230.287 211.557 227.448 211.557C224.61 211.557 222.309 213.858 222.309 216.696C222.309 219.535 224.61 221.836 227.448 221.836Z" fill="#956AAA"/>
<path fill-rule="evenodd" clip-rule="evenodd" d="M288.095 285.567C290.933 285.567 293.234 283.266 293.234 280.428C293.234 277.589 290.933 275.288 288.095 275.288C285.256 275.288 282.955 277.589 282.955 280.428C282.955 283.266 285.256 285.567 288.095 285.567Z" fill="#956AAA"/>
<path fill-rule="evenodd" clip-rule="evenodd" d="M257.257 259.869C260.095 259.869 262.396 257.568 262.396 254.729C262.396 251.891 260.095 249.59 257.257 249.59C254.418 249.59 252.117 251.891 252.117 254.729C252.117 257.568 254.418 259.869 257.257 259.869Z" fill="#956AAA"/>
<path fill-rule="evenodd" clip-rule="evenodd" d="M317.905 213.613C320.744 213.613 323.045 211.312 323.045 208.473C323.045 205.635 320.744 203.333 317.905 203.333C315.067 203.333 312.766 205.635 312.766 208.473C312.766 211.312 315.067 213.613 317.905 213.613Z" fill="#956AAA"/>
<path fill-rule="evenodd" clip-rule="evenodd" d="M348.743 182.775C351.582 182.775 353.883 180.474 353.883 177.635C353.883 174.797 351.582 172.496 348.743 172.496C345.905 172.496 343.604 174.797 343.604 177.635C343.604 180.474 345.905 182.775 348.743 182.775Z" fill="#956AAA"/>
<path fill-rule="evenodd" clip-rule="evenodd" d="M378.552 172.496C381.39 172.496 383.691 170.194 383.691 167.356C383.691 164.517 381.39 162.216 378.552 162.216C375.713 162.216 373.412 164.517 373.412 167.356C373.412 170.194 375.713 172.496 378.552 172.496Z" fill="#956AAA"/>
<path opacity="0.5" d="M409.391 222.227V395.946" stroke="url(#paint12_linear_165_1609)" stroke-width="2" stroke-linecap="round"/>
<path opacity="0.5" d="M470.037 237.646V395.946" stroke="url(#paint13_linear_165_1609)" stroke-width="2" stroke-linecap="round"/>
<path opacity="0.5" d="M440.227 202.696V395.945" stroke="url(#paint14_linear_165_1609)" stroke-width="2" stroke-linecap="round"/>
<path opacity="0.5" d="M500.875 217.49V395.946" stroke="url(#paint15_linear_165_1609)" stroke-width="2" stroke-linecap="round"/>
<path opacity="0.5" d="M530.686 246.896V395.945" stroke="url(#paint16_linear_165_1609)" stroke-width="2" stroke-linecap="round"/>
<path opacity="0.5" d="M561.522 267.455V395.945" stroke="url(#paint17_linear_165_1609)" stroke-width="2" stroke-linecap="round"/>
<path fill-rule="evenodd" clip-rule="evenodd" d="M440.228 182.775C443.066 182.775 445.367 180.474 445.367 177.635C445.367 174.797 443.066 172.496 440.228 172.496C437.389 172.496 435.088 174.797 435.088 177.635C435.088 180.474 437.389 182.775 440.228 182.775Z" fill="#956AAA"/>
<path fill-rule="evenodd" clip-rule="evenodd" d="M409.39 203.333C412.228 203.333 414.529 201.032 414.529 198.194C414.529 195.355 412.228 193.054 409.39 193.054C406.551 193.054 404.25 195.355 404.25 198.194C404.25 201.032 406.551 203.333 409.39 203.333Z" fill="#956AAA"/>
<path fill-rule="evenodd" clip-rule="evenodd" d="M470.038 215.668C472.877 215.668 475.178 213.367 475.178 210.529C475.178 207.69 472.877 205.389 470.038 205.389C467.2 205.389 464.898 207.69 464.898 210.529C464.898 213.367 467.2 215.668 470.038 215.668Z" fill="#956AAA"/>
<path fill-rule="evenodd" clip-rule="evenodd" d="M500.876 198.194C503.714 198.194 506.016 195.893 506.016 193.054C506.016 190.216 503.714 187.915 500.876 187.915C498.037 187.915 495.736 190.216 495.736 193.054C495.736 195.893 498.037 198.194 500.876 198.194Z" fill="#956AAA"/>
<path fill-rule="evenodd" clip-rule="evenodd" d="M530.685 229.031C533.523 229.031 535.824 226.73 535.824 223.892C535.824 221.053 533.523 218.752 530.685 218.752C527.846 218.752 525.545 221.053 525.545 223.892C525.545 226.73 527.846 229.031 530.685 229.031Z" fill="#956AAA"/>
<path fill-rule="evenodd" clip-rule="evenodd" d="M561.522 249.59C564.361 249.59 566.662 247.289 566.662 244.45C566.662 241.612 564.361 239.311 561.522 239.311C558.684 239.311 556.383 241.612 556.383 244.45C556.383 247.289 558.684 249.59 561.522 249.59Z" fill="#956AAA"/>
<path fill-rule="evenodd" clip-rule="evenodd" d="M75.3154 254.729C78.1539 254.729 80.455 252.428 80.455 249.59C80.455 246.751 78.1539 244.45 75.3154 244.45C72.4769 244.45 70.1758 246.751 70.1758 249.59C70.1758 252.428 72.4769 254.729 75.3154 254.729Z" fill="#172755"/>
<path fill-rule="evenodd" clip-rule="evenodd" d="M44.4775 275.288C47.316 275.288 49.6171 272.987 49.6171 270.148C49.6171 267.31 47.316 265.009 44.4775 265.009C41.639 265.009 39.3379 267.31 39.3379 270.148C39.3379 272.987 41.639 275.288 44.4775 275.288Z" fill="#172755"/>
<path fill-rule="evenodd" clip-rule="evenodd" d="M105.124 246.506C107.963 246.506 110.264 244.205 110.264 241.367C110.264 238.528 107.963 236.227 105.124 236.227C102.285 236.227 99.9844 238.528 99.9844 241.367C99.9844 244.205 102.285 246.506 105.124 246.506Z" fill="#172755"/>
<path fill-rule="evenodd" clip-rule="evenodd" d="M135.962 249.59C138.8 249.59 141.101 247.289 141.101 244.45C141.101 241.612 138.8 239.311 135.962 239.311C133.123 239.311 130.822 241.612 130.822 244.45C130.822 247.289 133.123 249.59 135.962 249.59Z" fill="#172755"/>
<path fill-rule="evenodd" clip-rule="evenodd" d="M165.772 270.148C168.611 270.148 170.912 267.847 170.912 265.009C170.912 262.17 168.611 259.869 165.772 259.869C162.934 259.869 160.633 262.17 160.633 265.009C160.633 267.847 162.934 270.148 165.772 270.148Z" fill="#172755"/>
<path fill-rule="evenodd" clip-rule="evenodd" d="M196.61 311.265C199.449 311.265 201.75 308.964 201.75 306.125C201.75 303.287 199.449 300.986 196.61 300.986C193.772 300.986 191.471 303.287 191.471 306.125C191.471 308.964 193.772 311.265 196.61 311.265Z" fill="#172755"/>
<path fill-rule="evenodd" clip-rule="evenodd" d="M227.448 273.232C230.287 273.232 232.588 270.931 232.588 268.093C232.588 265.254 230.287 262.953 227.448 262.953C224.61 262.953 222.309 265.254 222.309 268.093C222.309 270.931 224.61 273.232 227.448 273.232Z" fill="#172755"/>
<path fill-rule="evenodd" clip-rule="evenodd" d="M288.095 244.45C290.933 244.45 293.234 242.149 293.234 239.311C293.234 236.472 290.933 234.171 288.095 234.171C285.256 234.171 282.955 236.472 282.955 239.311C282.955 242.149 285.256 244.45 288.095 244.45Z" fill="#172755"/>
<path fill-rule="evenodd" clip-rule="evenodd" d="M257.257 311.265C260.095 311.265 262.396 308.964 262.396 306.125C262.396 303.287 260.095 300.986 257.257 300.986C254.418 300.986 252.117 303.287 252.117 306.125C252.117 308.964 254.418 311.265 257.257 311.265Z" fill="#172755"/>
<path fill-rule="evenodd" clip-rule="evenodd" d="M317.905 275.288C320.744 275.288 323.045 272.987 323.045 270.148C323.045 267.31 320.744 265.009 317.905 265.009C315.067 265.009 312.766 267.31 312.766 270.148C312.766 272.987 315.067 275.288 317.905 275.288Z" fill="#172755"/>
<path fill-rule="evenodd" clip-rule="evenodd" d="M348.743 295.847C351.582 295.847 353.883 293.546 353.883 290.707C353.883 287.868 351.582 285.567 348.743 285.567C345.905 285.567 343.604 287.868 343.604 290.707C343.604 293.546 345.905 295.847 348.743 295.847Z" fill="#172755"/>
<path fill-rule="evenodd" clip-rule="evenodd" d="M378.552 244.45C381.39 244.45 383.691 242.149 383.691 239.311C383.691 236.472 381.39 234.171 378.552 234.171C375.713 234.171 373.412 236.472 373.412 239.311C373.412 242.149 375.713 244.45 378.552 244.45Z" fill="#172755"/>
<path fill-rule="evenodd" clip-rule="evenodd" d="M440.228 336.963C443.066 336.963 445.367 334.662 445.367 331.824C445.367 328.985 443.066 326.684 440.228 326.684C437.389 326.684 435.088 328.985 435.088 331.824C435.088 334.662 437.389 336.963 440.228 336.963Z" fill="#172755"/>
<path fill-rule="evenodd" clip-rule="evenodd" d="M409.39 275.288C412.228 275.288 414.529 272.987 414.529 270.148C414.529 267.31 412.228 265.009 409.39 265.009C406.551 265.009 404.25 267.31 404.25 270.148C404.25 272.987 406.551 275.288 409.39 275.288Z" fill="#172755"/>
<path fill-rule="evenodd" clip-rule="evenodd" d="M470.038 318.461C472.877 318.461 475.178 316.16 475.178 313.321C475.178 310.483 472.877 308.182 470.038 308.182C467.2 308.182 464.898 310.483 464.898 313.321C464.898 316.16 467.2 318.461 470.038 318.461Z" fill="#172755"/>
<path fill-rule="evenodd" clip-rule="evenodd" d="M500.876 290.707C503.714 290.707 506.016 288.406 506.016 285.567C506.016 282.729 503.714 280.428 500.876 280.428C498.037 280.428 495.736 282.729 495.736 285.567C495.736 288.406 498.037 290.707 500.876 290.707Z" fill="#172755"/>
<path fill-rule="evenodd" clip-rule="evenodd" d="M530.685 331.824C533.523 331.824 535.824 329.523 535.824 326.684C535.824 323.846 533.523 321.544 530.685 321.544C527.846 321.544 525.545 323.846 525.545 326.684C525.545 329.523 527.846 331.824 530.685 331.824Z" fill="#172755"/>
<path fill-rule="evenodd" clip-rule="evenodd" d="M561.522 372.941C564.361 372.941 566.662 370.64 566.662 367.801C566.662 364.963 564.361 362.662 561.522 362.662C558.684 362.662 556.383 364.963 556.383 367.801C556.383 370.64 558.684 372.941 561.522 372.941Z" fill="#172755"/>
<path d="M54.4643 83.875L47.4363 100.731H42.5363L49.6483 84.407H40.9403V80.319H54.4643V83.875ZM70.7926 84.463H62.0566V88.327C62.43 87.9163 62.9526 87.5803 63.6246 87.319C64.2966 87.0576 65.0246 86.927 65.8086 86.927C67.2086 86.927 68.366 87.2443 69.2806 87.879C70.214 88.5136 70.8953 89.335 71.3246 90.343C71.754 91.351 71.9686 92.443 71.9686 93.619C71.9686 95.803 71.3526 97.539 70.1206 98.827C68.8886 100.096 67.1526 100.731 64.9126 100.731C63.4193 100.731 62.122 100.479 61.0206 99.975C59.9193 99.4523 59.07 98.7336 58.4726 97.819C57.8753 96.9043 57.5486 95.8496 57.4926 94.655H62.1686C62.2806 95.2336 62.5513 95.719 62.9806 96.111C63.41 96.4843 63.998 96.671 64.7446 96.671C65.622 96.671 66.2753 96.391 66.7046 95.831C67.134 95.271 67.3486 94.5243 67.3486 93.591C67.3486 92.6763 67.1246 91.9763 66.6766 91.491C66.2286 91.0056 65.5753 90.763 64.7166 90.763C64.082 90.763 63.5593 90.9216 63.1486 91.239C62.738 91.5376 62.4673 91.939 62.3366 92.443H57.7166V80.263H70.7926V84.463ZM77.3276 100.955C76.4876 100.955 75.7969 100.712 75.2556 100.227C74.7329 99.723 74.4716 99.107 74.4716 98.379C74.4716 97.6323 74.7329 97.007 75.2556 96.503C75.7969 95.999 76.4876 95.747 77.3276 95.747C78.1489 95.747 78.8209 95.999 79.3436 96.503C79.8849 97.007 80.1556 97.6323 80.1556 98.379C80.1556 99.107 79.8849 99.723 79.3436 100.227C78.8209 100.712 78.1489 100.955 77.3276 100.955ZM82.5139 90.231C82.5139 87.0203 83.1299 84.491 84.3619 82.643C85.6126 80.795 87.6192 79.871 90.3819 79.871C93.1446 79.871 95.1419 80.795 96.3739 82.643C97.6246 84.491 98.2499 87.0203 98.2499 90.231C98.2499 93.479 97.6246 96.027 96.3739 97.875C95.1419 99.723 93.1446 100.647 90.3819 100.647C87.6192 100.647 85.6126 99.723 84.3619 97.875C83.1299 96.027 82.5139 93.479 82.5139 90.231ZM93.5459 90.231C93.5459 88.3456 93.3406 86.899 92.9299 85.891C92.5192 84.8643 91.6699 84.351 90.3819 84.351C89.0939 84.351 88.2446 84.8643 87.8339 85.891C87.4232 86.899 87.2179 88.3456 87.2179 90.231C87.2179 91.5003 87.2926 92.555 87.4419 93.395C87.5912 94.2163 87.8899 94.8883 88.3379 95.411C88.8046 95.915 89.4859 96.167 90.3819 96.167C91.2779 96.167 91.9499 95.915 92.3979 95.411C92.8646 94.8883 93.1726 94.2163 93.3219 93.395C93.4712 92.555 93.5459 91.5003 93.5459 90.231ZM104.14 89.755C102.385 88.8216 101.508 87.3563 101.508 85.359C101.508 84.351 101.769 83.4363 102.292 82.615C102.814 81.775 103.608 81.1123 104.672 80.627C105.736 80.123 107.042 79.871 108.592 79.871C110.141 79.871 111.438 80.123 112.484 80.627C113.548 81.1123 114.341 81.775 114.864 82.615C115.386 83.4363 115.648 84.351 115.648 85.359C115.648 86.367 115.405 87.2443 114.92 87.991C114.453 88.7376 113.818 89.3256 113.016 89.755C114.024 90.2403 114.798 90.9123 115.34 91.771C115.881 92.611 116.152 93.6003 116.152 94.739C116.152 96.0643 115.816 97.2123 115.144 98.183C114.472 99.135 113.557 99.863 112.4 100.367C111.261 100.871 109.992 101.123 108.592 101.123C107.192 101.123 105.913 100.871 104.756 100.367C103.617 99.863 102.712 99.135 102.04 98.183C101.368 97.2123 101.032 96.0643 101.032 94.739C101.032 93.5816 101.302 92.583 101.844 91.743C102.385 90.8843 103.15 90.2216 104.14 89.755ZM111 86.087C111 85.3216 110.776 84.7336 110.328 84.323C109.898 83.8936 109.32 83.679 108.592 83.679C107.864 83.679 107.276 83.8936 106.828 84.323C106.398 84.7523 106.184 85.3496 106.184 86.115C106.184 86.843 106.408 87.4216 106.856 87.851C107.304 88.2616 107.882 88.467 108.592 88.467C109.301 88.467 109.88 88.2523 110.328 87.823C110.776 87.3936 111 86.815 111 86.087ZM108.592 91.827C107.714 91.827 107.005 92.0696 106.464 92.555C105.922 93.0216 105.652 93.675 105.652 94.515C105.652 95.299 105.913 95.943 106.436 96.447C106.977 96.951 107.696 97.203 108.592 97.203C109.488 97.203 110.188 96.951 110.692 96.447C111.214 95.943 111.476 95.299 111.476 94.515C111.476 93.6936 111.205 93.0403 110.664 92.555C110.141 92.0696 109.45 91.827 108.592 91.827Z" fill="#72388D"/>
<path d="M39.1289 130L43.4102 118.547H44.7539L49.0352 130H47.5039L44.3945 121.367C44.332 121.19 44.2773 121.023 44.2305 120.867C44.1836 120.706 44.1419 120.536 44.1055 120.359H44.0273C43.9909 120.536 43.9492 120.706 43.9023 120.867C43.8555 121.023 43.8008 121.19 43.7383 121.367L40.5977 130H39.1289ZM40.9648 127.016L41.4102 125.805H46.7305L47.1758 127.016H40.9648ZM49.6914 126.039V125.789C49.6914 124.555 50.0247 123.549 50.6914 122.773C51.3633 121.992 52.2826 121.602 53.4492 121.602C54.5378 121.602 55.3633 121.893 55.9258 122.477C56.4883 123.06 56.7695 123.719 56.7695 124.453V124.492H55.3867V124.453C55.3867 124.005 55.2331 123.612 54.9258 123.273C54.6185 122.935 54.1289 122.766 53.457 122.766C52.6654 122.766 52.082 123.057 51.707 123.641C51.332 124.219 51.1445 124.935 51.1445 125.789V126.039C51.1445 126.888 51.332 127.604 51.707 128.188C52.082 128.771 52.6628 129.062 53.4492 129.062C54.1263 129.062 54.6185 128.893 54.9258 128.555C55.2331 128.216 55.3867 127.823 55.3867 127.375V127.336H56.7695V127.375C56.7695 128.104 56.4883 128.763 55.9258 129.352C55.3633 129.94 54.5378 130.234 53.4492 130.234C52.2826 130.234 51.3633 129.844 50.6914 129.062C50.0247 128.281 49.6914 127.273 49.6914 126.039ZM57.957 126.039V125.789C57.957 124.596 58.2669 123.612 58.8867 122.836C59.5065 122.06 60.3346 121.672 61.3711 121.672C61.944 121.672 62.4414 121.792 62.8633 122.031C63.2904 122.271 63.6081 122.557 63.8164 122.891H63.8633L63.9258 121.828H65.2148V133.258H63.7852V129.031C63.5456 129.37 63.2253 129.643 62.8242 129.852C62.4232 130.055 61.9362 130.156 61.3633 130.156C60.332 130.156 59.5065 129.768 58.8867 128.992C58.2669 128.216 57.957 127.232 57.957 126.039ZM59.4102 126.039C59.4102 126.872 59.5924 127.573 59.957 128.141C60.3216 128.703 60.8945 128.984 61.6758 128.984C62.1966 128.984 62.6393 128.844 63.0039 128.562C63.3685 128.276 63.6289 127.951 63.7852 127.586V124.242C63.6237 123.878 63.3607 123.555 62.9961 123.273C62.6367 122.987 62.1966 122.844 61.6758 122.844C60.8945 122.844 60.3216 123.128 59.957 123.695C59.5924 124.258 59.4102 124.956 59.4102 125.789V126.039ZM67.4336 127.109V121.828H68.8555V127.125C68.8555 127.781 69.0013 128.253 69.293 128.539C69.5898 128.82 70.0091 128.961 70.5508 128.961C71.0143 128.961 71.4206 128.836 71.7695 128.586C72.1237 128.331 72.4023 128.005 72.6055 127.609V121.828H74.0273V130H72.7383L72.6758 128.945H72.6367C72.3398 129.32 71.9779 129.617 71.5508 129.836C71.1237 130.049 70.6497 130.156 70.1289 130.156C69.306 130.156 68.6497 129.922 68.1602 129.453C67.6758 128.984 67.4336 128.203 67.4336 127.109ZM76.3945 130V121.828H77.8164V130H76.3945ZM76.2148 119.336C76.2148 119.091 76.2904 118.888 76.4414 118.727C76.5977 118.56 76.819 118.477 77.1055 118.477C77.3919 118.477 77.6107 118.56 77.7617 118.727C77.918 118.888 77.9961 119.091 77.9961 119.336C77.9961 119.576 77.918 119.779 77.7617 119.945C77.6107 120.107 77.3919 120.188 77.1055 120.188C76.819 120.188 76.5977 120.107 76.4414 119.945C76.2904 119.779 76.2148 119.576 76.2148 119.336ZM79.6602 127.586H81.0898V127.633C81.0898 128.107 81.2617 128.464 81.6055 128.703C81.9544 128.943 82.4154 129.062 82.9883 129.062C83.5612 129.062 84.0117 128.948 84.3398 128.719C84.6732 128.49 84.8398 128.193 84.8398 127.828C84.8398 127.464 84.7044 127.185 84.4336 126.992C84.168 126.794 83.5977 126.591 82.7227 126.383C81.8424 126.174 81.1445 125.883 80.6289 125.508C80.1133 125.133 79.8555 124.609 79.8555 123.938C79.8555 123.266 80.1315 122.708 80.6836 122.266C81.2409 121.823 81.9857 121.602 82.918 121.602C83.8451 121.602 84.5924 121.823 85.1602 122.266C85.7279 122.703 86.0117 123.299 86.0117 124.055V124.102H84.5898V124.031C84.5898 123.635 84.4518 123.326 84.1758 123.102C83.9049 122.878 83.4857 122.766 82.918 122.766C82.3451 122.766 81.9258 122.87 81.6602 123.078C81.3997 123.286 81.2695 123.547 81.2695 123.859C81.2695 124.172 81.418 124.422 81.7148 124.609C82.0169 124.792 82.6081 124.987 83.4883 125.195C84.3685 125.404 85.0456 125.701 85.5195 126.086C85.9987 126.471 86.2383 127.026 86.2383 127.75C86.2383 128.474 85.9674 129.07 85.4258 129.539C84.8841 130.003 84.0716 130.234 82.9883 130.234C81.9049 130.234 81.0794 129.997 80.5117 129.523C79.944 129.049 79.6602 128.419 79.6602 127.633V127.586ZM88.082 130V121.828H89.5039V130H88.082ZM87.9023 119.336C87.9023 119.091 87.9779 118.888 88.1289 118.727C88.2852 118.56 88.5065 118.477 88.793 118.477C89.0794 118.477 89.2982 118.56 89.4492 118.727C89.6055 118.888 89.6836 119.091 89.6836 119.336C89.6836 119.576 89.6055 119.779 89.4492 119.945C89.2982 120.107 89.0794 120.188 88.793 120.188C88.5065 120.188 88.2852 120.107 88.1289 119.945C87.9779 119.779 87.9023 119.576 87.9023 119.336ZM90.7227 122.922V121.828H95.3711V122.922H90.7227ZM92.1836 127.969V122.484V122.258V119.766H93.6055V127.969C93.6055 128.344 93.6784 128.609 93.8242 128.766C93.9753 128.922 94.207 129 94.5195 129C94.6654 129 94.806 128.987 94.9414 128.961C95.082 128.93 95.2253 128.888 95.3711 128.836V130C95.2357 130.062 95.0612 130.117 94.8477 130.164C94.6341 130.211 94.3971 130.234 94.1367 130.234C93.543 130.234 93.069 130.055 92.7148 129.695C92.3607 129.331 92.1836 128.755 92.1836 127.969ZM96.9727 130V121.828H98.3945V130H96.9727ZM96.793 119.336C96.793 119.091 96.8685 118.888 97.0195 118.727C97.1758 118.56 97.3971 118.477 97.6836 118.477C97.9701 118.477 98.1888 118.56 98.3398 118.727C98.4961 118.888 98.5742 119.091 98.5742 119.336C98.5742 119.576 98.4961 119.779 98.3398 119.945C98.1888 120.107 97.9701 120.188 97.6836 120.188C97.3971 120.188 97.1758 120.107 97.0195 119.945C96.8685 119.779 96.793 119.576 96.793 119.336ZM100.27 126.039V125.789C100.27 124.555 100.618 123.549 101.316 122.773C102.014 121.992 102.947 121.602 104.113 121.602C105.28 121.602 106.212 121.992 106.91 122.773C107.608 123.549 107.957 124.555 107.957 125.789V126.039C107.957 127.273 107.608 128.281 106.91 129.062C106.212 129.844 105.28 130.234 104.113 130.234C102.947 130.234 102.014 129.844 101.316 129.062C100.618 128.281 100.27 127.273 100.27 126.039ZM101.723 125.789V126.039C101.723 126.888 101.923 127.604 102.324 128.188C102.725 128.771 103.322 129.062 104.113 129.062C104.905 129.062 105.499 128.771 105.895 128.188C106.296 127.604 106.496 126.888 106.496 126.039V125.789C106.496 124.94 106.296 124.224 105.895 123.641C105.499 123.057 104.905 122.766 104.113 122.766C103.322 122.766 102.725 123.057 102.324 123.641C101.923 124.224 101.723 124.94 101.723 125.789ZM109.762 130V121.828H111.051L111.105 122.883H111.152C111.449 122.508 111.811 122.214 112.238 122C112.665 121.781 113.139 121.672 113.66 121.672C114.483 121.672 115.137 121.906 115.621 122.375C116.111 122.844 116.355 123.625 116.355 124.719V130H114.934V124.711C114.934 124.055 114.785 123.586 114.488 123.305C114.197 123.018 113.78 122.875 113.238 122.875C112.775 122.875 112.366 123 112.012 123.25C111.658 123.5 111.382 123.823 111.184 124.219V130H109.762Z" fill="#727677"/>
<path d="M140.075 77.4124V135.49" stroke="#E4EAF0" stroke-linecap="square"/>
<path d="M163.032 97.091V93.227L171.88 80.571H177.228V92.947H179.524V97.091H177.228V100.731H172.44V97.091H163.032ZM172.776 85.835L168.072 92.947H172.776V85.835ZM196.261 84.463H187.525V88.327C187.899 87.9163 188.421 87.5803 189.093 87.319C189.765 87.0576 190.493 86.927 191.277 86.927C192.677 86.927 193.835 87.2443 194.749 87.879C195.683 88.5136 196.364 89.335 196.793 90.343C197.223 91.351 197.437 92.443 197.437 93.619C197.437 95.803 196.821 97.539 195.589 98.827C194.357 100.096 192.621 100.731 190.381 100.731C188.888 100.731 187.591 100.479 186.489 99.975C185.388 99.4523 184.539 98.7336 183.941 97.819C183.344 96.9043 183.017 95.8496 182.961 94.655H187.637C187.749 95.2336 188.02 95.719 188.449 96.111C188.879 96.4843 189.467 96.671 190.213 96.671C191.091 96.671 191.744 96.391 192.173 95.831C192.603 95.271 192.817 94.5243 192.817 93.591C192.817 92.6763 192.593 91.9763 192.145 91.491C191.697 91.0056 191.044 90.763 190.185 90.763C189.551 90.763 189.028 90.9216 188.617 91.239C188.207 91.5376 187.936 91.939 187.805 92.443H183.185V80.263H196.261V84.463ZM202.796 100.955C201.956 100.955 201.266 100.712 200.724 100.227C200.202 99.723 199.94 99.107 199.94 98.379C199.94 97.6323 200.202 97.007 200.724 96.503C201.266 95.999 201.956 95.747 202.796 95.747C203.618 95.747 204.29 95.999 204.812 96.503C205.354 97.007 205.624 97.6323 205.624 98.379C205.624 99.107 205.354 99.723 204.812 100.227C204.29 100.712 203.618 100.955 202.796 100.955ZM207.815 96.895C208.449 96.391 208.739 96.1576 208.683 96.195C210.512 94.683 211.949 93.4416 212.995 92.471C214.059 91.5003 214.955 90.483 215.683 89.419C216.411 88.355 216.775 87.319 216.775 86.311C216.775 85.5456 216.597 84.9483 216.243 84.519C215.888 84.0896 215.356 83.875 214.647 83.875C213.937 83.875 213.377 84.1456 212.967 84.687C212.575 85.2096 212.379 85.9563 212.379 86.927H207.759C207.796 85.3403 208.132 84.015 208.767 82.951C209.42 81.887 210.269 81.103 211.315 80.599C212.379 80.095 213.555 79.843 214.843 79.843C217.064 79.843 218.735 80.4123 219.855 81.551C220.993 82.6896 221.563 84.1736 221.563 86.003C221.563 88.0003 220.881 89.8576 219.519 91.575C218.156 93.2736 216.42 94.935 214.311 96.559H221.871V100.451H207.815V96.895ZM237.027 83.875L229.999 100.731H225.099L232.211 84.407H223.503V80.319H237.027V83.875Z" fill="#172755"/>
<path d="M161.336 126.822V126.713H162.805V126.822C162.805 127.52 163.036 128.044 163.5 128.393C163.964 128.736 164.609 128.908 165.438 128.908C166.271 128.908 166.906 128.731 167.344 128.377C167.786 128.018 168.008 127.549 168.008 126.971C168.008 126.445 167.794 126.025 167.367 125.713C166.945 125.395 166.141 125.064 164.953 124.721C163.729 124.361 162.859 123.942 162.344 123.463C161.828 122.984 161.57 122.299 161.57 121.408C161.57 120.528 161.904 119.794 162.57 119.205C163.242 118.617 164.174 118.322 165.367 118.322C166.549 118.322 167.492 118.632 168.195 119.252C168.898 119.867 169.25 120.653 169.25 121.611V121.721H167.781V121.611C167.781 121.002 167.578 120.512 167.172 120.143C166.766 119.768 166.164 119.58 165.367 119.58C164.565 119.58 163.974 119.742 163.594 120.064C163.214 120.382 163.023 120.817 163.023 121.369C163.023 121.869 163.219 122.265 163.609 122.557C164 122.843 164.799 123.161 166.008 123.51C167.216 123.854 168.094 124.283 168.641 124.799C169.193 125.314 169.469 126.038 169.469 126.971C169.469 127.903 169.107 128.669 168.383 129.268C167.659 129.867 166.677 130.166 165.438 130.166C164.198 130.166 163.203 129.869 162.453 129.275C161.708 128.676 161.336 127.859 161.336 126.822ZM170.797 127.525C170.797 126.702 171.122 126.059 171.773 125.596C172.43 125.132 173.266 124.9 174.281 124.9H176.141V124.33C176.141 123.835 176.013 123.434 175.758 123.127C175.503 122.82 175.062 122.666 174.438 122.666C173.812 122.666 173.365 122.796 173.094 123.057C172.828 123.312 172.695 123.609 172.695 123.947V123.994H171.273V123.947C171.273 123.301 171.56 122.739 172.133 122.26C172.711 121.775 173.492 121.533 174.477 121.533C175.456 121.533 176.214 121.768 176.75 122.236C177.292 122.7 177.562 123.398 177.562 124.33V128.057C177.562 128.395 177.589 128.715 177.641 129.018C177.693 129.314 177.766 129.577 177.859 129.807V129.932H176.484C176.411 129.801 176.344 129.632 176.281 129.424C176.224 129.215 176.188 129.007 176.172 128.799C175.979 129.137 175.667 129.437 175.234 129.697C174.807 129.958 174.258 130.088 173.586 130.088C172.805 130.088 172.143 129.869 171.602 129.432C171.065 128.989 170.797 128.354 170.797 127.525ZM172.219 127.455C172.219 127.924 172.354 128.291 172.625 128.557C172.896 128.817 173.318 128.947 173.891 128.947C174.464 128.947 174.982 128.749 175.445 128.354C175.909 127.958 176.141 127.538 176.141 127.096V125.924H174.438C173.708 125.924 173.156 126.062 172.781 126.338C172.406 126.614 172.219 126.986 172.219 127.455ZM179.867 129.932V117.963H181.297V129.932H179.867ZM183.164 125.971V125.721C183.164 124.486 183.5 123.481 184.172 122.705C184.849 121.924 185.742 121.533 186.852 121.533C187.961 121.533 188.815 121.898 189.414 122.627C190.013 123.351 190.312 124.335 190.312 125.58V126.166H184.031V125.025H188.875V124.846C188.875 124.252 188.706 123.747 188.367 123.33C188.034 122.908 187.547 122.697 186.906 122.697C186.141 122.697 185.568 122.989 185.188 123.572C184.807 124.156 184.617 124.872 184.617 125.721V125.971C184.617 126.82 184.818 127.536 185.219 128.119C185.62 128.702 186.24 128.994 187.078 128.994C187.599 128.994 188.044 128.882 188.414 128.658C188.789 128.429 189.094 128.158 189.328 127.846L190.25 128.572C189.99 128.963 189.589 129.327 189.047 129.666C188.51 129.999 187.854 130.166 187.078 130.166C185.812 130.166 184.844 129.775 184.172 128.994C183.5 128.213 183.164 127.205 183.164 125.971ZM191.555 127.518H192.984V127.564C192.984 128.038 193.156 128.395 193.5 128.635C193.849 128.874 194.31 128.994 194.883 128.994C195.456 128.994 195.906 128.88 196.234 128.65C196.568 128.421 196.734 128.124 196.734 127.76C196.734 127.395 196.599 127.117 196.328 126.924C196.062 126.726 195.492 126.523 194.617 126.314C193.737 126.106 193.039 125.814 192.523 125.439C192.008 125.064 191.75 124.541 191.75 123.869C191.75 123.197 192.026 122.64 192.578 122.197C193.135 121.755 193.88 121.533 194.812 121.533C195.74 121.533 196.487 121.755 197.055 122.197C197.622 122.635 197.906 123.231 197.906 123.986V124.033H196.484V123.963C196.484 123.567 196.346 123.257 196.07 123.033C195.799 122.809 195.38 122.697 194.812 122.697C194.24 122.697 193.82 122.801 193.555 123.01C193.294 123.218 193.164 123.479 193.164 123.791C193.164 124.104 193.312 124.354 193.609 124.541C193.911 124.723 194.503 124.919 195.383 125.127C196.263 125.335 196.94 125.632 197.414 126.018C197.893 126.403 198.133 126.958 198.133 127.682C198.133 128.406 197.862 129.002 197.32 129.471C196.779 129.934 195.966 130.166 194.883 130.166C193.799 130.166 192.974 129.929 192.406 129.455C191.839 128.981 191.555 128.351 191.555 127.564V127.518Z" fill="#727677"/>
<g filter="url(#filter2_d_165_1609)">
<path fill-rule="evenodd" clip-rule="evenodd" d="M494.484 158.104C490.066 158.104 486.484 161.686 486.484 166.104V173.747C486.484 178.165 490.066 181.747 494.484 181.747H497.117L500.876 185.506L504.635 181.747H507.266C511.685 181.747 515.266 178.165 515.266 173.747V166.104C515.266 161.686 511.685 158.104 507.266 158.104H494.484Z" fill="white"/>
</g>
<path d="M500.116 165.629V166.403L496.705 174.161H495.217L498.621 166.754H494.203V165.629H500.116ZM507.33 169.18V170.575C507.33 171.243 507.264 171.813 507.131 172.286C507.002 172.754 506.815 173.135 506.569 173.428C506.323 173.721 506.028 173.936 505.684 174.073C505.344 174.209 504.963 174.278 504.541 174.278C504.205 174.278 503.893 174.235 503.604 174.149C503.319 174.063 503.061 173.928 502.83 173.745C502.6 173.561 502.403 173.325 502.239 173.036C502.078 172.743 501.953 172.393 501.864 171.987C501.778 171.581 501.735 171.11 501.735 170.575V169.18C501.735 168.508 501.801 167.942 501.934 167.481C502.067 167.016 502.256 166.639 502.502 166.35C502.748 166.057 503.041 165.844 503.381 165.711C503.725 165.579 504.108 165.512 504.53 165.512C504.869 165.512 505.182 165.555 505.467 165.641C505.756 165.723 506.014 165.854 506.241 166.034C506.471 166.213 506.666 166.448 506.826 166.737C506.991 167.022 507.116 167.368 507.201 167.774C507.287 168.176 507.33 168.645 507.33 169.18ZM505.918 170.774V168.969C505.918 168.629 505.899 168.331 505.86 168.073C505.821 167.811 505.762 167.59 505.684 167.411C505.61 167.227 505.516 167.079 505.403 166.965C505.289 166.848 505.16 166.764 505.016 166.713C504.871 166.659 504.709 166.631 504.53 166.631C504.311 166.631 504.116 166.674 503.944 166.76C503.772 166.842 503.627 166.975 503.51 167.159C503.393 167.342 503.303 167.584 503.241 167.885C503.182 168.182 503.153 168.543 503.153 168.969V170.774C503.153 171.118 503.172 171.42 503.211 171.682C503.25 171.944 503.309 172.168 503.387 172.356C503.465 172.54 503.559 172.692 503.668 172.813C503.782 172.93 503.91 173.016 504.055 173.071C504.203 173.125 504.366 173.153 504.541 173.153C504.764 173.153 504.961 173.11 505.133 173.024C505.305 172.938 505.449 172.801 505.567 172.614C505.684 172.422 505.772 172.174 505.83 171.87C505.889 171.565 505.918 171.2 505.918 170.774Z" fill="#414D55"/>
</g>
<defs>
<filter id="filter0_d_165_1609" x="6.3" y="5.8" width="603.4" height="405.374" filterUnits="userSpaceOnUse" color-interpolation-filters="sRGB">
<feFlood flood-opacity="0" result="BackgroundImageFix"/>
<feColorMatrix in="SourceAlpha" type="matrix" values="0 0 0 0 0 0 0 0 0 0 0 0 0 0 0 0 0 0 127 0" result="hardAlpha"/>
<feOffset dx="5" dy="6"/>
<feGaussianBlur stdDeviation="3.6"/>
<feComposite in2="hardAlpha" operator="out"/>
<feColorMatrix type="matrix" values="0 0 0 0 0 0 0 0 0 0 0 0 0 0 0 0 0 0 0.25 0"/>
<feBlend mode="normal" in2="BackgroundImageFix" result="effect1_dropShadow_165_1609"/>
<feBlend mode="normal" in="SourceGraphic" in2="effect1_dropShadow_165_1609" result="shape"/>
</filter>
<filter id="filter1_d_165_1609" x="0.5" y="0" width="605" height="406.611" filterUnits="userSpaceOnUse" color-interpolation-filters="sRGB">
<feFlood flood-opacity="0" result="BackgroundImageFix"/>
<feColorMatrix in="SourceAlpha" type="matrix" values="0 0 0 0 0 0 0 0 0 0 0 0 0 0 0 0 0 0 127 0" result="hardAlpha"/>
<feOffset dy="1"/>
<feGaussianBlur stdDeviation="4"/>
<feColorMatrix type="matrix" values="0 0 0 0 0.431373 0 0 0 0 0.431373 0 0 0 0 0.431373 0 0 0 0.1 0"/>
<feBlend mode="normal" in2="BackgroundImageFix" result="effect1_dropShadow_165_1609"/>
<feBlend mode="normal" in="SourceGraphic" in2="effect1_dropShadow_165_1609" result="shape"/>
</filter>
<filter id="filter2_d_165_1609" x="470.484" y="144.104" width="60.7812" height="59.4014" filterUnits="userSpaceOnUse" color-interpolation-filters="sRGB">
<feFlood flood-opacity="0" result="BackgroundImageFix"/>
<feColorMatrix in="SourceAlpha" type="matrix" values="0 0 0 0 0 0 0 0 0 0 0 0 0 0 0 0 0 0 127 0" result="hardAlpha"/>
<feOffset dy="2"/>
<feGaussianBlur stdDeviation="8"/>
<feColorMatrix type="matrix" values="0 0 0 0 0.293333 0 0 0 0 0.333211 0 0 0 0 0.431373 0 0 0 0.2 0"/>
<feBlend mode="normal" in2="BackgroundImageFix" result="effect1_dropShadow_165_1609"/>
<feBlend mode="normal" in="SourceGraphic" in2="effect1_dropShadow_165_1609" result="shape"/>
</filter>
<linearGradient id="paint0_linear_165_1609" x1="44.9908" y1="396.974" x2="44.9908" y2="222.227" gradientUnits="userSpaceOnUse">
<stop stop-color="white"/>
<stop offset="1" stop-color="#72388D"/>
</linearGradient>
<linearGradient id="paint1_linear_165_1609" x1="105.639" y1="395.946" x2="105.639" y2="237.646" gradientUnits="userSpaceOnUse">
<stop stop-color="white"/>
<stop offset="1" stop-color="#72388D"/>
</linearGradient>
<linearGradient id="paint2_linear_165_1609" x1="75.8287" y1="395.945" x2="75.8287" y2="202.696" gradientUnits="userSpaceOnUse">
<stop stop-color="white"/>
<stop offset="1" stop-color="#72388D"/>
</linearGradient>
<linearGradient id="paint3_linear_165_1609" x1="136.477" y1="395.361" x2="136.477" y2="217.49" gradientUnits="userSpaceOnUse">
<stop stop-color="white"/>
<stop offset="1" stop-color="#72388D"/>
</linearGradient>
<linearGradient id="paint4_linear_165_1609" x1="166.286" y1="395.945" x2="166.286" y2="246.896" gradientUnits="userSpaceOnUse">
<stop stop-color="white"/>
<stop offset="1" stop-color="#72388D"/>
</linearGradient>
<linearGradient id="paint5_linear_165_1609" x1="197.124" y1="395.945" x2="197.124" y2="267.455" gradientUnits="userSpaceOnUse">
<stop stop-color="white"/>
<stop offset="1" stop-color="#72388D"/>
</linearGradient>
<linearGradient id="paint6_linear_165_1609" x1="227.962" y1="395.946" x2="227.962" y2="241.41" gradientUnits="userSpaceOnUse">
<stop stop-color="white"/>
<stop offset="1" stop-color="#72388D"/>
</linearGradient>
<linearGradient id="paint7_linear_165_1609" x1="257.772" y1="395.946" x2="257.772" y2="277.271" gradientUnits="userSpaceOnUse">
<stop stop-color="white"/>
<stop offset="1" stop-color="#72388D"/>
</linearGradient>
<linearGradient id="paint8_linear_165_1609" x1="288.61" y1="395.945" x2="288.61" y2="261.925" gradientUnits="userSpaceOnUse">
<stop stop-color="white"/>
<stop offset="1" stop-color="#172755"/>
</linearGradient>
<linearGradient id="paint9_linear_165_1609" x1="318.419" y1="395.946" x2="318.419" y2="232.506" gradientUnits="userSpaceOnUse">
<stop stop-color="white"/>
<stop offset="1" stop-color="#72388D"/>
</linearGradient>
<linearGradient id="paint10_linear_165_1609" x1="349.256" y1="395.945" x2="349.256" y2="202.696" gradientUnits="userSpaceOnUse">
<stop stop-color="white"/>
<stop offset="1" stop-color="#72388D"/>
</linearGradient>
<linearGradient id="paint11_linear_165_1609" x1="379.067" y1="395.945" x2="379.067" y2="193.029" gradientUnits="userSpaceOnUse">
<stop stop-color="white"/>
<stop offset="1" stop-color="#72388D"/>
</linearGradient>
<linearGradient id="paint12_linear_165_1609" x1="409.905" y1="395.946" x2="409.905" y2="222.227" gradientUnits="userSpaceOnUse">
<stop stop-color="white"/>
<stop offset="1" stop-color="#72388D"/>
</linearGradient>
<linearGradient id="paint13_linear_165_1609" x1="470.551" y1="395.946" x2="470.551" y2="237.646" gradientUnits="userSpaceOnUse">
<stop stop-color="white"/>
<stop offset="1" stop-color="#72388D"/>
</linearGradient>
<linearGradient id="paint14_linear_165_1609" x1="440.741" y1="395.945" x2="440.741" y2="202.696" gradientUnits="userSpaceOnUse">
<stop stop-color="white"/>
<stop offset="1" stop-color="#72388D"/>
</linearGradient>
<linearGradient id="paint15_linear_165_1609" x1="501.389" y1="395.946" x2="501.389" y2="217.49" gradientUnits="userSpaceOnUse">
<stop stop-color="white"/>
<stop offset="1" stop-color="#72388D"/>
</linearGradient>
<linearGradient id="paint16_linear_165_1609" x1="531.2" y1="395.945" x2="531.2" y2="246.896" gradientUnits="userSpaceOnUse">
<stop stop-color="white"/>
<stop offset="1" stop-color="#72388D"/>
</linearGradient>
<linearGradient id="paint17_linear_165_1609" x1="562.036" y1="395.945" x2="562.036" y2="267.455" gradientUnits="userSpaceOnUse">
<stop stop-color="white"/>
<stop offset="1" stop-color="#72388D"/>
</linearGradient>
</defs>
</svg>
