<svg width="528" height="236" viewBox="0 0 528 236" fill="none" xmlns="http://www.w3.org/2000/svg">
<path opacity="0.5" d="M5.47685 60.2266V234.974" stroke="url(#paint0_linear_165_1613)" stroke-width="2" stroke-linecap="round"/>
<path opacity="0.5" d="M66.1253 75.6455V233.946" stroke="url(#paint1_linear_165_1613)" stroke-width="2" stroke-linecap="round"/>
<path opacity="0.5" d="M36.3147 40.6958V233.945" stroke="url(#paint2_linear_165_1613)" stroke-width="2" stroke-linecap="round"/>
<path opacity="0.5" d="M96.9632 55.4902V233.361" stroke="url(#paint3_linear_165_1613)" stroke-width="2" stroke-linecap="round"/>
<path opacity="0.5" d="M126.772 84.8965V233.945" stroke="url(#paint4_linear_165_1613)" stroke-width="2" stroke-linecap="round"/>
<path opacity="0.5" d="M157.61 105.455V233.945" stroke="url(#paint5_linear_165_1613)" stroke-width="2" stroke-linecap="round"/>
<path opacity="0.5" d="M188.448 79.4097V233.946" stroke="url(#paint6_linear_165_1613)" stroke-width="2" stroke-linecap="round"/>
<path opacity="0.5" d="M218.258 115.271V233.946" stroke="url(#paint7_linear_165_1613)" stroke-width="2" stroke-linecap="round"/>
<path opacity="0.5" d="M249.096 99.9253V233.945" stroke="url(#paint8_linear_165_1613)" stroke-width="2" stroke-linecap="round"/>
<path opacity="0.5" d="M278.905 70.5059V233.946" stroke="url(#paint9_linear_165_1613)" stroke-width="2" stroke-linecap="round"/>
<path opacity="0.5" d="M309.742 40.6958V233.945" stroke="url(#paint10_linear_165_1613)" stroke-width="2" stroke-linecap="round"/>
<path opacity="0.5" d="M339.553 31.0293V233.945" stroke="url(#paint11_linear_165_1613)" stroke-width="2" stroke-linecap="round"/>
<path fill-rule="evenodd" clip-rule="evenodd" d="M36.3154 20.7748C39.1539 20.7748 41.455 18.4738 41.455 15.6352C41.455 12.7967 39.1539 10.4956 36.3154 10.4956C33.4769 10.4956 31.1758 12.7967 31.1758 15.6352C31.1758 18.4738 33.4769 20.7748 36.3154 20.7748Z" fill="#956AAA"/>
<path fill-rule="evenodd" clip-rule="evenodd" d="M5.47751 41.3334C8.31604 41.3334 10.6171 39.0323 10.6171 36.1938C10.6171 33.3553 8.31604 31.0542 5.47751 31.0542C2.63898 31.0542 0.337891 33.3553 0.337891 36.1938C0.337891 39.0323 2.63898 41.3334 5.47751 41.3334Z" fill="#956AAA"/>
<path fill-rule="evenodd" clip-rule="evenodd" d="M66.124 53.6684C68.9625 53.6684 71.2636 51.3673 71.2636 48.5288C71.2636 45.6902 68.9625 43.3892 66.124 43.3892C63.2855 43.3892 60.9844 45.6902 60.9844 48.5288C60.9844 51.3673 63.2855 53.6684 66.124 53.6684Z" fill="#956AAA"/>
<path fill-rule="evenodd" clip-rule="evenodd" d="M96.9619 36.1938C99.8004 36.1938 102.101 33.8927 102.101 31.0542C102.101 28.2156 99.8004 25.9146 96.9619 25.9146C94.1234 25.9146 91.8223 28.2156 91.8223 31.0542C91.8223 33.8927 94.1234 36.1938 96.9619 36.1938Z" fill="#956AAA"/>
<path fill-rule="evenodd" clip-rule="evenodd" d="M126.772 67.0312C129.611 67.0312 131.912 64.7301 131.912 61.8916C131.912 59.053 129.611 56.752 126.772 56.752C123.934 56.752 121.633 59.053 121.633 61.8916C121.633 64.7301 123.934 67.0312 126.772 67.0312Z" fill="#956AAA"/>
<path fill-rule="evenodd" clip-rule="evenodd" d="M157.61 87.5898C160.449 87.5898 162.75 85.2887 162.75 82.4502C162.75 79.6116 160.449 77.3105 157.61 77.3105C154.772 77.3105 152.471 79.6116 152.471 82.4502C152.471 85.2887 154.772 87.5898 157.61 87.5898Z" fill="#956AAA"/>
<path fill-rule="evenodd" clip-rule="evenodd" d="M188.448 59.8359C191.287 59.8359 193.588 57.5348 193.588 54.6963C193.588 51.8577 191.287 49.5566 188.448 49.5566C185.61 49.5566 183.309 51.8577 183.309 54.6963C183.309 57.5348 185.61 59.8359 188.448 59.8359Z" fill="#956AAA"/>
<path fill-rule="evenodd" clip-rule="evenodd" d="M249.095 123.567C251.933 123.567 254.234 121.266 254.234 118.428C254.234 115.589 251.933 113.288 249.095 113.288C246.256 113.288 243.955 115.589 243.955 118.428C243.955 121.266 246.256 123.567 249.095 123.567Z" fill="#956AAA"/>
<path fill-rule="evenodd" clip-rule="evenodd" d="M218.257 97.8691C221.095 97.8691 223.396 95.568 223.396 92.7295C223.396 89.8909 221.095 87.5898 218.257 87.5898C215.418 87.5898 213.117 89.8909 213.117 92.7295C213.117 95.568 215.418 97.8691 218.257 97.8691Z" fill="#956AAA"/>
<path fill-rule="evenodd" clip-rule="evenodd" d="M278.905 51.6127C281.744 51.6127 284.045 49.3116 284.045 46.4731C284.045 43.6346 281.744 41.3335 278.905 41.3335C276.067 41.3335 273.766 43.6346 273.766 46.4731C273.766 49.3116 276.067 51.6127 278.905 51.6127Z" fill="#956AAA"/>
<path fill-rule="evenodd" clip-rule="evenodd" d="M309.743 20.7748C312.582 20.7748 314.883 18.4738 314.883 15.6352C314.883 12.7967 312.582 10.4956 309.743 10.4956C306.905 10.4956 304.604 12.7967 304.604 15.6352C304.604 18.4738 306.905 20.7748 309.743 20.7748Z" fill="#956AAA"/>
<path fill-rule="evenodd" clip-rule="evenodd" d="M339.552 10.4955C342.39 10.4955 344.691 8.19446 344.691 5.35592C344.691 2.51739 342.39 0.216309 339.552 0.216309C336.713 0.216309 334.412 2.51739 334.412 5.35592C334.412 8.19446 336.713 10.4955 339.552 10.4955Z" fill="#956AAA"/>
<path opacity="0.5" d="M370.391 60.2266V233.946" stroke="url(#paint12_linear_165_1613)" stroke-width="2" stroke-linecap="round"/>
<path opacity="0.5" d="M431.037 75.6455V233.946" stroke="url(#paint13_linear_165_1613)" stroke-width="2" stroke-linecap="round"/>
<path opacity="0.5" d="M401.227 40.6958V233.945" stroke="url(#paint14_linear_165_1613)" stroke-width="2" stroke-linecap="round"/>
<path opacity="0.5" d="M461.875 55.4902V233.946" stroke="url(#paint15_linear_165_1613)" stroke-width="2" stroke-linecap="round"/>
<path opacity="0.5" d="M491.686 84.8965V233.945" stroke="url(#paint16_linear_165_1613)" stroke-width="2" stroke-linecap="round"/>
<path opacity="0.5" d="M522.522 105.455V233.945" stroke="url(#paint17_linear_165_1613)" stroke-width="2" stroke-linecap="round"/>
<path fill-rule="evenodd" clip-rule="evenodd" d="M401.228 20.7748C404.066 20.7748 406.367 18.4738 406.367 15.6352C406.367 12.7967 404.066 10.4956 401.228 10.4956C398.389 10.4956 396.088 12.7967 396.088 15.6352C396.088 18.4738 398.389 20.7748 401.228 20.7748Z" fill="#956AAA"/>
<path fill-rule="evenodd" clip-rule="evenodd" d="M370.39 41.3334C373.228 41.3334 375.529 39.0323 375.529 36.1938C375.529 33.3553 373.228 31.0542 370.39 31.0542C367.551 31.0542 365.25 33.3553 365.25 36.1938C365.25 39.0323 367.551 41.3334 370.39 41.3334Z" fill="#956AAA"/>
<path fill-rule="evenodd" clip-rule="evenodd" d="M431.038 53.6684C433.877 53.6684 436.178 51.3673 436.178 48.5288C436.178 45.6902 433.877 43.3892 431.038 43.3892C428.2 43.3892 425.898 45.6902 425.898 48.5288C425.898 51.3673 428.2 53.6684 431.038 53.6684Z" fill="#956AAA"/>
<path fill-rule="evenodd" clip-rule="evenodd" d="M461.876 36.1938C464.714 36.1938 467.016 33.8927 467.016 31.0542C467.016 28.2156 464.714 25.9146 461.876 25.9146C459.037 25.9146 456.736 28.2156 456.736 31.0542C456.736 33.8927 459.037 36.1938 461.876 36.1938Z" fill="#956AAA"/>
<path fill-rule="evenodd" clip-rule="evenodd" d="M491.685 67.0312C494.523 67.0312 496.824 64.7301 496.824 61.8916C496.824 59.053 494.523 56.752 491.685 56.752C488.846 56.752 486.545 59.053 486.545 61.8916C486.545 64.7301 488.846 67.0312 491.685 67.0312Z" fill="#956AAA"/>
<path fill-rule="evenodd" clip-rule="evenodd" d="M522.522 87.5898C525.361 87.5898 527.662 85.2887 527.662 82.4502C527.662 79.6116 525.361 77.3105 522.522 77.3105C519.684 77.3105 517.383 79.6116 517.383 82.4502C517.383 85.2887 519.684 87.5898 522.522 87.5898Z" fill="#956AAA"/>
<path fill-rule="evenodd" clip-rule="evenodd" d="M36.3154 92.7294C39.1539 92.7294 41.455 90.4283 41.455 87.5898C41.455 84.7513 39.1539 82.4502 36.3154 82.4502C33.4769 82.4502 31.1758 84.7513 31.1758 87.5898C31.1758 90.4283 33.4769 92.7294 36.3154 92.7294Z" fill="#172755"/>
<path fill-rule="evenodd" clip-rule="evenodd" d="M5.47751 113.288C8.31604 113.288 10.6171 110.987 10.6171 108.148C10.6171 105.31 8.31604 103.009 5.47751 103.009C2.63898 103.009 0.337891 105.31 0.337891 108.148C0.337891 110.987 2.63898 113.288 5.47751 113.288Z" fill="#172755"/>
<path fill-rule="evenodd" clip-rule="evenodd" d="M66.124 84.5063C68.9625 84.5063 71.2636 82.2052 71.2636 79.3667C71.2636 76.5281 68.9625 74.2271 66.124 74.2271C63.2855 74.2271 60.9844 76.5281 60.9844 79.3667C60.9844 82.2052 63.2855 84.5063 66.124 84.5063Z" fill="#172755"/>
<path fill-rule="evenodd" clip-rule="evenodd" d="M96.9619 87.5898C99.8004 87.5898 102.101 85.2887 102.101 82.4502C102.101 79.6116 99.8004 77.3105 96.9619 77.3105C94.1234 77.3105 91.8223 79.6116 91.8223 82.4502C91.8223 85.2887 94.1234 87.5898 96.9619 87.5898Z" fill="#172755"/>
<path fill-rule="evenodd" clip-rule="evenodd" d="M126.772 108.148C129.611 108.148 131.912 105.847 131.912 103.009C131.912 100.17 129.611 97.8691 126.772 97.8691C123.934 97.8691 121.633 100.17 121.633 103.009C121.633 105.847 123.934 108.148 126.772 108.148Z" fill="#172755"/>
<path fill-rule="evenodd" clip-rule="evenodd" d="M157.61 149.265C160.449 149.265 162.75 146.964 162.75 144.125C162.75 141.287 160.449 138.986 157.61 138.986C154.772 138.986 152.471 141.287 152.471 144.125C152.471 146.964 154.772 149.265 157.61 149.265Z" fill="#172755"/>
<path fill-rule="evenodd" clip-rule="evenodd" d="M188.448 111.232C191.287 111.232 193.588 108.931 193.588 106.093C193.588 103.254 191.287 100.953 188.448 100.953C185.61 100.953 183.309 103.254 183.309 106.093C183.309 108.931 185.61 111.232 188.448 111.232Z" fill="#172755"/>
<path fill-rule="evenodd" clip-rule="evenodd" d="M249.095 82.4501C251.933 82.4501 254.234 80.149 254.234 77.3105C254.234 74.472 251.933 72.1709 249.095 72.1709C246.256 72.1709 243.955 74.472 243.955 77.3105C243.955 80.149 246.256 82.4501 249.095 82.4501Z" fill="#172755"/>
<path fill-rule="evenodd" clip-rule="evenodd" d="M218.257 149.265C221.095 149.265 223.396 146.964 223.396 144.125C223.396 141.287 221.095 138.986 218.257 138.986C215.418 138.986 213.117 141.287 213.117 144.125C213.117 146.964 215.418 149.265 218.257 149.265Z" fill="#172755"/>
<path fill-rule="evenodd" clip-rule="evenodd" d="M278.905 113.288C281.744 113.288 284.045 110.987 284.045 108.148C284.045 105.31 281.744 103.009 278.905 103.009C276.067 103.009 273.766 105.31 273.766 108.148C273.766 110.987 276.067 113.288 278.905 113.288Z" fill="#172755"/>
<path fill-rule="evenodd" clip-rule="evenodd" d="M309.743 133.847C312.582 133.847 314.883 131.546 314.883 128.707C314.883 125.868 312.582 123.567 309.743 123.567C306.905 123.567 304.604 125.868 304.604 128.707C304.604 131.546 306.905 133.847 309.743 133.847Z" fill="#172755"/>
<path fill-rule="evenodd" clip-rule="evenodd" d="M339.552 82.4501C342.39 82.4501 344.691 80.149 344.691 77.3105C344.691 74.472 342.39 72.1709 339.552 72.1709C336.713 72.1709 334.412 74.472 334.412 77.3105C334.412 80.149 336.713 82.4501 339.552 82.4501Z" fill="#172755"/>
<path fill-rule="evenodd" clip-rule="evenodd" d="M401.228 174.963C404.066 174.963 406.367 172.662 406.367 169.824C406.367 166.985 404.066 164.684 401.228 164.684C398.389 164.684 396.088 166.985 396.088 169.824C396.088 172.662 398.389 174.963 401.228 174.963Z" fill="#172755"/>
<path fill-rule="evenodd" clip-rule="evenodd" d="M370.39 113.288C373.228 113.288 375.529 110.987 375.529 108.148C375.529 105.31 373.228 103.009 370.39 103.009C367.551 103.009 365.25 105.31 365.25 108.148C365.25 110.987 367.551 113.288 370.39 113.288Z" fill="#172755"/>
<path fill-rule="evenodd" clip-rule="evenodd" d="M431.038 156.461C433.877 156.461 436.178 154.16 436.178 151.321C436.178 148.483 433.877 146.182 431.038 146.182C428.2 146.182 425.898 148.483 425.898 151.321C425.898 154.16 428.2 156.461 431.038 156.461Z" fill="#172755"/>
<path fill-rule="evenodd" clip-rule="evenodd" d="M461.876 128.707C464.714 128.707 467.016 126.406 467.016 123.567C467.016 120.729 464.714 118.428 461.876 118.428C459.037 118.428 456.736 120.729 456.736 123.567C456.736 126.406 459.037 128.707 461.876 128.707Z" fill="#172755"/>
<path fill-rule="evenodd" clip-rule="evenodd" d="M491.685 169.824C494.523 169.824 496.824 167.523 496.824 164.684C496.824 161.846 494.523 159.544 491.685 159.544C488.846 159.544 486.545 161.846 486.545 164.684C486.545 167.523 488.846 169.824 491.685 169.824Z" fill="#172755"/>
<path fill-rule="evenodd" clip-rule="evenodd" d="M522.522 210.941C525.361 210.941 527.662 208.64 527.662 205.801C527.662 202.963 525.361 200.662 522.522 200.662C519.684 200.662 517.383 202.963 517.383 205.801C517.383 208.64 519.684 210.941 522.522 210.941Z" fill="#172755"/>
<defs>
<linearGradient id="paint0_linear_165_1613" x1="5.99081" y1="234.974" x2="5.99081" y2="60.2266" gradientUnits="userSpaceOnUse">
<stop stop-color="white"/>
<stop offset="1" stop-color="#72388D"/>
</linearGradient>
<linearGradient id="paint1_linear_165_1613" x1="66.6393" y1="233.946" x2="66.6393" y2="75.6455" gradientUnits="userSpaceOnUse">
<stop stop-color="white"/>
<stop offset="1" stop-color="#72388D"/>
</linearGradient>
<linearGradient id="paint2_linear_165_1613" x1="36.8287" y1="233.945" x2="36.8287" y2="40.6958" gradientUnits="userSpaceOnUse">
<stop stop-color="white"/>
<stop offset="1" stop-color="#72388D"/>
</linearGradient>
<linearGradient id="paint3_linear_165_1613" x1="97.4771" y1="233.361" x2="97.4771" y2="55.4902" gradientUnits="userSpaceOnUse">
<stop stop-color="white"/>
<stop offset="1" stop-color="#72388D"/>
</linearGradient>
<linearGradient id="paint4_linear_165_1613" x1="127.286" y1="233.945" x2="127.286" y2="84.8965" gradientUnits="userSpaceOnUse">
<stop stop-color="white"/>
<stop offset="1" stop-color="#72388D"/>
</linearGradient>
<linearGradient id="paint5_linear_165_1613" x1="158.124" y1="233.945" x2="158.124" y2="105.455" gradientUnits="userSpaceOnUse">
<stop stop-color="white"/>
<stop offset="1" stop-color="#72388D"/>
</linearGradient>
<linearGradient id="paint6_linear_165_1613" x1="188.962" y1="233.946" x2="188.962" y2="79.4097" gradientUnits="userSpaceOnUse">
<stop stop-color="white"/>
<stop offset="1" stop-color="#72388D"/>
</linearGradient>
<linearGradient id="paint7_linear_165_1613" x1="218.772" y1="233.946" x2="218.772" y2="115.271" gradientUnits="userSpaceOnUse">
<stop stop-color="white"/>
<stop offset="1" stop-color="#72388D"/>
</linearGradient>
<linearGradient id="paint8_linear_165_1613" x1="249.61" y1="233.945" x2="249.61" y2="99.9253" gradientUnits="userSpaceOnUse">
<stop stop-color="white"/>
<stop offset="1" stop-color="#172755"/>
</linearGradient>
<linearGradient id="paint9_linear_165_1613" x1="279.419" y1="233.946" x2="279.419" y2="70.5059" gradientUnits="userSpaceOnUse">
<stop stop-color="white"/>
<stop offset="1" stop-color="#72388D"/>
</linearGradient>
<linearGradient id="paint10_linear_165_1613" x1="310.256" y1="233.945" x2="310.256" y2="40.6958" gradientUnits="userSpaceOnUse">
<stop stop-color="white"/>
<stop offset="1" stop-color="#72388D"/>
</linearGradient>
<linearGradient id="paint11_linear_165_1613" x1="340.067" y1="233.945" x2="340.067" y2="31.0293" gradientUnits="userSpaceOnUse">
<stop stop-color="white"/>
<stop offset="1" stop-color="#72388D"/>
</linearGradient>
<linearGradient id="paint12_linear_165_1613" x1="370.905" y1="233.946" x2="370.905" y2="60.2266" gradientUnits="userSpaceOnUse">
<stop stop-color="white"/>
<stop offset="1" stop-color="#72388D"/>
</linearGradient>
<linearGradient id="paint13_linear_165_1613" x1="431.551" y1="233.946" x2="431.551" y2="75.6455" gradientUnits="userSpaceOnUse">
<stop stop-color="white"/>
<stop offset="1" stop-color="#72388D"/>
</linearGradient>
<linearGradient id="paint14_linear_165_1613" x1="401.741" y1="233.945" x2="401.741" y2="40.6958" gradientUnits="userSpaceOnUse">
<stop stop-color="white"/>
<stop offset="1" stop-color="#72388D"/>
</linearGradient>
<linearGradient id="paint15_linear_165_1613" x1="462.389" y1="233.946" x2="462.389" y2="55.4902" gradientUnits="userSpaceOnUse">
<stop stop-color="white"/>
<stop offset="1" stop-color="#72388D"/>
</linearGradient>
<linearGradient id="paint16_linear_165_1613" x1="492.2" y1="233.945" x2="492.2" y2="84.8965" gradientUnits="userSpaceOnUse">
<stop stop-color="white"/>
<stop offset="1" stop-color="#72388D"/>
</linearGradient>
<linearGradient id="paint17_linear_165_1613" x1="523.036" y1="233.945" x2="523.036" y2="105.455" gradientUnits="userSpaceOnUse">
<stop stop-color="white"/>
<stop offset="1" stop-color="#72388D"/>
</linearGradient>
</defs>
</svg>
