<svg width="632" height="456" viewBox="0 0 632 456" fill="none" xmlns="http://www.w3.org/2000/svg">
<g filter="url(#filter0_d_159_652)">
<rect y="0.61084" width="600" height="410" rx="30" fill="white"/>
</g>
<rect x="99" y="72.6108" width="1" height="271" fill="#EEEEF7"/>
<rect x="162" y="72.6108" width="1" height="271" fill="#EEEEF7"/>
<rect x="225" y="72.6108" width="1" height="271" fill="#EEEEF7"/>
<rect x="288" y="72.6108" width="1" height="271" fill="#EEEEF7"/>
<rect x="351" y="72.6108" width="1" height="271" fill="#EEEEF7"/>
<rect x="414" y="72.6108" width="1" height="271" fill="#EEEEF7"/>
<rect x="477" y="72.6108" width="1" height="271" fill="#EEEEF7"/>
<rect x="540" y="72.6108" width="1" height="271" fill="#EEEEF7"/>
<path d="M59.7637 93.5503L58.8965 93.3276L59.3242 89.0796H63.7012V90.0815H60.2441L59.9863 92.4019C60.1426 92.312 60.3398 92.228 60.5781 92.1499C60.8203 92.0718 61.0977 92.0327 61.4102 92.0327C61.8047 92.0327 62.1582 92.1011 62.4707 92.2378C62.7832 92.3706 63.0488 92.562 63.2676 92.812C63.4902 93.062 63.6602 93.3628 63.7773 93.7144C63.8945 94.0659 63.9531 94.4585 63.9531 94.8921C63.9531 95.3022 63.8965 95.6792 63.7832 96.0229C63.6738 96.3667 63.5078 96.6675 63.2852 96.9253C63.0625 97.1792 62.7812 97.3765 62.4414 97.5171C62.1055 97.6577 61.709 97.728 61.252 97.728C60.9082 97.728 60.582 97.6812 60.2734 97.5874C59.9688 97.4897 59.6953 97.3433 59.4531 97.1479C59.2148 96.9487 59.0195 96.7026 58.8672 96.4097C58.7188 96.1128 58.625 95.7651 58.5859 95.3667H59.6172C59.6641 95.687 59.7578 95.9565 59.8984 96.1753C60.0391 96.394 60.2227 96.5601 60.4492 96.6733C60.6797 96.7827 60.9473 96.8374 61.252 96.8374C61.5098 96.8374 61.7383 96.7925 61.9375 96.7026C62.1367 96.6128 62.3047 96.4839 62.4414 96.3159C62.5781 96.1479 62.6816 95.9448 62.752 95.7065C62.8262 95.4683 62.8633 95.2007 62.8633 94.9038C62.8633 94.6343 62.8262 94.3843 62.752 94.1538C62.6777 93.9233 62.5664 93.7222 62.418 93.5503C62.2734 93.3784 62.0957 93.2456 61.8848 93.1519C61.6738 93.0542 61.4316 93.0054 61.1582 93.0054C60.7949 93.0054 60.5195 93.0542 60.332 93.1519C60.1484 93.2495 59.959 93.3823 59.7637 93.5503ZM70.9082 94.7397V95.6304H64.7441V94.9917L68.5645 89.0796H69.4492L68.5 90.7905L65.9746 94.7397H70.9082ZM69.7188 89.0796V97.6108H68.6348V89.0796H69.7188ZM74.2656 93.5386V94.4292H71.4062V93.5386H74.2656ZM79.3691 89.0679H79.4629V89.9878H79.3691C78.7949 89.9878 78.3145 90.0815 77.9277 90.269C77.541 90.4526 77.2344 90.7007 77.0078 91.0132C76.7812 91.3218 76.6172 91.6694 76.5156 92.0562C76.418 92.4429 76.3691 92.8354 76.3691 93.2339V94.4878C76.3691 94.8667 76.4141 95.2026 76.5039 95.4956C76.5938 95.7847 76.7168 96.0288 76.873 96.228C77.0293 96.4272 77.2051 96.5776 77.4004 96.6792C77.5996 96.7808 77.8066 96.8315 78.0215 96.8315C78.2715 96.8315 78.4941 96.7847 78.6895 96.6909C78.8848 96.5933 79.0488 96.4585 79.1816 96.2866C79.3184 96.1108 79.4219 95.9038 79.4922 95.6655C79.5625 95.4272 79.5977 95.1655 79.5977 94.8804C79.5977 94.6265 79.5664 94.3823 79.5039 94.1479C79.4414 93.9097 79.3457 93.6987 79.2168 93.5151C79.0879 93.3276 78.9258 93.1812 78.7305 93.0757C78.5391 92.9663 78.3105 92.9116 78.0449 92.9116C77.7441 92.9116 77.4629 92.9858 77.2012 93.1343C76.9434 93.2788 76.7305 93.4702 76.5625 93.7085C76.3984 93.9429 76.3047 94.1987 76.2812 94.4761L75.707 94.4702C75.7617 94.0327 75.8633 93.6597 76.0117 93.3511C76.1641 93.0386 76.3516 92.7847 76.5742 92.5894C76.8008 92.3901 77.0527 92.2456 77.3301 92.1558C77.6113 92.062 77.9082 92.0151 78.2207 92.0151C78.6465 92.0151 79.0137 92.0952 79.3223 92.2554C79.6309 92.4155 79.8848 92.6304 80.084 92.8999C80.2832 93.1655 80.4297 93.4663 80.5234 93.8022C80.6211 94.1343 80.6699 94.4761 80.6699 94.8276C80.6699 95.23 80.6133 95.6069 80.5 95.9585C80.3867 96.3101 80.2168 96.6187 79.9902 96.8843C79.7676 97.1499 79.4922 97.3569 79.1641 97.5054C78.8359 97.6538 78.4551 97.728 78.0215 97.728C77.5605 97.728 77.1582 97.6343 76.8145 97.4468C76.4707 97.2554 76.1855 97.0015 75.959 96.6851C75.7324 96.3687 75.5625 96.0171 75.4492 95.6304C75.3359 95.2437 75.2793 94.8511 75.2793 94.4526V93.9429C75.2793 93.3413 75.3398 92.7515 75.4609 92.1733C75.582 91.5952 75.791 91.0718 76.0879 90.603C76.3887 90.1343 76.8047 89.7612 77.3359 89.4839C77.8672 89.2065 78.5449 89.0679 79.3691 89.0679ZM83.3301 93.5503L82.4629 93.3276L82.8906 89.0796H87.2676V90.0815H83.8105L83.5527 92.4019C83.709 92.312 83.9062 92.228 84.1445 92.1499C84.3867 92.0718 84.6641 92.0327 84.9766 92.0327C85.3711 92.0327 85.7246 92.1011 86.0371 92.2378C86.3496 92.3706 86.6152 92.562 86.834 92.812C87.0566 93.062 87.2266 93.3628 87.3438 93.7144C87.4609 94.0659 87.5195 94.4585 87.5195 94.8921C87.5195 95.3022 87.4629 95.6792 87.3496 96.0229C87.2402 96.3667 87.0742 96.6675 86.8516 96.9253C86.6289 97.1792 86.3477 97.3765 86.0078 97.5171C85.6719 97.6577 85.2754 97.728 84.8184 97.728C84.4746 97.728 84.1484 97.6812 83.8398 97.5874C83.5352 97.4897 83.2617 97.3433 83.0195 97.1479C82.7812 96.9487 82.5859 96.7026 82.4336 96.4097C82.2852 96.1128 82.1914 95.7651 82.1523 95.3667H83.1836C83.2305 95.687 83.3242 95.9565 83.4648 96.1753C83.6055 96.394 83.7891 96.5601 84.0156 96.6733C84.2461 96.7827 84.5137 96.8374 84.8184 96.8374C85.0762 96.8374 85.3047 96.7925 85.5039 96.7026C85.7031 96.6128 85.8711 96.4839 86.0078 96.3159C86.1445 96.1479 86.248 95.9448 86.3184 95.7065C86.3926 95.4683 86.4297 95.2007 86.4297 94.9038C86.4297 94.6343 86.3926 94.3843 86.3184 94.1538C86.2441 93.9233 86.1328 93.7222 85.9844 93.5503C85.8398 93.3784 85.6621 93.2456 85.4512 93.1519C85.2402 93.0542 84.998 93.0054 84.7246 93.0054C84.3613 93.0054 84.0859 93.0542 83.8984 93.1519C83.7148 93.2495 83.5254 93.3823 83.3301 93.5503Z" fill="#8794BA"/>
<path d="M64.1582 150.74V151.63H57.9941V150.992L61.8145 145.08H62.6992L61.75 146.791L59.2246 150.74H64.1582ZM62.9688 145.08V153.611H61.8848V145.08H62.9688ZM66.5137 149.55L65.6465 149.328L66.0742 145.08H70.4512V146.082H66.9941L66.7363 148.402C66.8926 148.312 67.0898 148.228 67.3281 148.15C67.5703 148.072 67.8477 148.033 68.1602 148.033C68.5547 148.033 68.9082 148.101 69.2207 148.238C69.5332 148.371 69.7988 148.562 70.0176 148.812C70.2402 149.062 70.4102 149.363 70.5273 149.714C70.6445 150.066 70.7031 150.458 70.7031 150.892C70.7031 151.302 70.6465 151.679 70.5332 152.023C70.4238 152.367 70.2578 152.667 70.0352 152.925C69.8125 153.179 69.5312 153.376 69.1914 153.517C68.8555 153.658 68.459 153.728 68.002 153.728C67.6582 153.728 67.332 153.681 67.0234 153.587C66.7188 153.49 66.4453 153.343 66.2031 153.148C65.9648 152.949 65.7695 152.703 65.6172 152.41C65.4688 152.113 65.375 151.765 65.3359 151.367H66.3672C66.4141 151.687 66.5078 151.957 66.6484 152.175C66.7891 152.394 66.9727 152.56 67.1992 152.673C67.4297 152.783 67.6973 152.837 68.002 152.837C68.2598 152.837 68.4883 152.792 68.6875 152.703C68.8867 152.613 69.0547 152.484 69.1914 152.316C69.3281 152.148 69.4316 151.945 69.502 151.707C69.5762 151.468 69.6133 151.201 69.6133 150.904C69.6133 150.634 69.5762 150.384 69.502 150.154C69.4277 149.923 69.3164 149.722 69.168 149.55C69.0234 149.378 68.8457 149.246 68.6348 149.152C68.4238 149.054 68.1816 149.005 67.9082 149.005C67.5449 149.005 67.2695 149.054 67.082 149.152C66.8984 149.25 66.709 149.382 66.5137 149.55ZM74.2656 149.539V150.429H71.4062V149.539H74.2656ZM76.5801 149.55L75.7129 149.328L76.1406 145.08H80.5176V146.082H77.0605L76.8027 148.402C76.959 148.312 77.1562 148.228 77.3945 148.15C77.6367 148.072 77.9141 148.033 78.2266 148.033C78.6211 148.033 78.9746 148.101 79.2871 148.238C79.5996 148.371 79.8652 148.562 80.084 148.812C80.3066 149.062 80.4766 149.363 80.5938 149.714C80.7109 150.066 80.7695 150.458 80.7695 150.892C80.7695 151.302 80.7129 151.679 80.5996 152.023C80.4902 152.367 80.3242 152.667 80.1016 152.925C79.8789 153.179 79.5977 153.376 79.2578 153.517C78.9219 153.658 78.5254 153.728 78.0684 153.728C77.7246 153.728 77.3984 153.681 77.0898 153.587C76.7852 153.49 76.5117 153.343 76.2695 153.148C76.0312 152.949 75.8359 152.703 75.6836 152.41C75.5352 152.113 75.4414 151.765 75.4023 151.367H76.4336C76.4805 151.687 76.5742 151.957 76.7148 152.175C76.8555 152.394 77.0391 152.56 77.2656 152.673C77.4961 152.783 77.7637 152.837 78.0684 152.837C78.3262 152.837 78.5547 152.792 78.7539 152.703C78.9531 152.613 79.1211 152.484 79.2578 152.316C79.3945 152.148 79.498 151.945 79.5684 151.707C79.6426 151.468 79.6797 151.201 79.6797 150.904C79.6797 150.634 79.6426 150.384 79.5684 150.154C79.4941 149.923 79.3828 149.722 79.2344 149.55C79.0898 149.378 78.9121 149.246 78.7012 149.152C78.4902 149.054 78.248 149.005 77.9746 149.005C77.6113 149.005 77.3359 149.054 77.1484 149.152C76.9648 149.25 76.7754 149.382 76.5801 149.55ZM87.7246 150.74V151.63H81.5605V150.992L85.3809 145.08H86.2656L85.3164 146.791L82.791 150.74H87.7246ZM86.5352 145.08V153.611H85.4512V145.08H86.5352Z" fill="#8794BA"/>
<path d="M59.9746 204.812H60.748C61.127 204.812 61.4395 204.75 61.6855 204.625C61.9355 204.496 62.1211 204.322 62.2422 204.103C62.3672 203.88 62.4297 203.63 62.4297 203.353C62.4297 203.025 62.375 202.75 62.2656 202.527C62.1562 202.304 61.9922 202.136 61.7734 202.023C61.5547 201.91 61.2773 201.853 60.9414 201.853C60.6367 201.853 60.3672 201.914 60.1328 202.035C59.9023 202.152 59.7207 202.32 59.5879 202.539C59.459 202.757 59.3945 203.015 59.3945 203.312H58.3105C58.3105 202.878 58.4199 202.484 58.6387 202.128C58.8574 201.773 59.1641 201.49 59.5586 201.279C59.957 201.068 60.418 200.962 60.9414 200.962C61.457 200.962 61.9082 201.054 62.2949 201.238C62.6816 201.417 62.9824 201.687 63.1973 202.046C63.4121 202.402 63.5195 202.845 63.5195 203.376C63.5195 203.591 63.4688 203.822 63.3672 204.068C63.2695 204.31 63.1152 204.537 62.9043 204.748C62.6973 204.958 62.4277 205.132 62.0957 205.269C61.7637 205.402 61.3652 205.468 60.9004 205.468H59.9746V204.812ZM59.9746 205.703V205.052H60.9004C61.4434 205.052 61.8926 205.117 62.248 205.246C62.6035 205.375 62.8828 205.546 63.0859 205.761C63.293 205.976 63.4375 206.212 63.5195 206.47C63.6055 206.724 63.6484 206.978 63.6484 207.232C63.6484 207.63 63.5801 207.984 63.4434 208.292C63.3105 208.601 63.1211 208.863 62.875 209.078C62.6328 209.292 62.3477 209.455 62.0195 209.564C61.6914 209.673 61.334 209.728 60.9473 209.728C60.5762 209.728 60.2266 209.675 59.8984 209.57C59.5742 209.464 59.2871 209.312 59.0371 209.113C58.7871 208.91 58.5918 208.662 58.4512 208.369C58.3105 208.072 58.2402 207.734 58.2402 207.355H59.3242C59.3242 207.652 59.3887 207.912 59.5176 208.134C59.6504 208.357 59.8379 208.531 60.0801 208.656C60.3262 208.777 60.6152 208.837 60.9473 208.837C61.2793 208.837 61.5645 208.781 61.8027 208.667C62.0449 208.55 62.2305 208.375 62.3594 208.14C62.4922 207.906 62.5586 207.611 62.5586 207.255C62.5586 206.9 62.4844 206.609 62.3359 206.382C62.1875 206.152 61.9766 205.982 61.7031 205.873C61.4336 205.759 61.1152 205.703 60.748 205.703H59.9746ZM66.5137 205.55L65.6465 205.328L66.0742 201.08H70.4512V202.082H66.9941L66.7363 204.402C66.8926 204.312 67.0898 204.228 67.3281 204.15C67.5703 204.072 67.8477 204.033 68.1602 204.033C68.5547 204.033 68.9082 204.101 69.2207 204.238C69.5332 204.371 69.7988 204.562 70.0176 204.812C70.2402 205.062 70.4102 205.363 70.5273 205.714C70.6445 206.066 70.7031 206.458 70.7031 206.892C70.7031 207.302 70.6465 207.679 70.5332 208.023C70.4238 208.367 70.2578 208.667 70.0352 208.925C69.8125 209.179 69.5312 209.376 69.1914 209.517C68.8555 209.658 68.459 209.728 68.002 209.728C67.6582 209.728 67.332 209.681 67.0234 209.587C66.7188 209.49 66.4453 209.343 66.2031 209.148C65.9648 208.949 65.7695 208.703 65.6172 208.41C65.4688 208.113 65.375 207.765 65.3359 207.367H66.3672C66.4141 207.687 66.5078 207.957 66.6484 208.175C66.7891 208.394 66.9727 208.56 67.1992 208.673C67.4297 208.783 67.6973 208.837 68.002 208.837C68.2598 208.837 68.4883 208.792 68.6875 208.703C68.8867 208.613 69.0547 208.484 69.1914 208.316C69.3281 208.148 69.4316 207.945 69.502 207.707C69.5762 207.468 69.6133 207.201 69.6133 206.904C69.6133 206.634 69.5762 206.384 69.502 206.154C69.4277 205.923 69.3164 205.722 69.168 205.55C69.0234 205.378 68.8457 205.246 68.6348 205.152C68.4238 205.054 68.1816 205.005 67.9082 205.005C67.5449 205.005 67.2695 205.054 67.082 205.152C66.8984 205.25 66.709 205.382 66.5137 205.55ZM74.2656 205.539V206.429H71.4062V205.539H74.2656ZM80.9746 206.74V207.63H74.8105V206.992L78.6309 201.08H79.5156L78.5664 202.791L76.041 206.74H80.9746ZM79.7852 201.08V209.611H78.7012V201.08H79.7852ZM87.7246 206.74V207.63H81.5605V206.992L85.3809 201.08H86.2656L85.3164 202.791L82.791 206.74H87.7246ZM86.5352 201.08V209.611H85.4512V201.08H86.5352Z" fill="#8794BA"/>
<path d="M63.9824 264.72V265.611H58.3984V264.832L61.1934 261.72C61.5371 261.337 61.8027 261.013 61.9902 260.748C62.1816 260.478 62.3145 260.238 62.3887 260.027C62.4668 259.812 62.5059 259.593 62.5059 259.371C62.5059 259.089 62.4473 258.835 62.3301 258.609C62.2168 258.378 62.0488 258.195 61.8262 258.058C61.6035 257.921 61.334 257.853 61.0176 257.853C60.6387 257.853 60.3223 257.927 60.0684 258.076C59.8184 258.22 59.6309 258.423 59.5059 258.685C59.3809 258.947 59.3184 259.248 59.3184 259.587H58.2344C58.2344 259.107 58.3398 258.667 58.5508 258.269C58.7617 257.871 59.0742 257.554 59.4883 257.32C59.9023 257.082 60.4121 256.962 61.0176 256.962C61.5566 256.962 62.0176 257.058 62.4004 257.25C62.7832 257.437 63.0762 257.703 63.2793 258.046C63.4863 258.386 63.5898 258.785 63.5898 259.242C63.5898 259.492 63.5469 259.746 63.4609 260.003C63.3789 260.257 63.2637 260.511 63.1152 260.765C62.9707 261.019 62.8008 261.269 62.6055 261.515C62.4141 261.761 62.209 262.003 61.9902 262.242L59.7051 264.72H63.9824ZM66.5137 261.55L65.6465 261.328L66.0742 257.08H70.4512V258.082H66.9941L66.7363 260.402C66.8926 260.312 67.0898 260.228 67.3281 260.15C67.5703 260.072 67.8477 260.033 68.1602 260.033C68.5547 260.033 68.9082 260.101 69.2207 260.238C69.5332 260.371 69.7988 260.562 70.0176 260.812C70.2402 261.062 70.4102 261.363 70.5273 261.714C70.6445 262.066 70.7031 262.458 70.7031 262.892C70.7031 263.302 70.6465 263.679 70.5332 264.023C70.4238 264.367 70.2578 264.667 70.0352 264.925C69.8125 265.179 69.5312 265.376 69.1914 265.517C68.8555 265.658 68.459 265.728 68.002 265.728C67.6582 265.728 67.332 265.681 67.0234 265.587C66.7188 265.49 66.4453 265.343 66.2031 265.148C65.9648 264.949 65.7695 264.703 65.6172 264.41C65.4688 264.113 65.375 263.765 65.3359 263.367H66.3672C66.4141 263.687 66.5078 263.957 66.6484 264.175C66.7891 264.394 66.9727 264.56 67.1992 264.673C67.4297 264.783 67.6973 264.837 68.002 264.837C68.2598 264.837 68.4883 264.792 68.6875 264.703C68.8867 264.613 69.0547 264.484 69.1914 264.316C69.3281 264.148 69.4316 263.945 69.502 263.707C69.5762 263.468 69.6133 263.201 69.6133 262.904C69.6133 262.634 69.5762 262.384 69.502 262.154C69.4277 261.923 69.3164 261.722 69.168 261.55C69.0234 261.378 68.8457 261.246 68.6348 261.152C68.4238 261.054 68.1816 261.005 67.9082 261.005C67.5449 261.005 67.2695 261.054 67.082 261.152C66.8984 261.25 66.709 261.382 66.5137 261.55ZM74.2656 261.539V262.429H71.4062V261.539H74.2656ZM76.791 260.812H77.5645C77.9434 260.812 78.2559 260.75 78.502 260.625C78.752 260.496 78.9375 260.322 79.0586 260.103C79.1836 259.88 79.2461 259.63 79.2461 259.353C79.2461 259.025 79.1914 258.75 79.082 258.527C78.9727 258.304 78.8086 258.136 78.5898 258.023C78.3711 257.91 78.0938 257.853 77.7578 257.853C77.4531 257.853 77.1836 257.914 76.9492 258.035C76.7188 258.152 76.5371 258.32 76.4043 258.539C76.2754 258.757 76.2109 259.015 76.2109 259.312H75.127C75.127 258.878 75.2363 258.484 75.4551 258.128C75.6738 257.773 75.9805 257.49 76.375 257.279C76.7734 257.068 77.2344 256.962 77.7578 256.962C78.2734 256.962 78.7246 257.054 79.1113 257.238C79.498 257.417 79.7988 257.687 80.0137 258.046C80.2285 258.402 80.3359 258.845 80.3359 259.376C80.3359 259.591 80.2852 259.822 80.1836 260.068C80.0859 260.31 79.9316 260.537 79.7207 260.748C79.5137 260.958 79.2441 261.132 78.9121 261.269C78.5801 261.402 78.1816 261.468 77.7168 261.468H76.791V260.812ZM76.791 261.703V261.052H77.7168C78.2598 261.052 78.709 261.117 79.0645 261.246C79.4199 261.375 79.6992 261.546 79.9023 261.761C80.1094 261.976 80.2539 262.212 80.3359 262.47C80.4219 262.724 80.4648 262.978 80.4648 263.232C80.4648 263.63 80.3965 263.984 80.2598 264.292C80.127 264.601 79.9375 264.863 79.6914 265.078C79.4492 265.292 79.1641 265.455 78.8359 265.564C78.5078 265.673 78.1504 265.728 77.7637 265.728C77.3926 265.728 77.043 265.675 76.7148 265.57C76.3906 265.464 76.1035 265.312 75.8535 265.113C75.6035 264.91 75.4082 264.662 75.2676 264.369C75.127 264.072 75.0566 263.734 75.0566 263.355H76.1406C76.1406 263.652 76.2051 263.912 76.334 264.134C76.4668 264.357 76.6543 264.531 76.8965 264.656C77.1426 264.777 77.4316 264.837 77.7637 264.837C78.0957 264.837 78.3809 264.781 78.6191 264.667C78.8613 264.55 79.0469 264.375 79.1758 264.14C79.3086 263.906 79.375 263.611 79.375 263.255C79.375 262.9 79.3008 262.609 79.1523 262.382C79.0039 262.152 78.793 261.982 78.5195 261.873C78.25 261.759 77.9316 261.703 77.5645 261.703H76.791ZM87.7246 262.74V263.63H81.5605V262.992L85.3809 257.08H86.2656L85.3164 258.791L82.791 262.74H87.7246ZM86.5352 257.08V265.611H85.4512V257.08H86.5352Z" fill="#8794BA"/>
<path d="M61.9551 313.033V321.611H60.8711V314.386L58.6855 315.183V314.205L61.7852 313.033H61.9551ZM70.5215 319.302C70.5215 319.822 70.4004 320.263 70.1582 320.626C69.9199 320.986 69.5957 321.259 69.1855 321.447C68.7793 321.634 68.3203 321.728 67.8086 321.728C67.2969 321.728 66.8359 321.634 66.4258 321.447C66.0156 321.259 65.6914 320.986 65.4531 320.626C65.2148 320.263 65.0957 319.822 65.0957 319.302C65.0957 318.962 65.1602 318.652 65.2891 318.371C65.4219 318.085 65.6074 317.837 65.8457 317.626C66.0879 317.416 66.373 317.253 66.7012 317.14C67.0332 317.023 67.3984 316.964 67.7969 316.964C68.3203 316.964 68.7871 317.066 69.1973 317.269C69.6074 317.468 69.9297 317.744 70.1641 318.095C70.4023 318.447 70.5215 318.849 70.5215 319.302ZM69.4316 319.279C69.4316 318.962 69.3633 318.683 69.2266 318.441C69.0898 318.195 68.8984 318.003 68.6523 317.867C68.4062 317.73 68.1211 317.662 67.7969 317.662C67.4648 317.662 67.1777 317.73 66.9355 317.867C66.6973 318.003 66.5117 318.195 66.3789 318.441C66.2461 318.683 66.1797 318.962 66.1797 319.279C66.1797 319.607 66.2441 319.888 66.373 320.123C66.5059 320.353 66.6934 320.531 66.9355 320.656C67.1816 320.777 67.4727 320.837 67.8086 320.837C68.1445 320.837 68.4336 320.777 68.6758 320.656C68.918 320.531 69.1035 320.353 69.2324 320.123C69.3652 319.888 69.4316 319.607 69.4316 319.279ZM70.3223 315.3C70.3223 315.714 70.2129 316.087 69.9941 316.419C69.7754 316.751 69.4766 317.013 69.0977 317.205C68.7188 317.396 68.2891 317.492 67.8086 317.492C67.3203 317.492 66.8848 317.396 66.502 317.205C66.123 317.013 65.8262 316.751 65.6113 316.419C65.3965 316.087 65.2891 315.714 65.2891 315.3C65.2891 314.804 65.3965 314.382 65.6113 314.035C65.8301 313.687 66.1289 313.421 66.5078 313.238C66.8867 313.054 67.3184 312.962 67.8027 312.962C68.291 312.962 68.7246 313.054 69.1035 313.238C69.4824 313.421 69.7793 313.687 69.9941 314.035C70.2129 314.382 70.3223 314.804 70.3223 315.3ZM69.2383 315.318C69.2383 315.033 69.1777 314.781 69.0566 314.562C68.9355 314.343 68.7676 314.171 68.5527 314.046C68.3379 313.917 68.0879 313.853 67.8027 313.853C67.5176 313.853 67.2676 313.914 67.0527 314.035C66.8418 314.152 66.6758 314.32 66.5547 314.539C66.4375 314.757 66.3789 315.017 66.3789 315.318C66.3789 315.611 66.4375 315.867 66.5547 316.085C66.6758 316.304 66.8438 316.474 67.0586 316.595C67.2734 316.716 67.5234 316.777 67.8086 316.777C68.0938 316.777 68.3418 316.716 68.5527 316.595C68.7676 316.474 68.9355 316.304 69.0566 316.085C69.1777 315.867 69.2383 315.611 69.2383 315.318ZM74.2656 317.539V318.429H71.4062V317.539H74.2656ZM80.7988 320.72V321.611H75.2148V320.832L78.0098 317.72C78.3535 317.337 78.6191 317.013 78.8066 316.748C78.998 316.478 79.1309 316.238 79.2051 316.027C79.2832 315.812 79.3223 315.593 79.3223 315.371C79.3223 315.089 79.2637 314.835 79.1465 314.609C79.0332 314.378 78.8652 314.195 78.6426 314.058C78.4199 313.921 78.1504 313.853 77.834 313.853C77.4551 313.853 77.1387 313.927 76.8848 314.076C76.6348 314.22 76.4473 314.423 76.3223 314.685C76.1973 314.947 76.1348 315.248 76.1348 315.587H75.0508C75.0508 315.107 75.1562 314.667 75.3672 314.269C75.5781 313.871 75.8906 313.554 76.3047 313.32C76.7188 313.082 77.2285 312.962 77.834 312.962C78.373 312.962 78.834 313.058 79.2168 313.25C79.5996 313.437 79.8926 313.703 80.0957 314.046C80.3027 314.386 80.4062 314.785 80.4062 315.242C80.4062 315.492 80.3633 315.746 80.2773 316.003C80.1953 316.257 80.0801 316.511 79.9316 316.765C79.7871 317.019 79.6172 317.269 79.4219 317.515C79.2305 317.761 79.0254 318.003 78.8066 318.242L76.5215 320.72H80.7988ZM87.7246 318.74V319.63H81.5605V318.992L85.3809 313.08H86.2656L85.3164 314.791L82.791 318.74H87.7246ZM86.5352 313.08V321.611H85.4512V313.08H86.5352Z" fill="#8794BA"/>
<path d="M99 79.6108H355.5C358.538 79.6108 361 82.0733 361 85.1108C361 88.1484 358.538 90.6108 355.5 90.6108H99V79.6108Z" fill="#72388D"/>
<path d="M99 136.611H268.5C271.538 136.611 274 139.073 274 142.111C274 145.148 271.538 147.611 268.5 147.611H99V136.611Z" fill="#72388D"/>
<path d="M99 193.611H109.5C112.538 193.611 115 196.073 115 199.111C115 202.148 112.538 204.611 109.5 204.611H99V193.611Z" fill="#72388D"/>
<path d="M99 250.611H141.5C144.538 250.611 147 253.073 147 256.111C147 259.148 144.538 261.611 141.5 261.611H99V250.611Z" fill="#72388D"/>
<path d="M99 307.611H301.5C304.538 307.611 307 310.073 307 313.111C307 316.148 304.538 318.611 301.5 318.611H99V307.611Z" fill="#72388D"/>
<path d="M99 93.6108H241.5C244.538 93.6108 247 96.0733 247 99.1108C247 102.148 244.538 104.611 241.5 104.611H99V93.6108Z" fill="#270139"/>
<path d="M99 150.611H301.5C304.538 150.611 307 153.073 307 156.111C307 159.148 304.538 161.611 301.5 161.611H99V150.611Z" fill="#270139"/>
<path d="M99 207.611H141.5C144.538 207.611 147 210.073 147 213.111C147 216.148 144.538 218.611 141.5 218.611H99V207.611Z" fill="#270139"/>
<path d="M99 264.611H432.5C435.538 264.611 438 267.073 438 270.111C438 273.148 435.538 275.611 432.5 275.611H99V264.611Z" fill="#270139"/>
<path d="M99 321.611H489.5C492.538 321.611 495 324.073 495 327.111C495 330.148 492.538 332.611 489.5 332.611H99V321.611Z" fill="#270139"/>
<defs>
<filter id="filter0_d_159_652" x="0" y="0.61084" width="632" height="455" filterUnits="userSpaceOnUse" color-interpolation-filters="sRGB">
<feFlood flood-opacity="0" result="BackgroundImageFix"/>
<feColorMatrix in="SourceAlpha" type="matrix" values="0 0 0 0 0 0 0 0 0 0 0 0 0 0 0 0 0 0 127 0" result="hardAlpha"/>
<feMorphology radius="15" operator="erode" in="SourceAlpha" result="effect1_dropShadow_159_652"/>
<feOffset dx="17" dy="30"/>
<feGaussianBlur stdDeviation="15"/>
<feColorMatrix type="matrix" values="0 0 0 0 0.0996452 0 0 0 0 0.164326 0 0 0 0 0.350284 0 0 0 0.2 0"/>
<feBlend mode="normal" in2="BackgroundImageFix" result="effect1_dropShadow_159_652"/>
<feBlend mode="normal" in="SourceGraphic" in2="effect1_dropShadow_159_652" result="shape"/>
</filter>
</defs>
</svg>
