<svg width="555" height="213" viewBox="0 0 555 213" fill="none" xmlns="http://www.w3.org/2000/svg">
<g filter="url(#filter0_d_235_2314)">
<path d="M23.9297 73.2823C40.3651 68.9727 78.831 61.6463 101.211 66.8179C129.186 73.2823 137.929 98.1452 159.959 90.6863C181.989 83.2274 229.897 30.5177 263.118 51.9C296.338 73.2823 307.178 129.473 348.442 90.6863C389.705 51.9 386.208 31.5123 420.478 35.4904C454.748 39.4685 511.048 52.8945 531.33 35.4904" stroke="#5D0089" stroke-width="4" stroke-linecap="round"/>
</g>
<path d="M23.9297 130.756C40.3651 126.451 62.0459 104.228 84.426 109.394C112.401 115.852 124.291 158.583 146.321 151.131C168.352 143.679 227.188 100.546 263.118 109.394C307.528 120.33 301.234 169.505 342.497 130.756C383.761 92.0067 408.938 115.362 443.208 119.337C477.477 123.311 511.048 110.388 531.33 93.0002" stroke="#FF715B" stroke-width="4" stroke-linecap="round"/>
<ellipse cx="247.172" cy="47" rx="6.98083" ry="8" fill="#5D0089"/>
<ellipse cx="247.172" cy="47" rx="4.36301" ry="5" fill="white"/>
<path d="M218.488 5.99975C218.488 2.68605 221.175 -0.000244141 224.488 -0.000244141H271.374C274.688 -0.000244141 277.374 2.68605 277.374 5.99976V22.6313C277.374 25.945 274.688 28.6313 271.374 28.6313H257.679C254.253 28.6313 251.011 30.1817 248.86 32.8487V32.8487C248.382 33.4406 247.48 33.4406 247.003 32.8487V32.8487C244.852 30.1817 241.61 28.6313 238.183 28.6313H224.488C221.175 28.6313 218.488 25.945 218.488 22.6313V5.99975Z" fill="#5D0089"/>
<path d="M229.6 18.1635V17.3165C228.889 17.2359 228.309 16.9865 227.862 16.5685C227.415 16.1505 227.184 15.5895 227.169 14.8855H228.654C228.669 15.1789 228.757 15.4355 228.918 15.6555C229.087 15.8755 229.314 16.0259 229.6 16.1065V13.7855C229.534 13.7635 229.464 13.7415 229.391 13.7195C229.325 13.6975 229.255 13.6755 229.182 13.6535C228.588 13.4482 228.133 13.1842 227.818 12.8615C227.51 12.5389 227.356 12.1099 227.356 11.5745C227.349 10.9439 227.554 10.4379 227.972 10.0565C228.39 9.66788 228.933 9.44421 229.6 9.38554V8.49454H230.337V9.39654C230.997 9.46254 231.529 9.69354 231.932 10.0895C232.343 10.4782 232.559 10.9805 232.581 11.5965H231.074C231.067 11.3839 230.997 11.1895 230.865 11.0135C230.74 10.8302 230.564 10.7019 230.337 10.6285V12.6745C230.396 12.6965 230.454 12.7185 230.513 12.7405C230.572 12.7552 230.63 12.7735 230.689 12.7955C231.07 12.9275 231.419 13.0815 231.734 13.2575C232.049 13.4335 232.302 13.6682 232.493 13.9615C232.684 14.2475 232.779 14.6179 232.779 15.0725C232.779 15.4539 232.684 15.8095 232.493 16.1395C232.31 16.4695 232.035 16.7445 231.668 16.9645C231.309 17.1772 230.865 17.2982 230.337 17.3275V18.1635H229.6ZM228.83 11.4755C228.83 11.7102 228.9 11.9009 229.039 12.0475C229.178 12.1869 229.365 12.3079 229.6 12.4105V10.5845C229.373 10.6285 229.186 10.7275 229.039 10.8815C228.9 11.0355 228.83 11.2335 228.83 11.4755ZM231.283 15.1715C231.283 14.8782 231.195 14.6472 231.019 14.4785C230.843 14.3099 230.616 14.1669 230.337 14.0495V16.1395C230.63 16.0955 230.861 15.9892 231.03 15.8205C231.199 15.6519 231.283 15.4355 231.283 15.1715ZM234.624 17.2065V11.1125L233.359 11.4095V10.3315L235.218 9.50654H236.087V17.2065H234.624ZM240.517 17.3385C239.805 17.3385 239.197 17.1735 238.691 16.8435C238.185 16.5062 237.792 16.0405 237.514 15.4465C237.242 14.8452 237.107 14.1485 237.107 13.3565C237.107 12.5719 237.242 11.8789 237.514 11.2775C237.792 10.6762 238.185 10.2105 238.691 9.88054C239.197 9.54321 239.805 9.37454 240.517 9.37454C241.228 9.37454 241.837 9.54321 242.343 9.88054C242.849 10.2105 243.237 10.6762 243.509 11.2775C243.787 11.8789 243.927 12.5719 243.927 13.3565C243.927 14.1485 243.787 14.8452 243.509 15.4465C243.237 16.0405 242.849 16.5062 242.343 16.8435C241.837 17.1735 241.228 17.3385 240.517 17.3385ZM240.517 16.0735C241.096 16.0735 241.569 15.8315 241.936 15.3475C242.302 14.8635 242.486 14.1999 242.486 13.3565C242.486 12.5132 242.302 11.8495 241.936 11.3655C241.569 10.8815 241.096 10.6395 240.517 10.6395C239.93 10.6395 239.453 10.8815 239.087 11.3655C238.727 11.8495 238.548 12.5132 238.548 13.3565C238.548 14.1999 238.727 14.8635 239.087 15.3475C239.453 15.8315 239.93 16.0735 240.517 16.0735ZM247.666 17.3385C247.138 17.3385 246.662 17.2469 246.236 17.0635C245.811 16.8729 245.47 16.6052 245.213 16.2605C244.964 15.9159 244.839 15.5162 244.839 15.0615C244.839 14.5922 244.96 14.1815 245.202 13.8295C245.452 13.4775 245.778 13.2245 246.181 13.0705C245.829 12.9165 245.551 12.6965 245.345 12.4105C245.14 12.1172 245.037 11.7909 245.037 11.4315C245.037 11.0649 245.136 10.7275 245.334 10.4195C245.532 10.1042 245.826 9.85121 246.214 9.66054C246.61 9.46988 247.094 9.37454 247.666 9.37454C248.238 9.37454 248.719 9.46988 249.107 9.66054C249.496 9.85121 249.789 10.1042 249.987 10.4195C250.185 10.7275 250.284 11.0649 250.284 11.4315C250.284 11.7835 250.178 12.1099 249.965 12.4105C249.76 12.7039 249.485 12.9239 249.14 13.0705C249.551 13.2245 249.877 13.4775 250.119 13.8295C250.361 14.1815 250.482 14.5922 250.482 15.0615C250.482 15.5162 250.358 15.9159 250.108 16.2605C249.859 16.6052 249.518 16.8729 249.085 17.0635C248.66 17.2469 248.187 17.3385 247.666 17.3385ZM247.666 12.6525C248.048 12.6525 248.348 12.5535 248.568 12.3555C248.788 12.1575 248.898 11.9045 248.898 11.5965C248.898 11.2592 248.788 10.9952 248.568 10.8045C248.356 10.6139 248.055 10.5185 247.666 10.5185C247.27 10.5185 246.966 10.6139 246.753 10.8045C246.541 10.9952 246.434 11.2592 246.434 11.5965C246.434 11.9119 246.541 12.1685 246.753 12.3665C246.973 12.5572 247.278 12.6525 247.666 12.6525ZM247.666 16.1615C248.136 16.1615 248.491 16.0479 248.733 15.8205C248.975 15.5859 249.096 15.2925 249.096 14.9405C249.096 14.5519 248.968 14.2475 248.711 14.0275C248.462 13.8075 248.114 13.6975 247.666 13.6975C247.219 13.6975 246.863 13.8075 246.599 14.0275C246.343 14.2475 246.214 14.5519 246.214 14.9405C246.214 15.2925 246.335 15.5859 246.577 15.8205C246.827 16.0479 247.19 16.1615 247.666 16.1615ZM252.219 17.2835C251.962 17.2835 251.75 17.2029 251.581 17.0415C251.42 16.8802 251.339 16.6859 251.339 16.4585C251.339 16.2239 251.42 16.0259 251.581 15.8645C251.75 15.7032 251.962 15.6225 252.219 15.6225C252.476 15.6225 252.685 15.7032 252.846 15.8645C253.015 16.0259 253.099 16.2239 253.099 16.4585C253.099 16.6859 253.015 16.8802 252.846 17.0415C252.685 17.2029 252.476 17.2835 252.219 17.2835ZM256.786 17.3385C256.075 17.3385 255.466 17.1735 254.96 16.8435C254.454 16.5062 254.062 16.0405 253.783 15.4465C253.512 14.8452 253.376 14.1485 253.376 13.3565C253.376 12.5719 253.512 11.8789 253.783 11.2775C254.062 10.6762 254.454 10.2105 254.96 9.88054C255.466 9.54321 256.075 9.37454 256.786 9.37454C257.498 9.37454 258.106 9.54321 258.612 9.88054C259.118 10.2105 259.507 10.6762 259.778 11.2775C260.057 11.8789 260.196 12.5719 260.196 13.3565C260.196 14.1485 260.057 14.8452 259.778 15.4465C259.507 16.0405 259.118 16.5062 258.612 16.8435C258.106 17.1735 257.498 17.3385 256.786 17.3385ZM256.786 16.0735C257.366 16.0735 257.839 15.8315 258.205 15.3475C258.572 14.8635 258.755 14.1999 258.755 13.3565C258.755 12.5132 258.572 11.8495 258.205 11.3655C257.839 10.8815 257.366 10.6395 256.786 10.6395C256.2 10.6395 255.723 10.8815 255.356 11.3655C254.997 11.8495 254.817 12.5132 254.817 13.3565C254.817 14.1999 254.997 14.8635 255.356 15.3475C255.723 15.8315 256.2 16.0735 256.786 16.0735ZM264.376 17.3385C263.665 17.3385 263.056 17.1735 262.55 16.8435C262.044 16.5062 261.652 16.0405 261.373 15.4465C261.102 14.8452 260.966 14.1485 260.966 13.3565C260.966 12.5719 261.102 11.8789 261.373 11.2775C261.652 10.6762 262.044 10.2105 262.55 9.88054C263.056 9.54321 263.665 9.37454 264.376 9.37454C265.087 9.37454 265.696 9.54321 266.202 9.88054C266.708 10.2105 267.097 10.6762 267.368 11.2775C267.647 11.8789 267.786 12.5719 267.786 13.3565C267.786 14.1485 267.647 14.8452 267.368 15.4465C267.097 16.0405 266.708 16.5062 266.202 16.8435C265.696 17.1735 265.087 17.3385 264.376 17.3385ZM264.376 16.0735C264.955 16.0735 265.428 15.8315 265.795 15.3475C266.162 14.8635 266.345 14.1999 266.345 13.3565C266.345 12.5132 266.162 11.8495 265.795 11.3655C265.428 10.8815 264.955 10.6395 264.376 10.6395C263.789 10.6395 263.313 10.8815 262.946 11.3655C262.587 11.8495 262.407 12.5132 262.407 13.3565C262.407 14.1999 262.587 14.8635 262.946 15.3475C263.313 15.8315 263.789 16.0735 264.376 16.0735Z" fill="white"/>
<path d="M19.5334 205.144C18.9174 205.144 18.3774 205.036 17.9134 204.82C17.4494 204.604 17.0854 204.296 16.8214 203.896C16.5654 203.496 16.4334 203.02 16.4254 202.468H17.7694C17.7774 202.916 17.9334 203.296 18.2374 203.608C18.5414 203.92 18.9694 204.076 19.5214 204.076C20.0094 204.076 20.3894 203.96 20.6614 203.728C20.9414 203.488 21.0814 203.184 21.0814 202.816C21.0814 202.52 21.0134 202.28 20.8774 202.096C20.7494 201.912 20.5694 201.76 20.3374 201.64C20.1134 201.52 19.8534 201.412 19.5574 201.316C19.2614 201.22 18.9494 201.116 18.6214 201.004C17.9734 200.788 17.4854 200.508 17.1574 200.164C16.8374 199.82 16.6774 199.368 16.6774 198.808C16.6694 198.336 16.7774 197.924 17.0014 197.572C17.2334 197.22 17.5534 196.948 17.9614 196.756C18.3774 196.556 18.8614 196.456 19.4134 196.456C19.9574 196.456 20.4334 196.556 20.8414 196.756C21.2574 196.956 21.5814 197.236 21.8134 197.596C22.0454 197.948 22.1654 198.36 22.1734 198.832H20.8294C20.8294 198.616 20.7734 198.412 20.6614 198.22C20.5494 198.02 20.3854 197.856 20.1694 197.728C19.9534 197.6 19.6894 197.536 19.3774 197.536C18.9774 197.528 18.6454 197.628 18.3814 197.836C18.1254 198.044 17.9974 198.332 17.9974 198.7C17.9974 199.028 18.0934 199.28 18.2854 199.456C18.4774 199.632 18.7414 199.78 19.0774 199.9C19.4134 200.012 19.7974 200.144 20.2294 200.296C20.6454 200.432 21.0174 200.596 21.3454 200.788C21.6734 200.98 21.9334 201.232 22.1254 201.544C22.3254 201.856 22.4254 202.252 22.4254 202.732C22.4254 203.156 22.3174 203.552 22.1014 203.92C21.8854 204.28 21.5614 204.576 21.1294 204.808C20.6974 205.032 20.1654 205.144 19.5334 205.144ZM23.5761 205V196.6H28.9161V197.632H24.8481V200.248H28.5561V201.256H24.8481V203.968H28.9161V205H23.5761ZM30.1915 205V196.6H33.1315C33.7875 196.6 34.3315 196.712 34.7635 196.936C35.1955 197.152 35.5155 197.452 35.7235 197.836C35.9395 198.212 36.0475 198.64 36.0475 199.12C36.0475 199.576 35.9435 199.996 35.7355 200.38C35.5355 200.756 35.2195 201.056 34.7875 201.28C34.3555 201.504 33.8035 201.616 33.1315 201.616H31.4635V205H30.1915ZM31.4635 200.572H33.0715C33.6715 200.572 34.0995 200.444 34.3555 200.188C34.6195 199.924 34.7515 199.568 34.7515 199.12C34.7515 198.656 34.6195 198.296 34.3555 198.04C34.0995 197.776 33.6715 197.644 33.0715 197.644H31.4635V200.572Z" fill="#A3AED0"/>
<path d="M95.7722 205.144C94.9402 205.144 94.2122 204.96 93.5882 204.592C92.9642 204.224 92.4762 203.716 92.1242 203.068C91.7722 202.412 91.5962 201.656 91.5962 200.8C91.5962 199.944 91.7722 199.192 92.1242 198.544C92.4762 197.888 92.9642 197.376 93.5882 197.008C94.2122 196.64 94.9402 196.456 95.7722 196.456C96.6042 196.456 97.3322 196.64 97.9562 197.008C98.5802 197.376 99.0642 197.888 99.4082 198.544C99.7602 199.192 99.9362 199.944 99.9362 200.8C99.9362 201.656 99.7602 202.412 99.4082 203.068C99.0642 203.716 98.5802 204.224 97.9562 204.592C97.3322 204.96 96.6042 205.144 95.7722 205.144ZM95.7722 204.004C96.3482 204.004 96.8482 203.876 97.2722 203.62C97.7042 203.364 98.0402 202.996 98.2802 202.516C98.5202 202.036 98.6402 201.464 98.6402 200.8C98.6402 200.136 98.5202 199.564 98.2802 199.084C98.0402 198.604 97.7042 198.236 97.2722 197.98C96.8482 197.724 96.3482 197.596 95.7722 197.596C95.1962 197.596 94.6922 197.724 94.2602 197.98C93.8282 198.236 93.4922 198.604 93.2522 199.084C93.0202 199.564 92.9042 200.136 92.9042 200.8C92.9042 201.464 93.0202 202.036 93.2522 202.516C93.4922 202.996 93.8282 203.364 94.2602 203.62C94.6922 203.876 95.1962 204.004 95.7722 204.004ZM104.857 205.144C104.025 205.144 103.305 204.964 102.697 204.604C102.097 204.236 101.633 203.728 101.305 203.08C100.977 202.424 100.813 201.668 100.813 200.812C100.813 199.948 100.977 199.192 101.305 198.544C101.633 197.888 102.097 197.376 102.697 197.008C103.305 196.64 104.025 196.456 104.857 196.456C105.841 196.456 106.645 196.696 107.269 197.176C107.893 197.656 108.289 198.328 108.457 199.192H107.041C106.929 198.704 106.689 198.316 106.321 198.028C105.953 197.74 105.461 197.596 104.845 197.596C104.005 197.596 103.341 197.884 102.853 198.46C102.365 199.028 102.121 199.812 102.121 200.812C102.121 201.804 102.365 202.584 102.853 203.152C103.341 203.72 104.005 204.004 104.845 204.004C105.461 204.004 105.953 203.868 106.321 203.596C106.689 203.324 106.929 202.952 107.041 202.48H108.457C108.289 203.312 107.893 203.964 107.269 204.436C106.645 204.908 105.841 205.144 104.857 205.144ZM111.431 205V197.632H108.947V196.6H115.175V197.632H112.703V205H111.431Z" fill="#A3AED0"/>
<path d="M168.56 205V196.6H169.832L174.044 202.924V196.6H175.316V205H174.044L169.832 198.676V205H168.56ZM180.657 205.144C179.825 205.144 179.097 204.96 178.473 204.592C177.849 204.224 177.361 203.716 177.009 203.068C176.657 202.412 176.481 201.656 176.481 200.8C176.481 199.944 176.657 199.192 177.009 198.544C177.361 197.888 177.849 197.376 178.473 197.008C179.097 196.64 179.825 196.456 180.657 196.456C181.489 196.456 182.217 196.64 182.841 197.008C183.465 197.376 183.949 197.888 184.293 198.544C184.645 199.192 184.821 199.944 184.821 200.8C184.821 201.656 184.645 202.412 184.293 203.068C183.949 203.716 183.465 204.224 182.841 204.592C182.217 204.96 181.489 205.144 180.657 205.144ZM180.657 204.004C181.233 204.004 181.733 203.876 182.157 203.62C182.589 203.364 182.925 202.996 183.165 202.516C183.405 202.036 183.525 201.464 183.525 200.8C183.525 200.136 183.405 199.564 183.165 199.084C182.925 198.604 182.589 198.236 182.157 197.98C181.733 197.724 181.233 197.596 180.657 197.596C180.081 197.596 179.577 197.724 179.145 197.98C178.713 198.236 178.377 198.604 178.137 199.084C177.905 199.564 177.789 200.136 177.789 200.8C177.789 201.464 177.905 202.036 178.137 202.516C178.377 202.996 178.713 203.364 179.145 203.62C179.577 203.876 180.081 204.004 180.657 204.004ZM188.177 205L185.069 196.6H186.425L188.945 203.68L191.477 196.6H192.821L189.713 205H188.177Z" fill="#A3AED0"/>
<path d="M246.552 205V196.6H249.276C250.26 196.6 251.068 196.772 251.7 197.116C252.34 197.46 252.812 197.948 253.116 198.58C253.428 199.204 253.584 199.948 253.584 200.812C253.584 201.668 253.428 202.412 253.116 203.044C252.812 203.668 252.34 204.152 251.7 204.496C251.068 204.832 250.26 205 249.276 205H246.552ZM247.824 203.92H249.228C249.988 203.92 250.588 203.796 251.028 203.548C251.476 203.3 251.796 202.944 251.988 202.48C252.188 202.016 252.288 201.46 252.288 200.812C252.288 200.164 252.188 199.604 251.988 199.132C251.796 198.66 251.476 198.3 251.028 198.052C250.588 197.796 249.988 197.668 249.228 197.668H247.824V203.92ZM254.75 205V196.6H260.09V197.632H256.022V200.248H259.73V201.256H256.022V203.968H260.09V205H254.75ZM265.109 205.144C264.277 205.144 263.557 204.964 262.949 204.604C262.349 204.236 261.885 203.728 261.557 203.08C261.229 202.424 261.065 201.668 261.065 200.812C261.065 199.948 261.229 199.192 261.557 198.544C261.885 197.888 262.349 197.376 262.949 197.008C263.557 196.64 264.277 196.456 265.109 196.456C266.093 196.456 266.897 196.696 267.521 197.176C268.145 197.656 268.541 198.328 268.709 199.192H267.293C267.181 198.704 266.941 198.316 266.573 198.028C266.205 197.74 265.713 197.596 265.097 197.596C264.257 197.596 263.593 197.884 263.105 198.46C262.617 199.028 262.373 199.812 262.373 200.812C262.373 201.804 262.617 202.584 263.105 203.152C263.593 203.72 264.257 204.004 265.097 204.004C265.713 204.004 266.205 203.868 266.573 203.596C266.941 203.324 267.181 202.952 267.293 202.48H268.709C268.541 203.312 268.145 203.964 267.521 204.436C266.897 204.908 266.093 205.144 265.109 205.144Z" fill="#A3AED0"/>
<path d="M326.461 205.144C325.677 205.144 325.053 204.924 324.589 204.484C324.133 204.044 323.905 203.424 323.905 202.624H325.177C325.177 203.024 325.273 203.356 325.465 203.62C325.665 203.884 325.989 204.016 326.437 204.016C326.877 204.016 327.189 203.892 327.373 203.644C327.557 203.388 327.649 203.064 327.649 202.672V196.6H328.921V202.672C328.921 203.464 328.701 204.076 328.261 204.508C327.821 204.932 327.221 205.144 326.461 205.144ZM329.477 205L332.573 196.6H333.965L337.037 205H335.693L334.973 202.948H331.541L330.821 205H329.477ZM331.901 201.94H334.613L333.257 198.112L331.901 201.94ZM337.969 205V196.6H339.241L343.453 202.924V196.6H344.725V205H343.453L339.241 198.676V205H337.969Z" fill="#A3AED0"/>
<path d="M402.381 205V196.6H407.649V197.632H403.653V200.284H406.965V201.304H403.653V205H402.381ZM408.656 205V196.6H413.996V197.632H409.928V200.248H413.636V201.256H409.928V203.968H413.996V205H408.656ZM415.272 205V196.6H418.44C419.312 196.6 419.972 196.804 420.42 197.212C420.868 197.62 421.092 198.132 421.092 198.748C421.092 199.284 420.948 199.712 420.66 200.032C420.372 200.344 420.024 200.556 419.616 200.668C419.936 200.732 420.22 200.86 420.468 201.052C420.724 201.244 420.924 201.484 421.068 201.772C421.212 202.06 421.284 202.372 421.284 202.708C421.284 203.14 421.176 203.532 420.96 203.884C420.752 204.228 420.444 204.5 420.036 204.7C419.628 204.9 419.128 205 418.536 205H415.272ZM416.544 200.2H418.284C418.772 200.2 419.144 200.088 419.4 199.864C419.656 199.632 419.784 199.316 419.784 198.916C419.784 198.524 419.656 198.212 419.4 197.98C419.152 197.748 418.772 197.632 418.26 197.632H416.544V200.2ZM416.544 203.956H418.368C418.88 203.956 419.276 203.836 419.556 203.596C419.844 203.356 419.988 203.02 419.988 202.588C419.988 202.156 419.84 201.816 419.544 201.568C419.248 201.312 418.848 201.184 418.344 201.184H416.544V203.956Z" fill="#A3AED0"/>
<path d="M19.5334 205.144C18.9174 205.144 18.3774 205.036 17.9134 204.82C17.4494 204.604 17.0854 204.296 16.8214 203.896C16.5654 203.496 16.4334 203.02 16.4254 202.468H17.7694C17.7774 202.916 17.9334 203.296 18.2374 203.608C18.5414 203.92 18.9694 204.076 19.5214 204.076C20.0094 204.076 20.3894 203.96 20.6614 203.728C20.9414 203.488 21.0814 203.184 21.0814 202.816C21.0814 202.52 21.0134 202.28 20.8774 202.096C20.7494 201.912 20.5694 201.76 20.3374 201.64C20.1134 201.52 19.8534 201.412 19.5574 201.316C19.2614 201.22 18.9494 201.116 18.6214 201.004C17.9734 200.788 17.4854 200.508 17.1574 200.164C16.8374 199.82 16.6774 199.368 16.6774 198.808C16.6694 198.336 16.7774 197.924 17.0014 197.572C17.2334 197.22 17.5534 196.948 17.9614 196.756C18.3774 196.556 18.8614 196.456 19.4134 196.456C19.9574 196.456 20.4334 196.556 20.8414 196.756C21.2574 196.956 21.5814 197.236 21.8134 197.596C22.0454 197.948 22.1654 198.36 22.1734 198.832H20.8294C20.8294 198.616 20.7734 198.412 20.6614 198.22C20.5494 198.02 20.3854 197.856 20.1694 197.728C19.9534 197.6 19.6894 197.536 19.3774 197.536C18.9774 197.528 18.6454 197.628 18.3814 197.836C18.1254 198.044 17.9974 198.332 17.9974 198.7C17.9974 199.028 18.0934 199.28 18.2854 199.456C18.4774 199.632 18.7414 199.78 19.0774 199.9C19.4134 200.012 19.7974 200.144 20.2294 200.296C20.6454 200.432 21.0174 200.596 21.3454 200.788C21.6734 200.98 21.9334 201.232 22.1254 201.544C22.3254 201.856 22.4254 202.252 22.4254 202.732C22.4254 203.156 22.3174 203.552 22.1014 203.92C21.8854 204.28 21.5614 204.576 21.1294 204.808C20.6974 205.032 20.1654 205.144 19.5334 205.144ZM23.5761 205V196.6H28.9161V197.632H24.8481V200.248H28.5561V201.256H24.8481V203.968H28.9161V205H23.5761ZM30.1915 205V196.6H33.1315C33.7875 196.6 34.3315 196.712 34.7635 196.936C35.1955 197.152 35.5155 197.452 35.7235 197.836C35.9395 198.212 36.0475 198.64 36.0475 199.12C36.0475 199.576 35.9435 199.996 35.7355 200.38C35.5355 200.756 35.2195 201.056 34.7875 201.28C34.3555 201.504 33.8035 201.616 33.1315 201.616H31.4635V205H30.1915ZM31.4635 200.572H33.0715C33.6715 200.572 34.0995 200.444 34.3555 200.188C34.6195 199.924 34.7515 199.568 34.7515 199.12C34.7515 198.656 34.6195 198.296 34.3555 198.04C34.0995 197.776 33.6715 197.644 33.0715 197.644H31.4635V200.572Z" fill="#A3AED0"/>
<path d="M95.7722 205.144C94.9402 205.144 94.2122 204.96 93.5882 204.592C92.9642 204.224 92.4762 203.716 92.1242 203.068C91.7722 202.412 91.5962 201.656 91.5962 200.8C91.5962 199.944 91.7722 199.192 92.1242 198.544C92.4762 197.888 92.9642 197.376 93.5882 197.008C94.2122 196.64 94.9402 196.456 95.7722 196.456C96.6042 196.456 97.3322 196.64 97.9562 197.008C98.5802 197.376 99.0642 197.888 99.4082 198.544C99.7602 199.192 99.9362 199.944 99.9362 200.8C99.9362 201.656 99.7602 202.412 99.4082 203.068C99.0642 203.716 98.5802 204.224 97.9562 204.592C97.3322 204.96 96.6042 205.144 95.7722 205.144ZM95.7722 204.004C96.3482 204.004 96.8482 203.876 97.2722 203.62C97.7042 203.364 98.0402 202.996 98.2802 202.516C98.5202 202.036 98.6402 201.464 98.6402 200.8C98.6402 200.136 98.5202 199.564 98.2802 199.084C98.0402 198.604 97.7042 198.236 97.2722 197.98C96.8482 197.724 96.3482 197.596 95.7722 197.596C95.1962 197.596 94.6922 197.724 94.2602 197.98C93.8282 198.236 93.4922 198.604 93.2522 199.084C93.0202 199.564 92.9042 200.136 92.9042 200.8C92.9042 201.464 93.0202 202.036 93.2522 202.516C93.4922 202.996 93.8282 203.364 94.2602 203.62C94.6922 203.876 95.1962 204.004 95.7722 204.004ZM104.857 205.144C104.025 205.144 103.305 204.964 102.697 204.604C102.097 204.236 101.633 203.728 101.305 203.08C100.977 202.424 100.813 201.668 100.813 200.812C100.813 199.948 100.977 199.192 101.305 198.544C101.633 197.888 102.097 197.376 102.697 197.008C103.305 196.64 104.025 196.456 104.857 196.456C105.841 196.456 106.645 196.696 107.269 197.176C107.893 197.656 108.289 198.328 108.457 199.192H107.041C106.929 198.704 106.689 198.316 106.321 198.028C105.953 197.74 105.461 197.596 104.845 197.596C104.005 197.596 103.341 197.884 102.853 198.46C102.365 199.028 102.121 199.812 102.121 200.812C102.121 201.804 102.365 202.584 102.853 203.152C103.341 203.72 104.005 204.004 104.845 204.004C105.461 204.004 105.953 203.868 106.321 203.596C106.689 203.324 106.929 202.952 107.041 202.48H108.457C108.289 203.312 107.893 203.964 107.269 204.436C106.645 204.908 105.841 205.144 104.857 205.144ZM111.431 205V197.632H108.947V196.6H115.175V197.632H112.703V205H111.431Z" fill="#A3AED0"/>
<path d="M168.56 205V196.6H169.832L174.044 202.924V196.6H175.316V205H174.044L169.832 198.676V205H168.56ZM180.657 205.144C179.825 205.144 179.097 204.96 178.473 204.592C177.849 204.224 177.361 203.716 177.009 203.068C176.657 202.412 176.481 201.656 176.481 200.8C176.481 199.944 176.657 199.192 177.009 198.544C177.361 197.888 177.849 197.376 178.473 197.008C179.097 196.64 179.825 196.456 180.657 196.456C181.489 196.456 182.217 196.64 182.841 197.008C183.465 197.376 183.949 197.888 184.293 198.544C184.645 199.192 184.821 199.944 184.821 200.8C184.821 201.656 184.645 202.412 184.293 203.068C183.949 203.716 183.465 204.224 182.841 204.592C182.217 204.96 181.489 205.144 180.657 205.144ZM180.657 204.004C181.233 204.004 181.733 203.876 182.157 203.62C182.589 203.364 182.925 202.996 183.165 202.516C183.405 202.036 183.525 201.464 183.525 200.8C183.525 200.136 183.405 199.564 183.165 199.084C182.925 198.604 182.589 198.236 182.157 197.98C181.733 197.724 181.233 197.596 180.657 197.596C180.081 197.596 179.577 197.724 179.145 197.98C178.713 198.236 178.377 198.604 178.137 199.084C177.905 199.564 177.789 200.136 177.789 200.8C177.789 201.464 177.905 202.036 178.137 202.516C178.377 202.996 178.713 203.364 179.145 203.62C179.577 203.876 180.081 204.004 180.657 204.004ZM188.177 205L185.069 196.6H186.425L188.945 203.68L191.477 196.6H192.821L189.713 205H188.177Z" fill="#A3AED0"/>
<path d="M246.552 205V196.6H249.276C250.26 196.6 251.068 196.772 251.7 197.116C252.34 197.46 252.812 197.948 253.116 198.58C253.428 199.204 253.584 199.948 253.584 200.812C253.584 201.668 253.428 202.412 253.116 203.044C252.812 203.668 252.34 204.152 251.7 204.496C251.068 204.832 250.26 205 249.276 205H246.552ZM247.824 203.92H249.228C249.988 203.92 250.588 203.796 251.028 203.548C251.476 203.3 251.796 202.944 251.988 202.48C252.188 202.016 252.288 201.46 252.288 200.812C252.288 200.164 252.188 199.604 251.988 199.132C251.796 198.66 251.476 198.3 251.028 198.052C250.588 197.796 249.988 197.668 249.228 197.668H247.824V203.92ZM254.75 205V196.6H260.09V197.632H256.022V200.248H259.73V201.256H256.022V203.968H260.09V205H254.75ZM265.109 205.144C264.277 205.144 263.557 204.964 262.949 204.604C262.349 204.236 261.885 203.728 261.557 203.08C261.229 202.424 261.065 201.668 261.065 200.812C261.065 199.948 261.229 199.192 261.557 198.544C261.885 197.888 262.349 197.376 262.949 197.008C263.557 196.64 264.277 196.456 265.109 196.456C266.093 196.456 266.897 196.696 267.521 197.176C268.145 197.656 268.541 198.328 268.709 199.192H267.293C267.181 198.704 266.941 198.316 266.573 198.028C266.205 197.74 265.713 197.596 265.097 197.596C264.257 197.596 263.593 197.884 263.105 198.46C262.617 199.028 262.373 199.812 262.373 200.812C262.373 201.804 262.617 202.584 263.105 203.152C263.593 203.72 264.257 204.004 265.097 204.004C265.713 204.004 266.205 203.868 266.573 203.596C266.941 203.324 267.181 202.952 267.293 202.48H268.709C268.541 203.312 268.145 203.964 267.521 204.436C266.897 204.908 266.093 205.144 265.109 205.144Z" fill="#A3AED0"/>
<path d="M326.461 205.144C325.677 205.144 325.053 204.924 324.589 204.484C324.133 204.044 323.905 203.424 323.905 202.624H325.177C325.177 203.024 325.273 203.356 325.465 203.62C325.665 203.884 325.989 204.016 326.437 204.016C326.877 204.016 327.189 203.892 327.373 203.644C327.557 203.388 327.649 203.064 327.649 202.672V196.6H328.921V202.672C328.921 203.464 328.701 204.076 328.261 204.508C327.821 204.932 327.221 205.144 326.461 205.144ZM329.477 205L332.573 196.6H333.965L337.037 205H335.693L334.973 202.948H331.541L330.821 205H329.477ZM331.901 201.94H334.613L333.257 198.112L331.901 201.94ZM337.969 205V196.6H339.241L343.453 202.924V196.6H344.725V205H343.453L339.241 198.676V205H337.969Z" fill="#A3AED0"/>
<path d="M402.381 205V196.6H407.649V197.632H403.653V200.284H406.965V201.304H403.653V205H402.381ZM408.656 205V196.6H413.996V197.632H409.928V200.248H413.636V201.256H409.928V203.968H413.996V205H408.656ZM415.272 205V196.6H418.44C419.312 196.6 419.972 196.804 420.42 197.212C420.868 197.62 421.092 198.132 421.092 198.748C421.092 199.284 420.948 199.712 420.66 200.032C420.372 200.344 420.024 200.556 419.616 200.668C419.936 200.732 420.22 200.86 420.468 201.052C420.724 201.244 420.924 201.484 421.068 201.772C421.212 202.06 421.284 202.372 421.284 202.708C421.284 203.14 421.176 203.532 420.96 203.884C420.752 204.228 420.444 204.5 420.036 204.7C419.628 204.9 419.128 205 418.536 205H415.272ZM416.544 200.2H418.284C418.772 200.2 419.144 200.088 419.4 199.864C419.656 199.632 419.784 199.316 419.784 198.916C419.784 198.524 419.656 198.212 419.4 197.98C419.152 197.748 418.772 197.632 418.26 197.632H416.544V200.2ZM416.544 203.956H418.368C418.88 203.956 419.276 203.836 419.556 203.596C419.844 203.356 419.988 203.02 419.988 202.588C419.988 202.156 419.84 201.816 419.544 201.568C419.248 201.312 418.848 201.184 418.344 201.184H416.544V203.956Z" fill="#A3AED0"/>
<defs>
<filter id="filter0_d_235_2314" x="0.929688" y="25" width="553.398" height="115" filterUnits="userSpaceOnUse" color-interpolation-filters="sRGB">
<feFlood flood-opacity="0" result="BackgroundImageFix"/>
<feColorMatrix in="SourceAlpha" type="matrix" values="0 0 0 0 0 0 0 0 0 0 0 0 0 0 0 0 0 0 127 0" result="hardAlpha"/>
<feOffset dy="13"/>
<feGaussianBlur stdDeviation="10.5"/>
<feColorMatrix type="matrix" values="0 0 0 0 0.262745 0 0 0 0 0.0941176 0 0 0 0 1 0 0 0 0.25 0"/>
<feBlend mode="normal" in2="BackgroundImageFix" result="effect1_dropShadow_235_2314"/>
<feBlend mode="normal" in="SourceGraphic" in2="effect1_dropShadow_235_2314" result="shape"/>
</filter>
</defs>
</svg>
