<svg width="671" height="481" viewBox="0 0 671 481" fill="none" xmlns="http://www.w3.org/2000/svg">
<g filter="url(#filter0_d_165_1919)">
<g filter="url(#filter1_d_165_1919)">
<rect x="35.5" y="17.6108" width="600" height="410" rx="30" fill="white"/>
</g>
<path d="M146.515 157.689L255.5 94.766L364.485 157.689V283.534L255.5 346.457L146.515 283.534V157.689Z" stroke="#EEEEF7" stroke-width="2"/>
<path d="M184.62 179.689L255.5 138.766L326.38 179.689V261.534L255.5 302.457L184.62 261.534V179.689Z" stroke="#EEEEF7" stroke-width="2"/>
<path d="M197.913 187.627L255.863 139.903L337.58 172.006L343.431 270.015L255.846 322.079L191.577 254.889L197.913 187.627Z" stroke="#72388D" stroke-width="4"/>
<path d="M172.021 173.003L254.862 127.249L300.74 195.577L330.942 264.611H255.774L203.29 249.949L172.021 173.003Z" stroke="#172755" stroke-width="4"/>
<path d="M231.385 206.689L255.5 192.766L279.615 206.689V234.534L255.5 248.457L231.385 234.534V206.689Z" stroke="#EEEEF7" stroke-width="2"/>
<path d="M496.028 153.844H498.569C499.814 153.844 500.841 153.638 501.649 153.228C502.471 152.804 503.08 152.233 503.478 151.514C503.889 150.783 504.094 149.961 504.094 149.05C504.094 147.972 503.915 147.067 503.555 146.335C503.196 145.604 502.657 145.052 501.938 144.68C501.219 144.307 500.308 144.121 499.204 144.121C498.203 144.121 497.318 144.32 496.547 144.718C495.79 145.103 495.193 145.655 494.757 146.374C494.333 147.093 494.122 147.94 494.122 148.915H490.56C490.56 147.491 490.919 146.194 491.638 145.026C492.357 143.858 493.364 142.928 494.661 142.235C495.97 141.542 497.484 141.195 499.204 141.195C500.898 141.195 502.381 141.497 503.652 142.1C504.922 142.69 505.91 143.576 506.616 144.757C507.322 145.925 507.675 147.381 507.675 149.127C507.675 149.833 507.508 150.59 507.175 151.399C506.854 152.194 506.347 152.939 505.654 153.632C504.973 154.325 504.088 154.896 502.997 155.345C501.906 155.782 500.597 156 499.069 156H496.028V153.844ZM496.028 156.77V154.633H499.069C500.854 154.633 502.33 154.845 503.497 155.268C504.665 155.692 505.583 156.257 506.251 156.963C506.931 157.669 507.406 158.445 507.675 159.292C507.958 160.126 508.099 160.961 508.099 161.795C508.099 163.104 507.874 164.266 507.425 165.28C506.989 166.294 506.366 167.153 505.557 167.859C504.762 168.565 503.825 169.098 502.747 169.457C501.669 169.817 500.494 169.996 499.223 169.996C498.004 169.996 496.855 169.823 495.777 169.477C494.712 169.13 493.769 168.629 492.947 167.975C492.126 167.307 491.484 166.492 491.022 165.53C490.56 164.554 490.329 163.444 490.329 162.199H493.891C493.891 163.175 494.102 164.028 494.526 164.76C494.962 165.491 495.578 166.062 496.374 166.473C497.183 166.871 498.133 167.07 499.223 167.07C500.314 167.07 501.251 166.884 502.034 166.512C502.83 166.127 503.44 165.549 503.863 164.779C504.3 164.009 504.518 163.04 504.518 161.872C504.518 160.704 504.274 159.748 503.786 159.003C503.299 158.246 502.605 157.688 501.707 157.328C500.821 156.956 499.775 156.77 498.569 156.77H496.028ZM531.952 160.178V163.104H511.699V161.006L524.251 141.58H527.158L524.04 147.202L515.742 160.178H531.952ZM528.044 141.58V169.611H524.482V141.58H528.044ZM534.879 148.453V146.971C534.879 145.905 535.11 144.936 535.572 144.064C536.034 143.191 536.695 142.491 537.555 141.965C538.415 141.439 539.435 141.176 540.616 141.176C541.822 141.176 542.849 141.439 543.696 141.965C544.556 142.491 545.217 143.191 545.679 144.064C546.141 144.936 546.372 145.905 546.372 146.971V148.453C546.372 149.493 546.141 150.449 545.679 151.322C545.23 152.194 544.575 152.894 543.715 153.42C542.868 153.946 541.848 154.21 540.654 154.21C539.461 154.21 538.427 153.946 537.555 153.42C536.695 152.894 536.034 152.194 535.572 151.322C535.11 150.449 534.879 149.493 534.879 148.453ZM537.555 146.971V148.453C537.555 149.044 537.664 149.602 537.882 150.128C538.113 150.654 538.46 151.084 538.922 151.418C539.384 151.739 539.961 151.899 540.654 151.899C541.347 151.899 541.919 151.739 542.368 151.418C542.817 151.084 543.151 150.654 543.369 150.128C543.587 149.602 543.696 149.044 543.696 148.453V146.971C543.696 146.367 543.581 145.803 543.35 145.277C543.131 144.737 542.791 144.307 542.329 143.987C541.88 143.653 541.309 143.486 540.616 143.486C539.936 143.486 539.364 143.653 538.902 143.987C538.453 144.307 538.113 144.737 537.882 145.277C537.664 145.803 537.555 146.367 537.555 146.971ZM548.528 164.24V162.738C548.528 161.686 548.759 160.723 549.222 159.85C549.684 158.978 550.345 158.278 551.205 157.752C552.064 157.226 553.085 156.963 554.266 156.963C555.472 156.963 556.499 157.226 557.346 157.752C558.206 158.278 558.867 158.978 559.329 159.85C559.791 160.723 560.022 161.686 560.022 162.738V164.24C560.022 165.292 559.791 166.255 559.329 167.128C558.88 168.001 558.225 168.7 557.365 169.226C556.518 169.753 555.498 170.016 554.304 170.016C553.11 170.016 552.084 169.753 551.224 169.226C550.364 168.7 549.696 168.001 549.222 167.128C548.759 166.255 548.528 165.292 548.528 164.24ZM551.205 162.738V164.24C551.205 164.83 551.314 165.395 551.532 165.934C551.763 166.46 552.109 166.89 552.571 167.224C553.033 167.545 553.611 167.705 554.304 167.705C554.997 167.705 555.568 167.545 556.018 167.224C556.48 166.89 556.82 166.46 557.038 165.934C557.256 165.408 557.365 164.843 557.365 164.24V162.738C557.365 162.135 557.25 161.57 557.019 161.044C556.801 160.518 556.46 160.094 555.998 159.773C555.549 159.44 554.972 159.273 554.266 159.273C553.585 159.273 553.014 159.44 552.552 159.773C552.103 160.094 551.763 160.518 551.532 161.044C551.314 161.57 551.205 162.135 551.205 162.738ZM555.151 145.565L541.463 167.474L539.461 166.204L553.149 144.295L555.151 145.565Z" fill="#172755"/>
<path d="M497.711 196.542H499.398C499.311 197.351 499.079 198.074 498.704 198.713C498.329 199.352 497.799 199.858 497.113 200.233C496.428 200.603 495.572 200.787 494.547 200.787C493.797 200.787 493.114 200.646 492.499 200.365C491.89 200.084 491.365 199.686 490.926 199.17C490.486 198.648 490.146 198.024 489.906 197.298C489.672 196.565 489.555 195.751 489.555 194.854V193.58C489.555 192.684 489.672 191.872 489.906 191.146C490.146 190.413 490.489 189.786 490.935 189.265C491.386 188.743 491.928 188.342 492.561 188.061C493.193 187.779 493.905 187.639 494.696 187.639C495.663 187.639 496.48 187.82 497.148 188.184C497.816 188.547 498.335 189.051 498.704 189.695C499.079 190.334 499.311 191.075 499.398 191.919H497.711C497.629 191.321 497.477 190.809 497.254 190.381C497.031 189.947 496.715 189.613 496.305 189.379C495.895 189.145 495.358 189.027 494.696 189.027C494.128 189.027 493.627 189.136 493.193 189.353C492.766 189.569 492.405 189.877 492.112 190.275C491.825 190.674 491.608 191.151 491.462 191.708C491.315 192.265 491.242 192.883 491.242 193.562V194.854C491.242 195.481 491.307 196.07 491.436 196.621C491.57 197.172 491.772 197.655 492.042 198.071C492.312 198.487 492.654 198.815 493.07 199.056C493.486 199.29 493.979 199.407 494.547 199.407C495.268 199.407 495.842 199.293 496.27 199.064C496.697 198.836 497.02 198.508 497.236 198.08C497.459 197.652 497.617 197.14 497.711 196.542ZM501.033 195.962V195.76C501.033 195.074 501.133 194.438 501.332 193.853C501.531 193.261 501.818 192.748 502.193 192.314C502.568 191.875 503.022 191.535 503.556 191.295C504.089 191.049 504.687 190.926 505.349 190.926C506.017 190.926 506.617 191.049 507.15 191.295C507.689 191.535 508.146 191.875 508.521 192.314C508.902 192.748 509.192 193.261 509.392 193.853C509.591 194.438 509.69 195.074 509.69 195.76V195.962C509.69 196.647 509.591 197.283 509.392 197.869C509.192 198.455 508.902 198.968 508.521 199.407C508.146 199.841 507.692 200.181 507.159 200.427C506.632 200.667 506.034 200.787 505.366 200.787C504.698 200.787 504.098 200.667 503.564 200.427C503.031 200.181 502.574 199.841 502.193 199.407C501.818 198.968 501.531 198.455 501.332 197.869C501.133 197.283 501.033 196.647 501.033 195.962ZM502.659 195.76V195.962C502.659 196.437 502.715 196.885 502.826 197.307C502.938 197.723 503.104 198.092 503.327 198.414C503.556 198.736 503.84 198.991 504.18 199.179C504.52 199.36 504.915 199.451 505.366 199.451C505.812 199.451 506.201 199.36 506.535 199.179C506.875 198.991 507.156 198.736 507.379 198.414C507.602 198.092 507.769 197.723 507.88 197.307C507.997 196.885 508.056 196.437 508.056 195.962V195.76C508.056 195.291 507.997 194.849 507.88 194.433C507.769 194.011 507.599 193.639 507.37 193.316C507.147 192.988 506.866 192.73 506.526 192.543C506.192 192.355 505.8 192.262 505.349 192.262C504.903 192.262 504.511 192.355 504.171 192.543C503.837 192.73 503.556 192.988 503.327 193.316C503.104 193.639 502.938 194.011 502.826 194.433C502.715 194.849 502.659 195.291 502.659 195.76ZM513.355 193.132V200.611H511.729V191.102H513.268L513.355 193.132ZM512.969 195.496L512.292 195.47C512.298 194.819 512.395 194.219 512.582 193.668C512.77 193.111 513.033 192.628 513.373 192.218C513.713 191.808 514.117 191.491 514.586 191.269C515.061 191.04 515.585 190.926 516.159 190.926C516.628 190.926 517.05 190.99 517.425 191.119C517.8 191.242 518.119 191.441 518.383 191.717C518.652 191.992 518.857 192.35 518.998 192.789C519.139 193.223 519.209 193.753 519.209 194.38V200.611H517.574V194.362C517.574 193.864 517.501 193.466 517.354 193.167C517.208 192.862 516.994 192.643 516.713 192.508C516.432 192.367 516.086 192.297 515.676 192.297C515.271 192.297 514.902 192.382 514.568 192.552C514.24 192.722 513.956 192.956 513.716 193.255C513.481 193.554 513.297 193.896 513.162 194.283C513.033 194.664 512.969 195.068 512.969 195.496ZM524.57 199.144L527.172 191.102H528.833L525.414 200.611H524.324L524.57 199.144ZM522.399 191.102L525.08 199.188L525.265 200.611H524.175L520.729 191.102H522.399ZM534.221 200.787C533.559 200.787 532.958 200.676 532.419 200.453C531.886 200.225 531.426 199.905 531.039 199.495C530.658 199.085 530.365 198.599 530.16 198.036C529.955 197.474 529.853 196.858 529.853 196.19V195.821C529.853 195.048 529.967 194.359 530.195 193.756C530.424 193.146 530.734 192.631 531.127 192.209C531.52 191.787 531.965 191.468 532.463 191.251C532.961 191.034 533.477 190.926 534.01 190.926C534.689 190.926 535.275 191.043 535.768 191.277C536.266 191.512 536.673 191.84 536.989 192.262C537.306 192.678 537.54 193.17 537.692 193.738C537.845 194.301 537.921 194.916 537.921 195.584V196.313H530.819V194.986H536.295V194.863C536.271 194.441 536.184 194.031 536.031 193.633C535.885 193.234 535.65 192.906 535.328 192.648C535.006 192.391 534.566 192.262 534.01 192.262C533.641 192.262 533.301 192.341 532.99 192.499C532.68 192.651 532.413 192.88 532.19 193.185C531.968 193.489 531.795 193.861 531.672 194.301C531.549 194.74 531.487 195.247 531.487 195.821V196.19C531.487 196.642 531.549 197.066 531.672 197.465C531.801 197.857 531.985 198.203 532.226 198.502C532.472 198.801 532.768 199.035 533.113 199.205C533.465 199.375 533.863 199.46 534.309 199.46C534.883 199.46 535.369 199.343 535.768 199.108C536.166 198.874 536.515 198.561 536.813 198.168L537.798 198.95C537.593 199.261 537.332 199.557 537.016 199.838C536.699 200.119 536.31 200.348 535.847 200.523C535.39 200.699 534.848 200.787 534.221 200.787ZM541.445 192.596V200.611H539.819V191.102H541.401L541.445 192.596ZM544.416 191.049L544.407 192.561C544.272 192.531 544.144 192.514 544.021 192.508C543.903 192.496 543.769 192.49 543.616 192.49C543.241 192.49 542.91 192.549 542.623 192.666C542.336 192.783 542.093 192.947 541.894 193.158C541.694 193.369 541.536 193.621 541.419 193.914C541.308 194.201 541.234 194.518 541.199 194.863L540.742 195.127C540.742 194.553 540.798 194.014 540.909 193.51C541.026 193.006 541.205 192.561 541.445 192.174C541.686 191.781 541.99 191.477 542.359 191.26C542.734 191.037 543.18 190.926 543.695 190.926C543.812 190.926 543.947 190.94 544.1 190.97C544.252 190.993 544.357 191.02 544.416 191.049ZM551.456 198.089C551.456 197.854 551.403 197.638 551.298 197.438C551.198 197.233 550.99 197.049 550.674 196.885C550.363 196.715 549.895 196.568 549.268 196.445C548.74 196.334 548.263 196.202 547.835 196.05C547.413 195.897 547.053 195.713 546.754 195.496C546.461 195.279 546.235 195.024 546.077 194.731C545.919 194.438 545.84 194.096 545.84 193.703C545.84 193.328 545.922 192.974 546.086 192.64C546.256 192.306 546.493 192.01 546.798 191.752C547.108 191.494 547.48 191.292 547.914 191.146C548.348 190.999 548.831 190.926 549.364 190.926C550.126 190.926 550.776 191.061 551.315 191.33C551.854 191.6 552.268 191.96 552.555 192.411C552.842 192.856 552.985 193.352 552.985 193.896H551.359C551.359 193.633 551.28 193.378 551.122 193.132C550.97 192.88 550.744 192.672 550.445 192.508C550.152 192.344 549.792 192.262 549.364 192.262C548.913 192.262 548.547 192.332 548.266 192.473C547.99 192.607 547.788 192.78 547.659 192.991C547.536 193.202 547.475 193.425 547.475 193.659C547.475 193.835 547.504 193.993 547.562 194.134C547.627 194.269 547.738 194.395 547.896 194.512C548.055 194.623 548.277 194.729 548.564 194.828C548.852 194.928 549.218 195.027 549.663 195.127C550.442 195.303 551.084 195.514 551.588 195.76C552.092 196.006 552.467 196.308 552.713 196.665C552.959 197.022 553.082 197.456 553.082 197.966C553.082 198.382 552.994 198.763 552.818 199.108C552.648 199.454 552.399 199.753 552.071 200.005C551.749 200.251 551.362 200.444 550.911 200.585C550.466 200.72 549.965 200.787 549.408 200.787C548.57 200.787 547.861 200.638 547.281 200.339C546.701 200.04 546.262 199.653 545.963 199.179C545.664 198.704 545.515 198.203 545.515 197.676H547.149C547.173 198.121 547.302 198.476 547.536 198.739C547.771 198.997 548.058 199.182 548.397 199.293C548.737 199.398 549.074 199.451 549.408 199.451C549.854 199.451 550.226 199.393 550.524 199.275C550.829 199.158 551.061 198.997 551.219 198.792C551.377 198.587 551.456 198.353 551.456 198.089ZM556.984 191.102V200.611H555.35V191.102H556.984ZM555.227 188.579C555.227 188.315 555.306 188.093 555.464 187.911C555.628 187.729 555.868 187.639 556.185 187.639C556.495 187.639 556.732 187.729 556.896 187.911C557.066 188.093 557.151 188.315 557.151 188.579C557.151 188.831 557.066 189.048 556.896 189.229C556.732 189.405 556.495 189.493 556.185 189.493C555.868 189.493 555.628 189.405 555.464 189.229C555.306 189.048 555.227 188.831 555.227 188.579ZM559.164 195.962V195.76C559.164 195.074 559.264 194.438 559.463 193.853C559.662 193.261 559.949 192.748 560.324 192.314C560.699 191.875 561.153 191.535 561.687 191.295C562.22 191.049 562.817 190.926 563.479 190.926C564.147 190.926 564.748 191.049 565.281 191.295C565.82 191.535 566.277 191.875 566.652 192.314C567.033 192.748 567.323 193.261 567.522 193.853C567.722 194.438 567.821 195.074 567.821 195.76V195.962C567.821 196.647 567.722 197.283 567.522 197.869C567.323 198.455 567.033 198.968 566.652 199.407C566.277 199.841 565.823 200.181 565.29 200.427C564.763 200.667 564.165 200.787 563.497 200.787C562.829 200.787 562.229 200.667 561.695 200.427C561.162 200.181 560.705 199.841 560.324 199.407C559.949 198.968 559.662 198.455 559.463 197.869C559.264 197.283 559.164 196.647 559.164 195.962ZM560.79 195.76V195.962C560.79 196.437 560.846 196.885 560.957 197.307C561.068 197.723 561.235 198.092 561.458 198.414C561.687 198.736 561.971 198.991 562.311 199.179C562.65 199.36 563.046 199.451 563.497 199.451C563.942 199.451 564.332 199.36 564.666 199.179C565.006 198.991 565.287 198.736 565.51 198.414C565.732 198.092 565.899 197.723 566.011 197.307C566.128 196.885 566.187 196.437 566.187 195.962V195.76C566.187 195.291 566.128 194.849 566.011 194.433C565.899 194.011 565.729 193.639 565.501 193.316C565.278 192.988 564.997 192.73 564.657 192.543C564.323 192.355 563.931 192.262 563.479 192.262C563.034 192.262 562.642 192.355 562.302 192.543C561.968 192.73 561.687 192.988 561.458 193.316C561.235 193.639 561.068 194.011 560.957 194.433C560.846 194.849 560.79 195.291 560.79 195.76ZM571.486 193.132V200.611H569.86V191.102H571.398L571.486 193.132ZM571.1 195.496L570.423 195.47C570.429 194.819 570.525 194.219 570.713 193.668C570.9 193.111 571.164 192.628 571.504 192.218C571.844 191.808 572.248 191.491 572.717 191.269C573.191 191.04 573.716 190.926 574.29 190.926C574.759 190.926 575.181 190.99 575.556 191.119C575.931 191.242 576.25 191.441 576.514 191.717C576.783 191.992 576.988 192.35 577.129 192.789C577.27 193.223 577.34 193.753 577.34 194.38V200.611H575.705V194.362C575.705 193.864 575.632 193.466 575.485 193.167C575.339 192.862 575.125 192.643 574.844 192.508C574.562 192.367 574.217 192.297 573.807 192.297C573.402 192.297 573.033 192.382 572.699 192.552C572.371 192.722 572.087 192.956 571.847 193.255C571.612 193.554 571.428 193.896 571.293 194.283C571.164 194.664 571.1 195.068 571.1 195.496Z" fill="#8794BA"/>
<path d="M509.196 278.685V281.611H490.849V279.051L500.032 268.828C501.162 267.57 502.034 266.505 502.65 265.632C503.279 264.746 503.716 263.957 503.96 263.264C504.216 262.558 504.345 261.839 504.345 261.108C504.345 260.184 504.152 259.349 503.767 258.605C503.395 257.848 502.843 257.244 502.111 256.795C501.38 256.346 500.494 256.121 499.455 256.121C498.21 256.121 497.17 256.365 496.336 256.853C495.514 257.328 494.898 257.995 494.487 258.855C494.077 259.715 493.871 260.703 493.871 261.82H490.31C490.31 260.241 490.656 258.797 491.349 257.488C492.042 256.179 493.069 255.14 494.43 254.369C495.79 253.586 497.465 253.195 499.455 253.195C501.226 253.195 502.74 253.509 503.998 254.138C505.256 254.754 506.218 255.627 506.886 256.757C507.566 257.873 507.906 259.182 507.906 260.684C507.906 261.506 507.765 262.34 507.483 263.187C507.213 264.021 506.835 264.855 506.347 265.69C505.872 266.524 505.314 267.345 504.672 268.154C504.043 268.963 503.369 269.758 502.65 270.541L495.142 278.685H509.196ZM516.551 278.627H516.916C518.97 278.627 520.638 278.338 521.922 277.761C523.205 277.183 524.194 276.407 524.887 275.431C525.58 274.456 526.055 273.359 526.311 272.139C526.568 270.907 526.696 269.643 526.696 268.347V264.053C526.696 262.783 526.549 261.653 526.254 260.665C525.971 259.677 525.573 258.849 525.06 258.181C524.559 257.514 523.988 257.007 523.347 256.66C522.705 256.314 522.025 256.141 521.306 256.141C520.484 256.141 519.746 256.307 519.092 256.641C518.45 256.962 517.905 257.418 517.455 258.008C517.019 258.598 516.685 259.292 516.454 260.087C516.223 260.883 516.108 261.749 516.108 262.686C516.108 263.521 516.21 264.329 516.416 265.112C516.621 265.895 516.936 266.601 517.359 267.23C517.783 267.859 518.309 268.359 518.938 268.732C519.58 269.091 520.33 269.271 521.19 269.271C521.986 269.271 522.73 269.117 523.424 268.809C524.129 268.488 524.752 268.058 525.291 267.519C525.843 266.967 526.279 266.344 526.6 265.651C526.934 264.958 527.126 264.233 527.178 263.476H528.872C528.872 264.541 528.66 265.593 528.237 266.633C527.826 267.66 527.248 268.597 526.504 269.444C525.759 270.291 524.887 270.971 523.886 271.485C522.884 271.985 521.794 272.235 520.613 272.235C519.227 272.235 518.027 271.966 517.013 271.427C515.999 270.888 515.164 270.169 514.51 269.271C513.868 268.372 513.387 267.371 513.066 266.267C512.758 265.151 512.604 264.021 512.604 262.879C512.604 261.544 512.79 260.293 513.162 259.125C513.534 257.957 514.086 256.93 514.818 256.044C515.549 255.146 516.454 254.446 517.532 253.946C518.623 253.445 519.881 253.195 521.306 253.195C522.91 253.195 524.277 253.516 525.407 254.158C526.536 254.799 527.454 255.659 528.16 256.737C528.878 257.816 529.405 259.028 529.738 260.376C530.072 261.724 530.239 263.11 530.239 264.535V265.824C530.239 267.275 530.143 268.751 529.95 270.253C529.77 271.741 529.417 273.166 528.891 274.527C528.378 275.887 527.627 277.106 526.639 278.184C525.65 279.25 524.36 280.097 522.769 280.726C521.19 281.342 519.239 281.65 516.916 281.65H516.551V278.627ZM534.879 260.453V258.971C534.879 257.905 535.11 256.936 535.572 256.064C536.034 255.191 536.695 254.491 537.555 253.965C538.415 253.439 539.435 253.176 540.616 253.176C541.822 253.176 542.849 253.439 543.696 253.965C544.556 254.491 545.217 255.191 545.679 256.064C546.141 256.936 546.372 257.905 546.372 258.971V260.453C546.372 261.493 546.141 262.449 545.679 263.322C545.23 264.194 544.575 264.894 543.715 265.42C542.868 265.946 541.848 266.21 540.654 266.21C539.461 266.21 538.427 265.946 537.555 265.42C536.695 264.894 536.034 264.194 535.572 263.322C535.11 262.449 534.879 261.493 534.879 260.453ZM537.555 258.971V260.453C537.555 261.044 537.664 261.602 537.882 262.128C538.113 262.654 538.46 263.084 538.922 263.418C539.384 263.739 539.961 263.899 540.654 263.899C541.347 263.899 541.919 263.739 542.368 263.418C542.817 263.084 543.151 262.654 543.369 262.128C543.587 261.602 543.696 261.044 543.696 260.453V258.971C543.696 258.367 543.581 257.803 543.35 257.277C543.131 256.737 542.791 256.307 542.329 255.987C541.88 255.653 541.309 255.486 540.616 255.486C539.936 255.486 539.364 255.653 538.902 255.987C538.453 256.307 538.113 256.737 537.882 257.277C537.664 257.803 537.555 258.367 537.555 258.971ZM548.528 276.24V274.738C548.528 273.686 548.759 272.723 549.222 271.85C549.684 270.978 550.345 270.278 551.205 269.752C552.064 269.226 553.085 268.963 554.266 268.963C555.472 268.963 556.499 269.226 557.346 269.752C558.206 270.278 558.867 270.978 559.329 271.85C559.791 272.723 560.022 273.686 560.022 274.738V276.24C560.022 277.292 559.791 278.255 559.329 279.128C558.88 280.001 558.225 280.7 557.365 281.226C556.518 281.753 555.498 282.016 554.304 282.016C553.11 282.016 552.084 281.753 551.224 281.226C550.364 280.7 549.696 280.001 549.222 279.128C548.759 278.255 548.528 277.292 548.528 276.24ZM551.205 274.738V276.24C551.205 276.83 551.314 277.395 551.532 277.934C551.763 278.46 552.109 278.89 552.571 279.224C553.033 279.545 553.611 279.705 554.304 279.705C554.997 279.705 555.568 279.545 556.018 279.224C556.48 278.89 556.82 278.46 557.038 277.934C557.256 277.408 557.365 276.843 557.365 276.24V274.738C557.365 274.135 557.25 273.57 557.019 273.044C556.801 272.518 556.46 272.094 555.998 271.773C555.549 271.44 554.972 271.273 554.266 271.273C553.585 271.273 553.014 271.44 552.552 271.773C552.103 272.094 551.763 272.518 551.532 273.044C551.314 273.57 551.205 274.135 551.205 274.738ZM555.151 257.565L541.463 279.474L539.461 278.204L553.149 256.295L555.151 257.565Z" fill="#72388D"/>
<path d="M494.705 307.593H491.286V306.213H494.705C495.367 306.213 495.903 306.107 496.313 305.896C496.724 305.686 497.022 305.393 497.21 305.018C497.403 304.643 497.5 304.215 497.5 303.734C497.5 303.295 497.403 302.882 497.21 302.495C497.022 302.108 496.724 301.798 496.313 301.563C495.903 301.323 495.367 301.203 494.705 301.203H491.682V312.611H489.985V299.814H494.705C495.672 299.814 496.489 299.981 497.157 300.315C497.825 300.649 498.332 301.112 498.678 301.704C499.023 302.29 499.196 302.961 499.196 303.717C499.196 304.537 499.023 305.237 498.678 305.817C498.332 306.397 497.825 306.84 497.157 307.145C496.489 307.443 495.672 307.593 494.705 307.593ZM502.721 304.596V312.611H501.095V303.102H502.677L502.721 304.596ZM505.691 303.049L505.683 304.561C505.548 304.531 505.419 304.514 505.296 304.508C505.179 304.496 505.044 304.49 504.892 304.49C504.517 304.49 504.186 304.549 503.898 304.666C503.611 304.783 503.368 304.947 503.169 305.158C502.97 305.369 502.812 305.621 502.694 305.914C502.583 306.201 502.51 306.518 502.475 306.863L502.018 307.127C502.018 306.553 502.073 306.014 502.185 305.51C502.302 305.006 502.48 304.561 502.721 304.174C502.961 303.781 503.266 303.477 503.635 303.26C504.01 303.037 504.455 302.926 504.971 302.926C505.088 302.926 505.223 302.94 505.375 302.97C505.527 302.993 505.633 303.02 505.691 303.049ZM506.588 307.962V307.76C506.588 307.074 506.688 306.438 506.887 305.853C507.086 305.261 507.373 304.748 507.748 304.314C508.123 303.875 508.577 303.535 509.11 303.295C509.644 303.049 510.241 302.926 510.903 302.926C511.571 302.926 512.172 303.049 512.705 303.295C513.244 303.535 513.701 303.875 514.076 304.314C514.457 304.748 514.747 305.261 514.946 305.853C515.146 306.438 515.245 307.074 515.245 307.76V307.962C515.245 308.647 515.146 309.283 514.946 309.869C514.747 310.455 514.457 310.968 514.076 311.407C513.701 311.841 513.247 312.181 512.714 312.427C512.187 312.667 511.589 312.787 510.921 312.787C510.253 312.787 509.652 312.667 509.119 312.427C508.586 312.181 508.129 311.841 507.748 311.407C507.373 310.968 507.086 310.455 506.887 309.869C506.688 309.283 506.588 308.647 506.588 307.962ZM508.214 307.76V307.962C508.214 308.437 508.27 308.885 508.381 309.307C508.492 309.723 508.659 310.092 508.882 310.414C509.11 310.736 509.395 310.991 509.734 311.179C510.074 311.36 510.47 311.451 510.921 311.451C511.366 311.451 511.756 311.36 512.09 311.179C512.43 310.991 512.711 310.736 512.934 310.414C513.156 310.092 513.323 309.723 513.435 309.307C513.552 308.885 513.61 308.437 513.61 307.962V307.76C513.61 307.291 513.552 306.849 513.435 306.433C513.323 306.011 513.153 305.639 512.925 305.316C512.702 304.988 512.421 304.73 512.081 304.543C511.747 304.355 511.354 304.262 510.903 304.262C510.458 304.262 510.065 304.355 509.726 304.543C509.392 304.73 509.11 304.988 508.882 305.316C508.659 305.639 508.492 306.011 508.381 306.433C508.27 306.849 508.214 307.291 508.214 307.76ZM523.445 303.102H524.922V312.409C524.922 313.247 524.752 313.962 524.412 314.554C524.072 315.146 523.598 315.594 522.988 315.898C522.385 316.209 521.688 316.364 520.896 316.364C520.568 316.364 520.182 316.312 519.736 316.206C519.297 316.106 518.863 315.934 518.436 315.688C518.014 315.447 517.659 315.122 517.372 314.712L518.225 313.745C518.623 314.226 519.039 314.56 519.473 314.747C519.912 314.935 520.346 315.028 520.773 315.028C521.289 315.028 521.734 314.932 522.109 314.738C522.484 314.545 522.774 314.258 522.979 313.877C523.19 313.502 523.296 313.039 523.296 312.488V305.193L523.445 303.102ZM516.897 307.962V307.777C516.897 307.051 516.982 306.392 517.152 305.8C517.328 305.202 517.577 304.689 517.899 304.262C518.228 303.834 518.623 303.506 519.086 303.277C519.549 303.043 520.07 302.926 520.65 302.926C521.248 302.926 521.77 303.031 522.215 303.242C522.666 303.447 523.047 303.749 523.357 304.147C523.674 304.54 523.923 305.015 524.104 305.571C524.286 306.128 524.412 306.758 524.482 307.461V308.27C524.418 308.967 524.292 309.594 524.104 310.15C523.923 310.707 523.674 311.182 523.357 311.574C523.047 311.967 522.666 312.269 522.215 312.479C521.764 312.685 521.236 312.787 520.633 312.787C520.064 312.787 519.549 312.667 519.086 312.427C518.629 312.187 518.236 311.85 517.908 311.416C517.58 310.982 517.328 310.473 517.152 309.887C516.982 309.295 516.897 308.653 516.897 307.962ZM518.523 307.777V307.962C518.523 308.437 518.57 308.882 518.664 309.298C518.764 309.714 518.913 310.08 519.112 310.396C519.317 310.713 519.578 310.962 519.895 311.144C520.211 311.319 520.589 311.407 521.028 311.407C521.567 311.407 522.013 311.293 522.364 311.064C522.716 310.836 522.994 310.534 523.199 310.159C523.41 309.784 523.574 309.377 523.691 308.938V306.819C523.627 306.497 523.527 306.187 523.393 305.888C523.264 305.583 523.094 305.313 522.883 305.079C522.678 304.839 522.423 304.648 522.118 304.508C521.813 304.367 521.456 304.297 521.046 304.297C520.601 304.297 520.217 304.391 519.895 304.578C519.578 304.76 519.317 305.012 519.112 305.334C518.913 305.65 518.764 306.02 518.664 306.441C518.57 306.857 518.523 307.303 518.523 307.777ZM529.018 304.596V312.611H527.392V303.102H528.974L529.018 304.596ZM531.988 303.049L531.979 304.561C531.845 304.531 531.716 304.514 531.593 304.508C531.476 304.496 531.341 304.49 531.188 304.49C530.813 304.49 530.482 304.549 530.195 304.666C529.908 304.783 529.665 304.947 529.466 305.158C529.267 305.369 529.108 305.621 528.991 305.914C528.88 306.201 528.807 306.518 528.771 306.863L528.314 307.127C528.314 306.553 528.37 306.014 528.481 305.51C528.599 305.006 528.777 304.561 529.018 304.174C529.258 303.781 529.562 303.477 529.932 303.26C530.307 303.037 530.752 302.926 531.268 302.926C531.385 302.926 531.52 302.94 531.672 302.97C531.824 302.993 531.93 303.02 531.988 303.049ZM537.262 312.787C536.6 312.787 535.999 312.676 535.46 312.453C534.927 312.225 534.467 311.905 534.08 311.495C533.699 311.085 533.406 310.599 533.201 310.036C532.996 309.474 532.894 308.858 532.894 308.19V307.821C532.894 307.048 533.008 306.359 533.236 305.756C533.465 305.146 533.775 304.631 534.168 304.209C534.561 303.787 535.006 303.468 535.504 303.251C536.002 303.034 536.518 302.926 537.051 302.926C537.73 302.926 538.316 303.043 538.809 303.277C539.307 303.512 539.714 303.84 540.03 304.262C540.347 304.678 540.581 305.17 540.733 305.738C540.886 306.301 540.962 306.916 540.962 307.584V308.313H533.86V306.986H539.336V306.863C539.312 306.441 539.225 306.031 539.072 305.633C538.926 305.234 538.691 304.906 538.369 304.648C538.047 304.391 537.607 304.262 537.051 304.262C536.682 304.262 536.342 304.341 536.031 304.499C535.721 304.651 535.454 304.88 535.231 305.185C535.009 305.489 534.836 305.861 534.713 306.301C534.59 306.74 534.528 307.247 534.528 307.821V308.19C534.528 308.642 534.59 309.066 534.713 309.465C534.842 309.857 535.026 310.203 535.267 310.502C535.513 310.801 535.809 311.035 536.154 311.205C536.506 311.375 536.904 311.46 537.35 311.46C537.924 311.46 538.41 311.343 538.809 311.108C539.207 310.874 539.556 310.561 539.854 310.168L540.839 310.95C540.634 311.261 540.373 311.557 540.057 311.838C539.74 312.119 539.351 312.348 538.888 312.523C538.431 312.699 537.889 312.787 537.262 312.787ZM548.397 310.089C548.397 309.854 548.345 309.638 548.239 309.438C548.14 309.233 547.932 309.049 547.615 308.885C547.305 308.715 546.836 308.568 546.209 308.445C545.682 308.334 545.204 308.202 544.776 308.05C544.354 307.897 543.994 307.713 543.695 307.496C543.402 307.279 543.177 307.024 543.019 306.731C542.86 306.438 542.781 306.096 542.781 305.703C542.781 305.328 542.863 304.974 543.027 304.64C543.197 304.306 543.435 304.01 543.739 303.752C544.05 303.494 544.422 303.292 544.855 303.146C545.289 302.999 545.772 302.926 546.306 302.926C547.067 302.926 547.718 303.061 548.257 303.33C548.796 303.6 549.209 303.96 549.496 304.411C549.783 304.856 549.927 305.352 549.927 305.896H548.301C548.301 305.633 548.222 305.378 548.063 305.132C547.911 304.88 547.686 304.672 547.387 304.508C547.094 304.344 546.733 304.262 546.306 304.262C545.854 304.262 545.488 304.332 545.207 304.473C544.932 304.607 544.729 304.78 544.601 304.991C544.478 305.202 544.416 305.425 544.416 305.659C544.416 305.835 544.445 305.993 544.504 306.134C544.568 306.269 544.68 306.395 544.838 306.512C544.996 306.623 545.219 306.729 545.506 306.828C545.793 306.928 546.159 307.027 546.604 307.127C547.384 307.303 548.025 307.514 548.529 307.76C549.033 308.006 549.408 308.308 549.654 308.665C549.9 309.022 550.023 309.456 550.023 309.966C550.023 310.382 549.936 310.763 549.76 311.108C549.59 311.454 549.341 311.753 549.013 312.005C548.69 312.251 548.304 312.444 547.853 312.585C547.407 312.72 546.906 312.787 546.35 312.787C545.512 312.787 544.803 312.638 544.223 312.339C543.643 312.04 543.203 311.653 542.904 311.179C542.605 310.704 542.456 310.203 542.456 309.676H544.091C544.114 310.121 544.243 310.476 544.478 310.739C544.712 310.997 544.999 311.182 545.339 311.293C545.679 311.398 546.016 311.451 546.35 311.451C546.795 311.451 547.167 311.393 547.466 311.275C547.771 311.158 548.002 310.997 548.16 310.792C548.318 310.587 548.397 310.353 548.397 310.089ZM557.696 310.089C557.696 309.854 557.644 309.638 557.538 309.438C557.438 309.233 557.23 309.049 556.914 308.885C556.604 308.715 556.135 308.568 555.508 308.445C554.98 308.334 554.503 308.202 554.075 308.05C553.653 307.897 553.293 307.713 552.994 307.496C552.701 307.279 552.476 307.024 552.317 306.731C552.159 306.438 552.08 306.096 552.08 305.703C552.08 305.328 552.162 304.974 552.326 304.64C552.496 304.306 552.733 304.01 553.038 303.752C553.349 303.494 553.721 303.292 554.154 303.146C554.588 302.999 555.071 302.926 555.604 302.926C556.366 302.926 557.017 303.061 557.556 303.33C558.095 303.6 558.508 303.96 558.795 304.411C559.082 304.856 559.226 305.352 559.226 305.896H557.6C557.6 305.633 557.521 305.378 557.362 305.132C557.21 304.88 556.984 304.672 556.686 304.508C556.393 304.344 556.032 304.262 555.604 304.262C555.153 304.262 554.787 304.332 554.506 304.473C554.23 304.607 554.028 304.78 553.899 304.991C553.776 305.202 553.715 305.425 553.715 305.659C553.715 305.835 553.744 305.993 553.803 306.134C553.867 306.269 553.979 306.395 554.137 306.512C554.295 306.623 554.518 306.729 554.805 306.828C555.092 306.928 555.458 307.027 555.903 307.127C556.683 307.303 557.324 307.514 557.828 307.76C558.332 308.006 558.707 308.308 558.953 308.665C559.199 309.022 559.322 309.456 559.322 309.966C559.322 310.382 559.234 310.763 559.059 311.108C558.889 311.454 558.64 311.753 558.312 312.005C557.989 312.251 557.603 312.444 557.151 312.585C556.706 312.72 556.205 312.787 555.648 312.787C554.811 312.787 554.102 312.638 553.521 312.339C552.941 312.04 552.502 311.653 552.203 311.179C551.904 310.704 551.755 310.203 551.755 309.676H553.39C553.413 310.121 553.542 310.476 553.776 310.739C554.011 310.997 554.298 311.182 554.638 311.293C554.978 311.398 555.314 311.451 555.648 311.451C556.094 311.451 556.466 311.393 556.765 311.275C557.069 311.158 557.301 310.997 557.459 310.792C557.617 310.587 557.696 310.353 557.696 310.089Z" fill="#8794BA"/>
<path d="M245.113 73.0327V81.6108H244.029V74.3862L241.844 75.1831V74.2046L244.943 73.0327H245.113ZM253.68 79.3022C253.68 79.8218 253.559 80.2632 253.316 80.6265C253.078 80.9858 252.754 81.2593 252.344 81.4468C251.938 81.6343 251.479 81.728 250.967 81.728C250.455 81.728 249.994 81.6343 249.584 81.4468C249.174 81.2593 248.85 80.9858 248.611 80.6265C248.373 80.2632 248.254 79.8218 248.254 79.3022C248.254 78.9624 248.318 78.6519 248.447 78.3706C248.58 78.0854 248.766 77.8374 249.004 77.6265C249.246 77.4155 249.531 77.2534 249.859 77.1401C250.191 77.0229 250.557 76.9644 250.955 76.9644C251.479 76.9644 251.945 77.0659 252.355 77.269C252.766 77.4683 253.088 77.7437 253.322 78.0952C253.561 78.4468 253.68 78.8491 253.68 79.3022ZM252.59 79.2788C252.59 78.9624 252.521 78.6831 252.385 78.4409C252.248 78.1948 252.057 78.0034 251.811 77.8667C251.564 77.73 251.279 77.6616 250.955 77.6616C250.623 77.6616 250.336 77.73 250.094 77.8667C249.855 78.0034 249.67 78.1948 249.537 78.4409C249.404 78.6831 249.338 78.9624 249.338 79.2788C249.338 79.6069 249.402 79.8882 249.531 80.1226C249.664 80.353 249.852 80.5308 250.094 80.6558C250.34 80.7769 250.631 80.8374 250.967 80.8374C251.303 80.8374 251.592 80.7769 251.834 80.6558C252.076 80.5308 252.262 80.353 252.391 80.1226C252.523 79.8882 252.59 79.6069 252.59 79.2788ZM253.48 75.3003C253.48 75.7144 253.371 76.0874 253.152 76.4194C252.934 76.7515 252.635 77.0132 252.256 77.2046C251.877 77.396 251.447 77.4917 250.967 77.4917C250.479 77.4917 250.043 77.396 249.66 77.2046C249.281 77.0132 248.984 76.7515 248.77 76.4194C248.555 76.0874 248.447 75.7144 248.447 75.3003C248.447 74.8042 248.555 74.3823 248.77 74.0347C248.988 73.687 249.287 73.4214 249.666 73.2378C250.045 73.0542 250.477 72.9624 250.961 72.9624C251.449 72.9624 251.883 73.0542 252.262 73.2378C252.641 73.4214 252.938 73.687 253.152 74.0347C253.371 74.3823 253.48 74.8042 253.48 75.3003ZM252.396 75.3179C252.396 75.0327 252.336 74.7808 252.215 74.562C252.094 74.3433 251.926 74.1714 251.711 74.0464C251.496 73.9175 251.246 73.853 250.961 73.853C250.676 73.853 250.426 73.9136 250.211 74.0347C250 74.1519 249.834 74.3198 249.713 74.5386C249.596 74.7573 249.537 75.0171 249.537 75.3179C249.537 75.6108 249.596 75.8667 249.713 76.0854C249.834 76.3042 250.002 76.4741 250.217 76.5952C250.432 76.7163 250.682 76.7769 250.967 76.7769C251.252 76.7769 251.5 76.7163 251.711 76.5952C251.926 76.4741 252.094 76.3042 252.215 76.0854C252.336 75.8667 252.396 75.6108 252.396 75.3179ZM257.424 77.5386V78.4292H254.564V77.5386H257.424ZM263.957 80.7202V81.6108H258.373V80.8315L261.168 77.7202C261.512 77.3374 261.777 77.0132 261.965 76.7476C262.156 76.478 262.289 76.2378 262.363 76.0269C262.441 75.812 262.48 75.5933 262.48 75.3706C262.48 75.0894 262.422 74.8354 262.305 74.6089C262.191 74.3784 262.023 74.1948 261.801 74.0581C261.578 73.9214 261.309 73.853 260.992 73.853C260.613 73.853 260.297 73.9272 260.043 74.0757C259.793 74.2202 259.605 74.4233 259.48 74.6851C259.355 74.9468 259.293 75.2476 259.293 75.5874H258.209C258.209 75.1069 258.314 74.6675 258.525 74.269C258.736 73.8706 259.049 73.5542 259.463 73.3198C259.877 73.0815 260.387 72.9624 260.992 72.9624C261.531 72.9624 261.992 73.0581 262.375 73.2495C262.758 73.437 263.051 73.7026 263.254 74.0464C263.461 74.3862 263.564 74.7847 263.564 75.2417C263.564 75.4917 263.521 75.7456 263.436 76.0034C263.354 76.2573 263.238 76.5112 263.09 76.7651C262.945 77.019 262.775 77.269 262.58 77.5151C262.389 77.7612 262.184 78.0034 261.965 78.2417L259.68 80.7202H263.957ZM270.883 78.7397V79.6304H264.719V78.9917L268.539 73.0796H269.424L268.475 74.7905L265.949 78.7397H270.883ZM269.693 73.0796V81.6108H268.609V73.0796H269.693Z" fill="#8794BA"/>
<path d="M388.141 158.721V159.611H382.557V158.832L385.352 155.721C385.695 155.338 385.961 155.014 386.148 154.748C386.34 154.479 386.473 154.238 386.547 154.027C386.625 153.812 386.664 153.594 386.664 153.371C386.664 153.09 386.605 152.836 386.488 152.609C386.375 152.379 386.207 152.195 385.984 152.059C385.762 151.922 385.492 151.854 385.176 151.854C384.797 151.854 384.48 151.928 384.227 152.076C383.977 152.221 383.789 152.424 383.664 152.686C383.539 152.947 383.477 153.248 383.477 153.588H382.393C382.393 153.107 382.498 152.668 382.709 152.27C382.92 151.871 383.232 151.555 383.646 151.32C384.061 151.082 384.57 150.963 385.176 150.963C385.715 150.963 386.176 151.059 386.559 151.25C386.941 151.438 387.234 151.703 387.438 152.047C387.645 152.387 387.748 152.785 387.748 153.242C387.748 153.492 387.705 153.746 387.619 154.004C387.537 154.258 387.422 154.512 387.273 154.766C387.129 155.02 386.959 155.27 386.764 155.516C386.572 155.762 386.367 156.004 386.148 156.242L383.863 158.721H388.141ZM390.672 155.551L389.805 155.328L390.232 151.08H394.609V152.082H391.152L390.895 154.402C391.051 154.312 391.248 154.229 391.486 154.15C391.729 154.072 392.006 154.033 392.318 154.033C392.713 154.033 393.066 154.102 393.379 154.238C393.691 154.371 393.957 154.562 394.176 154.812C394.398 155.062 394.568 155.363 394.686 155.715C394.803 156.066 394.861 156.459 394.861 156.893C394.861 157.303 394.805 157.68 394.691 158.023C394.582 158.367 394.416 158.668 394.193 158.926C393.971 159.18 393.689 159.377 393.35 159.518C393.014 159.658 392.617 159.729 392.16 159.729C391.816 159.729 391.49 159.682 391.182 159.588C390.877 159.49 390.604 159.344 390.361 159.148C390.123 158.949 389.928 158.703 389.775 158.41C389.627 158.113 389.533 157.766 389.494 157.367H390.525C390.572 157.688 390.666 157.957 390.807 158.176C390.947 158.395 391.131 158.561 391.357 158.674C391.588 158.783 391.855 158.838 392.16 158.838C392.418 158.838 392.646 158.793 392.846 158.703C393.045 158.613 393.213 158.484 393.35 158.316C393.486 158.148 393.59 157.945 393.66 157.707C393.734 157.469 393.771 157.201 393.771 156.904C393.771 156.635 393.734 156.385 393.66 156.154C393.586 155.924 393.475 155.723 393.326 155.551C393.182 155.379 393.004 155.246 392.793 155.152C392.582 155.055 392.34 155.006 392.066 155.006C391.703 155.006 391.428 155.055 391.24 155.152C391.057 155.25 390.867 155.383 390.672 155.551ZM398.424 155.539V156.43H395.564V155.539H398.424ZM400.949 154.812H401.723C402.102 154.812 402.414 154.75 402.66 154.625C402.91 154.496 403.096 154.322 403.217 154.104C403.342 153.881 403.404 153.631 403.404 153.354C403.404 153.025 403.35 152.75 403.24 152.527C403.131 152.305 402.967 152.137 402.748 152.023C402.529 151.91 402.252 151.854 401.916 151.854C401.611 151.854 401.342 151.914 401.107 152.035C400.877 152.152 400.695 152.32 400.562 152.539C400.434 152.758 400.369 153.016 400.369 153.312H399.285C399.285 152.879 399.395 152.484 399.613 152.129C399.832 151.773 400.139 151.49 400.533 151.279C400.932 151.068 401.393 150.963 401.916 150.963C402.432 150.963 402.883 151.055 403.27 151.238C403.656 151.418 403.957 151.688 404.172 152.047C404.387 152.402 404.494 152.846 404.494 153.377C404.494 153.592 404.443 153.822 404.342 154.068C404.244 154.311 404.09 154.537 403.879 154.748C403.672 154.959 403.402 155.133 403.07 155.27C402.738 155.402 402.34 155.469 401.875 155.469H400.949V154.812ZM400.949 155.703V155.053H401.875C402.418 155.053 402.867 155.117 403.223 155.246C403.578 155.375 403.857 155.547 404.061 155.762C404.268 155.977 404.412 156.213 404.494 156.471C404.58 156.725 404.623 156.979 404.623 157.232C404.623 157.631 404.555 157.984 404.418 158.293C404.285 158.602 404.096 158.863 403.85 159.078C403.607 159.293 403.322 159.455 402.994 159.564C402.666 159.674 402.309 159.729 401.922 159.729C401.551 159.729 401.201 159.676 400.873 159.57C400.549 159.465 400.262 159.312 400.012 159.113C399.762 158.91 399.566 158.662 399.426 158.369C399.285 158.072 399.215 157.734 399.215 157.355H400.299C400.299 157.652 400.363 157.912 400.492 158.135C400.625 158.357 400.812 158.531 401.055 158.656C401.301 158.777 401.59 158.838 401.922 158.838C402.254 158.838 402.539 158.781 402.777 158.668C403.02 158.551 403.205 158.375 403.334 158.141C403.467 157.906 403.533 157.611 403.533 157.256C403.533 156.9 403.459 156.609 403.311 156.383C403.162 156.152 402.951 155.982 402.678 155.873C402.408 155.76 402.09 155.703 401.723 155.703H400.949ZM411.883 156.74V157.631H405.719V156.992L409.539 151.08H410.424L409.475 152.791L406.949 156.74H411.883ZM410.693 151.08V159.611H409.609V151.08H410.693Z" fill="#8794BA"/>
<path d="M384.133 285.812H384.906C385.285 285.812 385.598 285.75 385.844 285.625C386.094 285.496 386.279 285.322 386.4 285.104C386.525 284.881 386.588 284.631 386.588 284.354C386.588 284.025 386.533 283.75 386.424 283.527C386.314 283.305 386.15 283.137 385.932 283.023C385.713 282.91 385.436 282.854 385.1 282.854C384.795 282.854 384.525 282.914 384.291 283.035C384.061 283.152 383.879 283.32 383.746 283.539C383.617 283.758 383.553 284.016 383.553 284.312H382.469C382.469 283.879 382.578 283.484 382.797 283.129C383.016 282.773 383.322 282.49 383.717 282.279C384.115 282.068 384.576 281.963 385.1 281.963C385.615 281.963 386.066 282.055 386.453 282.238C386.84 282.418 387.141 282.688 387.355 283.047C387.57 283.402 387.678 283.846 387.678 284.377C387.678 284.592 387.627 284.822 387.525 285.068C387.428 285.311 387.273 285.537 387.062 285.748C386.855 285.959 386.586 286.133 386.254 286.27C385.922 286.402 385.523 286.469 385.059 286.469H384.133V285.812ZM384.133 286.703V286.053H385.059C385.602 286.053 386.051 286.117 386.406 286.246C386.762 286.375 387.041 286.547 387.244 286.762C387.451 286.977 387.596 287.213 387.678 287.471C387.764 287.725 387.807 287.979 387.807 288.232C387.807 288.631 387.738 288.984 387.602 289.293C387.469 289.602 387.279 289.863 387.033 290.078C386.791 290.293 386.506 290.455 386.178 290.564C385.85 290.674 385.492 290.729 385.105 290.729C384.734 290.729 384.385 290.676 384.057 290.57C383.732 290.465 383.445 290.312 383.195 290.113C382.945 289.91 382.75 289.662 382.609 289.369C382.469 289.072 382.398 288.734 382.398 288.355H383.482C383.482 288.652 383.547 288.912 383.676 289.135C383.809 289.357 383.996 289.531 384.238 289.656C384.484 289.777 384.773 289.838 385.105 289.838C385.438 289.838 385.723 289.781 385.961 289.668C386.203 289.551 386.389 289.375 386.518 289.141C386.65 288.906 386.717 288.611 386.717 288.256C386.717 287.9 386.643 287.609 386.494 287.383C386.346 287.152 386.135 286.982 385.861 286.873C385.592 286.76 385.273 286.703 384.906 286.703H384.133ZM390.672 286.551L389.805 286.328L390.232 282.08H394.609V283.082H391.152L390.895 285.402C391.051 285.312 391.248 285.229 391.486 285.15C391.729 285.072 392.006 285.033 392.318 285.033C392.713 285.033 393.066 285.102 393.379 285.238C393.691 285.371 393.957 285.562 394.176 285.812C394.398 286.062 394.568 286.363 394.686 286.715C394.803 287.066 394.861 287.459 394.861 287.893C394.861 288.303 394.805 288.68 394.691 289.023C394.582 289.367 394.416 289.668 394.193 289.926C393.971 290.18 393.689 290.377 393.35 290.518C393.014 290.658 392.617 290.729 392.16 290.729C391.816 290.729 391.49 290.682 391.182 290.588C390.877 290.49 390.604 290.344 390.361 290.148C390.123 289.949 389.928 289.703 389.775 289.41C389.627 289.113 389.533 288.766 389.494 288.367H390.525C390.572 288.688 390.666 288.957 390.807 289.176C390.947 289.395 391.131 289.561 391.357 289.674C391.588 289.783 391.855 289.838 392.16 289.838C392.418 289.838 392.646 289.793 392.846 289.703C393.045 289.613 393.213 289.484 393.35 289.316C393.486 289.148 393.59 288.945 393.66 288.707C393.734 288.469 393.771 288.201 393.771 287.904C393.771 287.635 393.734 287.385 393.66 287.154C393.586 286.924 393.475 286.723 393.326 286.551C393.182 286.379 393.004 286.246 392.793 286.152C392.582 286.055 392.34 286.006 392.066 286.006C391.703 286.006 391.428 286.055 391.24 286.152C391.057 286.25 390.867 286.383 390.672 286.551ZM398.424 286.539V287.43H395.564V286.539H398.424ZM405.133 287.74V288.631H398.969V287.992L402.789 282.08H403.674L402.725 283.791L400.199 287.74H405.133ZM403.943 282.08V290.611H402.859V282.08H403.943ZM411.883 287.74V288.631H405.719V287.992L409.539 282.08H410.424L409.475 283.791L406.949 287.74H411.883ZM410.693 282.08V290.611H409.609V282.08H410.693Z" fill="#8794BA"/>
<path d="M247.316 372.74V373.631H241.152V372.992L244.973 367.08H245.857L244.908 368.791L242.383 372.74H247.316ZM246.127 367.08V375.611H245.043V367.08H246.127ZM249.672 371.551L248.805 371.328L249.232 367.08H253.609V368.082H250.152L249.895 370.402C250.051 370.312 250.248 370.229 250.486 370.15C250.729 370.072 251.006 370.033 251.318 370.033C251.713 370.033 252.066 370.102 252.379 370.238C252.691 370.371 252.957 370.562 253.176 370.812C253.398 371.062 253.568 371.363 253.686 371.715C253.803 372.066 253.861 372.459 253.861 372.893C253.861 373.303 253.805 373.68 253.691 374.023C253.582 374.367 253.416 374.668 253.193 374.926C252.971 375.18 252.689 375.377 252.35 375.518C252.014 375.658 251.617 375.729 251.16 375.729C250.816 375.729 250.49 375.682 250.182 375.588C249.877 375.49 249.604 375.344 249.361 375.148C249.123 374.949 248.928 374.703 248.775 374.41C248.627 374.113 248.533 373.766 248.494 373.367H249.525C249.572 373.688 249.666 373.957 249.807 374.176C249.947 374.395 250.131 374.561 250.357 374.674C250.588 374.783 250.855 374.838 251.16 374.838C251.418 374.838 251.646 374.793 251.846 374.703C252.045 374.613 252.213 374.484 252.35 374.316C252.486 374.148 252.59 373.945 252.66 373.707C252.734 373.469 252.771 373.201 252.771 372.904C252.771 372.635 252.734 372.385 252.66 372.154C252.586 371.924 252.475 371.723 252.326 371.551C252.182 371.379 252.004 371.246 251.793 371.152C251.582 371.055 251.34 371.006 251.066 371.006C250.703 371.006 250.428 371.055 250.24 371.152C250.057 371.25 249.867 371.383 249.672 371.551ZM257.424 371.539V372.43H254.564V371.539H257.424ZM259.738 371.551L258.871 371.328L259.299 367.08H263.676V368.082H260.219L259.961 370.402C260.117 370.312 260.314 370.229 260.553 370.15C260.795 370.072 261.072 370.033 261.385 370.033C261.779 370.033 262.133 370.102 262.445 370.238C262.758 370.371 263.023 370.562 263.242 370.812C263.465 371.062 263.635 371.363 263.752 371.715C263.869 372.066 263.928 372.459 263.928 372.893C263.928 373.303 263.871 373.68 263.758 374.023C263.648 374.367 263.482 374.668 263.26 374.926C263.037 375.18 262.756 375.377 262.416 375.518C262.08 375.658 261.684 375.729 261.227 375.729C260.883 375.729 260.557 375.682 260.248 375.588C259.943 375.49 259.67 375.344 259.428 375.148C259.189 374.949 258.994 374.703 258.842 374.41C258.693 374.113 258.6 373.766 258.561 373.367H259.592C259.639 373.688 259.732 373.957 259.873 374.176C260.014 374.395 260.197 374.561 260.424 374.674C260.654 374.783 260.922 374.838 261.227 374.838C261.484 374.838 261.713 374.793 261.912 374.703C262.111 374.613 262.279 374.484 262.416 374.316C262.553 374.148 262.656 373.945 262.727 373.707C262.801 373.469 262.838 373.201 262.838 372.904C262.838 372.635 262.801 372.385 262.727 372.154C262.652 371.924 262.541 371.723 262.393 371.551C262.248 371.379 262.07 371.246 261.859 371.152C261.648 371.055 261.406 371.006 261.133 371.006C260.77 371.006 260.494 371.055 260.307 371.152C260.123 371.25 259.934 371.383 259.738 371.551ZM270.883 372.74V373.631H264.719V372.992L268.539 367.08H269.424L268.475 368.791L265.949 372.74H270.883ZM269.693 367.08V375.611H268.609V367.08H269.693Z" fill="#8794BA"/>
<path d="M101.922 286.551L101.055 286.328L101.482 282.08H105.859V283.082H102.402L102.145 285.402C102.301 285.312 102.498 285.229 102.736 285.15C102.979 285.072 103.256 285.033 103.568 285.033C103.963 285.033 104.316 285.102 104.629 285.238C104.941 285.371 105.207 285.562 105.426 285.812C105.648 286.062 105.818 286.363 105.936 286.715C106.053 287.066 106.111 287.459 106.111 287.893C106.111 288.303 106.055 288.68 105.941 289.023C105.832 289.367 105.666 289.668 105.443 289.926C105.221 290.18 104.939 290.377 104.6 290.518C104.264 290.658 103.867 290.729 103.41 290.729C103.066 290.729 102.74 290.682 102.432 290.588C102.127 290.49 101.854 290.344 101.611 290.148C101.373 289.949 101.178 289.703 101.025 289.41C100.877 289.113 100.783 288.766 100.744 288.367H101.775C101.822 288.688 101.916 288.957 102.057 289.176C102.197 289.395 102.381 289.561 102.607 289.674C102.838 289.783 103.105 289.838 103.41 289.838C103.668 289.838 103.896 289.793 104.096 289.703C104.295 289.613 104.463 289.484 104.6 289.316C104.736 289.148 104.84 288.945 104.91 288.707C104.984 288.469 105.021 288.201 105.021 287.904C105.021 287.635 104.984 287.385 104.91 287.154C104.836 286.924 104.725 286.723 104.576 286.551C104.432 286.379 104.254 286.246 104.043 286.152C103.832 286.055 103.59 286.006 103.316 286.006C102.953 286.006 102.678 286.055 102.49 286.152C102.307 286.25 102.117 286.383 101.922 286.551ZM108.672 286.551L107.805 286.328L108.232 282.08H112.609V283.082H109.152L108.895 285.402C109.051 285.312 109.248 285.229 109.486 285.15C109.729 285.072 110.006 285.033 110.318 285.033C110.713 285.033 111.066 285.102 111.379 285.238C111.691 285.371 111.957 285.562 112.176 285.812C112.398 286.062 112.568 286.363 112.686 286.715C112.803 287.066 112.861 287.459 112.861 287.893C112.861 288.303 112.805 288.68 112.691 289.023C112.582 289.367 112.416 289.668 112.193 289.926C111.971 290.18 111.689 290.377 111.35 290.518C111.014 290.658 110.617 290.729 110.16 290.729C109.816 290.729 109.49 290.682 109.182 290.588C108.877 290.49 108.604 290.344 108.361 290.148C108.123 289.949 107.928 289.703 107.775 289.41C107.627 289.113 107.533 288.766 107.494 288.367H108.525C108.572 288.688 108.666 288.957 108.807 289.176C108.947 289.395 109.131 289.561 109.357 289.674C109.588 289.783 109.855 289.838 110.16 289.838C110.418 289.838 110.646 289.793 110.846 289.703C111.045 289.613 111.213 289.484 111.35 289.316C111.486 289.148 111.59 288.945 111.66 288.707C111.734 288.469 111.771 288.201 111.771 287.904C111.771 287.635 111.734 287.385 111.66 287.154C111.586 286.924 111.475 286.723 111.326 286.551C111.182 286.379 111.004 286.246 110.793 286.152C110.582 286.055 110.34 286.006 110.066 286.006C109.703 286.006 109.428 286.055 109.24 286.152C109.057 286.25 108.867 286.383 108.672 286.551ZM116.424 286.539V287.43H113.564V286.539H116.424ZM121.527 282.068H121.621V282.988H121.527C120.953 282.988 120.473 283.082 120.086 283.27C119.699 283.453 119.393 283.701 119.166 284.014C118.939 284.322 118.775 284.67 118.674 285.057C118.576 285.443 118.527 285.836 118.527 286.234V287.488C118.527 287.867 118.572 288.203 118.662 288.496C118.752 288.785 118.875 289.029 119.031 289.229C119.188 289.428 119.363 289.578 119.559 289.68C119.758 289.781 119.965 289.832 120.18 289.832C120.43 289.832 120.652 289.785 120.848 289.691C121.043 289.594 121.207 289.459 121.34 289.287C121.477 289.111 121.58 288.904 121.65 288.666C121.721 288.428 121.756 288.166 121.756 287.881C121.756 287.627 121.725 287.383 121.662 287.148C121.6 286.91 121.504 286.699 121.375 286.516C121.246 286.328 121.084 286.182 120.889 286.076C120.697 285.967 120.469 285.912 120.203 285.912C119.902 285.912 119.621 285.986 119.359 286.135C119.102 286.279 118.889 286.471 118.721 286.709C118.557 286.943 118.463 287.199 118.439 287.477L117.865 287.471C117.92 287.033 118.021 286.66 118.17 286.352C118.322 286.039 118.51 285.785 118.732 285.59C118.959 285.391 119.211 285.246 119.488 285.156C119.77 285.062 120.066 285.016 120.379 285.016C120.805 285.016 121.172 285.096 121.48 285.256C121.789 285.416 122.043 285.631 122.242 285.9C122.441 286.166 122.588 286.467 122.682 286.803C122.779 287.135 122.828 287.477 122.828 287.828C122.828 288.23 122.771 288.607 122.658 288.959C122.545 289.311 122.375 289.619 122.148 289.885C121.926 290.15 121.65 290.357 121.322 290.506C120.994 290.654 120.613 290.729 120.18 290.729C119.719 290.729 119.316 290.635 118.973 290.447C118.629 290.256 118.344 290.002 118.117 289.686C117.891 289.369 117.721 289.018 117.607 288.631C117.494 288.244 117.438 287.852 117.438 287.453V286.943C117.438 286.342 117.498 285.752 117.619 285.174C117.74 284.596 117.949 284.072 118.246 283.604C118.547 283.135 118.963 282.762 119.494 282.484C120.025 282.207 120.703 282.068 121.527 282.068ZM129.883 287.74V288.631H123.719V287.992L127.539 282.08H128.424L127.475 283.791L124.949 287.74H129.883ZM128.693 282.08V290.611H127.609V282.08H128.693Z" fill="#8794BA"/>
<path d="M109.715 151.068H109.809V151.988H109.715C109.141 151.988 108.66 152.082 108.273 152.27C107.887 152.453 107.58 152.701 107.354 153.014C107.127 153.322 106.963 153.67 106.861 154.057C106.764 154.443 106.715 154.836 106.715 155.234V156.488C106.715 156.867 106.76 157.203 106.85 157.496C106.939 157.785 107.062 158.029 107.219 158.229C107.375 158.428 107.551 158.578 107.746 158.68C107.945 158.781 108.152 158.832 108.367 158.832C108.617 158.832 108.84 158.785 109.035 158.691C109.23 158.594 109.395 158.459 109.527 158.287C109.664 158.111 109.768 157.904 109.838 157.666C109.908 157.428 109.943 157.166 109.943 156.881C109.943 156.627 109.912 156.383 109.85 156.148C109.787 155.91 109.691 155.699 109.562 155.516C109.434 155.328 109.271 155.182 109.076 155.076C108.885 154.967 108.656 154.912 108.391 154.912C108.09 154.912 107.809 154.986 107.547 155.135C107.289 155.279 107.076 155.471 106.908 155.709C106.744 155.943 106.65 156.199 106.627 156.477L106.053 156.471C106.107 156.033 106.209 155.66 106.357 155.352C106.51 155.039 106.697 154.785 106.92 154.59C107.146 154.391 107.398 154.246 107.676 154.156C107.957 154.062 108.254 154.016 108.566 154.016C108.992 154.016 109.359 154.096 109.668 154.256C109.977 154.416 110.23 154.631 110.43 154.9C110.629 155.166 110.775 155.467 110.869 155.803C110.967 156.135 111.016 156.477 111.016 156.828C111.016 157.23 110.959 157.607 110.846 157.959C110.732 158.311 110.562 158.619 110.336 158.885C110.113 159.15 109.838 159.357 109.51 159.506C109.182 159.654 108.801 159.729 108.367 159.729C107.906 159.729 107.504 159.635 107.16 159.447C106.816 159.256 106.531 159.002 106.305 158.686C106.078 158.369 105.908 158.018 105.795 157.631C105.682 157.244 105.625 156.852 105.625 156.453V155.943C105.625 155.342 105.686 154.752 105.807 154.174C105.928 153.596 106.137 153.072 106.434 152.604C106.734 152.135 107.15 151.762 107.682 151.484C108.213 151.207 108.891 151.068 109.715 151.068ZM113.676 155.551L112.809 155.328L113.236 151.08H117.613V152.082H114.156L113.898 154.402C114.055 154.312 114.252 154.229 114.49 154.15C114.732 154.072 115.01 154.033 115.322 154.033C115.717 154.033 116.07 154.102 116.383 154.238C116.695 154.371 116.961 154.562 117.18 154.812C117.402 155.062 117.572 155.363 117.689 155.715C117.807 156.066 117.865 156.459 117.865 156.893C117.865 157.303 117.809 157.68 117.695 158.023C117.586 158.367 117.42 158.668 117.197 158.926C116.975 159.18 116.693 159.377 116.354 159.518C116.018 159.658 115.621 159.729 115.164 159.729C114.82 159.729 114.494 159.682 114.186 159.588C113.881 159.49 113.607 159.344 113.365 159.148C113.127 158.949 112.932 158.703 112.779 158.41C112.631 158.113 112.537 157.766 112.498 157.367H113.529C113.576 157.688 113.67 157.957 113.811 158.176C113.951 158.395 114.135 158.561 114.361 158.674C114.592 158.783 114.859 158.838 115.164 158.838C115.422 158.838 115.65 158.793 115.85 158.703C116.049 158.613 116.217 158.484 116.354 158.316C116.49 158.148 116.594 157.945 116.664 157.707C116.738 157.469 116.775 157.201 116.775 156.904C116.775 156.635 116.738 156.385 116.664 156.154C116.59 155.924 116.479 155.723 116.33 155.551C116.186 155.379 116.008 155.246 115.797 155.152C115.586 155.055 115.344 155.006 115.07 155.006C114.707 155.006 114.432 155.055 114.244 155.152C114.061 155.25 113.871 155.383 113.676 155.551ZM124.65 155.035V156.055H118.803V155.035H124.65ZM122.271 152.545V158.756H121.188V152.545H122.271Z" fill="#8794BA"/>
</g>
<defs>
<filter id="filter0_d_165_1919" x="35.3" y="17.6108" width="614.4" height="427.2" filterUnits="userSpaceOnUse" color-interpolation-filters="sRGB">
<feFlood flood-opacity="0" result="BackgroundImageFix"/>
<feColorMatrix in="SourceAlpha" type="matrix" values="0 0 0 0 0 0 0 0 0 0 0 0 0 0 0 0 0 0 127 0" result="hardAlpha"/>
<feOffset dx="7" dy="10"/>
<feGaussianBlur stdDeviation="3.6"/>
<feComposite in2="hardAlpha" operator="out"/>
<feColorMatrix type="matrix" values="0 0 0 0 0 0 0 0 0 0 0 0 0 0 0 0 0 0 0.25 0"/>
<feBlend mode="normal" in2="BackgroundImageFix" result="effect1_dropShadow_165_1919"/>
<feBlend mode="normal" in="SourceGraphic" in2="effect1_dropShadow_165_1919" result="shape"/>
</filter>
<filter id="filter1_d_165_1919" x="0.5" y="0.61084" width="670" height="480" filterUnits="userSpaceOnUse" color-interpolation-filters="sRGB">
<feFlood flood-opacity="0" result="BackgroundImageFix"/>
<feColorMatrix in="SourceAlpha" type="matrix" values="0 0 0 0 0 0 0 0 0 0 0 0 0 0 0 0 0 0 127 0" result="hardAlpha"/>
<feMorphology radius="15" operator="erode" in="SourceAlpha" result="effect1_dropShadow_165_1919"/>
<feOffset dy="18"/>
<feGaussianBlur stdDeviation="25"/>
<feColorMatrix type="matrix" values="0 0 0 0 0.0996452 0 0 0 0 0.164326 0 0 0 0 0.350284 0 0 0 0.2 0"/>
<feBlend mode="normal" in2="BackgroundImageFix" result="effect1_dropShadow_165_1919"/>
<feBlend mode="normal" in="SourceGraphic" in2="effect1_dropShadow_165_1919" result="shape"/>
</filter>
</defs>
</svg>
