<svg width="39" height="39" viewBox="0 0 39 39" fill="none" xmlns="http://www.w3.org/2000/svg">
<path d="M16.77 4.76372L5.75127 13.5882C4.51107 14.574 3.71607 16.6569 3.98637 18.2151L6.10107 30.8715C6.48267 33.1293 8.64507 34.9578 10.9347 34.9578H28.7427C31.0164 34.9578 33.1947 33.1134 33.5763 30.8715L35.691 18.2151C35.9454 16.6569 35.1504 14.574 33.9261 13.5882L22.9074 4.77962C21.2061 3.41222 18.4554 3.41222 16.77 4.76372Z" stroke="#EFF2FB" stroke-width="1.59" stroke-linecap="round" stroke-linejoin="round"/>
<path d="M19.8393 24.9249C20.8935 24.9249 21.9045 24.5062 22.65 23.7607C23.3955 23.0152 23.8143 22.0042 23.8143 20.9499C23.8143 19.8957 23.3955 18.8847 22.65 18.1392C21.9045 17.3937 20.8935 16.9749 19.8393 16.9749C18.785 16.9749 17.774 17.3937 17.0285 18.1392C16.2831 18.8847 15.8643 19.8957 15.8643 20.9499C15.8643 22.0042 16.2831 23.0152 17.0285 23.7607C17.774 24.5062 18.785 24.9249 19.8393 24.9249Z" stroke="#EFF2FB" stroke-width="1.59" stroke-linecap="round" stroke-linejoin="round"/>
</svg>
