<svg width="24" height="24" viewBox="0 0 24 24" fill="none" xmlns="http://www.w3.org/2000/svg">
<g clip-path="url(#clip0_175_1845)">
<path d="M10.9961 7H12.9961V9H10.9961V7ZM11.9961 17C12.5461 17 12.9961 16.55 12.9961 16V12C12.9961 11.45 12.5461 11 11.9961 11C11.4461 11 10.9961 11.45 10.9961 12V16C10.9961 16.55 11.4461 17 11.9961 17ZM11.9961 2C6.47609 2 1.99609 6.48 1.99609 12C1.99609 17.52 6.47609 22 11.9961 22C17.5161 22 21.9961 17.52 21.9961 12C21.9961 6.48 17.5161 2 11.9961 2ZM11.9961 20C7.58609 20 3.99609 16.41 3.99609 12C3.99609 7.59 7.58609 4 11.9961 4C16.4061 4 19.9961 7.59 19.9961 12C19.9961 16.41 16.4061 20 11.9961 20Z" fill="#A3AED0"/>
</g>
<defs>
<clipPath id="clip0_175_1845">
<rect width="24" height="24" fill="white"/>
</clipPath>
</defs>
</svg>
