<svg width="56" height="56" viewBox="0 0 56 56" fill="none" xmlns="http://www.w3.org/2000/svg">
<circle cx="28" cy="28" r="28" fill="#F4F7FE"/>
<g clip-path="url(#clip0_175_1271)">
<path d="M20.2869 24.3135H20.5605C21.6142 24.3135 22.4763 25.1755 22.4763 26.2292V35.808C22.4763 36.8617 21.6142 37.7238 20.5605 37.7238H20.2869C19.2332 37.7238 18.3711 36.8617 18.3711 35.808V26.2292C18.3711 25.1755 19.2332 24.3135 20.2869 24.3135ZM27.9499 18.5662C29.0036 18.5662 29.8657 19.4283 29.8657 20.4819V35.808C29.8657 36.8617 29.0036 37.7238 27.9499 37.7238C26.8962 37.7238 26.0341 36.8617 26.0341 35.808V20.4819C26.0341 19.4283 26.8962 18.5662 27.9499 18.5662ZM35.613 29.5134C36.6666 29.5134 37.5287 30.3755 37.5287 31.4291V35.808C37.5287 36.8617 36.6666 37.7238 35.613 37.7238C34.5593 37.7238 33.6972 36.8617 33.6972 35.808V31.4291C33.6972 30.3755 34.5593 29.5134 35.613 29.5134Z" fill="#5D0089"/>
</g>
<defs>
<clipPath id="clip0_175_1271">
<rect width="32.8417" height="32.8417" fill="white" transform="translate(11.5273 11.7241)"/>
</clipPath>
</defs>
</svg>
