<svg width="28" height="28" viewBox="0 0 28 28" fill="none" xmlns="http://www.w3.org/2000/svg">
<path fill-rule="evenodd" clip-rule="evenodd" d="M13.7282 0.636368C6.197 0.636368 0.0917969 6.74157 0.0917969 14.2727C0.0917969 21.8038 6.197 27.9091 13.7282 27.9091C21.2593 27.9091 27.3645 21.8038 27.3645 14.2727C27.3645 6.74157 21.2593 0.636368 13.7282 0.636368ZM8.95543 9.5C8.95543 6.86409 11.0923 4.72728 13.7282 4.72728C16.3641 4.72728 18.5009 6.86409 18.5009 9.5C18.5009 12.1359 16.3641 14.2727 13.7282 14.2727C11.0923 14.2727 8.95543 12.1359 8.95543 9.5ZM4.56207 20.1904C6.81034 18.3525 10.0937 17 13.7282 17C17.3627 17 20.646 18.3525 22.8942 20.1904C20.9512 23.194 17.5718 25.1818 13.7282 25.1818C9.88456 25.1818 6.50522 23.194 4.56207 20.1904Z" fill="#007AFF"/>
</svg>
