<svg width="229" height="50" viewBox="0 0 229 50" fill="none" xmlns="http://www.w3.org/2000/svg">
<path d="M72.36 12.44C72.36 11.7467 72.6133 11.1733 73.12 10.72C73.6267 10.24 74.2667 10 75.04 10H86.16C88.08 10 89.7733 10.3867 91.24 11.16C92.7333 11.9067 93.88 12.9867 94.68 14.4C95.5067 15.7867 95.92 17.4 95.92 19.24C95.92 21.1067 95.52 22.7467 94.72 24.16C93.92 25.5467 92.7867 26.6267 91.32 27.4C89.8533 28.1467 88.1333 28.52 86.16 28.52H77.72V34.4C77.72 35.68 77.2533 36.6667 76.32 37.36C75.4133 38.0267 74.0933 38.36 72.36 38.36V12.44ZM86.16 23.88C87.5733 23.88 88.6667 23.4667 89.44 22.64C90.2133 21.8133 90.6 20.6667 90.6 19.2C90.6 17.76 90.2 16.64 89.4 15.84C88.6267 15.04 87.5467 14.64 86.16 14.64H77.72V23.88H86.16ZM109.806 38.36C107.62 38.36 105.62 37.9333 103.806 37.08C101.993 36.2 100.553 35.0133 99.4863 33.52C98.4463 32.0267 97.9263 30.4 97.9263 28.64V19.32C97.9263 17.56 98.4463 15.9467 99.4863 14.48C100.553 12.9867 101.993 11.8133 103.806 10.96C105.62 10.08 107.62 9.64 109.806 9.64C111.993 9.64 113.993 10.08 115.806 10.96C117.646 11.8133 119.086 12.9867 120.126 14.48C121.193 15.9467 121.726 17.56 121.726 19.32V28.64C121.726 30.4 121.193 32.0267 120.126 33.52C119.086 35.0133 117.646 36.2 115.806 37.08C113.993 37.9333 111.993 38.36 109.806 38.36ZM109.806 33.68C111.806 33.68 113.406 33.2133 114.606 32.28C115.806 31.32 116.406 30.08 116.406 28.56V19.44C116.406 17.8933 115.806 16.6533 114.606 15.72C113.406 14.76 111.806 14.28 109.806 14.28C107.833 14.28 106.246 14.76 105.046 15.72C103.846 16.6533 103.246 17.8933 103.246 19.44V28.56C103.246 30.08 103.846 31.32 105.046 32.28C106.246 33.2133 107.833 33.68 109.806 33.68ZM125.602 12.44C125.602 11.7467 125.856 11.1733 126.362 10.72C126.869 10.24 127.509 10 128.282 10H139.402C141.322 10 143.016 10.3867 144.482 11.16C145.976 11.9067 147.122 12.9867 147.922 14.4C148.749 15.7867 149.162 17.4 149.162 19.24C149.162 21.1067 148.762 22.7467 147.962 24.16C147.162 25.5467 146.029 26.6267 144.562 27.4C143.096 28.1467 141.376 28.52 139.402 28.52H130.962V34.4C130.962 35.68 130.496 36.6667 129.562 37.36C128.656 38.0267 127.336 38.36 125.602 38.36V12.44ZM139.402 23.88C140.816 23.88 141.909 23.4667 142.682 22.64C143.456 21.8133 143.842 20.6667 143.842 19.2C143.842 17.76 143.442 16.64 142.642 15.84C141.869 15.04 140.789 14.64 139.402 14.64H130.962V23.88H139.402ZM164.624 38.36C162.384 38.36 160.357 37.9067 158.544 37C156.757 36.0933 155.357 34.84 154.344 33.24C153.331 31.64 152.824 29.8267 152.824 27.8V13.6C152.824 12.32 153.277 11.3467 154.184 10.68C155.091 9.98666 156.424 9.64 158.184 9.64V27.8C158.184 29.5867 158.771 31.0133 159.944 32.08C161.117 33.1467 162.677 33.68 164.624 33.68C166.571 33.68 168.131 33.1467 169.304 32.08C170.477 31.0133 171.064 29.5867 171.064 27.8V13.6C171.064 12.2933 171.517 11.3067 172.424 10.64C173.331 9.97333 174.664 9.64 176.424 9.64V27.8C176.424 29.8267 175.917 31.64 174.904 33.24C173.891 34.84 172.477 36.0933 170.664 37C168.877 37.9067 166.864 38.36 164.624 38.36ZM183.715 38C182.941 38 182.275 37.72 181.715 37.16C181.181 36.6 180.915 35.9333 180.915 35.16V13.6C180.915 12.2667 181.355 11.28 182.235 10.64C183.115 9.97333 184.461 9.64 186.275 9.64V33.36H197.075C198.328 33.36 199.275 33.76 199.915 34.56C200.555 35.3333 200.875 36.48 200.875 38H183.715ZM206.177 38.36C205.03 38.2267 204.123 37.8267 203.457 37.16C202.817 36.4933 202.497 35.6533 202.497 34.64C202.497 33.8667 202.683 33.0667 203.057 32.24L212.217 11.4C212.723 10.2267 213.603 9.64 214.857 9.64C216.083 9.64 216.95 10.2267 217.457 11.4L226.617 32.24C226.99 33.12 227.177 33.92 227.177 34.64C227.177 35.6533 226.843 36.4933 226.177 37.16C225.537 37.8267 224.63 38.2267 223.457 38.36L220.097 30.76H209.577L206.177 38.36ZM218.457 26.2L214.057 15.24L213.577 15.44L214.537 17.92L211.177 26.2H218.457Z" fill="white"/>
<path fill-rule="evenodd" clip-rule="evenodd" d="M47.1448 49.5167C47.1448 49.5167 47.1448 31.0572 47.1448 23.401C46.0151 7.65599 32.811 6.71557 30.476 10.5389C26.0465 17.7919 14.9103 9.08618 13.5727 24.7674C13.5727 32.886 21.6677 39.7955 21.6677 35.0509C21.6677 30.3063 21.6677 15.5581 21.6677 15.5581C21.6677 13.27 20.5938 6.26474 25.9088 6.6533C30.8003 7.01088 38.399 13.0109 38.865 15.5581C39.3311 18.1054 38.865 30.755 38.865 30.755C38.865 32.2229 36.6745 37.7058 28.7051 36.6697V39.0442V40.8575C28.3322 42.8866 25.9294 43.9228 23.4853 43.9228C19.5239 43.9228 0 39.0442 0 21.6516C0 9.857 11.4333 2.42493 29.5906 0.663476H30.1498C37.094 0.332483 50.3936 -3.73084 52.918 13.1166C54.6023 24.3578 53.683 49.5167 47.1448 49.5167ZM28.2856 16.2776C29.6352 13.8599 33.319 16.2489 33.319 18.1054C33.319 19.9618 33.319 29.5462 33.319 29.5462C32.9772 30.165 31.9301 31.3335 30.4761 31.0572C29.022 30.7809 28.4099 29.762 28.2856 29.2871V16.2776Z" fill="white"/>
</svg>
