<svg width="56" height="56" viewBox="0 0 56 56" fill="none" xmlns="http://www.w3.org/2000/svg">
<circle cx="28" cy="28" r="28" fill="url(#paint0_linear_175_1305)"/>
<g clip-path="url(#clip0_175_1305)">
<path d="M39.6654 20.043L26.3537 33.3663L21.407 28.4197L23.052 26.7747L26.3537 30.0763L38.0204 18.4097L39.6654 20.043ZM27.9987 37.333C22.8537 37.333 18.6654 33.1447 18.6654 27.9997C18.6654 22.8547 22.8537 18.6663 27.9987 18.6663C29.8304 18.6663 31.5454 19.203 32.992 20.1247L34.6837 18.433C32.782 17.1147 30.4837 16.333 27.9987 16.333C21.5587 16.333 16.332 21.5597 16.332 27.9997C16.332 34.4397 21.5587 39.6663 27.9987 39.6663C30.017 39.6663 31.9187 39.153 33.5754 38.243L31.8254 36.493C30.6587 37.0297 29.3637 37.333 27.9987 37.333ZM36.1654 31.4997H32.6654V33.833H36.1654V37.333H38.4987V33.833H41.9987V31.4997H38.4987V27.9997H36.1654V31.4997Z" fill="white"/>
</g>
<defs>
<linearGradient id="paint0_linear_175_1305" x1="0" y1="28" x2="56" y2="28" gradientUnits="userSpaceOnUse">
<stop stop-color="#4481EB"/>
<stop offset="1" stop-color="#04BEFE"/>
</linearGradient>
<clipPath id="clip0_175_1305">
<rect width="28" height="28" fill="white" transform="translate(14 13.9998)"/>
</clipPath>
</defs>
</svg>
