<svg width="24" height="24" viewBox="0 0 24 24" fill="none" xmlns="http://www.w3.org/2000/svg">
<g clip-path="url(#clip0_175_1852)">
<path d="M19.2827 17.29L17.9927 16V11C17.9927 7.93 16.3527 5.36 13.4927 4.68V4C13.4927 3.17 12.8227 2.5 11.9927 2.5C11.1627 2.5 10.4927 3.17 10.4927 4V4.68C7.62273 5.36 5.99273 7.92 5.99273 11V16L4.70273 17.29C4.07273 17.92 4.51273 19 5.40273 19H18.5727C19.4727 19 19.9127 17.92 19.2827 17.29ZM15.9927 17H7.99273V11C7.99273 8.52 9.50273 6.5 11.9927 6.5C14.4827 6.5 15.9927 8.52 15.9927 11V17ZM11.9927 22C13.0927 22 13.9927 21.1 13.9927 20H9.99273C9.99273 21.1 10.8827 22 11.9927 22Z" fill="#A3AED0"/>
</g>
<defs>
<clipPath id="clip0_175_1852">
<rect width="24" height="24" fill="white" transform="translate(-0.00390625)"/>
</clipPath>
</defs>
</svg>
