<svg width="49" height="49" viewBox="0 0 49 49" fill="none" xmlns="http://www.w3.org/2000/svg">
<path d="M24.5405 5.94122C17.7825 5.94122 12.2905 11.4333 12.2905 18.1912V24.0916C12.2905 25.3371 11.7596 27.2358 11.1267 28.2975L8.7788 32.1971C7.32921 34.6062 8.32963 37.2808 10.9838 38.1791C19.7834 41.1191 29.2771 41.1191 38.0767 38.1791C40.5471 37.3625 41.6292 34.4429 40.2817 32.1971L37.9338 28.2975C37.3213 27.2358 36.7905 25.3371 36.7905 24.0916V18.1912C36.7905 11.4537 31.278 5.94122 24.5405 5.94122Z" stroke="#5D0089" stroke-width="1.5" stroke-miterlimit="10" stroke-linecap="round"/>
<path d="M28.3178 6.53332C25.8489 5.83014 23.2326 5.83014 20.7637 6.53332C21.3558 5.02248 22.8258 3.96082 24.5408 3.96082C26.2558 3.96082 27.7258 5.02248 28.3178 6.53332Z" stroke="#5D0089" stroke-width="1.5" stroke-miterlimit="10" stroke-linecap="round" stroke-linejoin="round"/>
<path d="M30.666 38.9142C30.666 42.2829 27.9098 45.0392 24.541 45.0392C22.8668 45.0392 21.3152 44.345 20.2127 43.2425C19.0656 42.0937 18.4197 40.5376 18.416 38.9142" stroke="#5D0089" stroke-width="1.5" stroke-miterlimit="10"/>
<circle cx="35.7292" cy="12.25" r="6.66667" fill="#9CEC5B" stroke="white" stroke-width="3"/>
</svg>
