<svg width="410" height="510" viewBox="0 0 410 510" fill="none" xmlns="http://www.w3.org/2000/svg">
<g filter="url(#filter0_d_159_612)">
<rect x="35" y="17" width="340" height="440" rx="30" fill="white"/>
</g>
<rect x="83.5" y="337" width="242" height="50" rx="25" fill="#45115E"/>
<path d="M167.07 364.281V364.055H169.516V364.242C169.51 364.799 169.688 365.219 170.047 365.5C170.406 365.776 170.904 365.914 171.539 365.914C172.174 365.914 172.661 365.784 173 365.523C173.344 365.263 173.516 364.919 173.516 364.492C173.516 364.044 173.352 363.701 173.023 363.461C172.701 363.216 171.99 362.951 170.891 362.664C169.698 362.357 168.792 361.935 168.172 361.398C167.552 360.862 167.242 360.13 167.242 359.203C167.242 358.198 167.622 357.396 168.383 356.797C169.148 356.198 170.177 355.898 171.469 355.898C172.755 355.898 173.786 356.208 174.562 356.828C175.344 357.443 175.734 358.263 175.734 359.289V359.5H173.328V359.328C173.328 358.844 173.172 358.456 172.859 358.164C172.552 357.872 172.094 357.727 171.484 357.727C170.87 357.727 170.417 357.844 170.125 358.078C169.839 358.307 169.695 358.62 169.695 359.016C169.695 359.406 169.852 359.703 170.164 359.906C170.477 360.109 171.182 360.357 172.281 360.648C173.453 360.966 174.357 361.398 174.992 361.945C175.633 362.492 175.956 363.281 175.961 364.312C175.961 365.391 175.557 366.229 174.75 366.828C173.943 367.427 172.875 367.727 171.547 367.727C170.229 367.727 169.154 367.432 168.32 366.844C167.487 366.255 167.07 365.401 167.07 364.281ZM177.375 364.328V359.305H179.719V364.383C179.719 364.945 179.831 365.336 180.055 365.555C180.284 365.768 180.594 365.875 180.984 365.875C181.333 365.875 181.646 365.773 181.922 365.57C182.203 365.362 182.411 365.104 182.547 364.797V359.305H184.883V367.5H182.664L182.609 366.57H182.57C182.331 366.909 182 367.177 181.578 367.375C181.161 367.568 180.693 367.664 180.172 367.664C179.354 367.664 178.682 367.409 178.156 366.898C177.635 366.383 177.375 365.526 177.375 364.328ZM186.891 367.5V355.562H189.227V360.156C189.482 359.833 189.802 359.583 190.188 359.406C190.578 359.229 191.029 359.141 191.539 359.141C192.596 359.141 193.435 359.523 194.055 360.289C194.674 361.055 194.984 362.047 194.984 363.266V363.516C194.984 364.745 194.672 365.742 194.047 366.508C193.422 367.273 192.583 367.656 191.531 367.656C191.021 367.656 190.547 367.557 190.109 367.359C189.677 367.156 189.372 366.896 189.195 366.578H189.156L189.109 367.5H186.891ZM189.227 364.727C189.346 365.034 189.544 365.307 189.82 365.547C190.102 365.781 190.464 365.898 190.906 365.898C191.479 365.898 191.904 365.69 192.18 365.273C192.456 364.852 192.594 364.302 192.594 363.625V363.172C192.594 362.495 192.456 361.948 192.18 361.531C191.909 361.115 191.479 360.906 190.891 360.906C190.464 360.906 190.109 361.026 189.828 361.266C189.547 361.5 189.346 361.771 189.227 362.078V364.727ZM196.047 364.914L198.328 364.922V365.047C198.328 365.432 198.456 365.714 198.711 365.891C198.971 366.062 199.323 366.148 199.766 366.148C200.214 366.148 200.552 366.065 200.781 365.898C201.01 365.732 201.125 365.508 201.125 365.227C201.125 364.945 201.005 364.737 200.766 364.602C200.526 364.466 199.958 364.307 199.062 364.125C198.099 363.927 197.396 363.622 196.953 363.211C196.51 362.799 196.289 362.266 196.289 361.609C196.289 360.823 196.604 360.203 197.234 359.75C197.865 359.297 198.714 359.07 199.781 359.07C200.849 359.07 201.703 359.307 202.344 359.781C202.984 360.25 203.305 360.891 203.305 361.703V361.797H201.031V361.672C201.031 361.354 200.927 361.107 200.719 360.93C200.516 360.753 200.201 360.664 199.773 360.664C199.352 360.664 199.044 360.737 198.852 360.883C198.664 361.023 198.57 361.214 198.57 361.453C198.57 361.693 198.693 361.883 198.938 362.023C199.182 362.164 199.755 362.326 200.656 362.508C201.615 362.701 202.318 362.997 202.766 363.398C203.219 363.799 203.445 364.352 203.445 365.055C203.445 365.893 203.133 366.549 202.508 367.023C201.888 367.497 200.979 367.734 199.781 367.734C198.594 367.734 197.674 367.497 197.023 367.023C196.372 366.549 196.047 365.875 196.047 365V364.914ZM204.555 363.523V363.273C204.555 361.982 204.935 360.958 205.695 360.203C206.461 359.448 207.474 359.07 208.734 359.07C209.932 359.07 210.844 359.367 211.469 359.961C212.099 360.555 212.435 361.263 212.477 362.086L212.492 362.227H210.211V362.125C210.211 361.745 210.086 361.43 209.836 361.18C209.591 360.924 209.219 360.797 208.719 360.797C208.135 360.797 207.693 361.01 207.391 361.438C207.094 361.859 206.945 362.43 206.945 363.148V363.648C206.945 364.372 207.089 364.948 207.375 365.375C207.667 365.797 208.115 366.008 208.719 366.008C209.266 366.008 209.651 365.875 209.875 365.609C210.099 365.339 210.211 365.023 210.211 364.664V364.578H212.484V364.68C212.484 365.503 212.159 366.219 211.508 366.828C210.857 367.432 209.932 367.734 208.734 367.734C207.479 367.734 206.469 367.357 205.703 366.602C204.938 365.841 204.555 364.815 204.555 363.523ZM213.859 367.5V359.305H216.094L216.141 360.211H216.18C216.346 359.904 216.576 359.641 216.867 359.422C217.159 359.198 217.487 359.086 217.852 359.086C217.961 359.086 218.07 359.099 218.18 359.125C218.294 359.151 218.375 359.174 218.422 359.195V361.195C218.333 361.174 218.237 361.159 218.133 361.148C218.029 361.133 217.914 361.125 217.789 361.125C217.43 361.125 217.107 361.232 216.82 361.445C216.539 361.654 216.333 361.922 216.203 362.25V367.5H213.859ZM219.711 367.5V359.305H222.062V367.5H219.711ZM219.516 357.008C219.516 356.659 219.633 356.365 219.867 356.125C220.107 355.88 220.448 355.758 220.891 355.758C221.328 355.758 221.664 355.878 221.898 356.117C222.138 356.357 222.258 356.654 222.258 357.008C222.258 357.367 222.138 357.669 221.898 357.914C221.664 358.154 221.326 358.273 220.883 358.273C220.445 358.273 220.107 358.154 219.867 357.914C219.633 357.669 219.516 357.367 219.516 357.008ZM224.078 367.5V355.562H226.414V360.156C226.669 359.833 226.99 359.583 227.375 359.406C227.766 359.229 228.216 359.141 228.727 359.141C229.784 359.141 230.622 359.523 231.242 360.289C231.862 361.055 232.172 362.047 232.172 363.266V363.516C232.172 364.745 231.859 365.742 231.234 366.508C230.609 367.273 229.771 367.656 228.719 367.656C228.208 367.656 227.734 367.557 227.297 367.359C226.865 367.156 226.56 366.896 226.383 366.578H226.344L226.297 367.5H224.078ZM226.414 364.727C226.534 365.034 226.732 365.307 227.008 365.547C227.289 365.781 227.651 365.898 228.094 365.898C228.667 365.898 229.091 365.69 229.367 365.273C229.643 364.852 229.781 364.302 229.781 363.625V363.172C229.781 362.495 229.643 361.948 229.367 361.531C229.096 361.115 228.667 360.906 228.078 360.906C227.651 360.906 227.297 361.026 227.016 361.266C226.734 361.5 226.534 361.771 226.414 362.078V364.727ZM233.289 363.523V363.273C233.289 362.008 233.672 360.992 234.438 360.227C235.203 359.456 236.182 359.07 237.375 359.07C238.578 359.07 239.521 359.432 240.203 360.156C240.885 360.875 241.227 361.87 241.227 363.141V363.969H234.867V362.523H238.922V362.352C238.922 361.904 238.786 361.526 238.516 361.219C238.25 360.906 237.87 360.75 237.375 360.75C236.802 360.75 236.365 360.966 236.062 361.398C235.766 361.826 235.617 362.406 235.617 363.141V363.641C235.617 364.37 235.779 364.948 236.102 365.375C236.424 365.797 236.898 366.008 237.523 366.008C237.961 366.008 238.339 365.901 238.656 365.688C238.974 365.474 239.232 365.227 239.43 364.945L241.086 365.992C240.826 366.497 240.385 366.914 239.766 367.242C239.146 367.57 238.411 367.734 237.562 367.734C236.234 367.734 235.19 367.352 234.43 366.586C233.669 365.815 233.289 364.794 233.289 363.523Z" fill="white"/>
<path d="M157.438 89.4043C157.438 88.5742 157.146 87.9395 156.56 87.5C155.974 87.0508 154.919 86.582 153.396 86.0938C151.872 85.5957 150.666 85.1074 149.777 84.6289C147.355 83.3203 146.145 81.5576 146.145 79.3408C146.145 78.1885 146.467 77.1631 147.111 76.2646C147.766 75.3564 148.698 74.6484 149.909 74.1406C151.13 73.6328 152.497 73.3789 154.011 73.3789C155.534 73.3789 156.892 73.6572 158.083 74.2139C159.274 74.7607 160.197 75.5371 160.852 76.543C161.516 77.5488 161.848 78.6914 161.848 79.9707H157.453C157.453 78.9941 157.146 78.2373 156.53 77.7002C155.915 77.1533 155.051 76.8799 153.938 76.8799C152.863 76.8799 152.028 77.1094 151.433 77.5684C150.837 78.0176 150.539 78.6133 150.539 79.3555C150.539 80.0488 150.886 80.6299 151.579 81.0986C152.282 81.5674 153.312 82.0068 154.67 82.417C157.17 83.1689 158.991 84.1016 160.134 85.2148C161.276 86.3281 161.848 87.7148 161.848 89.375C161.848 91.2207 161.149 92.6709 159.753 93.7256C158.356 94.7705 156.477 95.293 154.113 95.293C152.473 95.293 150.979 94.9951 149.631 94.3994C148.283 93.7939 147.253 92.9688 146.54 91.9238C145.837 90.8789 145.485 89.668 145.485 88.291H149.895C149.895 90.6445 151.301 91.8213 154.113 91.8213C155.158 91.8213 155.974 91.6113 156.56 91.1914C157.146 90.7617 157.438 90.166 157.438 89.4043ZM169.626 75.2539V79.1504H172.336V82.2559H169.626V90.166C169.626 90.752 169.738 91.1719 169.963 91.4258C170.188 91.6797 170.617 91.8066 171.252 91.8066C171.721 91.8066 172.136 91.7725 172.497 91.7041V94.9121C171.667 95.166 170.812 95.293 169.934 95.293C166.965 95.293 165.451 93.7939 165.393 90.7959V82.2559H163.078V79.1504H165.393V75.2539H169.626ZM183.879 95C183.684 94.6191 183.542 94.1455 183.454 93.5791C182.429 94.7217 181.096 95.293 179.455 95.293C177.902 95.293 176.613 94.8438 175.588 93.9453C174.572 93.0469 174.064 91.9141 174.064 90.5469C174.064 88.8672 174.685 87.5781 175.925 86.6797C177.175 85.7812 178.977 85.3271 181.33 85.3174H183.278V84.4092C183.278 83.6768 183.088 83.0908 182.707 82.6514C182.336 82.2119 181.745 81.9922 180.935 81.9922C180.222 81.9922 179.66 82.1631 179.25 82.5049C178.85 82.8467 178.649 83.3154 178.649 83.9111H174.416C174.416 82.9932 174.699 82.1436 175.266 81.3623C175.832 80.5811 176.633 79.9707 177.668 79.5312C178.703 79.082 179.865 78.8574 181.154 78.8574C183.107 78.8574 184.655 79.3506 185.798 80.3369C186.95 81.3135 187.526 82.6904 187.526 84.4678V91.3379C187.536 92.8418 187.746 93.9795 188.156 94.751V95H183.879ZM180.378 92.0557C181.003 92.0557 181.579 91.9189 182.106 91.6455C182.634 91.3623 183.024 90.9863 183.278 90.5176V87.793H181.696C179.577 87.793 178.449 88.5254 178.312 89.9902L178.298 90.2393C178.298 90.7666 178.483 91.2012 178.854 91.543C179.226 91.8848 179.733 92.0557 180.378 92.0557ZM194.675 79.1504L194.807 80.9814C195.939 79.5654 197.458 78.8574 199.362 78.8574C201.042 78.8574 202.292 79.3506 203.112 80.3369C203.933 81.3232 204.353 82.7979 204.372 84.7607V95H200.139V84.8633C200.139 83.9648 199.943 83.3154 199.553 82.915C199.162 82.5049 198.513 82.2998 197.604 82.2998C196.413 82.2998 195.52 82.8076 194.924 83.8232V95H190.69V79.1504H194.675ZM206.936 86.958C206.936 84.4873 207.487 82.5195 208.591 81.0547C209.704 79.5898 211.223 78.8574 213.146 78.8574C214.689 78.8574 215.964 79.4336 216.97 80.5859V72.5H221.218V95H217.395L217.189 93.3154C216.135 94.6338 214.777 95.293 213.117 95.293C211.252 95.293 209.753 94.5605 208.62 93.0957C207.497 91.6211 206.936 89.5752 206.936 86.958ZM211.169 87.2656C211.169 88.75 211.428 89.8877 211.945 90.6787C212.463 91.4697 213.215 91.8652 214.201 91.8652C215.51 91.8652 216.433 91.3135 216.97 90.21V83.9551C216.442 82.8516 215.529 82.2998 214.23 82.2998C212.189 82.2998 211.169 83.9551 211.169 87.2656ZM233.684 95C233.488 94.6191 233.347 94.1455 233.259 93.5791C232.233 94.7217 230.9 95.293 229.26 95.293C227.707 95.293 226.418 94.8438 225.393 93.9453C224.377 93.0469 223.869 91.9141 223.869 90.5469C223.869 88.8672 224.489 87.5781 225.729 86.6797C226.979 85.7812 228.781 85.3271 231.135 85.3174H233.083V84.4092C233.083 83.6768 232.893 83.0908 232.512 82.6514C232.141 82.2119 231.55 81.9922 230.739 81.9922C230.026 81.9922 229.465 82.1631 229.055 82.5049C228.654 82.8467 228.454 83.3154 228.454 83.9111H224.221C224.221 82.9932 224.504 82.1436 225.07 81.3623C225.637 80.5811 226.438 79.9707 227.473 79.5312C228.508 79.082 229.67 78.8574 230.959 78.8574C232.912 78.8574 234.46 79.3506 235.603 80.3369C236.755 81.3135 237.331 82.6904 237.331 84.4678V91.3379C237.341 92.8418 237.551 93.9795 237.961 94.751V95H233.684ZM230.183 92.0557C230.808 92.0557 231.384 91.9189 231.911 91.6455C232.438 91.3623 232.829 90.9863 233.083 90.5176V87.793H231.501C229.382 87.793 228.254 88.5254 228.117 89.9902L228.103 90.2393C228.103 90.7666 228.288 91.2012 228.659 91.543C229.03 91.8848 229.538 92.0557 230.183 92.0557ZM249.489 83.1201C248.913 83.042 248.405 83.0029 247.966 83.0029C246.364 83.0029 245.314 83.5449 244.816 84.6289V95H240.583V79.1504H244.582L244.699 81.04C245.549 79.585 246.726 78.8574 248.229 78.8574C248.698 78.8574 249.138 78.9209 249.548 79.0479L249.489 83.1201ZM250.588 86.958C250.588 84.4873 251.14 82.5195 252.243 81.0547C253.356 79.5898 254.875 78.8574 256.799 78.8574C258.342 78.8574 259.616 79.4336 260.622 80.5859V72.5H264.87V95H261.047L260.842 93.3154C259.787 94.6338 258.43 95.293 256.77 95.293C254.904 95.293 253.405 94.5605 252.272 93.0957C251.149 91.6211 250.588 89.5752 250.588 86.958ZM254.821 87.2656C254.821 88.75 255.08 89.8877 255.598 90.6787C256.115 91.4697 256.867 91.8652 257.854 91.8652C259.162 91.8652 260.085 91.3135 260.622 90.21V83.9551C260.095 82.8516 259.182 82.2998 257.883 82.2998C255.842 82.2998 254.821 83.9551 254.821 87.2656Z" fill="#172755"/>
<path d="M155.14 129.803V122.49H156.774V132H155.219L155.14 129.803ZM155.447 127.799L156.124 127.781C156.124 128.414 156.057 129 155.922 129.539C155.793 130.072 155.582 130.535 155.289 130.928C154.996 131.32 154.612 131.628 154.138 131.851C153.663 132.067 153.086 132.176 152.406 132.176C151.943 132.176 151.519 132.108 151.132 131.974C150.751 131.839 150.423 131.631 150.147 131.35C149.872 131.068 149.658 130.702 149.506 130.251C149.359 129.8 149.286 129.258 149.286 128.625V122.49H150.912V128.643C150.912 129.07 150.959 129.425 151.053 129.706C151.152 129.981 151.284 130.201 151.448 130.365C151.618 130.523 151.806 130.635 152.011 130.699C152.222 130.764 152.438 130.796 152.661 130.796C153.353 130.796 153.9 130.664 154.305 130.4C154.709 130.131 154.999 129.771 155.175 129.319C155.356 128.862 155.447 128.355 155.447 127.799ZM160.879 124.318V135.656H159.244V122.49H160.738L160.879 124.318ZM167.286 127.166V127.351C167.286 128.042 167.204 128.684 167.04 129.275C166.876 129.861 166.636 130.371 166.319 130.805C166.009 131.238 165.625 131.575 165.168 131.815C164.711 132.056 164.187 132.176 163.595 132.176C162.991 132.176 162.458 132.076 161.995 131.877C161.532 131.678 161.14 131.388 160.817 131.007C160.495 130.626 160.237 130.169 160.044 129.636C159.856 129.103 159.728 128.502 159.657 127.834V126.85C159.728 126.146 159.859 125.517 160.053 124.96C160.246 124.403 160.501 123.929 160.817 123.536C161.14 123.138 161.529 122.836 161.986 122.631C162.443 122.42 162.971 122.314 163.568 122.314C164.166 122.314 164.696 122.432 165.159 122.666C165.622 122.895 166.012 123.223 166.328 123.65C166.645 124.078 166.882 124.591 167.04 125.188C167.204 125.78 167.286 126.439 167.286 127.166ZM165.651 127.351V127.166C165.651 126.691 165.602 126.246 165.502 125.83C165.402 125.408 165.247 125.039 165.036 124.723C164.831 124.4 164.567 124.148 164.245 123.967C163.923 123.779 163.539 123.686 163.094 123.686C162.684 123.686 162.326 123.756 162.021 123.896C161.723 124.037 161.468 124.228 161.257 124.468C161.046 124.702 160.873 124.972 160.738 125.276C160.609 125.575 160.513 125.886 160.448 126.208V128.484C160.565 128.895 160.729 129.281 160.94 129.645C161.151 130.002 161.433 130.292 161.784 130.515C162.136 130.731 162.578 130.84 163.111 130.84C163.551 130.84 163.929 130.749 164.245 130.567C164.567 130.38 164.831 130.125 165.036 129.803C165.247 129.48 165.402 129.111 165.502 128.695C165.602 128.273 165.651 127.825 165.651 127.351ZM177.807 122.49V123.738H172.665V122.49H177.807ZM174.405 120.179H176.031V129.645C176.031 129.967 176.081 130.21 176.181 130.374C176.28 130.538 176.409 130.646 176.567 130.699C176.726 130.752 176.896 130.778 177.077 130.778C177.212 130.778 177.353 130.767 177.499 130.743C177.651 130.714 177.766 130.69 177.842 130.673L177.851 132C177.722 132.041 177.552 132.079 177.341 132.114C177.136 132.155 176.887 132.176 176.594 132.176C176.195 132.176 175.829 132.097 175.495 131.938C175.161 131.78 174.895 131.517 174.695 131.147C174.502 130.772 174.405 130.269 174.405 129.636V120.179ZM179.107 127.351V127.148C179.107 126.463 179.207 125.827 179.406 125.241C179.605 124.649 179.893 124.137 180.268 123.703C180.643 123.264 181.097 122.924 181.63 122.684C182.163 122.438 182.761 122.314 183.423 122.314C184.091 122.314 184.691 122.438 185.225 122.684C185.764 122.924 186.221 123.264 186.596 123.703C186.977 124.137 187.267 124.649 187.466 125.241C187.665 125.827 187.765 126.463 187.765 127.148V127.351C187.765 128.036 187.665 128.672 187.466 129.258C187.267 129.844 186.977 130.356 186.596 130.796C186.221 131.229 185.767 131.569 185.233 131.815C184.706 132.056 184.108 132.176 183.44 132.176C182.772 132.176 182.172 132.056 181.639 131.815C181.105 131.569 180.648 131.229 180.268 130.796C179.893 130.356 179.605 129.844 179.406 129.258C179.207 128.672 179.107 128.036 179.107 127.351ZM180.733 127.148V127.351C180.733 127.825 180.789 128.273 180.9 128.695C181.012 129.111 181.179 129.48 181.401 129.803C181.63 130.125 181.914 130.38 182.254 130.567C182.594 130.749 182.989 130.84 183.44 130.84C183.886 130.84 184.275 130.749 184.609 130.567C184.949 130.38 185.23 130.125 185.453 129.803C185.676 129.48 185.843 129.111 185.954 128.695C186.071 128.273 186.13 127.825 186.13 127.351V127.148C186.13 126.68 186.071 126.237 185.954 125.821C185.843 125.399 185.673 125.027 185.444 124.705C185.222 124.377 184.94 124.119 184.601 123.932C184.267 123.744 183.874 123.65 183.423 123.65C182.978 123.65 182.585 123.744 182.245 123.932C181.911 124.119 181.63 124.377 181.401 124.705C181.179 125.027 181.012 125.399 180.9 125.821C180.789 126.237 180.733 126.68 180.733 127.148ZM202.478 130.664V132H194.102V130.831L198.294 126.164C198.81 125.59 199.208 125.104 199.489 124.705C199.776 124.301 199.976 123.94 200.087 123.624C200.204 123.302 200.263 122.974 200.263 122.64C200.263 122.218 200.175 121.837 199.999 121.497C199.829 121.151 199.577 120.876 199.243 120.671C198.909 120.466 198.505 120.363 198.03 120.363C197.462 120.363 196.987 120.475 196.606 120.697C196.231 120.914 195.95 121.219 195.763 121.611C195.575 122.004 195.481 122.455 195.481 122.965H193.855C193.855 122.244 194.014 121.585 194.33 120.987C194.646 120.39 195.115 119.915 195.736 119.563C196.357 119.206 197.122 119.027 198.03 119.027C198.839 119.027 199.53 119.171 200.104 119.458C200.679 119.739 201.118 120.138 201.423 120.653C201.733 121.163 201.889 121.761 201.889 122.446C201.889 122.821 201.824 123.202 201.695 123.589C201.572 123.97 201.399 124.351 201.177 124.731C200.96 125.112 200.705 125.487 200.412 125.856C200.125 126.226 199.817 126.589 199.489 126.946L196.062 130.664H202.478ZM212.251 124.582V126.533C212.251 127.582 212.157 128.467 211.97 129.188C211.782 129.908 211.513 130.488 211.161 130.928C210.81 131.367 210.385 131.687 209.887 131.886C209.395 132.079 208.838 132.176 208.217 132.176C207.725 132.176 207.271 132.114 206.854 131.991C206.438 131.868 206.063 131.672 205.729 131.402C205.401 131.127 205.12 130.77 204.886 130.33C204.651 129.891 204.473 129.357 204.35 128.73C204.227 128.104 204.165 127.371 204.165 126.533V124.582C204.165 123.533 204.259 122.654 204.446 121.945C204.64 121.236 204.912 120.668 205.264 120.24C205.615 119.807 206.037 119.496 206.529 119.309C207.027 119.121 207.584 119.027 208.199 119.027C208.697 119.027 209.154 119.089 209.57 119.212C209.992 119.329 210.367 119.52 210.695 119.783C211.023 120.041 211.302 120.387 211.53 120.82C211.765 121.248 211.943 121.772 212.066 122.394C212.189 123.015 212.251 123.744 212.251 124.582ZM210.616 126.797V124.31C210.616 123.735 210.581 123.231 210.511 122.798C210.446 122.358 210.35 121.983 210.221 121.673C210.092 121.362 209.928 121.11 209.729 120.917C209.535 120.724 209.31 120.583 209.052 120.495C208.8 120.401 208.516 120.354 208.199 120.354C207.812 120.354 207.47 120.428 207.171 120.574C206.872 120.715 206.62 120.94 206.415 121.251C206.216 121.562 206.063 121.969 205.958 122.473C205.853 122.977 205.8 123.589 205.8 124.31V126.797C205.8 127.371 205.832 127.878 205.896 128.317C205.967 128.757 206.069 129.138 206.204 129.46C206.339 129.776 206.503 130.037 206.696 130.242C206.89 130.447 207.112 130.6 207.364 130.699C207.622 130.793 207.906 130.84 208.217 130.84C208.615 130.84 208.964 130.764 209.263 130.611C209.562 130.459 209.811 130.222 210.01 129.899C210.215 129.571 210.367 129.152 210.467 128.643C210.566 128.127 210.616 127.512 210.616 126.797ZM224.802 129.803V122.49H226.437V132H224.881L224.802 129.803ZM225.109 127.799L225.786 127.781C225.786 128.414 225.719 129 225.584 129.539C225.455 130.072 225.244 130.535 224.951 130.928C224.658 131.32 224.274 131.628 223.8 131.851C223.325 132.067 222.748 132.176 222.068 132.176C221.605 132.176 221.181 132.108 220.794 131.974C220.413 131.839 220.085 131.631 219.81 131.35C219.534 131.068 219.32 130.702 219.168 130.251C219.021 129.8 218.948 129.258 218.948 128.625V122.49H220.574V128.643C220.574 129.07 220.621 129.425 220.715 129.706C220.814 129.981 220.946 130.201 221.11 130.365C221.28 130.523 221.468 130.635 221.673 130.699C221.884 130.764 222.101 130.796 222.323 130.796C223.015 130.796 223.562 130.664 223.967 130.4C224.371 130.131 224.661 129.771 224.837 129.319C225.019 128.862 225.109 128.355 225.109 127.799ZM234.452 129.478C234.452 129.243 234.399 129.026 234.294 128.827C234.194 128.622 233.986 128.438 233.67 128.273C233.359 128.104 232.891 127.957 232.264 127.834C231.736 127.723 231.259 127.591 230.831 127.438C230.409 127.286 230.049 127.102 229.75 126.885C229.457 126.668 229.231 126.413 229.073 126.12C228.915 125.827 228.836 125.484 228.836 125.092C228.836 124.717 228.918 124.362 229.082 124.028C229.252 123.694 229.489 123.398 229.794 123.141C230.104 122.883 230.477 122.681 230.91 122.534C231.344 122.388 231.827 122.314 232.36 122.314C233.122 122.314 233.772 122.449 234.312 122.719C234.851 122.988 235.264 123.349 235.551 123.8C235.838 124.245 235.981 124.74 235.981 125.285H234.355C234.355 125.021 234.276 124.767 234.118 124.521C233.966 124.269 233.74 124.061 233.441 123.896C233.148 123.732 232.788 123.65 232.36 123.65C231.909 123.65 231.543 123.721 231.262 123.861C230.986 123.996 230.784 124.169 230.655 124.38C230.532 124.591 230.471 124.813 230.471 125.048C230.471 125.224 230.5 125.382 230.559 125.522C230.623 125.657 230.734 125.783 230.893 125.9C231.051 126.012 231.273 126.117 231.561 126.217C231.848 126.316 232.214 126.416 232.659 126.516C233.438 126.691 234.08 126.902 234.584 127.148C235.088 127.395 235.463 127.696 235.709 128.054C235.955 128.411 236.078 128.845 236.078 129.354C236.078 129.771 235.99 130.151 235.814 130.497C235.645 130.843 235.396 131.142 235.067 131.394C234.745 131.64 234.358 131.833 233.907 131.974C233.462 132.108 232.961 132.176 232.404 132.176C231.566 132.176 230.857 132.026 230.277 131.728C229.697 131.429 229.258 131.042 228.959 130.567C228.66 130.093 228.511 129.592 228.511 129.064H230.146C230.169 129.51 230.298 129.864 230.532 130.128C230.767 130.386 231.054 130.57 231.394 130.682C231.733 130.787 232.07 130.84 232.404 130.84C232.85 130.84 233.222 130.781 233.521 130.664C233.825 130.547 234.057 130.386 234.215 130.181C234.373 129.976 234.452 129.741 234.452 129.478ZM242.16 132.176C241.498 132.176 240.897 132.064 240.358 131.842C239.825 131.613 239.365 131.294 238.979 130.884C238.598 130.474 238.305 129.987 238.1 129.425C237.895 128.862 237.792 128.247 237.792 127.579V127.21C237.792 126.437 237.906 125.748 238.135 125.145C238.363 124.535 238.674 124.02 239.066 123.598C239.459 123.176 239.904 122.856 240.402 122.64C240.9 122.423 241.416 122.314 241.949 122.314C242.629 122.314 243.215 122.432 243.707 122.666C244.205 122.9 244.612 123.229 244.929 123.65C245.245 124.066 245.479 124.559 245.632 125.127C245.784 125.689 245.86 126.305 245.86 126.973V127.702H238.759V126.375H244.234V126.252C244.211 125.83 244.123 125.42 243.971 125.021C243.824 124.623 243.59 124.295 243.268 124.037C242.945 123.779 242.506 123.65 241.949 123.65C241.58 123.65 241.24 123.729 240.93 123.888C240.619 124.04 240.353 124.269 240.13 124.573C239.907 124.878 239.734 125.25 239.611 125.689C239.488 126.129 239.427 126.636 239.427 127.21V127.579C239.427 128.03 239.488 128.455 239.611 128.854C239.74 129.246 239.925 129.592 240.165 129.891C240.411 130.189 240.707 130.424 241.053 130.594C241.404 130.764 241.803 130.849 242.248 130.849C242.822 130.849 243.309 130.731 243.707 130.497C244.105 130.263 244.454 129.949 244.753 129.557L245.737 130.339C245.532 130.649 245.271 130.945 244.955 131.227C244.639 131.508 244.249 131.736 243.786 131.912C243.329 132.088 242.787 132.176 242.16 132.176ZM249.385 123.984V132H247.759V122.49H249.341L249.385 123.984ZM252.355 122.438L252.347 123.949C252.212 123.92 252.083 123.902 251.96 123.896C251.843 123.885 251.708 123.879 251.556 123.879C251.181 123.879 250.85 123.938 250.562 124.055C250.275 124.172 250.032 124.336 249.833 124.547C249.634 124.758 249.476 125.01 249.358 125.303C249.247 125.59 249.174 125.906 249.139 126.252L248.682 126.516C248.682 125.941 248.737 125.402 248.849 124.898C248.966 124.395 249.145 123.949 249.385 123.562C249.625 123.17 249.93 122.865 250.299 122.648C250.674 122.426 251.119 122.314 251.635 122.314C251.752 122.314 251.887 122.329 252.039 122.358C252.191 122.382 252.297 122.408 252.355 122.438ZM259.396 129.478C259.396 129.243 259.343 129.026 259.237 128.827C259.138 128.622 258.93 128.438 258.613 128.273C258.303 128.104 257.834 127.957 257.207 127.834C256.68 127.723 256.202 127.591 255.774 127.438C255.353 127.286 254.992 127.102 254.693 126.885C254.4 126.668 254.175 126.413 254.017 126.12C253.858 125.827 253.779 125.484 253.779 125.092C253.779 124.717 253.861 124.362 254.025 124.028C254.195 123.694 254.433 123.398 254.737 123.141C255.048 122.883 255.42 122.681 255.854 122.534C256.287 122.388 256.771 122.314 257.304 122.314C258.065 122.314 258.716 122.449 259.255 122.719C259.794 122.988 260.207 123.349 260.494 123.8C260.781 124.245 260.925 124.74 260.925 125.285H259.299C259.299 125.021 259.22 124.767 259.062 124.521C258.909 124.269 258.684 124.061 258.385 123.896C258.092 123.732 257.731 123.65 257.304 123.65C256.853 123.65 256.486 123.721 256.205 123.861C255.93 123.996 255.728 124.169 255.599 124.38C255.476 124.591 255.414 124.813 255.414 125.048C255.414 125.224 255.443 125.382 255.502 125.522C255.566 125.657 255.678 125.783 255.836 125.9C255.994 126.012 256.217 126.117 256.504 126.217C256.791 126.316 257.157 126.416 257.603 126.516C258.382 126.691 259.023 126.902 259.527 127.148C260.031 127.395 260.406 127.696 260.652 128.054C260.898 128.411 261.021 128.845 261.021 129.354C261.021 129.771 260.934 130.151 260.758 130.497C260.588 130.843 260.339 131.142 260.011 131.394C259.688 131.64 259.302 131.833 258.851 131.974C258.405 132.108 257.904 132.176 257.348 132.176C256.51 132.176 255.801 132.026 255.221 131.728C254.641 131.429 254.201 131.042 253.902 130.567C253.604 130.093 253.454 129.592 253.454 129.064H255.089C255.112 129.51 255.241 129.864 255.476 130.128C255.71 130.386 255.997 130.57 256.337 130.682C256.677 130.787 257.014 130.84 257.348 130.84C257.793 130.84 258.165 130.781 258.464 130.664C258.769 130.547 259 130.386 259.158 130.181C259.316 129.976 259.396 129.741 259.396 129.478Z" fill="#8794BA"/>
<path d="M171.702 236.288V240.609H169.417V236.288H171.702ZM171.424 260.209V264.149H169.139V260.209H171.424ZM173.035 255.404C173.035 254.848 172.933 254.374 172.728 253.983C172.532 253.593 172.21 253.246 171.761 252.943C171.321 252.641 170.726 252.348 169.974 252.064C168.704 251.576 167.586 251.059 166.619 250.512C165.662 249.955 164.915 249.267 164.378 248.446C163.841 247.616 163.572 246.566 163.572 245.297C163.572 244.086 163.86 243.036 164.437 242.147C165.013 241.259 165.809 240.575 166.824 240.097C167.85 239.608 169.041 239.364 170.398 239.364C171.434 239.364 172.371 239.521 173.211 239.833C174.051 240.136 174.773 240.585 175.379 241.181C175.984 241.767 176.448 242.484 176.771 243.334C177.093 244.184 177.254 245.155 177.254 246.249H173.05C173.05 245.663 172.986 245.146 172.859 244.696C172.732 244.247 172.547 243.871 172.303 243.568C172.068 243.266 171.785 243.041 171.453 242.895C171.121 242.738 170.755 242.66 170.354 242.66C169.759 242.66 169.271 242.777 168.89 243.012C168.509 243.246 168.23 243.563 168.055 243.964C167.889 244.354 167.806 244.804 167.806 245.312C167.806 245.81 167.894 246.244 168.069 246.615C168.255 246.986 168.572 247.328 169.021 247.641C169.471 247.943 170.086 248.256 170.867 248.578C172.137 249.066 173.25 249.594 174.207 250.16C175.164 250.727 175.911 251.42 176.448 252.24C176.985 253.061 177.254 254.105 177.254 255.375C177.254 256.635 176.961 257.709 176.375 258.598C175.789 259.477 174.969 260.15 173.914 260.619C172.859 261.078 171.639 261.308 170.252 261.308C169.354 261.308 168.46 261.19 167.571 260.956C166.683 260.712 165.877 260.321 165.154 259.784C164.432 259.247 163.855 258.534 163.426 257.646C162.996 256.747 162.781 255.644 162.781 254.335H167C167 255.048 167.093 255.644 167.278 256.122C167.464 256.591 167.708 256.967 168.011 257.25C168.323 257.523 168.675 257.719 169.065 257.836C169.456 257.953 169.852 258.012 170.252 258.012C170.877 258.012 171.39 257.899 171.79 257.675C172.2 257.45 172.508 257.143 172.713 256.752C172.928 256.352 173.035 255.902 173.035 255.404ZM187.566 254.584H188.123C190.467 254.584 192.479 254.301 194.158 253.734C195.857 253.148 197.254 252.309 198.348 251.215C199.441 250.121 200.252 248.783 200.779 247.201C201.307 245.6 201.57 243.783 201.57 241.752V233.666C201.57 232.123 201.414 230.766 201.102 229.594C200.809 228.422 200.379 227.455 199.812 226.693C199.266 225.912 198.621 225.326 197.879 224.936C197.156 224.545 196.355 224.35 195.477 224.35C194.539 224.35 193.709 224.584 192.986 225.053C192.264 225.502 191.648 226.117 191.141 226.898C190.652 227.68 190.271 228.578 189.998 229.594C189.744 230.59 189.617 231.635 189.617 232.729C189.617 233.822 189.744 234.867 189.998 235.863C190.252 236.84 190.633 237.709 191.141 238.471C191.648 239.213 192.283 239.809 193.045 240.258C193.807 240.688 194.705 240.902 195.74 240.902C196.736 240.902 197.625 240.717 198.406 240.346C199.207 239.955 199.881 239.447 200.428 238.822C200.994 238.197 201.424 237.504 201.717 236.742C202.029 235.98 202.186 235.209 202.186 234.428L204.969 235.951C204.969 237.318 204.676 238.666 204.09 239.994C203.504 241.322 202.684 242.533 201.629 243.627C200.594 244.701 199.393 245.561 198.025 246.205C196.658 246.85 195.193 247.172 193.631 247.172C191.639 247.172 189.871 246.811 188.328 246.088C186.785 245.346 185.477 244.33 184.402 243.041C183.348 241.732 182.547 240.209 182 238.471C181.453 236.732 181.18 234.848 181.18 232.816C181.18 230.746 181.512 228.803 182.176 226.986C182.859 225.17 183.826 223.568 185.076 222.182C186.346 220.795 187.859 219.711 189.617 218.93C191.395 218.129 193.367 217.729 195.535 217.729C197.703 217.729 199.676 218.148 201.453 218.988C203.23 219.828 204.754 221.02 206.023 222.562C207.293 224.086 208.27 225.912 208.953 228.041C209.656 230.17 210.008 232.533 210.008 235.131V238.061C210.008 240.834 209.705 243.412 209.1 245.795C208.514 248.178 207.625 250.336 206.434 252.27C205.262 254.184 203.797 255.824 202.039 257.191C200.301 258.559 198.279 259.604 195.975 260.326C193.67 261.049 191.092 261.41 188.24 261.41H187.566V254.584ZM222.02 254.584H222.576C224.92 254.584 226.932 254.301 228.611 253.734C230.311 253.148 231.707 252.309 232.801 251.215C233.895 250.121 234.705 248.783 235.232 247.201C235.76 245.6 236.023 243.783 236.023 241.752V233.666C236.023 232.123 235.867 230.766 235.555 229.594C235.262 228.422 234.832 227.455 234.266 226.693C233.719 225.912 233.074 225.326 232.332 224.936C231.609 224.545 230.809 224.35 229.93 224.35C228.992 224.35 228.162 224.584 227.439 225.053C226.717 225.502 226.102 226.117 225.594 226.898C225.105 227.68 224.725 228.578 224.451 229.594C224.197 230.59 224.07 231.635 224.07 232.729C224.07 233.822 224.197 234.867 224.451 235.863C224.705 236.84 225.086 237.709 225.594 238.471C226.102 239.213 226.736 239.809 227.498 240.258C228.26 240.688 229.158 240.902 230.193 240.902C231.189 240.902 232.078 240.717 232.859 240.346C233.66 239.955 234.334 239.447 234.881 238.822C235.447 238.197 235.877 237.504 236.17 236.742C236.482 235.98 236.639 235.209 236.639 234.428L239.422 235.951C239.422 237.318 239.129 238.666 238.543 239.994C237.957 241.322 237.137 242.533 236.082 243.627C235.047 244.701 233.846 245.561 232.479 246.205C231.111 246.85 229.646 247.172 228.084 247.172C226.092 247.172 224.324 246.811 222.781 246.088C221.238 245.346 219.93 244.33 218.855 243.041C217.801 241.732 217 240.209 216.453 238.471C215.906 236.732 215.633 234.848 215.633 232.816C215.633 230.746 215.965 228.803 216.629 226.986C217.312 225.17 218.279 223.568 219.529 222.182C220.799 220.795 222.312 219.711 224.07 218.93C225.848 218.129 227.82 217.729 229.988 217.729C232.156 217.729 234.129 218.148 235.906 218.988C237.684 219.828 239.207 221.02 240.477 222.562C241.746 224.086 242.723 225.912 243.406 228.041C244.109 230.17 244.461 232.533 244.461 235.131V238.061C244.461 240.834 244.158 243.412 243.553 245.795C242.967 248.178 242.078 250.336 240.887 252.27C239.715 254.184 238.25 255.824 236.492 257.191C234.754 258.559 232.732 259.604 230.428 260.326C228.123 261.049 225.545 261.41 222.693 261.41H222.02V254.584Z" fill="#172755"/>
<path d="M176.289 286.867C176.289 288.154 175.995 289.19 175.406 289.977C174.818 290.763 174.021 291.156 173.016 291.156C171.99 291.156 171.182 290.831 170.594 290.18V294.25H169.148V282.547H170.469L170.539 283.484C171.128 282.755 171.945 282.391 172.992 282.391C174.008 282.391 174.81 282.773 175.398 283.539C175.992 284.305 176.289 285.37 176.289 286.734V286.867ZM174.844 286.703C174.844 285.75 174.641 284.997 174.234 284.445C173.828 283.893 173.271 283.617 172.562 283.617C171.688 283.617 171.031 284.005 170.594 284.781V288.82C171.026 289.591 171.688 289.977 172.578 289.977C173.271 289.977 173.82 289.703 174.227 289.156C174.638 288.604 174.844 287.786 174.844 286.703ZM181.641 291.156C180.495 291.156 179.562 290.781 178.844 290.031C178.125 289.276 177.766 288.268 177.766 287.008V286.742C177.766 285.904 177.924 285.156 178.242 284.5C178.565 283.839 179.013 283.323 179.586 282.953C180.164 282.578 180.789 282.391 181.461 282.391C182.56 282.391 183.414 282.753 184.023 283.477C184.633 284.201 184.938 285.237 184.938 286.586V287.188H179.211C179.232 288.021 179.474 288.695 179.938 289.211C180.406 289.721 181 289.977 181.719 289.977C182.229 289.977 182.661 289.872 183.016 289.664C183.37 289.456 183.68 289.18 183.945 288.836L184.828 289.523C184.12 290.612 183.057 291.156 181.641 291.156ZM181.461 283.578C180.878 283.578 180.388 283.792 179.992 284.219C179.596 284.641 179.352 285.234 179.258 286H183.492V285.891C183.451 285.156 183.253 284.589 182.898 284.188C182.544 283.781 182.065 283.578 181.461 283.578ZM190.703 283.844C190.484 283.807 190.247 283.789 189.992 283.789C189.044 283.789 188.401 284.193 188.062 285V291H186.617V282.547H188.023L188.047 283.523C188.521 282.768 189.193 282.391 190.062 282.391C190.344 282.391 190.557 282.427 190.703 282.5V283.844ZM197.367 282.547L197.406 283.484C198.026 282.755 198.862 282.391 199.914 282.391C201.096 282.391 201.901 282.844 202.328 283.75C202.609 283.344 202.974 283.016 203.422 282.766C203.875 282.516 204.409 282.391 205.023 282.391C206.878 282.391 207.82 283.372 207.852 285.336V291H206.406V285.422C206.406 284.818 206.268 284.367 205.992 284.07C205.716 283.768 205.253 283.617 204.602 283.617C204.065 283.617 203.62 283.779 203.266 284.102C202.911 284.419 202.706 284.849 202.648 285.391V291H201.195V285.461C201.195 284.232 200.594 283.617 199.391 283.617C198.443 283.617 197.794 284.021 197.445 284.828V291H196V282.547H197.367ZM209.656 286.695C209.656 285.867 209.818 285.122 210.141 284.461C210.469 283.799 210.922 283.289 211.5 282.93C212.083 282.57 212.747 282.391 213.492 282.391C214.643 282.391 215.573 282.789 216.281 283.586C216.995 284.383 217.352 285.443 217.352 286.766V286.867C217.352 287.69 217.193 288.43 216.875 289.086C216.562 289.737 216.112 290.245 215.523 290.609C214.94 290.974 214.268 291.156 213.508 291.156C212.362 291.156 211.432 290.758 210.719 289.961C210.01 289.164 209.656 288.109 209.656 286.797V286.695ZM211.109 286.867C211.109 287.805 211.326 288.557 211.758 289.125C212.195 289.693 212.779 289.977 213.508 289.977C214.242 289.977 214.826 289.69 215.258 289.117C215.69 288.539 215.906 287.732 215.906 286.695C215.906 285.768 215.685 285.018 215.242 284.445C214.805 283.867 214.221 283.578 213.492 283.578C212.779 283.578 212.203 283.862 211.766 284.43C211.328 284.997 211.109 285.81 211.109 286.867ZM220.531 282.547L220.578 283.609C221.224 282.797 222.068 282.391 223.109 282.391C224.896 282.391 225.797 283.398 225.812 285.414V291H224.367V285.406C224.362 284.797 224.221 284.346 223.945 284.055C223.674 283.763 223.25 283.617 222.672 283.617C222.203 283.617 221.792 283.742 221.438 283.992C221.083 284.242 220.807 284.57 220.609 284.977V291H219.164V282.547H220.531ZM229.953 280.5V282.547H231.531V283.664H229.953V288.906C229.953 289.245 230.023 289.5 230.164 289.672C230.305 289.839 230.544 289.922 230.883 289.922C231.049 289.922 231.279 289.891 231.57 289.828V291C231.19 291.104 230.82 291.156 230.461 291.156C229.815 291.156 229.328 290.961 229 290.57C228.672 290.18 228.508 289.625 228.508 288.906V283.664H226.969V282.547H228.508V280.5H229.953ZM234.672 283.57C235.312 282.784 236.146 282.391 237.172 282.391C238.958 282.391 239.859 283.398 239.875 285.414V291H238.43V285.406C238.424 284.797 238.284 284.346 238.008 284.055C237.737 283.763 237.312 283.617 236.734 283.617C236.266 283.617 235.854 283.742 235.5 283.992C235.146 284.242 234.87 284.57 234.672 284.977V291H233.227V279H234.672V283.57Z" fill="#8794BA"/>
<rect x="95" y="176" width="220" height="1" fill="#D3D9E9"/>
<defs>
<filter id="filter0_d_159_612" x="0" y="0" width="410" height="510" filterUnits="userSpaceOnUse" color-interpolation-filters="sRGB">
<feFlood flood-opacity="0" result="BackgroundImageFix"/>
<feColorMatrix in="SourceAlpha" type="matrix" values="0 0 0 0 0 0 0 0 0 0 0 0 0 0 0 0 0 0 127 0" result="hardAlpha"/>
<feMorphology radius="15" operator="erode" in="SourceAlpha" result="effect1_dropShadow_159_612"/>
<feOffset dy="18"/>
<feGaussianBlur stdDeviation="25"/>
<feColorMatrix type="matrix" values="0 0 0 0 0.0217708 0 0 0 0 0.0570128 0 0 0 0 0.158333 0 0 0 1 0"/>
<feBlend mode="normal" in2="BackgroundImageFix" result="effect1_dropShadow_159_612"/>
<feBlend mode="normal" in="SourceGraphic" in2="effect1_dropShadow_159_612" result="shape"/>
</filter>
</defs>
</svg>
