<svg width="410" height="510" viewBox="0 0 410 510" fill="none" xmlns="http://www.w3.org/2000/svg">
<g filter="url(#filter0_d_159_620)">
<g opacity="0.7" filter="url(#filter1_d_159_620)">
<path d="M35 47C35 30.4315 48.4315 17 65 17H345C361.569 17 375 30.4315 375 47V427C375 443.569 361.569 457 345 457H65C48.4315 457 35 443.569 35 427V47Z" fill="url(#paint0_linear_159_620)"/>
</g>
<rect x="98.5" y="337.5" width="212" height="49" rx="24.5" stroke="url(#paint1_linear_159_620)"/>
<path d="M187.727 361.836V366C187.586 366.208 187.362 366.443 187.055 366.703C186.747 366.958 186.323 367.182 185.781 367.375C185.245 367.562 184.552 367.656 183.703 367.656C183.01 367.656 182.372 367.536 181.789 367.297C181.211 367.052 180.708 366.698 180.281 366.234C179.859 365.766 179.531 365.198 179.297 364.531C179.068 363.859 178.953 363.099 178.953 362.25V361.367C178.953 360.518 179.052 359.76 179.25 359.094C179.453 358.427 179.75 357.862 180.141 357.398C180.531 356.93 181.01 356.576 181.578 356.336C182.146 356.091 182.797 355.969 183.531 355.969C184.401 355.969 185.128 356.12 185.711 356.422C186.299 356.719 186.758 357.13 187.086 357.656C187.419 358.182 187.633 358.781 187.727 359.453H186.219C186.151 359.042 186.016 358.667 185.812 358.328C185.615 357.99 185.331 357.719 184.961 357.516C184.591 357.307 184.115 357.203 183.531 357.203C183.005 357.203 182.549 357.299 182.164 357.492C181.779 357.685 181.461 357.961 181.211 358.32C180.961 358.68 180.773 359.115 180.648 359.625C180.529 360.135 180.469 360.711 180.469 361.352V362.25C180.469 362.906 180.544 363.492 180.695 364.008C180.852 364.523 181.073 364.964 181.359 365.328C181.646 365.688 181.987 365.961 182.383 366.148C182.784 366.336 183.227 366.43 183.711 366.43C184.247 366.43 184.682 366.385 185.016 366.297C185.349 366.203 185.609 366.094 185.797 365.969C185.984 365.839 186.128 365.716 186.227 365.602V363.055H183.594V361.836H187.727ZM189.625 363.367V363.188C189.625 362.578 189.714 362.013 189.891 361.492C190.068 360.966 190.323 360.51 190.656 360.125C190.99 359.734 191.393 359.432 191.867 359.219C192.341 359 192.872 358.891 193.461 358.891C194.055 358.891 194.589 359 195.062 359.219C195.542 359.432 195.948 359.734 196.281 360.125C196.62 360.51 196.878 360.966 197.055 361.492C197.232 362.013 197.32 362.578 197.32 363.188V363.367C197.32 363.977 197.232 364.542 197.055 365.062C196.878 365.583 196.62 366.039 196.281 366.43C195.948 366.815 195.544 367.117 195.07 367.336C194.602 367.549 194.07 367.656 193.477 367.656C192.883 367.656 192.349 367.549 191.875 367.336C191.401 367.117 190.995 366.815 190.656 366.43C190.323 366.039 190.068 365.583 189.891 365.062C189.714 364.542 189.625 363.977 189.625 363.367ZM191.07 363.188V363.367C191.07 363.789 191.12 364.188 191.219 364.562C191.318 364.932 191.466 365.26 191.664 365.547C191.867 365.833 192.12 366.06 192.422 366.227C192.724 366.388 193.076 366.469 193.477 366.469C193.872 366.469 194.219 366.388 194.516 366.227C194.818 366.06 195.068 365.833 195.266 365.547C195.464 365.26 195.612 364.932 195.711 364.562C195.815 364.188 195.867 363.789 195.867 363.367V363.188C195.867 362.771 195.815 362.378 195.711 362.008C195.612 361.633 195.461 361.302 195.258 361.016C195.06 360.724 194.81 360.495 194.508 360.328C194.211 360.161 193.862 360.078 193.461 360.078C193.065 360.078 192.716 360.161 192.414 360.328C192.117 360.495 191.867 360.724 191.664 361.016C191.466 361.302 191.318 361.633 191.219 362.008C191.12 362.378 191.07 362.771 191.07 363.188ZM207.516 363.039H204.477V361.812H207.516C208.104 361.812 208.581 361.719 208.945 361.531C209.31 361.344 209.576 361.083 209.742 360.75C209.914 360.417 210 360.036 210 359.609C210 359.219 209.914 358.852 209.742 358.508C209.576 358.164 209.31 357.888 208.945 357.68C208.581 357.466 208.104 357.359 207.516 357.359H204.828V367.5H203.32V356.125H207.516C208.375 356.125 209.102 356.273 209.695 356.57C210.289 356.867 210.74 357.279 211.047 357.805C211.354 358.326 211.508 358.922 211.508 359.594C211.508 360.323 211.354 360.945 211.047 361.461C210.74 361.977 210.289 362.37 209.695 362.641C209.102 362.906 208.375 363.039 207.516 363.039ZM214.641 360.375V367.5H213.195V359.047H214.602L214.641 360.375ZM217.281 359L217.273 360.344C217.154 360.318 217.039 360.302 216.93 360.297C216.826 360.286 216.706 360.281 216.57 360.281C216.237 360.281 215.943 360.333 215.688 360.438C215.432 360.542 215.216 360.688 215.039 360.875C214.862 361.062 214.721 361.286 214.617 361.547C214.518 361.802 214.453 362.083 214.422 362.391L214.016 362.625C214.016 362.115 214.065 361.635 214.164 361.188C214.268 360.74 214.427 360.344 214.641 360C214.854 359.651 215.125 359.38 215.453 359.188C215.786 358.99 216.182 358.891 216.641 358.891C216.745 358.891 216.865 358.904 217 358.93C217.135 358.951 217.229 358.974 217.281 359ZM218.078 363.367V363.188C218.078 362.578 218.167 362.013 218.344 361.492C218.521 360.966 218.776 360.51 219.109 360.125C219.443 359.734 219.846 359.432 220.32 359.219C220.794 359 221.326 358.891 221.914 358.891C222.508 358.891 223.042 359 223.516 359.219C223.995 359.432 224.401 359.734 224.734 360.125C225.073 360.51 225.331 360.966 225.508 361.492C225.685 362.013 225.773 362.578 225.773 363.188V363.367C225.773 363.977 225.685 364.542 225.508 365.062C225.331 365.583 225.073 366.039 224.734 366.43C224.401 366.815 223.997 367.117 223.523 367.336C223.055 367.549 222.523 367.656 221.93 367.656C221.336 367.656 220.802 367.549 220.328 367.336C219.854 367.117 219.448 366.815 219.109 366.43C218.776 366.039 218.521 365.583 218.344 365.062C218.167 364.542 218.078 363.977 218.078 363.367ZM219.523 363.188V363.367C219.523 363.789 219.573 364.188 219.672 364.562C219.771 364.932 219.919 365.26 220.117 365.547C220.32 365.833 220.573 366.06 220.875 366.227C221.177 366.388 221.529 366.469 221.93 366.469C222.326 366.469 222.672 366.388 222.969 366.227C223.271 366.06 223.521 365.833 223.719 365.547C223.917 365.26 224.065 364.932 224.164 364.562C224.268 364.188 224.32 363.789 224.32 363.367V363.188C224.32 362.771 224.268 362.378 224.164 362.008C224.065 361.633 223.914 361.302 223.711 361.016C223.513 360.724 223.263 360.495 222.961 360.328C222.664 360.161 222.315 360.078 221.914 360.078C221.518 360.078 221.169 360.161 220.867 360.328C220.57 360.495 220.32 360.724 220.117 361.016C219.919 361.302 219.771 361.633 219.672 362.008C219.573 362.378 219.523 362.771 219.523 363.188ZM229.305 356.125L229.203 364.289H227.898L227.789 356.125H229.305ZM227.742 366.773C227.742 366.539 227.812 366.341 227.953 366.18C228.099 366.018 228.312 365.938 228.594 365.938C228.87 365.938 229.081 366.018 229.227 366.18C229.378 366.341 229.453 366.539 229.453 366.773C229.453 366.997 229.378 367.19 229.227 367.352C229.081 367.513 228.87 367.594 228.594 367.594C228.312 367.594 228.099 367.513 227.953 367.352C227.812 367.19 227.742 366.997 227.742 366.773Z" fill="white"/>
<path d="M150.305 87.4854V95H145.91V73.6719H154.23C155.832 73.6719 157.238 73.9648 158.449 74.5508C159.67 75.1367 160.607 75.9717 161.262 77.0557C161.916 78.1299 162.243 79.3555 162.243 80.7324C162.243 82.8223 161.525 84.4727 160.09 85.6836C158.664 86.8848 156.687 87.4854 154.157 87.4854H150.305ZM150.305 83.9258H154.23C155.393 83.9258 156.276 83.6523 156.882 83.1055C157.497 82.5586 157.805 81.7773 157.805 80.7617C157.805 79.7168 157.497 78.8721 156.882 78.2275C156.267 77.583 155.417 77.251 154.333 77.2314H150.305V83.9258ZM173.903 83.1201C173.327 83.042 172.819 83.0029 172.38 83.0029C170.778 83.0029 169.729 83.5449 169.23 84.6289V95H164.997V79.1504H168.996L169.113 81.04C169.963 79.585 171.14 78.8574 172.644 78.8574C173.112 78.8574 173.552 78.9209 173.962 79.0479L173.903 83.1201ZM182.956 95.293C180.632 95.293 178.737 94.5801 177.272 93.1543C175.817 91.7285 175.09 89.8291 175.09 87.4561V87.0459C175.09 85.4541 175.397 84.0332 176.013 82.7832C176.628 81.5234 177.497 80.5566 178.62 79.8828C179.753 79.1992 181.042 78.8574 182.487 78.8574C184.655 78.8574 186.359 79.541 187.6 80.9082C188.85 82.2754 189.475 84.2139 189.475 86.7236V88.4521H179.382C179.519 89.4873 179.929 90.3174 180.612 90.9424C181.306 91.5674 182.18 91.8799 183.234 91.8799C184.865 91.8799 186.14 91.2891 187.058 90.1074L189.138 92.4365C188.503 93.335 187.644 94.0381 186.56 94.5459C185.476 95.0439 184.274 95.293 182.956 95.293ZM182.473 82.2852C181.633 82.2852 180.949 82.5684 180.422 83.1348C179.904 83.7012 179.572 84.5117 179.426 85.5664H185.314V85.2295C185.295 84.292 185.041 83.5693 184.553 83.0615C184.064 82.5439 183.371 82.2852 182.473 82.2852ZM195.861 79.1504L195.993 80.9229C197.116 79.5459 198.635 78.8574 200.549 78.8574C202.59 78.8574 203.991 79.6631 204.753 81.2744C205.866 79.6631 207.453 78.8574 209.514 78.8574C211.232 78.8574 212.512 79.3604 213.352 80.3662C214.191 81.3623 214.611 82.8662 214.611 84.8779V95H210.363V84.8926C210.363 83.9941 210.188 83.3398 209.836 82.9297C209.484 82.5098 208.864 82.2998 207.976 82.2998C206.706 82.2998 205.827 82.9053 205.339 84.1162L205.354 95H201.12V84.9072C201.12 83.9893 200.939 83.3252 200.578 82.915C200.217 82.5049 199.602 82.2998 198.732 82.2998C197.531 82.2998 196.662 82.7979 196.125 83.7939V95H191.892V79.1504H195.861ZM222.346 95H218.098V79.1504H222.346V95ZM217.849 75.0488C217.849 74.4141 218.059 73.8916 218.479 73.4814C218.908 73.0713 219.489 72.8662 220.222 72.8662C220.944 72.8662 221.521 73.0713 221.95 73.4814C222.38 73.8916 222.595 74.4141 222.595 75.0488C222.595 75.6934 222.375 76.2207 221.936 76.6309C221.506 77.041 220.935 77.2461 220.222 77.2461C219.509 77.2461 218.933 77.041 218.493 76.6309C218.063 76.2207 217.849 75.6934 217.849 75.0488ZM235.339 93.3887C234.294 94.6582 232.849 95.293 231.003 95.293C229.304 95.293 228.005 94.8047 227.106 93.8281C226.218 92.8516 225.764 91.4209 225.744 89.5361V79.1504H229.978V89.3896C229.978 91.04 230.729 91.8652 232.233 91.8652C233.669 91.8652 234.655 91.3672 235.192 90.3711V79.1504H239.44V95H235.456L235.339 93.3887ZM246.604 79.1504L246.735 80.9229C247.858 79.5459 249.377 78.8574 251.291 78.8574C253.332 78.8574 254.733 79.6631 255.495 81.2744C256.608 79.6631 258.195 78.8574 260.256 78.8574C261.975 78.8574 263.254 79.3604 264.094 80.3662C264.934 81.3623 265.354 82.8662 265.354 84.8779V95H261.105V84.8926C261.105 83.9941 260.93 83.3398 260.578 82.9297C260.227 82.5098 259.606 82.2998 258.718 82.2998C257.448 82.2998 256.569 82.9053 256.081 84.1162L256.096 95H251.862V84.9072C251.862 83.9893 251.682 83.3252 251.32 82.915C250.959 82.5049 250.344 82.2998 249.475 82.2998C248.273 82.2998 247.404 82.7979 246.867 83.7939V95H242.634V79.1504H246.604Z" fill="white"/>
<path d="M155.14 129.803V122.49H156.774V132H155.219L155.14 129.803ZM155.447 127.799L156.124 127.781C156.124 128.414 156.057 129 155.922 129.539C155.793 130.072 155.582 130.535 155.289 130.928C154.996 131.32 154.612 131.628 154.138 131.851C153.663 132.067 153.086 132.176 152.406 132.176C151.943 132.176 151.519 132.108 151.132 131.974C150.751 131.839 150.423 131.631 150.147 131.35C149.872 131.068 149.658 130.702 149.506 130.251C149.359 129.8 149.286 129.258 149.286 128.625V122.49H150.912V128.643C150.912 129.07 150.959 129.425 151.053 129.706C151.152 129.981 151.284 130.201 151.448 130.365C151.618 130.523 151.806 130.635 152.011 130.699C152.222 130.764 152.438 130.796 152.661 130.796C153.353 130.796 153.9 130.664 154.305 130.4C154.709 130.131 154.999 129.771 155.175 129.319C155.356 128.862 155.447 128.355 155.447 127.799ZM160.879 124.318V135.656H159.244V122.49H160.738L160.879 124.318ZM167.286 127.166V127.351C167.286 128.042 167.204 128.684 167.04 129.275C166.876 129.861 166.636 130.371 166.319 130.805C166.009 131.238 165.625 131.575 165.168 131.815C164.711 132.056 164.187 132.176 163.595 132.176C162.991 132.176 162.458 132.076 161.995 131.877C161.532 131.678 161.14 131.388 160.817 131.007C160.495 130.626 160.237 130.169 160.044 129.636C159.856 129.103 159.728 128.502 159.657 127.834V126.85C159.728 126.146 159.859 125.517 160.053 124.96C160.246 124.403 160.501 123.929 160.817 123.536C161.14 123.138 161.529 122.836 161.986 122.631C162.443 122.42 162.971 122.314 163.568 122.314C164.166 122.314 164.696 122.432 165.159 122.666C165.622 122.895 166.012 123.223 166.328 123.65C166.645 124.078 166.882 124.591 167.04 125.188C167.204 125.78 167.286 126.439 167.286 127.166ZM165.651 127.351V127.166C165.651 126.691 165.602 126.246 165.502 125.83C165.402 125.408 165.247 125.039 165.036 124.723C164.831 124.4 164.567 124.148 164.245 123.967C163.923 123.779 163.539 123.686 163.094 123.686C162.684 123.686 162.326 123.756 162.021 123.896C161.723 124.037 161.468 124.228 161.257 124.468C161.046 124.702 160.873 124.972 160.738 125.276C160.609 125.575 160.513 125.886 160.448 126.208V128.484C160.565 128.895 160.729 129.281 160.94 129.645C161.151 130.002 161.433 130.292 161.784 130.515C162.136 130.731 162.578 130.84 163.111 130.84C163.551 130.84 163.929 130.749 164.245 130.567C164.567 130.38 164.831 130.125 165.036 129.803C165.247 129.48 165.402 129.111 165.502 128.695C165.602 128.273 165.651 127.825 165.651 127.351ZM177.807 122.49V123.738H172.665V122.49H177.807ZM174.405 120.179H176.031V129.645C176.031 129.967 176.081 130.21 176.181 130.374C176.28 130.538 176.409 130.646 176.567 130.699C176.726 130.752 176.896 130.778 177.077 130.778C177.212 130.778 177.353 130.767 177.499 130.743C177.651 130.714 177.766 130.69 177.842 130.673L177.851 132C177.722 132.041 177.552 132.079 177.341 132.114C177.136 132.155 176.887 132.176 176.594 132.176C176.195 132.176 175.829 132.097 175.495 131.938C175.161 131.78 174.895 131.517 174.695 131.147C174.502 130.772 174.405 130.269 174.405 129.636V120.179ZM179.107 127.351V127.148C179.107 126.463 179.207 125.827 179.406 125.241C179.605 124.649 179.893 124.137 180.268 123.703C180.643 123.264 181.097 122.924 181.63 122.684C182.163 122.438 182.761 122.314 183.423 122.314C184.091 122.314 184.691 122.438 185.225 122.684C185.764 122.924 186.221 123.264 186.596 123.703C186.977 124.137 187.267 124.649 187.466 125.241C187.665 125.827 187.765 126.463 187.765 127.148V127.351C187.765 128.036 187.665 128.672 187.466 129.258C187.267 129.844 186.977 130.356 186.596 130.796C186.221 131.229 185.767 131.569 185.233 131.815C184.706 132.056 184.108 132.176 183.44 132.176C182.772 132.176 182.172 132.056 181.639 131.815C181.105 131.569 180.648 131.229 180.268 130.796C179.893 130.356 179.605 129.844 179.406 129.258C179.207 128.672 179.107 128.036 179.107 127.351ZM180.733 127.148V127.351C180.733 127.825 180.789 128.273 180.9 128.695C181.012 129.111 181.179 129.48 181.401 129.803C181.63 130.125 181.914 130.38 182.254 130.567C182.594 130.749 182.989 130.84 183.44 130.84C183.886 130.84 184.275 130.749 184.609 130.567C184.949 130.38 185.23 130.125 185.453 129.803C185.676 129.48 185.843 129.111 185.954 128.695C186.071 128.273 186.13 127.825 186.13 127.351V127.148C186.13 126.68 186.071 126.237 185.954 125.821C185.843 125.399 185.673 125.027 185.444 124.705C185.222 124.377 184.94 124.119 184.601 123.932C184.267 123.744 183.874 123.65 183.423 123.65C182.978 123.65 182.585 123.744 182.245 123.932C181.911 124.119 181.63 124.377 181.401 124.705C181.179 125.027 181.012 125.399 180.9 125.821C180.789 126.237 180.733 126.68 180.733 127.148ZM196.149 125.909L194.849 125.575L195.49 119.203H202.056V120.706H196.87L196.483 124.187C196.718 124.052 197.014 123.926 197.371 123.809C197.734 123.691 198.15 123.633 198.619 123.633C199.211 123.633 199.741 123.735 200.21 123.94C200.679 124.14 201.077 124.427 201.405 124.802C201.739 125.177 201.994 125.628 202.17 126.155C202.346 126.683 202.434 127.271 202.434 127.922C202.434 128.537 202.349 129.103 202.179 129.618C202.015 130.134 201.766 130.585 201.432 130.972C201.098 131.353 200.676 131.648 200.166 131.859C199.662 132.07 199.067 132.176 198.382 132.176C197.866 132.176 197.377 132.105 196.914 131.965C196.457 131.818 196.047 131.599 195.684 131.306C195.326 131.007 195.033 130.638 194.805 130.198C194.582 129.753 194.441 129.231 194.383 128.634H195.93C196 129.114 196.141 129.519 196.352 129.847C196.562 130.175 196.838 130.424 197.178 130.594C197.523 130.758 197.925 130.84 198.382 130.84C198.769 130.84 199.111 130.772 199.41 130.638C199.709 130.503 199.961 130.31 200.166 130.058C200.371 129.806 200.526 129.501 200.632 129.144C200.743 128.786 200.799 128.385 200.799 127.939C200.799 127.535 200.743 127.16 200.632 126.814C200.521 126.469 200.354 126.167 200.131 125.909C199.914 125.651 199.647 125.452 199.331 125.312C199.015 125.165 198.651 125.092 198.241 125.092C197.696 125.092 197.283 125.165 197.002 125.312C196.727 125.458 196.442 125.657 196.149 125.909ZM212.251 124.582V126.533C212.251 127.582 212.157 128.467 211.97 129.188C211.782 129.908 211.513 130.488 211.161 130.928C210.81 131.367 210.385 131.687 209.887 131.886C209.395 132.079 208.838 132.176 208.217 132.176C207.725 132.176 207.271 132.114 206.854 131.991C206.438 131.868 206.063 131.672 205.729 131.402C205.401 131.127 205.12 130.77 204.886 130.33C204.651 129.891 204.473 129.357 204.35 128.73C204.227 128.104 204.165 127.371 204.165 126.533V124.582C204.165 123.533 204.259 122.654 204.446 121.945C204.64 121.236 204.912 120.668 205.264 120.24C205.615 119.807 206.037 119.496 206.529 119.309C207.027 119.121 207.584 119.027 208.199 119.027C208.697 119.027 209.154 119.089 209.57 119.212C209.992 119.329 210.367 119.52 210.695 119.783C211.023 120.041 211.302 120.387 211.53 120.82C211.765 121.248 211.943 121.772 212.066 122.394C212.189 123.015 212.251 123.744 212.251 124.582ZM210.616 126.797V124.31C210.616 123.735 210.581 123.231 210.511 122.798C210.446 122.358 210.35 121.983 210.221 121.673C210.092 121.362 209.928 121.11 209.729 120.917C209.535 120.724 209.31 120.583 209.052 120.495C208.8 120.401 208.516 120.354 208.199 120.354C207.812 120.354 207.47 120.428 207.171 120.574C206.872 120.715 206.62 120.94 206.415 121.251C206.216 121.562 206.063 121.969 205.958 122.473C205.853 122.977 205.8 123.589 205.8 124.31V126.797C205.8 127.371 205.832 127.878 205.896 128.317C205.967 128.757 206.069 129.138 206.204 129.46C206.339 129.776 206.503 130.037 206.696 130.242C206.89 130.447 207.112 130.6 207.364 130.699C207.622 130.793 207.906 130.84 208.217 130.84C208.615 130.84 208.964 130.764 209.263 130.611C209.562 130.459 209.811 130.222 210.01 129.899C210.215 129.571 210.367 129.152 210.467 128.643C210.566 128.127 210.616 127.512 210.616 126.797ZM224.802 129.803V122.49H226.437V132H224.881L224.802 129.803ZM225.109 127.799L225.786 127.781C225.786 128.414 225.719 129 225.584 129.539C225.455 130.072 225.244 130.535 224.951 130.928C224.658 131.32 224.274 131.628 223.8 131.851C223.325 132.067 222.748 132.176 222.068 132.176C221.605 132.176 221.181 132.108 220.794 131.974C220.413 131.839 220.085 131.631 219.81 131.35C219.534 131.068 219.32 130.702 219.168 130.251C219.021 129.8 218.948 129.258 218.948 128.625V122.49H220.574V128.643C220.574 129.07 220.621 129.425 220.715 129.706C220.814 129.981 220.946 130.201 221.11 130.365C221.28 130.523 221.468 130.635 221.673 130.699C221.884 130.764 222.101 130.796 222.323 130.796C223.015 130.796 223.562 130.664 223.967 130.4C224.371 130.131 224.661 129.771 224.837 129.319C225.019 128.862 225.109 128.355 225.109 127.799ZM234.452 129.478C234.452 129.243 234.399 129.026 234.294 128.827C234.194 128.622 233.986 128.438 233.67 128.273C233.359 128.104 232.891 127.957 232.264 127.834C231.736 127.723 231.259 127.591 230.831 127.438C230.409 127.286 230.049 127.102 229.75 126.885C229.457 126.668 229.231 126.413 229.073 126.12C228.915 125.827 228.836 125.484 228.836 125.092C228.836 124.717 228.918 124.362 229.082 124.028C229.252 123.694 229.489 123.398 229.794 123.141C230.104 122.883 230.477 122.681 230.91 122.534C231.344 122.388 231.827 122.314 232.36 122.314C233.122 122.314 233.772 122.449 234.312 122.719C234.851 122.988 235.264 123.349 235.551 123.8C235.838 124.245 235.981 124.74 235.981 125.285H234.355C234.355 125.021 234.276 124.767 234.118 124.521C233.966 124.269 233.74 124.061 233.441 123.896C233.148 123.732 232.788 123.65 232.36 123.65C231.909 123.65 231.543 123.721 231.262 123.861C230.986 123.996 230.784 124.169 230.655 124.38C230.532 124.591 230.471 124.813 230.471 125.048C230.471 125.224 230.5 125.382 230.559 125.522C230.623 125.657 230.734 125.783 230.893 125.9C231.051 126.012 231.273 126.117 231.561 126.217C231.848 126.316 232.214 126.416 232.659 126.516C233.438 126.691 234.08 126.902 234.584 127.148C235.088 127.395 235.463 127.696 235.709 128.054C235.955 128.411 236.078 128.845 236.078 129.354C236.078 129.771 235.99 130.151 235.814 130.497C235.645 130.843 235.396 131.142 235.067 131.394C234.745 131.64 234.358 131.833 233.907 131.974C233.462 132.108 232.961 132.176 232.404 132.176C231.566 132.176 230.857 132.026 230.277 131.728C229.697 131.429 229.258 131.042 228.959 130.567C228.66 130.093 228.511 129.592 228.511 129.064H230.146C230.169 129.51 230.298 129.864 230.532 130.128C230.767 130.386 231.054 130.57 231.394 130.682C231.733 130.787 232.07 130.84 232.404 130.84C232.85 130.84 233.222 130.781 233.521 130.664C233.825 130.547 234.057 130.386 234.215 130.181C234.373 129.976 234.452 129.741 234.452 129.478ZM242.16 132.176C241.498 132.176 240.897 132.064 240.358 131.842C239.825 131.613 239.365 131.294 238.979 130.884C238.598 130.474 238.305 129.987 238.1 129.425C237.895 128.862 237.792 128.247 237.792 127.579V127.21C237.792 126.437 237.906 125.748 238.135 125.145C238.363 124.535 238.674 124.02 239.066 123.598C239.459 123.176 239.904 122.856 240.402 122.64C240.9 122.423 241.416 122.314 241.949 122.314C242.629 122.314 243.215 122.432 243.707 122.666C244.205 122.9 244.612 123.229 244.929 123.65C245.245 124.066 245.479 124.559 245.632 125.127C245.784 125.689 245.86 126.305 245.86 126.973V127.702H238.759V126.375H244.234V126.252C244.211 125.83 244.123 125.42 243.971 125.021C243.824 124.623 243.59 124.295 243.268 124.037C242.945 123.779 242.506 123.65 241.949 123.65C241.58 123.65 241.24 123.729 240.93 123.888C240.619 124.04 240.353 124.269 240.13 124.573C239.907 124.878 239.734 125.25 239.611 125.689C239.488 126.129 239.427 126.636 239.427 127.21V127.579C239.427 128.03 239.488 128.455 239.611 128.854C239.74 129.246 239.925 129.592 240.165 129.891C240.411 130.189 240.707 130.424 241.053 130.594C241.404 130.764 241.803 130.849 242.248 130.849C242.822 130.849 243.309 130.731 243.707 130.497C244.105 130.263 244.454 129.949 244.753 129.557L245.737 130.339C245.532 130.649 245.271 130.945 244.955 131.227C244.639 131.508 244.249 131.736 243.786 131.912C243.329 132.088 242.787 132.176 242.16 132.176ZM249.385 123.984V132H247.759V122.49H249.341L249.385 123.984ZM252.355 122.438L252.347 123.949C252.212 123.92 252.083 123.902 251.96 123.896C251.843 123.885 251.708 123.879 251.556 123.879C251.181 123.879 250.85 123.938 250.562 124.055C250.275 124.172 250.032 124.336 249.833 124.547C249.634 124.758 249.476 125.01 249.358 125.303C249.247 125.59 249.174 125.906 249.139 126.252L248.682 126.516C248.682 125.941 248.737 125.402 248.849 124.898C248.966 124.395 249.145 123.949 249.385 123.562C249.625 123.17 249.93 122.865 250.299 122.648C250.674 122.426 251.119 122.314 251.635 122.314C251.752 122.314 251.887 122.329 252.039 122.358C252.191 122.382 252.297 122.408 252.355 122.438ZM259.396 129.478C259.396 129.243 259.343 129.026 259.237 128.827C259.138 128.622 258.93 128.438 258.613 128.273C258.303 128.104 257.834 127.957 257.207 127.834C256.68 127.723 256.202 127.591 255.774 127.438C255.353 127.286 254.992 127.102 254.693 126.885C254.4 126.668 254.175 126.413 254.017 126.12C253.858 125.827 253.779 125.484 253.779 125.092C253.779 124.717 253.861 124.362 254.025 124.028C254.195 123.694 254.433 123.398 254.737 123.141C255.048 122.883 255.42 122.681 255.854 122.534C256.287 122.388 256.771 122.314 257.304 122.314C258.065 122.314 258.716 122.449 259.255 122.719C259.794 122.988 260.207 123.349 260.494 123.8C260.781 124.245 260.925 124.74 260.925 125.285H259.299C259.299 125.021 259.22 124.767 259.062 124.521C258.909 124.269 258.684 124.061 258.385 123.896C258.092 123.732 257.731 123.65 257.304 123.65C256.853 123.65 256.486 123.721 256.205 123.861C255.93 123.996 255.728 124.169 255.599 124.38C255.476 124.591 255.414 124.813 255.414 125.048C255.414 125.224 255.443 125.382 255.502 125.522C255.566 125.657 255.678 125.783 255.836 125.9C255.994 126.012 256.217 126.117 256.504 126.217C256.791 126.316 257.157 126.416 257.603 126.516C258.382 126.691 259.023 126.902 259.527 127.148C260.031 127.395 260.406 127.696 260.652 128.054C260.898 128.411 261.021 128.845 261.021 129.354C261.021 129.771 260.934 130.151 260.758 130.497C260.588 130.843 260.339 131.142 260.011 131.394C259.688 131.64 259.302 131.833 258.851 131.974C258.405 132.108 257.904 132.176 257.348 132.176C256.51 132.176 255.801 132.026 255.221 131.728C254.641 131.429 254.201 131.042 253.902 130.567C253.604 130.093 253.454 129.592 253.454 129.064H255.089C255.112 129.51 255.241 129.864 255.476 130.128C255.71 130.386 255.997 130.57 256.337 130.682C256.677 130.787 257.014 130.84 257.348 130.84C257.793 130.84 258.165 130.781 258.464 130.664C258.769 130.547 259 130.386 259.158 130.181C259.316 129.976 259.396 129.741 259.396 129.478Z" fill="#8794BA"/>
<path d="M154.476 236.288V240.609H152.19V236.288H154.476ZM154.197 260.209V264.149H151.912V260.209H154.197ZM155.809 255.404C155.809 254.848 155.706 254.374 155.501 253.983C155.306 253.593 154.983 253.246 154.534 252.943C154.095 252.641 153.499 252.348 152.747 252.064C151.478 251.576 150.359 251.059 149.393 250.512C148.436 249.955 147.688 249.267 147.151 248.446C146.614 247.616 146.346 246.566 146.346 245.297C146.346 244.086 146.634 243.036 147.21 242.147C147.786 241.259 148.582 240.575 149.598 240.097C150.623 239.608 151.814 239.364 153.172 239.364C154.207 239.364 155.145 239.521 155.984 239.833C156.824 240.136 157.547 240.585 158.152 241.181C158.758 241.767 159.222 242.484 159.544 243.334C159.866 244.184 160.027 245.155 160.027 246.249H155.823C155.823 245.663 155.76 245.146 155.633 244.696C155.506 244.247 155.32 243.871 155.076 243.568C154.842 243.266 154.559 243.041 154.227 242.895C153.895 242.738 153.528 242.66 153.128 242.66C152.532 242.66 152.044 242.777 151.663 243.012C151.282 243.246 151.004 243.563 150.828 243.964C150.662 244.354 150.579 244.804 150.579 245.312C150.579 245.81 150.667 246.244 150.843 246.615C151.028 246.986 151.346 247.328 151.795 247.641C152.244 247.943 152.859 248.256 153.641 248.578C154.91 249.066 156.023 249.594 156.98 250.16C157.938 250.727 158.685 251.42 159.222 252.24C159.759 253.061 160.027 254.105 160.027 255.375C160.027 256.635 159.734 257.709 159.148 258.598C158.562 259.477 157.742 260.15 156.688 260.619C155.633 261.078 154.412 261.308 153.025 261.308C152.127 261.308 151.233 261.19 150.345 260.956C149.456 260.712 148.65 260.321 147.928 259.784C147.205 259.247 146.629 258.534 146.199 257.646C145.77 256.747 145.555 255.644 145.555 254.335H149.773C149.773 255.048 149.866 255.644 150.052 256.122C150.237 256.591 150.481 256.967 150.784 257.25C151.097 257.523 151.448 257.719 151.839 257.836C152.229 257.953 152.625 258.012 153.025 258.012C153.65 258.012 154.163 257.899 154.563 257.675C154.974 257.45 155.281 257.143 155.486 256.752C155.701 256.352 155.809 255.902 155.809 255.404ZM184.93 218.256V261H176.492V227.982L166.355 231.205V224.555L184.021 218.256H184.93ZM227.557 249.311C227.557 251.986 226.932 254.242 225.682 256.078C224.432 257.895 222.713 259.271 220.525 260.209C218.357 261.127 215.896 261.586 213.143 261.586C210.389 261.586 207.918 261.127 205.73 260.209C203.543 259.271 201.814 257.895 200.545 256.078C199.275 254.242 198.641 251.986 198.641 249.311C198.641 247.514 199.002 245.893 199.725 244.447C200.447 242.982 201.453 241.732 202.742 240.697C204.051 239.643 205.584 238.842 207.342 238.295C209.1 237.729 211.014 237.445 213.084 237.445C215.857 237.445 218.338 237.934 220.525 238.91C222.713 239.887 224.432 241.264 225.682 243.041C226.932 244.818 227.557 246.908 227.557 249.311ZM219.061 248.754C219.061 247.445 218.807 246.322 218.299 245.385C217.811 244.428 217.117 243.695 216.219 243.188C215.32 242.68 214.275 242.426 213.084 242.426C211.893 242.426 210.848 242.68 209.949 243.188C209.051 243.695 208.348 244.428 207.84 245.385C207.352 246.322 207.107 247.445 207.107 248.754C207.107 250.043 207.352 251.156 207.84 252.094C208.348 253.031 209.051 253.754 209.949 254.262C210.867 254.75 211.932 254.994 213.143 254.994C214.354 254.994 215.398 254.75 216.277 254.262C217.176 253.754 217.859 253.031 218.328 252.094C218.816 251.156 219.061 250.043 219.061 248.754ZM226.648 229.652C226.648 231.82 226.072 233.744 224.92 235.424C223.768 237.084 222.166 238.383 220.115 239.32C218.084 240.258 215.76 240.727 213.143 240.727C210.506 240.727 208.162 240.258 206.111 239.32C204.061 238.383 202.459 237.084 201.307 235.424C200.154 233.744 199.578 231.82 199.578 229.652C199.578 227.074 200.154 224.906 201.307 223.148C202.479 221.371 204.08 220.023 206.111 219.105C208.162 218.188 210.486 217.729 213.084 217.729C215.721 217.729 218.055 218.188 220.086 219.105C222.137 220.023 223.738 221.371 224.891 223.148C226.062 224.906 226.648 227.074 226.648 229.652ZM218.211 230.033C218.211 228.881 218.006 227.885 217.596 227.045C217.186 226.186 216.6 225.521 215.838 225.053C215.096 224.584 214.178 224.35 213.084 224.35C212.029 224.35 211.121 224.574 210.359 225.023C209.617 225.473 209.041 226.127 208.631 226.986C208.24 227.826 208.045 228.842 208.045 230.033C208.045 231.186 208.24 232.201 208.631 233.08C209.041 233.939 209.627 234.613 210.389 235.102C211.15 235.59 212.068 235.834 213.143 235.834C214.217 235.834 215.125 235.59 215.867 235.102C216.629 234.613 217.205 233.939 217.596 233.08C218.006 232.201 218.211 231.186 218.211 230.033ZM239.246 254.584H239.803C242.146 254.584 244.158 254.301 245.838 253.734C247.537 253.148 248.934 252.309 250.027 251.215C251.121 250.121 251.932 248.783 252.459 247.201C252.986 245.6 253.25 243.783 253.25 241.752V233.666C253.25 232.123 253.094 230.766 252.781 229.594C252.488 228.422 252.059 227.455 251.492 226.693C250.945 225.912 250.301 225.326 249.559 224.936C248.836 224.545 248.035 224.35 247.156 224.35C246.219 224.35 245.389 224.584 244.666 225.053C243.943 225.502 243.328 226.117 242.82 226.898C242.332 227.68 241.951 228.578 241.678 229.594C241.424 230.59 241.297 231.635 241.297 232.729C241.297 233.822 241.424 234.867 241.678 235.863C241.932 236.84 242.312 237.709 242.82 238.471C243.328 239.213 243.963 239.809 244.725 240.258C245.486 240.688 246.385 240.902 247.42 240.902C248.416 240.902 249.305 240.717 250.086 240.346C250.887 239.955 251.561 239.447 252.107 238.822C252.674 238.197 253.104 237.504 253.396 236.742C253.709 235.98 253.865 235.209 253.865 234.428L256.648 235.951C256.648 237.318 256.355 238.666 255.77 239.994C255.184 241.322 254.363 242.533 253.309 243.627C252.273 244.701 251.072 245.561 249.705 246.205C248.338 246.85 246.873 247.172 245.311 247.172C243.318 247.172 241.551 246.811 240.008 246.088C238.465 245.346 237.156 244.33 236.082 243.041C235.027 241.732 234.227 240.209 233.68 238.471C233.133 236.732 232.859 234.848 232.859 232.816C232.859 230.746 233.191 228.803 233.855 226.986C234.539 225.17 235.506 223.568 236.756 222.182C238.025 220.795 239.539 219.711 241.297 218.93C243.074 218.129 245.047 217.729 247.215 217.729C249.383 217.729 251.355 218.148 253.133 218.988C254.91 219.828 256.434 221.02 257.703 222.562C258.973 224.086 259.949 225.912 260.633 228.041C261.336 230.17 261.688 232.533 261.688 235.131V238.061C261.688 240.834 261.385 243.412 260.779 245.795C260.193 248.178 259.305 250.336 258.113 252.27C256.941 254.184 255.477 255.824 253.719 257.191C251.98 258.559 249.959 259.604 247.654 260.326C245.35 261.049 242.771 261.41 239.92 261.41H239.246V254.584Z" fill="#EDB116"/>
<path d="M176.289 286.867C176.289 288.154 175.995 289.19 175.406 289.977C174.818 290.763 174.021 291.156 173.016 291.156C171.99 291.156 171.182 290.831 170.594 290.18V294.25H169.148V282.547H170.469L170.539 283.484C171.128 282.755 171.945 282.391 172.992 282.391C174.008 282.391 174.81 282.773 175.398 283.539C175.992 284.305 176.289 285.37 176.289 286.734V286.867ZM174.844 286.703C174.844 285.75 174.641 284.997 174.234 284.445C173.828 283.893 173.271 283.617 172.562 283.617C171.688 283.617 171.031 284.005 170.594 284.781V288.82C171.026 289.591 171.688 289.977 172.578 289.977C173.271 289.977 173.82 289.703 174.227 289.156C174.638 288.604 174.844 287.786 174.844 286.703ZM181.641 291.156C180.495 291.156 179.562 290.781 178.844 290.031C178.125 289.276 177.766 288.268 177.766 287.008V286.742C177.766 285.904 177.924 285.156 178.242 284.5C178.565 283.839 179.013 283.323 179.586 282.953C180.164 282.578 180.789 282.391 181.461 282.391C182.56 282.391 183.414 282.753 184.023 283.477C184.633 284.201 184.938 285.237 184.938 286.586V287.188H179.211C179.232 288.021 179.474 288.695 179.938 289.211C180.406 289.721 181 289.977 181.719 289.977C182.229 289.977 182.661 289.872 183.016 289.664C183.37 289.456 183.68 289.18 183.945 288.836L184.828 289.523C184.12 290.612 183.057 291.156 181.641 291.156ZM181.461 283.578C180.878 283.578 180.388 283.792 179.992 284.219C179.596 284.641 179.352 285.234 179.258 286H183.492V285.891C183.451 285.156 183.253 284.589 182.898 284.188C182.544 283.781 182.065 283.578 181.461 283.578ZM190.703 283.844C190.484 283.807 190.247 283.789 189.992 283.789C189.044 283.789 188.401 284.193 188.062 285V291H186.617V282.547H188.023L188.047 283.523C188.521 282.768 189.193 282.391 190.062 282.391C190.344 282.391 190.557 282.427 190.703 282.5V283.844ZM197.367 282.547L197.406 283.484C198.026 282.755 198.862 282.391 199.914 282.391C201.096 282.391 201.901 282.844 202.328 283.75C202.609 283.344 202.974 283.016 203.422 282.766C203.875 282.516 204.409 282.391 205.023 282.391C206.878 282.391 207.82 283.372 207.852 285.336V291H206.406V285.422C206.406 284.818 206.268 284.367 205.992 284.07C205.716 283.768 205.253 283.617 204.602 283.617C204.065 283.617 203.62 283.779 203.266 284.102C202.911 284.419 202.706 284.849 202.648 285.391V291H201.195V285.461C201.195 284.232 200.594 283.617 199.391 283.617C198.443 283.617 197.794 284.021 197.445 284.828V291H196V282.547H197.367ZM209.656 286.695C209.656 285.867 209.818 285.122 210.141 284.461C210.469 283.799 210.922 283.289 211.5 282.93C212.083 282.57 212.747 282.391 213.492 282.391C214.643 282.391 215.573 282.789 216.281 283.586C216.995 284.383 217.352 285.443 217.352 286.766V286.867C217.352 287.69 217.193 288.43 216.875 289.086C216.562 289.737 216.112 290.245 215.523 290.609C214.94 290.974 214.268 291.156 213.508 291.156C212.362 291.156 211.432 290.758 210.719 289.961C210.01 289.164 209.656 288.109 209.656 286.797V286.695ZM211.109 286.867C211.109 287.805 211.326 288.557 211.758 289.125C212.195 289.693 212.779 289.977 213.508 289.977C214.242 289.977 214.826 289.69 215.258 289.117C215.69 288.539 215.906 287.732 215.906 286.695C215.906 285.768 215.685 285.018 215.242 284.445C214.805 283.867 214.221 283.578 213.492 283.578C212.779 283.578 212.203 283.862 211.766 284.43C211.328 284.997 211.109 285.81 211.109 286.867ZM220.531 282.547L220.578 283.609C221.224 282.797 222.068 282.391 223.109 282.391C224.896 282.391 225.797 283.398 225.812 285.414V291H224.367V285.406C224.362 284.797 224.221 284.346 223.945 284.055C223.674 283.763 223.25 283.617 222.672 283.617C222.203 283.617 221.792 283.742 221.438 283.992C221.083 284.242 220.807 284.57 220.609 284.977V291H219.164V282.547H220.531ZM229.953 280.5V282.547H231.531V283.664H229.953V288.906C229.953 289.245 230.023 289.5 230.164 289.672C230.305 289.839 230.544 289.922 230.883 289.922C231.049 289.922 231.279 289.891 231.57 289.828V291C231.19 291.104 230.82 291.156 230.461 291.156C229.815 291.156 229.328 290.961 229 290.57C228.672 290.18 228.508 289.625 228.508 288.906V283.664H226.969V282.547H228.508V280.5H229.953ZM234.672 283.57C235.312 282.784 236.146 282.391 237.172 282.391C238.958 282.391 239.859 283.398 239.875 285.414V291H238.43V285.406C238.424 284.797 238.284 284.346 238.008 284.055C237.737 283.763 237.312 283.617 236.734 283.617C236.266 283.617 235.854 283.742 235.5 283.992C235.146 284.242 234.87 284.57 234.672 284.977V291H233.227V279H234.672V283.57Z" fill="#8794BA"/>
<rect x="95" y="176" width="220" height="1" fill="url(#paint2_linear_159_620)"/>
</g>
<defs>
<filter id="filter0_d_159_620" x="34.8" y="17" width="354.4" height="458.2" filterUnits="userSpaceOnUse" color-interpolation-filters="sRGB">
<feFlood flood-opacity="0" result="BackgroundImageFix"/>
<feColorMatrix in="SourceAlpha" type="matrix" values="0 0 0 0 0 0 0 0 0 0 0 0 0 0 0 0 0 0 127 0" result="hardAlpha"/>
<feOffset dx="7" dy="11"/>
<feGaussianBlur stdDeviation="3.6"/>
<feComposite in2="hardAlpha" operator="out"/>
<feColorMatrix type="matrix" values="0 0 0 0 0 0 0 0 0 0 0 0 0 0 0 0 0 0 0.25 0"/>
<feBlend mode="normal" in2="BackgroundImageFix" result="effect1_dropShadow_159_620"/>
<feBlend mode="normal" in="SourceGraphic" in2="effect1_dropShadow_159_620" result="shape"/>
</filter>
<filter id="filter1_d_159_620" x="0" y="0" width="410" height="510" filterUnits="userSpaceOnUse" color-interpolation-filters="sRGB">
<feFlood flood-opacity="0" result="BackgroundImageFix"/>
<feColorMatrix in="SourceAlpha" type="matrix" values="0 0 0 0 0 0 0 0 0 0 0 0 0 0 0 0 0 0 127 0" result="hardAlpha"/>
<feMorphology radius="15" operator="erode" in="SourceAlpha" result="effect1_dropShadow_159_620"/>
<feOffset dy="18"/>
<feGaussianBlur stdDeviation="25"/>
<feColorMatrix type="matrix" values="0 0 0 0 0.0996452 0 0 0 0 0.164326 0 0 0 0 0.350284 0 0 0 0.2 0"/>
<feBlend mode="normal" in2="BackgroundImageFix" result="effect1_dropShadow_159_620"/>
<feBlend mode="normal" in="SourceGraphic" in2="effect1_dropShadow_159_620" result="shape"/>
</filter>
<linearGradient id="paint0_linear_159_620" x1="-105.5" y1="170.5" x2="540.5" y2="615.5" gradientUnits="userSpaceOnUse">
<stop offset="0.12397" stop-color="#5D3A11"/>
<stop offset="0.588126" stop-color="#46115E"/>
<stop offset="0.723594" stop-color="#51146D"/>
<stop offset="1" stop-color="#9124C3"/>
</linearGradient>
<linearGradient id="paint1_linear_159_620" x1="204.5" y1="337" x2="204.5" y2="387" gradientUnits="userSpaceOnUse">
<stop stop-color="#45115D"/>
<stop offset="1" stop-color="#9124C3"/>
</linearGradient>
<linearGradient id="paint2_linear_159_620" x1="205" y1="176" x2="205" y2="177" gradientUnits="userSpaceOnUse">
<stop stop-color="#2A407C"/>
<stop offset="1" stop-color="#4C74E2"/>
</linearGradient>
</defs>
</svg>
