<svg width="410" height="510" viewBox="0 0 410 510" fill="none" xmlns="http://www.w3.org/2000/svg">
<g filter="url(#filter0_d_159_604)">
<g opacity="0.7" filter="url(#filter1_d_159_604)">
<rect x="35" y="17" width="340" height="440" rx="30" fill="url(#paint0_linear_159_604)"/>
</g>
<rect x="108.5" y="337.5" width="190" height="49" rx="24.5" stroke="url(#paint1_linear_159_604)"/>
<path d="M189.312 367.5V356.125H196.273V357.336H190.789V361.242H195.516V362.461H190.789V367.5H189.312ZM197.68 367.5V359.328H198.969L199.023 360.383H199.07C199.279 360.039 199.552 359.74 199.891 359.484C200.229 359.229 200.633 359.102 201.102 359.102C201.216 359.102 201.336 359.115 201.461 359.141C201.586 359.161 201.674 359.182 201.727 359.203V360.523C201.622 360.503 201.513 360.487 201.398 360.477C201.284 360.466 201.159 360.461 201.023 360.461C200.56 360.461 200.161 360.583 199.828 360.828C199.5 361.073 199.258 361.38 199.102 361.75V367.5H197.68ZM202.453 363.539V363.289C202.453 362.055 202.789 361.049 203.461 360.273C204.138 359.492 205.031 359.102 206.141 359.102C207.25 359.102 208.104 359.466 208.703 360.195C209.302 360.919 209.602 361.904 209.602 363.148V363.734H203.32V362.594H208.164V362.414C208.164 361.82 207.995 361.315 207.656 360.898C207.323 360.477 206.836 360.266 206.195 360.266C205.43 360.266 204.857 360.557 204.477 361.141C204.096 361.724 203.906 362.44 203.906 363.289V363.539C203.906 364.388 204.107 365.104 204.508 365.688C204.909 366.271 205.529 366.562 206.367 366.562C206.888 366.562 207.333 366.451 207.703 366.227C208.078 365.997 208.383 365.727 208.617 365.414L209.539 366.141C209.279 366.531 208.878 366.896 208.336 367.234C207.799 367.568 207.143 367.734 206.367 367.734C205.102 367.734 204.133 367.344 203.461 366.562C202.789 365.781 202.453 364.773 202.453 363.539ZM210.875 363.539V363.289C210.875 362.055 211.211 361.049 211.883 360.273C212.56 359.492 213.453 359.102 214.562 359.102C215.672 359.102 216.526 359.466 217.125 360.195C217.724 360.919 218.023 361.904 218.023 363.148V363.734H211.742V362.594H216.586V362.414C216.586 361.82 216.417 361.315 216.078 360.898C215.745 360.477 215.258 360.266 214.617 360.266C213.852 360.266 213.279 360.557 212.898 361.141C212.518 361.724 212.328 362.44 212.328 363.289V363.539C212.328 364.388 212.529 365.104 212.93 365.688C213.331 366.271 213.951 366.562 214.789 366.562C215.31 366.562 215.755 366.451 216.125 366.227C216.5 365.997 216.805 365.727 217.039 365.414L217.961 366.141C217.701 366.531 217.299 366.896 216.758 367.234C216.221 367.568 215.565 367.734 214.789 367.734C213.523 367.734 212.555 367.344 211.883 366.562C211.211 365.781 210.875 364.773 210.875 363.539Z" fill="white"/>
<path d="M170.118 89.4043C170.118 88.5742 169.825 87.9395 169.239 87.5C168.653 87.0508 167.599 86.582 166.075 86.0938C164.552 85.5957 163.346 85.1074 162.457 84.6289C160.035 83.3203 158.824 81.5576 158.824 79.3408C158.824 78.1885 159.146 77.1631 159.791 76.2646C160.445 75.3564 161.378 74.6484 162.589 74.1406C163.81 73.6328 165.177 73.3789 166.69 73.3789C168.214 73.3789 169.571 73.6572 170.763 74.2139C171.954 74.7607 172.877 75.5371 173.531 76.543C174.195 77.5488 174.527 78.6914 174.527 79.9707H170.133C170.133 78.9941 169.825 78.2373 169.21 77.7002C168.595 77.1533 167.73 76.8799 166.617 76.8799C165.543 76.8799 164.708 77.1094 164.112 77.5684C163.517 78.0176 163.219 78.6133 163.219 79.3555C163.219 80.0488 163.565 80.6299 164.259 81.0986C164.962 81.5674 165.992 82.0068 167.35 82.417C169.85 83.1689 171.671 84.1016 172.813 85.2148C173.956 86.3281 174.527 87.7148 174.527 89.375C174.527 91.2207 173.829 92.6709 172.433 93.7256C171.036 94.7705 169.156 95.293 166.793 95.293C165.152 95.293 163.658 94.9951 162.311 94.3994C160.963 93.7939 159.933 92.9688 159.22 91.9238C158.517 90.8789 158.165 89.668 158.165 88.291H162.574C162.574 90.6445 163.98 91.8213 166.793 91.8213C167.838 91.8213 168.653 91.6113 169.239 91.1914C169.825 90.7617 170.118 90.166 170.118 89.4043ZM182.306 75.2539V79.1504H185.016V82.2559H182.306V90.166C182.306 90.752 182.418 91.1719 182.643 91.4258C182.867 91.6797 183.297 91.8066 183.932 91.8066C184.4 91.8066 184.815 91.7725 185.177 91.7041V94.9121C184.347 95.166 183.492 95.293 182.613 95.293C179.645 95.293 178.131 93.7939 178.072 90.7959V82.2559H175.758V79.1504H178.072V75.2539H182.306ZM196.559 95C196.363 94.6191 196.222 94.1455 196.134 93.5791C195.108 94.7217 193.775 95.293 192.135 95.293C190.582 95.293 189.293 94.8438 188.268 93.9453C187.252 93.0469 186.744 91.9141 186.744 90.5469C186.744 88.8672 187.364 87.5781 188.604 86.6797C189.854 85.7812 191.656 85.3271 194.01 85.3174H195.958V84.4092C195.958 83.6768 195.768 83.0908 195.387 82.6514C195.016 82.2119 194.425 81.9922 193.614 81.9922C192.901 81.9922 192.34 82.1631 191.93 82.5049C191.529 82.8467 191.329 83.3154 191.329 83.9111H187.096C187.096 82.9932 187.379 82.1436 187.945 81.3623C188.512 80.5811 189.312 79.9707 190.348 79.5312C191.383 79.082 192.545 78.8574 193.834 78.8574C195.787 78.8574 197.335 79.3506 198.478 80.3369C199.63 81.3135 200.206 82.6904 200.206 84.4678V91.3379C200.216 92.8418 200.426 93.9795 200.836 94.751V95H196.559ZM193.058 92.0557C193.683 92.0557 194.259 91.9189 194.786 91.6455C195.313 91.3623 195.704 90.9863 195.958 90.5176V87.793H194.376C192.257 87.793 191.129 88.5254 190.992 89.9902L190.978 90.2393C190.978 90.7666 191.163 91.2012 191.534 91.543C191.905 91.8848 192.413 92.0557 193.058 92.0557ZM212.364 83.1201C211.788 83.042 211.28 83.0029 210.841 83.0029C209.239 83.0029 208.189 83.5449 207.691 84.6289V95H203.458V79.1504H207.457L207.574 81.04C208.424 79.585 209.601 78.8574 211.104 78.8574C211.573 78.8574 212.013 78.9209 212.423 79.0479L212.364 83.1201ZM220.216 75.2539V79.1504H222.926V82.2559H220.216V90.166C220.216 90.752 220.328 91.1719 220.553 91.4258C220.777 91.6797 221.207 91.8066 221.842 91.8066C222.311 91.8066 222.726 91.7725 223.087 91.7041V94.9121C222.257 95.166 221.402 95.293 220.523 95.293C217.555 95.293 216.041 93.7939 215.982 90.7959V82.2559H213.668V79.1504H215.982V75.2539H220.216ZM232.579 95.293C230.255 95.293 228.36 94.5801 226.896 93.1543C225.44 91.7285 224.713 89.8291 224.713 87.4561V87.0459C224.713 85.4541 225.021 84.0332 225.636 82.7832C226.251 81.5234 227.12 80.5566 228.243 79.8828C229.376 79.1992 230.665 78.8574 232.11 78.8574C234.278 78.8574 235.982 79.541 237.223 80.9082C238.473 82.2754 239.098 84.2139 239.098 86.7236V88.4521H229.005C229.142 89.4873 229.552 90.3174 230.235 90.9424C230.929 91.5674 231.803 91.8799 232.857 91.8799C234.488 91.8799 235.763 91.2891 236.681 90.1074L238.761 92.4365C238.126 93.335 237.267 94.0381 236.183 94.5459C235.099 95.0439 233.897 95.293 232.579 95.293ZM232.096 82.2852C231.256 82.2852 230.572 82.5684 230.045 83.1348C229.527 83.7012 229.195 84.5117 229.049 85.5664H234.938V85.2295C234.918 84.292 234.664 83.5693 234.176 83.0615C233.688 82.5439 232.994 82.2852 232.096 82.2852ZM250.421 83.1201C249.845 83.042 249.337 83.0029 248.897 83.0029C247.296 83.0029 246.246 83.5449 245.748 84.6289V95H241.515V79.1504H245.514L245.631 81.04C246.48 79.585 247.657 78.8574 249.161 78.8574C249.63 78.8574 250.069 78.9209 250.479 79.0479L250.421 83.1201Z" fill="white"/>
<path d="M159.202 129.803V122.49H160.837V132H159.281L159.202 129.803ZM159.51 127.799L160.187 127.781C160.187 128.414 160.119 129 159.984 129.539C159.855 130.072 159.645 130.535 159.352 130.928C159.059 131.32 158.675 131.628 158.2 131.851C157.726 132.067 157.148 132.176 156.469 132.176C156.006 132.176 155.581 132.108 155.194 131.974C154.813 131.839 154.485 131.631 154.21 131.35C153.935 131.068 153.721 130.702 153.568 130.251C153.422 129.8 153.349 129.258 153.349 128.625V122.49H154.975V128.643C154.975 129.07 155.021 129.425 155.115 129.706C155.215 129.981 155.347 130.201 155.511 130.365C155.681 130.523 155.868 130.635 156.073 130.699C156.284 130.764 156.501 130.796 156.724 130.796C157.415 130.796 157.963 130.664 158.367 130.4C158.771 130.131 159.062 129.771 159.237 129.319C159.419 128.862 159.51 128.355 159.51 127.799ZM164.941 124.318V135.656H163.307V122.49H164.801L164.941 124.318ZM171.349 127.166V127.351C171.349 128.042 171.267 128.684 171.103 129.275C170.938 129.861 170.698 130.371 170.382 130.805C170.071 131.238 169.688 131.575 169.23 131.815C168.773 132.056 168.249 132.176 167.657 132.176C167.054 132.176 166.521 132.076 166.058 131.877C165.595 131.678 165.202 131.388 164.88 131.007C164.558 130.626 164.3 130.169 164.106 129.636C163.919 129.103 163.79 128.502 163.72 127.834V126.85C163.79 126.146 163.922 125.517 164.115 124.96C164.309 124.403 164.563 123.929 164.88 123.536C165.202 123.138 165.592 122.836 166.049 122.631C166.506 122.42 167.033 122.314 167.631 122.314C168.229 122.314 168.759 122.432 169.222 122.666C169.685 122.895 170.074 123.223 170.391 123.65C170.707 124.078 170.944 124.591 171.103 125.188C171.267 125.78 171.349 126.439 171.349 127.166ZM169.714 127.351V127.166C169.714 126.691 169.664 126.246 169.564 125.83C169.465 125.408 169.31 125.039 169.099 124.723C168.894 124.4 168.63 124.148 168.308 123.967C167.985 123.779 167.602 123.686 167.156 123.686C166.746 123.686 166.389 123.756 166.084 123.896C165.785 124.037 165.53 124.228 165.319 124.468C165.108 124.702 164.936 124.972 164.801 125.276C164.672 125.575 164.575 125.886 164.511 126.208V128.484C164.628 128.895 164.792 129.281 165.003 129.645C165.214 130.002 165.495 130.292 165.847 130.515C166.198 130.731 166.641 130.84 167.174 130.84C167.613 130.84 167.991 130.749 168.308 130.567C168.63 130.38 168.894 130.125 169.099 129.803C169.31 129.48 169.465 129.111 169.564 128.695C169.664 128.273 169.714 127.825 169.714 127.351ZM181.869 122.49V123.738H176.728V122.49H181.869ZM178.468 120.179H180.094V129.645C180.094 129.967 180.144 130.21 180.243 130.374C180.343 130.538 180.472 130.646 180.63 130.699C180.788 130.752 180.958 130.778 181.14 130.778C181.274 130.778 181.415 130.767 181.562 130.743C181.714 130.714 181.828 130.69 181.904 130.673L181.913 132C181.784 132.041 181.614 132.079 181.403 132.114C181.198 132.155 180.949 132.176 180.656 132.176C180.258 132.176 179.892 132.097 179.558 131.938C179.224 131.78 178.957 131.517 178.758 131.147C178.564 130.772 178.468 130.269 178.468 129.636V120.179ZM183.17 127.351V127.148C183.17 126.463 183.27 125.827 183.469 125.241C183.668 124.649 183.955 124.137 184.33 123.703C184.705 123.264 185.159 122.924 185.692 122.684C186.226 122.438 186.823 122.314 187.485 122.314C188.153 122.314 188.754 122.438 189.287 122.684C189.826 122.924 190.283 123.264 190.658 123.703C191.039 124.137 191.329 124.649 191.528 125.241C191.728 125.827 191.827 126.463 191.827 127.148V127.351C191.827 128.036 191.728 128.672 191.528 129.258C191.329 129.844 191.039 130.356 190.658 130.796C190.283 131.229 189.829 131.569 189.296 131.815C188.769 132.056 188.171 132.176 187.503 132.176C186.835 132.176 186.234 132.056 185.701 131.815C185.168 131.569 184.711 131.229 184.33 130.796C183.955 130.356 183.668 129.844 183.469 129.258C183.27 128.672 183.17 128.036 183.17 127.351ZM184.796 127.148V127.351C184.796 127.825 184.852 128.273 184.963 128.695C185.074 129.111 185.241 129.48 185.464 129.803C185.692 130.125 185.977 130.38 186.316 130.567C186.656 130.749 187.052 130.84 187.503 130.84C187.948 130.84 188.338 130.749 188.672 130.567C189.012 130.38 189.293 130.125 189.516 129.803C189.738 129.48 189.905 129.111 190.017 128.695C190.134 128.273 190.192 127.825 190.192 127.351V127.148C190.192 126.68 190.134 126.237 190.017 125.821C189.905 125.399 189.735 125.027 189.507 124.705C189.284 124.377 189.003 124.119 188.663 123.932C188.329 123.744 187.937 123.65 187.485 123.65C187.04 123.65 186.647 123.744 186.308 123.932C185.974 124.119 185.692 124.377 185.464 124.705C185.241 125.027 185.074 125.399 184.963 125.821C184.852 126.237 184.796 126.68 184.796 127.148ZM200.212 125.909L198.911 125.575L199.553 119.203H206.118V120.706H200.933L200.546 124.187C200.78 124.052 201.076 123.926 201.434 123.809C201.797 123.691 202.213 123.633 202.682 123.633C203.273 123.633 203.804 123.735 204.272 123.94C204.741 124.14 205.14 124.427 205.468 124.802C205.802 125.177 206.057 125.628 206.232 126.155C206.408 126.683 206.496 127.271 206.496 127.922C206.496 128.537 206.411 129.103 206.241 129.618C206.077 130.134 205.828 130.585 205.494 130.972C205.16 131.353 204.738 131.648 204.229 131.859C203.725 132.07 203.13 132.176 202.444 132.176C201.929 132.176 201.439 132.105 200.977 131.965C200.52 131.818 200.109 131.599 199.746 131.306C199.389 131.007 199.096 130.638 198.867 130.198C198.645 129.753 198.504 129.231 198.445 128.634H199.992C200.062 129.114 200.203 129.519 200.414 129.847C200.625 130.175 200.9 130.424 201.24 130.594C201.586 130.758 201.987 130.84 202.444 130.84C202.831 130.84 203.174 130.772 203.473 130.638C203.771 130.503 204.023 130.31 204.229 130.058C204.434 129.806 204.589 129.501 204.694 129.144C204.806 128.786 204.861 128.385 204.861 127.939C204.861 127.535 204.806 127.16 204.694 126.814C204.583 126.469 204.416 126.167 204.193 125.909C203.977 125.651 203.71 125.452 203.394 125.312C203.077 125.165 202.714 125.092 202.304 125.092C201.759 125.092 201.346 125.165 201.064 125.312C200.789 125.458 200.505 125.657 200.212 125.909ZM218.739 129.803V122.49H220.374V132H218.818L218.739 129.803ZM219.047 127.799L219.724 127.781C219.724 128.414 219.656 129 219.521 129.539C219.393 130.072 219.182 130.535 218.889 130.928C218.596 131.32 218.212 131.628 217.737 131.851C217.263 132.067 216.686 132.176 216.006 132.176C215.543 132.176 215.118 132.108 214.731 131.974C214.351 131.839 214.022 131.631 213.747 131.35C213.472 131.068 213.258 130.702 213.105 130.251C212.959 129.8 212.886 129.258 212.886 128.625V122.49H214.512V128.643C214.512 129.07 214.559 129.425 214.652 129.706C214.752 129.981 214.884 130.201 215.048 130.365C215.218 130.523 215.405 130.635 215.61 130.699C215.821 130.764 216.038 130.796 216.261 130.796C216.952 130.796 217.5 130.664 217.904 130.4C218.309 130.131 218.599 129.771 218.774 129.319C218.956 128.862 219.047 128.355 219.047 127.799ZM228.39 129.478C228.39 129.243 228.337 129.026 228.231 128.827C228.132 128.622 227.924 128.438 227.607 128.273C227.297 128.104 226.828 127.957 226.201 127.834C225.674 127.723 225.196 127.591 224.769 127.438C224.347 127.286 223.986 127.102 223.688 126.885C223.395 126.668 223.169 126.413 223.011 126.12C222.853 125.827 222.773 125.484 222.773 125.092C222.773 124.717 222.855 124.362 223.02 124.028C223.189 123.694 223.427 123.398 223.731 123.141C224.042 122.883 224.414 122.681 224.848 122.534C225.281 122.388 225.765 122.314 226.298 122.314C227.06 122.314 227.71 122.449 228.249 122.719C228.788 122.988 229.201 123.349 229.488 123.8C229.775 124.245 229.919 124.74 229.919 125.285H228.293C228.293 125.021 228.214 124.767 228.056 124.521C227.903 124.269 227.678 124.061 227.379 123.896C227.086 123.732 226.726 123.65 226.298 123.65C225.847 123.65 225.48 123.721 225.199 123.861C224.924 123.996 224.722 124.169 224.593 124.38C224.47 124.591 224.408 124.813 224.408 125.048C224.408 125.224 224.438 125.382 224.496 125.522C224.561 125.657 224.672 125.783 224.83 125.9C224.988 126.012 225.211 126.117 225.498 126.217C225.785 126.316 226.151 126.416 226.597 126.516C227.376 126.691 228.018 126.902 228.521 127.148C229.025 127.395 229.4 127.696 229.646 128.054C229.893 128.411 230.016 128.845 230.016 129.354C230.016 129.771 229.928 130.151 229.752 130.497C229.582 130.843 229.333 131.142 229.005 131.394C228.683 131.64 228.296 131.833 227.845 131.974C227.399 132.108 226.898 132.176 226.342 132.176C225.504 132.176 224.795 132.026 224.215 131.728C223.635 131.429 223.195 131.042 222.896 130.567C222.598 130.093 222.448 129.592 222.448 129.064H224.083C224.106 129.51 224.235 129.864 224.47 130.128C224.704 130.386 224.991 130.57 225.331 130.682C225.671 130.787 226.008 130.84 226.342 130.84C226.787 130.84 227.159 130.781 227.458 130.664C227.763 130.547 227.994 130.386 228.152 130.181C228.311 129.976 228.39 129.741 228.39 129.478ZM236.098 132.176C235.436 132.176 234.835 132.064 234.296 131.842C233.763 131.613 233.303 131.294 232.916 130.884C232.535 130.474 232.242 129.987 232.037 129.425C231.832 128.862 231.729 128.247 231.729 127.579V127.21C231.729 126.437 231.844 125.748 232.072 125.145C232.301 124.535 232.611 124.02 233.004 123.598C233.396 123.176 233.842 122.856 234.34 122.64C234.838 122.423 235.354 122.314 235.887 122.314C236.566 122.314 237.152 122.432 237.645 122.666C238.143 122.9 238.55 123.229 238.866 123.65C239.183 124.066 239.417 124.559 239.569 125.127C239.722 125.689 239.798 126.305 239.798 126.973V127.702H232.696V126.375H238.172V126.252C238.148 125.83 238.061 125.42 237.908 125.021C237.762 124.623 237.527 124.295 237.205 124.037C236.883 123.779 236.443 123.65 235.887 123.65C235.518 123.65 235.178 123.729 234.867 123.888C234.557 124.04 234.29 124.269 234.067 124.573C233.845 124.878 233.672 125.25 233.549 125.689C233.426 126.129 233.364 126.636 233.364 127.21V127.579C233.364 128.03 233.426 128.455 233.549 128.854C233.678 129.246 233.862 129.592 234.103 129.891C234.349 130.189 234.645 130.424 234.99 130.594C235.342 130.764 235.74 130.849 236.186 130.849C236.76 130.849 237.246 130.731 237.645 130.497C238.043 130.263 238.392 129.949 238.69 129.557L239.675 130.339C239.47 130.649 239.209 130.945 238.893 131.227C238.576 131.508 238.187 131.736 237.724 131.912C237.267 132.088 236.725 132.176 236.098 132.176ZM243.322 123.984V132H241.696V122.49H243.278L243.322 123.984ZM246.293 122.438L246.284 123.949C246.149 123.92 246.021 123.902 245.897 123.896C245.78 123.885 245.646 123.879 245.493 123.879C245.118 123.879 244.787 123.938 244.5 124.055C244.213 124.172 243.97 124.336 243.771 124.547C243.571 124.758 243.413 125.01 243.296 125.303C243.185 125.59 243.111 125.906 243.076 126.252L242.619 126.516C242.619 125.941 242.675 125.402 242.786 124.898C242.903 124.395 243.082 123.949 243.322 123.562C243.562 123.17 243.867 122.865 244.236 122.648C244.611 122.426 245.057 122.314 245.572 122.314C245.689 122.314 245.824 122.329 245.977 122.358C246.129 122.382 246.234 122.408 246.293 122.438ZM253.333 129.478C253.333 129.243 253.28 129.026 253.175 128.827C253.075 128.622 252.867 128.438 252.551 128.273C252.24 128.104 251.771 127.957 251.145 127.834C250.617 127.723 250.14 127.591 249.712 127.438C249.29 127.286 248.93 127.102 248.631 126.885C248.338 126.668 248.112 126.413 247.954 126.12C247.796 125.827 247.717 125.484 247.717 125.092C247.717 124.717 247.799 124.362 247.963 124.028C248.133 123.694 248.37 123.398 248.675 123.141C248.985 122.883 249.357 122.681 249.791 122.534C250.225 122.388 250.708 122.314 251.241 122.314C252.003 122.314 252.653 122.449 253.192 122.719C253.731 122.988 254.145 123.349 254.432 123.8C254.719 124.245 254.862 124.74 254.862 125.285H253.236C253.236 125.021 253.157 124.767 252.999 124.521C252.847 124.269 252.621 124.061 252.322 123.896C252.029 123.732 251.669 123.65 251.241 123.65C250.79 123.65 250.424 123.721 250.143 123.861C249.867 123.996 249.665 124.169 249.536 124.38C249.413 124.591 249.352 124.813 249.352 125.048C249.352 125.224 249.381 125.382 249.439 125.522C249.504 125.657 249.615 125.783 249.773 125.9C249.932 126.012 250.154 126.117 250.441 126.217C250.729 126.316 251.095 126.416 251.54 126.516C252.319 126.691 252.961 126.902 253.465 127.148C253.969 127.395 254.344 127.696 254.59 128.054C254.836 128.411 254.959 128.845 254.959 129.354C254.959 129.771 254.871 130.151 254.695 130.497C254.525 130.843 254.276 131.142 253.948 131.394C253.626 131.64 253.239 131.833 252.788 131.974C252.343 132.108 251.842 132.176 251.285 132.176C250.447 132.176 249.738 132.026 249.158 131.728C248.578 131.429 248.139 131.042 247.84 130.567C247.541 130.093 247.392 129.592 247.392 129.064H249.026C249.05 129.51 249.179 129.864 249.413 130.128C249.647 130.386 249.935 130.57 250.274 130.682C250.614 130.787 250.951 130.84 251.285 130.84C251.73 130.84 252.103 130.781 252.401 130.664C252.706 130.547 252.938 130.386 253.096 130.181C253.254 129.976 253.333 129.741 253.333 129.478Z" fill="#8794BA"/>
<path d="M187.429 236.288V240.609H185.144V236.288H187.429ZM187.15 260.209V264.149H184.865V260.209H187.15ZM188.762 255.404C188.762 254.848 188.659 254.374 188.454 253.983C188.259 253.593 187.937 253.246 187.487 252.943C187.048 252.641 186.452 252.348 185.7 252.064C184.431 251.576 183.312 251.059 182.346 250.512C181.389 249.955 180.642 249.267 180.104 248.446C179.567 247.616 179.299 246.566 179.299 245.297C179.299 244.086 179.587 243.036 180.163 242.147C180.739 241.259 181.535 240.575 182.551 240.097C183.576 239.608 184.768 239.364 186.125 239.364C187.16 239.364 188.098 239.521 188.938 239.833C189.777 240.136 190.5 240.585 191.105 241.181C191.711 241.767 192.175 242.484 192.497 243.334C192.819 244.184 192.98 245.155 192.98 246.249H188.776C188.776 245.663 188.713 245.146 188.586 244.696C188.459 244.247 188.273 243.871 188.029 243.568C187.795 243.266 187.512 243.041 187.18 242.895C186.848 242.738 186.481 242.66 186.081 242.66C185.485 242.66 184.997 242.777 184.616 243.012C184.235 243.246 183.957 243.563 183.781 243.964C183.615 244.354 183.532 244.804 183.532 245.312C183.532 245.81 183.62 246.244 183.796 246.615C183.981 246.986 184.299 247.328 184.748 247.641C185.197 247.943 185.812 248.256 186.594 248.578C187.863 249.066 188.977 249.594 189.934 250.16C190.891 250.727 191.638 251.42 192.175 252.24C192.712 253.061 192.98 254.105 192.98 255.375C192.98 256.635 192.688 257.709 192.102 258.598C191.516 259.477 190.695 260.15 189.641 260.619C188.586 261.078 187.365 261.308 185.979 261.308C185.08 261.308 184.187 261.19 183.298 260.956C182.409 260.712 181.604 260.321 180.881 259.784C180.158 259.247 179.582 258.534 179.152 257.646C178.723 256.747 178.508 255.644 178.508 254.335H182.727C182.727 255.048 182.819 255.644 183.005 256.122C183.19 256.591 183.435 256.967 183.737 257.25C184.05 257.523 184.401 257.719 184.792 257.836C185.183 257.953 185.578 258.012 185.979 258.012C186.604 258.012 187.116 257.899 187.517 257.675C187.927 257.45 188.234 257.143 188.439 256.752C188.654 256.352 188.762 255.902 188.762 255.404ZM226.027 235.922V243.305C226.027 246.508 225.686 249.271 225.002 251.596C224.318 253.9 223.332 255.795 222.043 257.279C220.773 258.744 219.26 259.828 217.502 260.531C215.744 261.234 213.791 261.586 211.643 261.586C209.924 261.586 208.322 261.371 206.838 260.941C205.354 260.492 204.016 259.799 202.824 258.861C201.652 257.924 200.637 256.742 199.777 255.316C198.938 253.871 198.293 252.152 197.844 250.16C197.395 248.168 197.17 245.883 197.17 243.305V235.922C197.17 232.719 197.512 229.975 198.195 227.689C198.898 225.385 199.885 223.5 201.154 222.035C202.443 220.57 203.967 219.496 205.725 218.812C207.482 218.109 209.436 217.758 211.584 217.758C213.303 217.758 214.895 217.982 216.359 218.432C217.844 218.861 219.182 219.535 220.373 220.453C221.564 221.371 222.58 222.553 223.42 223.998C224.26 225.424 224.904 227.133 225.354 229.125C225.803 231.098 226.027 233.363 226.027 235.922ZM217.561 244.418V234.779C217.561 233.236 217.473 231.889 217.297 230.736C217.141 229.584 216.896 228.607 216.564 227.807C216.232 226.986 215.822 226.322 215.334 225.814C214.846 225.307 214.289 224.936 213.664 224.701C213.039 224.467 212.346 224.35 211.584 224.35C210.627 224.35 209.777 224.535 209.035 224.906C208.312 225.277 207.697 225.873 207.189 226.693C206.682 227.494 206.291 228.568 206.018 229.916C205.764 231.244 205.637 232.865 205.637 234.779V244.418C205.637 245.961 205.715 247.318 205.871 248.49C206.047 249.662 206.301 250.668 206.633 251.508C206.984 252.328 207.395 253.002 207.863 253.529C208.352 254.037 208.908 254.408 209.533 254.643C210.178 254.877 210.881 254.994 211.643 254.994C212.58 254.994 213.41 254.809 214.133 254.438C214.875 254.047 215.5 253.441 216.008 252.621C216.535 251.781 216.926 250.688 217.18 249.34C217.434 247.992 217.561 246.352 217.561 244.418Z" fill="white"/>
<path d="M175.289 286.867C175.289 288.154 174.995 289.19 174.406 289.977C173.818 290.763 173.021 291.156 172.016 291.156C170.99 291.156 170.182 290.831 169.594 290.18V294.25H168.148V282.547H169.469L169.539 283.484C170.128 282.755 170.945 282.391 171.992 282.391C173.008 282.391 173.81 282.773 174.398 283.539C174.992 284.305 175.289 285.37 175.289 286.734V286.867ZM173.844 286.703C173.844 285.75 173.641 284.997 173.234 284.445C172.828 283.893 172.271 283.617 171.562 283.617C170.688 283.617 170.031 284.005 169.594 284.781V288.82C170.026 289.591 170.688 289.977 171.578 289.977C172.271 289.977 172.82 289.703 173.227 289.156C173.638 288.604 173.844 287.786 173.844 286.703ZM180.641 291.156C179.495 291.156 178.562 290.781 177.844 290.031C177.125 289.276 176.766 288.268 176.766 287.008V286.742C176.766 285.904 176.924 285.156 177.242 284.5C177.565 283.839 178.013 283.323 178.586 282.953C179.164 282.578 179.789 282.391 180.461 282.391C181.56 282.391 182.414 282.753 183.023 283.477C183.633 284.201 183.938 285.237 183.938 286.586V287.188H178.211C178.232 288.021 178.474 288.695 178.938 289.211C179.406 289.721 180 289.977 180.719 289.977C181.229 289.977 181.661 289.872 182.016 289.664C182.37 289.456 182.68 289.18 182.945 288.836L183.828 289.523C183.12 290.612 182.057 291.156 180.641 291.156ZM180.461 283.578C179.878 283.578 179.388 283.792 178.992 284.219C178.596 284.641 178.352 285.234 178.258 286H182.492V285.891C182.451 285.156 182.253 284.589 181.898 284.188C181.544 283.781 181.065 283.578 180.461 283.578ZM189.703 283.844C189.484 283.807 189.247 283.789 188.992 283.789C188.044 283.789 187.401 284.193 187.062 285V291H185.617V282.547H187.023L187.047 283.523C187.521 282.768 188.193 282.391 189.062 282.391C189.344 282.391 189.557 282.427 189.703 282.5V283.844ZM196.367 282.547L196.406 283.484C197.026 282.755 197.862 282.391 198.914 282.391C200.096 282.391 200.901 282.844 201.328 283.75C201.609 283.344 201.974 283.016 202.422 282.766C202.875 282.516 203.409 282.391 204.023 282.391C205.878 282.391 206.82 283.372 206.852 285.336V291H205.406V285.422C205.406 284.818 205.268 284.367 204.992 284.07C204.716 283.768 204.253 283.617 203.602 283.617C203.065 283.617 202.62 283.779 202.266 284.102C201.911 284.419 201.706 284.849 201.648 285.391V291H200.195V285.461C200.195 284.232 199.594 283.617 198.391 283.617C197.443 283.617 196.794 284.021 196.445 284.828V291H195V282.547H196.367ZM208.656 286.695C208.656 285.867 208.818 285.122 209.141 284.461C209.469 283.799 209.922 283.289 210.5 282.93C211.083 282.57 211.747 282.391 212.492 282.391C213.643 282.391 214.573 282.789 215.281 283.586C215.995 284.383 216.352 285.443 216.352 286.766V286.867C216.352 287.69 216.193 288.43 215.875 289.086C215.562 289.737 215.112 290.245 214.523 290.609C213.94 290.974 213.268 291.156 212.508 291.156C211.362 291.156 210.432 290.758 209.719 289.961C209.01 289.164 208.656 288.109 208.656 286.797V286.695ZM210.109 286.867C210.109 287.805 210.326 288.557 210.758 289.125C211.195 289.693 211.779 289.977 212.508 289.977C213.242 289.977 213.826 289.69 214.258 289.117C214.69 288.539 214.906 287.732 214.906 286.695C214.906 285.768 214.685 285.018 214.242 284.445C213.805 283.867 213.221 283.578 212.492 283.578C211.779 283.578 211.203 283.862 210.766 284.43C210.328 284.997 210.109 285.81 210.109 286.867ZM219.531 282.547L219.578 283.609C220.224 282.797 221.068 282.391 222.109 282.391C223.896 282.391 224.797 283.398 224.812 285.414V291H223.367V285.406C223.362 284.797 223.221 284.346 222.945 284.055C222.674 283.763 222.25 283.617 221.672 283.617C221.203 283.617 220.792 283.742 220.438 283.992C220.083 284.242 219.807 284.57 219.609 284.977V291H218.164V282.547H219.531ZM228.953 280.5V282.547H230.531V283.664H228.953V288.906C228.953 289.245 229.023 289.5 229.164 289.672C229.305 289.839 229.544 289.922 229.883 289.922C230.049 289.922 230.279 289.891 230.57 289.828V291C230.19 291.104 229.82 291.156 229.461 291.156C228.815 291.156 228.328 290.961 228 290.57C227.672 290.18 227.508 289.625 227.508 288.906V283.664H225.969V282.547H227.508V280.5H228.953ZM233.672 283.57C234.312 282.784 235.146 282.391 236.172 282.391C237.958 282.391 238.859 283.398 238.875 285.414V291H237.43V285.406C237.424 284.797 237.284 284.346 237.008 284.055C236.737 283.763 236.312 283.617 235.734 283.617C235.266 283.617 234.854 283.742 234.5 283.992C234.146 284.242 233.87 284.57 233.672 284.977V291H232.227V279H233.672V283.57Z" fill="#8794BA"/>
<rect x="94" y="176" width="220" height="1" fill="#2A407C"/>
</g>
<defs>
<filter id="filter0_d_159_604" x="32.8" y="15.8" width="354.4" height="454.4" filterUnits="userSpaceOnUse" color-interpolation-filters="sRGB">
<feFlood flood-opacity="0" result="BackgroundImageFix"/>
<feColorMatrix in="SourceAlpha" type="matrix" values="0 0 0 0 0 0 0 0 0 0 0 0 0 0 0 0 0 0 127 0" result="hardAlpha"/>
<feOffset dx="5" dy="6"/>
<feGaussianBlur stdDeviation="3.6"/>
<feComposite in2="hardAlpha" operator="out"/>
<feColorMatrix type="matrix" values="0 0 0 0 0 0 0 0 0 0 0 0 0 0 0 0 0 0 0.25 0"/>
<feBlend mode="normal" in2="BackgroundImageFix" result="effect1_dropShadow_159_604"/>
<feBlend mode="normal" in="SourceGraphic" in2="effect1_dropShadow_159_604" result="shape"/>
</filter>
<filter id="filter1_d_159_604" x="0" y="0" width="410" height="510" filterUnits="userSpaceOnUse" color-interpolation-filters="sRGB">
<feFlood flood-opacity="0" result="BackgroundImageFix"/>
<feColorMatrix in="SourceAlpha" type="matrix" values="0 0 0 0 0 0 0 0 0 0 0 0 0 0 0 0 0 0 127 0" result="hardAlpha"/>
<feMorphology radius="15" operator="erode" in="SourceAlpha" result="effect1_dropShadow_159_604"/>
<feOffset dy="18"/>
<feGaussianBlur stdDeviation="25"/>
<feColorMatrix type="matrix" values="0 0 0 0 0.0996452 0 0 0 0 0.164326 0 0 0 0 0.350284 0 0 0 0.2 0"/>
<feBlend mode="normal" in2="BackgroundImageFix" result="effect1_dropShadow_159_604"/>
<feBlend mode="normal" in="SourceGraphic" in2="effect1_dropShadow_159_604" result="shape"/>
</filter>
<linearGradient id="paint0_linear_159_604" x1="-85" y1="143" x2="571.5" y2="579" gradientUnits="userSpaceOnUse">
<stop offset="0.542827" stop-color="#320049"/>
<stop offset="1" stop-color="#7701AF"/>
</linearGradient>
<linearGradient id="paint1_linear_159_604" x1="203.5" y1="337" x2="203.5" y2="387" gradientUnits="userSpaceOnUse">
<stop stop-color="#5D0089"/>
<stop offset="1" stop-color="#180023"/>
</linearGradient>
</defs>
</svg>
