<svg width="228" height="260" viewBox="0 0 228 260" fill="none" xmlns="http://www.w3.org/2000/svg">
<rect y="70.0001" width="228" height="190" rx="24" fill="url(#paint0_linear_235_3539)"/>
<path d="M28.3107 188C27.6294 188 27.0881 187.837 26.6867 187.51C26.2854 187.174 26.0847 186.582 26.0847 185.732V182.302H24.8947V181.056H26.0847L26.2667 179.292H27.5687V181.056H29.5287V182.302H27.5687V185.732C27.5687 186.115 27.6481 186.381 27.8067 186.53C27.9747 186.67 28.2594 186.74 28.6607 186.74H29.4587V188H28.3107ZM33.8492 188.168C33.1865 188.168 32.5892 188.019 32.0572 187.72C31.5345 187.412 31.1192 186.988 30.8112 186.446C30.5032 185.896 30.3492 185.256 30.3492 184.528C30.3492 183.8 30.5032 183.166 30.8112 182.624C31.1285 182.074 31.5532 181.649 32.0852 181.35C32.6172 181.042 33.2098 180.888 33.8632 180.888C34.5258 180.888 35.1185 181.042 35.6412 181.35C36.1732 181.649 36.5932 182.074 36.9012 182.624C37.2185 183.166 37.3772 183.8 37.3772 184.528C37.3772 185.256 37.2185 185.896 36.9012 186.446C36.5932 186.988 36.1732 187.412 35.6412 187.72C35.1092 188.019 34.5118 188.168 33.8492 188.168ZM33.8492 186.894C34.2038 186.894 34.5305 186.806 34.8292 186.628C35.1372 186.451 35.3845 186.19 35.5712 185.844C35.7578 185.49 35.8512 185.051 35.8512 184.528C35.8512 184.006 35.7578 183.572 35.5712 183.226C35.3938 182.872 35.1512 182.606 34.8432 182.428C34.5445 182.251 34.2178 182.162 33.8632 182.162C33.5085 182.162 33.1772 182.251 32.8692 182.428C32.5705 182.606 32.3278 182.872 32.1412 183.226C31.9545 183.572 31.8612 184.006 31.8612 184.528C31.8612 185.051 31.9545 185.49 32.1412 185.844C32.3278 186.19 32.5705 186.451 32.8692 186.628C33.1678 186.806 33.4945 186.894 33.8492 186.894ZM44.7914 185.872C44.4274 185.872 44.0914 185.83 43.7834 185.746L43.1814 186.334C43.284 186.4 43.41 186.456 43.5594 186.502C43.7087 186.549 43.9187 186.591 44.1894 186.628C44.46 186.666 44.8287 186.703 45.2954 186.74C46.2194 186.824 46.8867 187.048 47.2974 187.412C47.708 187.767 47.9134 188.243 47.9134 188.84C47.9134 189.251 47.8014 189.638 47.5774 190.002C47.3627 190.376 47.022 190.674 46.5554 190.898C46.098 191.132 45.51 191.248 44.7914 191.248C43.8207 191.248 43.032 191.062 42.4254 190.688C41.828 190.324 41.5294 189.769 41.5294 189.022C41.5294 188.733 41.604 188.444 41.7534 188.154C41.912 187.874 42.1594 187.608 42.4954 187.356C42.2994 187.272 42.1267 187.184 41.9774 187.09C41.8374 186.988 41.7114 186.885 41.5994 186.782V186.446L42.8034 185.214C42.262 184.748 41.9914 184.136 41.9914 183.38C41.9914 182.923 42.0987 182.508 42.3134 182.134C42.5374 181.752 42.8594 181.448 43.2794 181.224C43.6994 181 44.2034 180.888 44.7914 180.888C45.1834 180.888 45.5474 180.944 45.8834 181.056H48.4734V182.036L47.2414 182.106C47.4654 182.489 47.5774 182.914 47.5774 183.38C47.5774 183.847 47.4654 184.267 47.2414 184.64C47.0267 185.014 46.7094 185.312 46.2894 185.536C45.8787 185.76 45.3794 185.872 44.7914 185.872ZM44.7914 184.71C45.2207 184.71 45.566 184.598 45.8274 184.374C46.098 184.141 46.2334 183.814 46.2334 183.394C46.2334 182.965 46.098 182.638 45.8274 182.414C45.566 182.19 45.2207 182.078 44.7914 182.078C44.3527 182.078 43.998 182.19 43.7274 182.414C43.466 182.638 43.3354 182.965 43.3354 183.394C43.3354 183.814 43.466 184.141 43.7274 184.374C43.998 184.598 44.3527 184.71 44.7914 184.71ZM42.9294 188.882C42.9294 189.284 43.1067 189.582 43.4614 189.778C43.816 189.984 44.2594 190.086 44.7914 190.086C45.3047 190.086 45.72 189.974 46.0374 189.75C46.3547 189.536 46.5134 189.246 46.5134 188.882C46.5134 188.612 46.406 188.378 46.1914 188.182C45.9767 187.996 45.5707 187.879 44.9734 187.832C44.5254 187.804 44.1287 187.762 43.7834 187.706C43.4567 187.884 43.2327 188.075 43.1114 188.28C42.99 188.486 42.9294 188.686 42.9294 188.882ZM52.4916 188.168C51.8102 188.168 51.2036 188.019 50.6716 187.72C50.1489 187.412 49.7382 186.988 49.4396 186.446C49.1409 185.905 48.9916 185.275 48.9916 184.556C48.9916 183.828 49.1362 183.189 49.4256 182.638C49.7242 182.088 50.1349 181.658 50.6576 181.35C51.1896 181.042 51.8056 180.888 52.5056 180.888C53.1869 180.888 53.7796 181.042 54.2836 181.35C54.7876 181.649 55.1796 182.05 55.4596 182.554C55.7396 183.058 55.8796 183.614 55.8796 184.22C55.8796 184.314 55.8749 184.416 55.8656 184.528C55.8656 184.631 55.8609 184.748 55.8516 184.878H50.4476C50.4942 185.55 50.7136 186.064 51.1056 186.418C51.5069 186.764 51.9689 186.936 52.4916 186.936C52.9116 186.936 53.2616 186.843 53.5416 186.656C53.8309 186.46 54.0456 186.199 54.1856 185.872H55.6696C55.4829 186.526 55.1096 187.072 54.5496 187.51C53.9989 187.949 53.3129 188.168 52.4916 188.168ZM52.4916 182.106C51.9969 182.106 51.5582 182.256 51.1756 182.554C50.7929 182.844 50.5596 183.282 50.4756 183.87H54.3956C54.3676 183.329 54.1762 182.9 53.8216 182.582C53.4669 182.265 53.0236 182.106 52.4916 182.106ZM59.8736 188C59.1923 188 58.651 187.837 58.2496 187.51C57.8483 187.174 57.6476 186.582 57.6476 185.732V182.302H56.4576V181.056H57.6476L57.8296 179.292H59.1316V181.056H61.0916V182.302H59.1316V185.732C59.1316 186.115 59.211 186.381 59.3696 186.53C59.5376 186.67 59.8223 186.74 60.2236 186.74H61.0216V188H59.8736ZM67.9411 188.168C67.3531 188.168 66.8678 188.07 66.4851 187.874C66.1025 187.678 65.8178 187.422 65.6311 187.104C65.4445 186.778 65.3511 186.423 65.3511 186.04C65.3511 185.368 65.6125 184.836 66.1351 184.444C66.6578 184.052 67.4045 183.856 68.3751 183.856H70.1951V183.73C70.1951 183.189 70.0458 182.783 69.7471 182.512C69.4578 182.242 69.0798 182.106 68.6131 182.106C68.2025 182.106 67.8431 182.209 67.5351 182.414C67.2365 182.61 67.0545 182.904 66.9891 183.296H65.5051C65.5518 182.792 65.7198 182.363 66.0091 182.008C66.3078 181.644 66.6811 181.369 67.1291 181.182C67.5865 180.986 68.0858 180.888 68.6271 180.888C69.5978 180.888 70.3491 181.145 70.8811 181.658C71.4131 182.162 71.6791 182.853 71.6791 183.73V188H70.3911L70.2651 186.81C70.0691 187.193 69.7845 187.515 69.4111 187.776C69.0378 188.038 68.5478 188.168 67.9411 188.168ZM68.2351 186.964C68.6365 186.964 68.9725 186.871 69.2431 186.684C69.5231 186.488 69.7378 186.232 69.8871 185.914C70.0458 185.597 70.1438 185.247 70.1811 184.864H68.5291C67.9411 184.864 67.5211 184.967 67.2691 185.172C67.0265 185.378 66.9051 185.634 66.9051 185.942C66.9051 186.26 67.0218 186.512 67.2551 186.698C67.4978 186.876 67.8245 186.964 68.2351 186.964ZM76.4194 188.168C75.7381 188.168 75.1268 188.014 74.5854 187.706C74.0534 187.398 73.6334 186.974 73.3254 186.432C73.0268 185.882 72.8774 185.247 72.8774 184.528C72.8774 183.81 73.0268 183.18 73.3254 182.638C73.6334 182.088 74.0534 181.658 74.5854 181.35C75.1268 181.042 75.7381 180.888 76.4194 180.888C77.2781 180.888 77.9968 181.112 78.5754 181.56C79.1634 182.008 79.5414 182.615 79.7094 183.38H78.1554C78.0621 182.998 77.8568 182.699 77.5394 182.484C77.2221 182.27 76.8488 182.162 76.4194 182.162C76.0554 182.162 75.7194 182.256 75.4114 182.442C75.1034 182.62 74.8561 182.886 74.6694 183.24C74.4828 183.586 74.3894 184.015 74.3894 184.528C74.3894 185.042 74.4828 185.476 74.6694 185.83C74.8561 186.176 75.1034 186.442 75.4114 186.628C75.7194 186.815 76.0554 186.908 76.4194 186.908C76.8488 186.908 77.2221 186.801 77.5394 186.586C77.8568 186.372 78.0621 186.068 78.1554 185.676H79.7094C79.5508 186.423 79.1774 187.025 78.5894 187.482C78.0014 187.94 77.2781 188.168 76.4194 188.168ZM84.3289 188.168C83.6476 188.168 83.0362 188.014 82.4949 187.706C81.9629 187.398 81.5429 186.974 81.2349 186.432C80.9362 185.882 80.7869 185.247 80.7869 184.528C80.7869 183.81 80.9362 183.18 81.2349 182.638C81.5429 182.088 81.9629 181.658 82.4949 181.35C83.0362 181.042 83.6476 180.888 84.3289 180.888C85.1876 180.888 85.9062 181.112 86.4849 181.56C87.0729 182.008 87.4509 182.615 87.6189 183.38H86.0649C85.9716 182.998 85.7662 182.699 85.4489 182.484C85.1316 182.27 84.7582 182.162 84.3289 182.162C83.9649 182.162 83.6289 182.256 83.3209 182.442C83.0129 182.62 82.7656 182.886 82.5789 183.24C82.3922 183.586 82.2989 184.015 82.2989 184.528C82.2989 185.042 82.3922 185.476 82.5789 185.83C82.7656 186.176 83.0129 186.442 83.3209 186.628C83.6289 186.815 83.9649 186.908 84.3289 186.908C84.7582 186.908 85.1316 186.801 85.4489 186.586C85.7662 186.372 85.9716 186.068 86.0649 185.676H87.6189C87.4602 186.423 87.0869 187.025 86.4989 187.482C85.9109 187.94 85.1876 188.168 84.3289 188.168ZM92.1963 188.168C91.515 188.168 90.9083 188.019 90.3763 187.72C89.8537 187.412 89.443 186.988 89.1443 186.446C88.8457 185.905 88.6963 185.275 88.6963 184.556C88.6963 183.828 88.841 183.189 89.1303 182.638C89.429 182.088 89.8397 181.658 90.3623 181.35C90.8943 181.042 91.5103 180.888 92.2103 180.888C92.8917 180.888 93.4843 181.042 93.9883 181.35C94.4923 181.649 94.8843 182.05 95.1643 182.554C95.4443 183.058 95.5843 183.614 95.5843 184.22C95.5843 184.314 95.5797 184.416 95.5703 184.528C95.5703 184.631 95.5657 184.748 95.5563 184.878H90.1523C90.199 185.55 90.4183 186.064 90.8103 186.418C91.2117 186.764 91.6737 186.936 92.1963 186.936C92.6163 186.936 92.9663 186.843 93.2463 186.656C93.5357 186.46 93.7503 186.199 93.8903 185.872H95.3743C95.1877 186.526 94.8143 187.072 94.2543 187.51C93.7037 187.949 93.0177 188.168 92.1963 188.168ZM92.1963 182.106C91.7017 182.106 91.263 182.256 90.8803 182.554C90.4977 182.844 90.2643 183.282 90.1803 183.87H94.1003C94.0723 183.329 93.881 182.9 93.5263 182.582C93.1717 182.265 92.7283 182.106 92.1963 182.106ZM99.6161 188.168C98.7388 188.168 98.0155 187.954 97.4461 187.524C96.8768 187.095 96.5501 186.526 96.4661 185.816H97.9641C98.0388 186.134 98.2161 186.409 98.4961 186.642C98.7761 186.866 99.1448 186.978 99.6021 186.978C100.05 186.978 100.377 186.885 100.582 186.698C100.787 186.512 100.89 186.297 100.89 186.054C100.89 185.7 100.745 185.462 100.456 185.34C100.176 185.21 99.7841 185.093 99.2801 184.99C98.8881 184.906 98.4961 184.794 98.1041 184.654C97.7215 184.514 97.3995 184.318 97.1381 184.066C96.8861 183.805 96.7601 183.455 96.7601 183.016C96.7601 182.41 96.9935 181.906 97.4601 181.504C97.9268 181.094 98.5801 180.888 99.4201 180.888C100.195 180.888 100.82 181.075 101.296 181.448C101.781 181.822 102.066 182.349 102.15 183.03H100.722C100.675 182.732 100.535 182.498 100.302 182.33C100.078 182.162 99.7748 182.078 99.3921 182.078C99.0188 182.078 98.7295 182.158 98.5241 182.316C98.3188 182.466 98.2161 182.662 98.2161 182.904C98.2161 183.147 98.3561 183.338 98.6361 183.478C98.9255 183.618 99.3035 183.744 99.7701 183.856C100.237 183.959 100.666 184.08 101.058 184.22C101.459 184.351 101.781 184.547 102.024 184.808C102.267 185.07 102.388 185.452 102.388 185.956C102.397 186.591 102.15 187.118 101.646 187.538C101.151 187.958 100.475 188.168 99.6161 188.168ZM106.5 188.168C105.623 188.168 104.9 187.954 104.33 187.524C103.761 187.095 103.434 186.526 103.35 185.816H104.848C104.923 186.134 105.1 186.409 105.38 186.642C105.66 186.866 106.029 186.978 106.486 186.978C106.934 186.978 107.261 186.885 107.466 186.698C107.672 186.512 107.774 186.297 107.774 186.054C107.774 185.7 107.63 185.462 107.34 185.34C107.06 185.21 106.668 185.093 106.164 184.99C105.772 184.906 105.38 184.794 104.988 184.654C104.606 184.514 104.284 184.318 104.022 184.066C103.77 183.805 103.644 183.455 103.644 183.016C103.644 182.41 103.878 181.906 104.344 181.504C104.811 181.094 105.464 180.888 106.304 180.888C107.079 180.888 107.704 181.075 108.18 181.448C108.666 181.822 108.95 182.349 109.034 183.03H107.606C107.56 182.732 107.42 182.498 107.186 182.33C106.962 182.162 106.659 182.078 106.276 182.078C105.903 182.078 105.614 182.158 105.408 182.316C105.203 182.466 105.1 182.662 105.1 182.904C105.1 183.147 105.24 183.338 105.52 183.478C105.81 183.618 106.188 183.744 106.654 183.856C107.121 183.959 107.55 184.08 107.942 184.22C108.344 184.351 108.666 184.547 108.908 184.808C109.151 185.07 109.272 185.452 109.272 185.956C109.282 186.591 109.034 187.118 108.53 187.538C108.036 187.958 107.359 188.168 106.5 188.168ZM116.772 188C116.09 188 115.549 187.837 115.148 187.51C114.746 187.174 114.546 186.582 114.546 185.732V182.302H113.356V181.056H114.546L114.728 179.292H116.03V181.056H117.99V182.302H116.03V185.732C116.03 186.115 116.109 186.381 116.268 186.53C116.436 186.67 116.72 186.74 117.122 186.74H117.92V188H116.772ZM122.31 188.168C121.647 188.168 121.05 188.019 120.518 187.72C119.995 187.412 119.58 186.988 119.272 186.446C118.964 185.896 118.81 185.256 118.81 184.528C118.81 183.8 118.964 183.166 119.272 182.624C119.589 182.074 120.014 181.649 120.546 181.35C121.078 181.042 121.671 180.888 122.324 180.888C122.987 180.888 123.579 181.042 124.102 181.35C124.634 181.649 125.054 182.074 125.362 182.624C125.679 183.166 125.838 183.8 125.838 184.528C125.838 185.256 125.679 185.896 125.362 186.446C125.054 186.988 124.634 187.412 124.102 187.72C123.57 188.019 122.973 188.168 122.31 188.168ZM122.31 186.894C122.665 186.894 122.991 186.806 123.29 186.628C123.598 186.451 123.845 186.19 124.032 185.844C124.219 185.49 124.312 185.051 124.312 184.528C124.312 184.006 124.219 183.572 124.032 183.226C123.855 182.872 123.612 182.606 123.304 182.428C123.005 182.251 122.679 182.162 122.324 182.162C121.969 182.162 121.638 182.251 121.33 182.428C121.031 182.606 120.789 182.872 120.602 183.226C120.415 183.572 120.322 184.006 120.322 184.528C120.322 185.051 120.415 185.49 120.602 185.844C120.789 186.19 121.031 186.451 121.33 186.628C121.629 186.806 121.955 186.894 122.31 186.894ZM132.762 188.168C132.174 188.168 131.689 188.07 131.306 187.874C130.924 187.678 130.639 187.422 130.452 187.104C130.266 186.778 130.172 186.423 130.172 186.04C130.172 185.368 130.434 184.836 130.956 184.444C131.479 184.052 132.226 183.856 133.196 183.856H135.016V183.73C135.016 183.189 134.867 182.783 134.568 182.512C134.279 182.242 133.901 182.106 133.434 182.106C133.024 182.106 132.664 182.209 132.356 182.414C132.058 182.61 131.876 182.904 131.81 183.296H130.326C130.373 182.792 130.541 182.363 130.83 182.008C131.129 181.644 131.502 181.369 131.95 181.182C132.408 180.986 132.907 180.888 133.448 180.888C134.419 180.888 135.17 181.145 135.702 181.658C136.234 182.162 136.5 182.853 136.5 183.73V188H135.212L135.086 186.81C134.89 187.193 134.606 187.515 134.232 187.776C133.859 188.038 133.369 188.168 132.762 188.168ZM133.056 186.964C133.458 186.964 133.794 186.871 134.064 186.684C134.344 186.488 134.559 186.232 134.708 185.914C134.867 185.597 134.965 185.247 135.002 184.864H133.35C132.762 184.864 132.342 184.967 132.09 185.172C131.848 185.378 131.726 185.634 131.726 185.942C131.726 186.26 131.843 186.512 132.076 186.698C132.319 186.876 132.646 186.964 133.056 186.964ZM137.951 188V177.92H139.435V188H137.951ZM141.034 188V177.92H142.518V188H141.034ZM147.714 188V182.302H146.72V181.056H147.714V180.048C147.714 179.292 147.901 178.751 148.274 178.424C148.657 178.088 149.194 177.92 149.884 177.92H150.612V179.18H150.108C149.782 179.18 149.548 179.25 149.408 179.39C149.268 179.521 149.198 179.745 149.198 180.062V181.056H150.794V182.302H149.198V188H147.714ZM154.899 188.168C154.217 188.168 153.611 188.019 153.079 187.72C152.556 187.412 152.145 186.988 151.847 186.446C151.548 185.905 151.399 185.275 151.399 184.556C151.399 183.828 151.543 183.189 151.833 182.638C152.131 182.088 152.542 181.658 153.065 181.35C153.597 181.042 154.213 180.888 154.913 180.888C155.594 180.888 156.187 181.042 156.691 181.35C157.195 181.649 157.587 182.05 157.867 182.554C158.147 183.058 158.287 183.614 158.287 184.22C158.287 184.314 158.282 184.416 158.273 184.528C158.273 184.631 158.268 184.748 158.259 184.878H152.855C152.901 185.55 153.121 186.064 153.513 186.418C153.914 186.764 154.376 186.936 154.899 186.936C155.319 186.936 155.669 186.843 155.949 186.656C156.238 186.46 156.453 186.199 156.593 185.872H158.077C157.89 186.526 157.517 187.072 156.957 187.51C156.406 187.949 155.72 188.168 154.899 188.168ZM154.899 182.106C154.404 182.106 153.965 182.256 153.583 182.554C153.2 182.844 152.967 183.282 152.883 183.87H156.803C156.775 183.329 156.583 182.9 156.229 182.582C155.874 182.265 155.431 182.106 154.899 182.106ZM161.899 188.168C161.311 188.168 160.825 188.07 160.443 187.874C160.06 187.678 159.775 187.422 159.589 187.104C159.402 186.778 159.309 186.423 159.309 186.04C159.309 185.368 159.57 184.836 160.093 184.444C160.615 184.052 161.362 183.856 162.333 183.856H164.153V183.73C164.153 183.189 164.003 182.783 163.705 182.512C163.415 182.242 163.037 182.106 162.571 182.106C162.16 182.106 161.801 182.209 161.493 182.414C161.194 182.61 161.012 182.904 160.947 183.296H159.463C159.509 182.792 159.677 182.363 159.967 182.008C160.265 181.644 160.639 181.369 161.087 181.182C161.544 180.986 162.043 180.888 162.585 180.888C163.555 180.888 164.307 181.145 164.839 181.658C165.371 182.162 165.637 182.853 165.637 183.73V188H164.349L164.223 186.81C164.027 187.193 163.742 187.515 163.369 187.776C162.995 188.038 162.505 188.168 161.899 188.168ZM162.193 186.964C162.594 186.964 162.93 186.871 163.201 186.684C163.481 186.488 163.695 186.232 163.845 185.914C164.003 185.597 164.101 185.247 164.139 184.864H162.487C161.899 184.864 161.479 184.967 161.227 185.172C160.984 185.378 160.863 185.634 160.863 185.942C160.863 186.26 160.979 186.512 161.213 186.698C161.455 186.876 161.782 186.964 162.193 186.964ZM169.862 188C169.181 188 168.64 187.837 168.238 187.51C167.837 187.174 167.636 186.582 167.636 185.732V182.302H166.446V181.056H167.636L167.818 179.292H169.12V181.056H171.08V182.302H169.12V185.732C169.12 186.115 169.2 186.381 169.358 186.53C169.526 186.67 169.811 186.74 170.212 186.74H171.01V188H169.862ZM174.892 188.168C174.052 188.168 173.39 187.907 172.904 187.384C172.428 186.862 172.19 186.082 172.19 185.046V181.056H173.674V184.892C173.674 186.236 174.225 186.908 175.326 186.908C175.877 186.908 176.33 186.712 176.684 186.32C177.039 185.928 177.216 185.368 177.216 184.64V181.056H178.7V188H177.384L177.272 186.782C177.058 187.212 176.74 187.552 176.32 187.804C175.91 188.047 175.434 188.168 174.892 188.168ZM180.308 188V181.056H181.638L181.764 182.372C182.007 181.915 182.343 181.556 182.772 181.294C183.211 181.024 183.738 180.888 184.354 180.888V182.442H183.948C183.538 182.442 183.169 182.512 182.842 182.652C182.525 182.783 182.268 183.012 182.072 183.338C181.886 183.656 181.792 184.099 181.792 184.668V188H180.308ZM188.403 188.168C187.722 188.168 187.115 188.019 186.583 187.72C186.06 187.412 185.65 186.988 185.351 186.446C185.052 185.905 184.903 185.275 184.903 184.556C184.903 183.828 185.048 183.189 185.337 182.638C185.636 182.088 186.046 181.658 186.569 181.35C187.101 181.042 187.717 180.888 188.417 180.888C189.098 180.888 189.691 181.042 190.195 181.35C190.699 181.649 191.091 182.05 191.371 182.554C191.651 183.058 191.791 183.614 191.791 184.22C191.791 184.314 191.786 184.416 191.777 184.528C191.777 184.631 191.772 184.748 191.763 184.878H186.359C186.406 185.55 186.625 186.064 187.017 186.418C187.418 186.764 187.88 186.936 188.403 186.936C188.823 186.936 189.173 186.843 189.453 186.656C189.742 186.46 189.957 186.199 190.097 185.872H191.581C191.394 186.526 191.021 187.072 190.461 187.51C189.91 187.949 189.224 188.168 188.403 188.168ZM188.403 182.106C187.908 182.106 187.47 182.256 187.087 182.554C186.704 182.844 186.471 183.282 186.387 183.87H190.307C190.279 183.329 190.088 182.9 189.733 182.582C189.378 182.265 188.935 182.106 188.403 182.106ZM195.823 188.168C194.946 188.168 194.222 187.954 193.653 187.524C193.084 187.095 192.757 186.526 192.673 185.816H194.171C194.246 186.134 194.423 186.409 194.703 186.642C194.983 186.866 195.352 186.978 195.809 186.978C196.257 186.978 196.584 186.885 196.789 186.698C196.994 186.512 197.097 186.297 197.097 186.054C197.097 185.7 196.952 185.462 196.663 185.34C196.383 185.21 195.991 185.093 195.487 184.99C195.095 184.906 194.703 184.794 194.311 184.654C193.928 184.514 193.606 184.318 193.345 184.066C193.093 183.805 192.967 183.455 192.967 183.016C192.967 182.41 193.2 181.906 193.667 181.504C194.134 181.094 194.787 180.888 195.627 180.888C196.402 180.888 197.027 181.075 197.503 181.448C197.988 181.822 198.273 182.349 198.357 183.03H196.929C196.882 182.732 196.742 182.498 196.509 182.33C196.285 182.162 195.982 182.078 195.599 182.078C195.226 182.078 194.936 182.158 194.731 182.316C194.526 182.466 194.423 182.662 194.423 182.904C194.423 183.147 194.563 183.338 194.843 183.478C195.132 183.618 195.51 183.744 195.977 183.856C196.444 183.959 196.873 184.08 197.265 184.22C197.666 184.351 197.988 184.547 198.231 184.808C198.474 185.07 198.595 185.452 198.595 185.956C198.604 186.591 198.357 187.118 197.853 187.538C197.358 187.958 196.682 188.168 195.823 188.168ZM200.243 185.102L200.075 178.2H201.671L201.503 185.102H200.243ZM200.915 188.084C200.626 188.084 200.388 187.996 200.201 187.818C200.024 187.632 199.935 187.412 199.935 187.16C199.935 186.899 200.024 186.68 200.201 186.502C200.388 186.316 200.626 186.222 200.915 186.222C201.186 186.222 201.41 186.316 201.587 186.502C201.774 186.68 201.867 186.899 201.867 187.16C201.867 187.412 201.774 187.632 201.587 187.818C201.41 187.996 201.186 188.084 200.915 188.084ZM35.2718 212.168C34.3011 212.168 33.4611 211.958 32.7518 211.538C32.0518 211.109 31.5105 210.516 31.1278 209.76C30.7451 208.995 30.5538 208.113 30.5538 207.114C30.5538 206.106 30.7451 205.224 31.1278 204.468C31.5105 203.703 32.0518 203.106 32.7518 202.676C33.4611 202.247 34.3011 202.032 35.2718 202.032C36.4198 202.032 37.3578 202.312 38.0858 202.872C38.8138 203.432 39.2758 204.216 39.4718 205.224H37.8198C37.6891 204.655 37.4091 204.202 36.9798 203.866C36.5505 203.53 35.9765 203.362 35.2578 203.362C34.2778 203.362 33.5031 203.698 32.9338 204.37C32.3645 205.033 32.0798 205.948 32.0798 207.114C32.0798 208.272 32.3645 209.182 32.9338 209.844C33.5031 210.507 34.2778 210.838 35.2578 210.838C35.9765 210.838 36.5505 210.68 36.9798 210.362C37.4091 210.045 37.6891 209.611 37.8198 209.06H39.4718C39.2758 210.031 38.8138 210.792 38.0858 211.342C37.3578 211.893 36.4198 212.168 35.2718 212.168ZM44.015 212.168C43.3524 212.168 42.755 212.019 42.223 211.72C41.7004 211.412 41.285 210.988 40.977 210.446C40.669 209.896 40.515 209.256 40.515 208.528C40.515 207.8 40.669 207.166 40.977 206.624C41.2944 206.074 41.719 205.649 42.251 205.35C42.783 205.042 43.3757 204.888 44.029 204.888C44.6917 204.888 45.2844 205.042 45.807 205.35C46.339 205.649 46.759 206.074 47.067 206.624C47.3844 207.166 47.543 207.8 47.543 208.528C47.543 209.256 47.3844 209.896 47.067 210.446C46.759 210.988 46.339 211.412 45.807 211.72C45.275 212.019 44.6777 212.168 44.015 212.168ZM44.015 210.894C44.3697 210.894 44.6964 210.806 44.995 210.628C45.303 210.451 45.5504 210.19 45.737 209.844C45.9237 209.49 46.017 209.051 46.017 208.528C46.017 208.006 45.9237 207.572 45.737 207.226C45.5597 206.872 45.317 206.606 45.009 206.428C44.7104 206.251 44.3837 206.162 44.029 206.162C43.6744 206.162 43.343 206.251 43.035 206.428C42.7364 206.606 42.4937 206.872 42.307 207.226C42.1204 207.572 42.027 208.006 42.027 208.528C42.027 209.051 42.1204 209.49 42.307 209.844C42.4937 210.19 42.7364 210.451 43.035 210.628C43.3337 210.806 43.6604 210.894 44.015 210.894ZM48.8679 212V205.056H50.1839L50.2959 206.274C50.5105 205.845 50.8232 205.509 51.2339 205.266C51.6539 205.014 52.1345 204.888 52.6759 204.888C53.5159 204.888 54.1739 205.15 54.6499 205.672C55.1352 206.195 55.3779 206.974 55.3779 208.01V212H53.9079V208.164C53.9079 206.82 53.3572 206.148 52.2559 206.148C51.7052 206.148 51.2479 206.344 50.8839 206.736C50.5292 207.128 50.3519 207.688 50.3519 208.416V212H48.8679ZM56.8457 212V205.056H58.1617L58.2737 206.274C58.4884 205.845 58.801 205.509 59.2117 205.266C59.6317 205.014 60.1124 204.888 60.6537 204.888C61.4937 204.888 62.1517 205.15 62.6277 205.672C63.113 206.195 63.3557 206.974 63.3557 208.01V212H61.8857V208.164C61.8857 206.82 61.335 206.148 60.2337 206.148C59.683 206.148 59.2257 206.344 58.8617 206.736C58.507 207.128 58.3297 207.688 58.3297 208.416V212H56.8457ZM68.0715 212.168C67.3902 212.168 66.7835 212.019 66.2515 211.72C65.7288 211.412 65.3182 210.988 65.0195 210.446C64.7208 209.905 64.5715 209.275 64.5715 208.556C64.5715 207.828 64.7162 207.189 65.0055 206.638C65.3042 206.088 65.7148 205.658 66.2375 205.35C66.7695 205.042 67.3855 204.888 68.0855 204.888C68.7668 204.888 69.3595 205.042 69.8635 205.35C70.3675 205.649 70.7595 206.05 71.0395 206.554C71.3195 207.058 71.4595 207.614 71.4595 208.22C71.4595 208.314 71.4548 208.416 71.4455 208.528C71.4455 208.631 71.4408 208.748 71.4315 208.878H66.0275C66.0742 209.55 66.2935 210.064 66.6855 210.418C67.0868 210.764 67.5488 210.936 68.0715 210.936C68.4915 210.936 68.8415 210.843 69.1215 210.656C69.4108 210.46 69.6255 210.199 69.7655 209.872H71.2495C71.0628 210.526 70.6895 211.072 70.1295 211.51C69.5788 211.949 68.8928 212.168 68.0715 212.168ZM68.0715 206.106C67.5768 206.106 67.1382 206.256 66.7555 206.554C66.3728 206.844 66.1395 207.282 66.0555 207.87H69.9755C69.9475 207.329 69.7562 206.9 69.4015 206.582C69.0468 206.265 68.6035 206.106 68.0715 206.106ZM76.0093 212.168C75.3279 212.168 74.7166 212.014 74.1753 211.706C73.6433 211.398 73.2233 210.974 72.9153 210.432C72.6166 209.882 72.4673 209.247 72.4673 208.528C72.4673 207.81 72.6166 207.18 72.9153 206.638C73.2233 206.088 73.6433 205.658 74.1753 205.35C74.7166 205.042 75.3279 204.888 76.0093 204.888C76.8679 204.888 77.5866 205.112 78.1653 205.56C78.7533 206.008 79.1313 206.615 79.2993 207.38H77.7453C77.6519 206.998 77.4466 206.699 77.1293 206.484C76.8119 206.27 76.4386 206.162 76.0093 206.162C75.6453 206.162 75.3093 206.256 75.0013 206.442C74.6933 206.62 74.4459 206.886 74.2593 207.24C74.0726 207.586 73.9793 208.015 73.9793 208.528C73.9793 209.042 74.0726 209.476 74.2593 209.83C74.4459 210.176 74.6933 210.442 75.0013 210.628C75.3093 210.815 75.6453 210.908 76.0093 210.908C76.4386 210.908 76.8119 210.801 77.1293 210.586C77.4466 210.372 77.6519 210.068 77.7453 209.676H79.2993C79.1406 210.423 78.7673 211.025 78.1793 211.482C77.5913 211.94 76.8679 212.168 76.0093 212.168ZM83.404 212C82.7227 212 82.1813 211.837 81.78 211.51C81.3787 211.174 81.178 210.582 81.178 209.732V206.302H79.988V205.056H81.178L81.36 203.292H82.662V205.056H84.622V206.302H82.662V209.732C82.662 210.115 82.7413 210.381 82.9 210.53C83.068 210.67 83.3527 210.74 83.754 210.74H84.552V212H83.404ZM90.5055 212L88.4615 205.056H89.9455L91.2895 210.292L92.8015 205.056H94.4535L95.9655 210.292L97.3095 205.056H98.7935L96.7495 212H95.2235L93.6275 206.54L92.0315 212H90.5055ZM100.576 203.74C100.296 203.74 100.063 203.656 99.876 203.488C99.6987 203.311 99.61 203.092 99.61 202.83C99.61 202.569 99.6987 202.354 99.876 202.186C100.063 202.009 100.296 201.92 100.576 201.92C100.856 201.92 101.085 202.009 101.262 202.186C101.449 202.354 101.542 202.569 101.542 202.83C101.542 203.092 101.449 203.311 101.262 203.488C101.085 203.656 100.856 203.74 100.576 203.74ZM99.834 212V205.056H101.318V212H99.834ZM105.909 212C105.228 212 104.686 211.837 104.285 211.51C103.884 211.174 103.683 210.582 103.683 209.732V206.302H102.493V205.056H103.683L103.865 203.292H105.167V205.056H107.127V206.302H105.167V209.732C105.167 210.115 105.246 210.381 105.405 210.53C105.573 210.67 105.858 210.74 106.259 210.74H107.057V212H105.909ZM108.377 212V201.92H109.861V206.176C110.095 205.775 110.417 205.462 110.827 205.238C111.247 205.005 111.709 204.888 112.213 204.888C113.044 204.888 113.697 205.15 114.173 205.672C114.649 206.195 114.887 206.974 114.887 208.01V212H113.417V208.164C113.417 206.82 112.881 206.148 111.807 206.148C111.247 206.148 110.781 206.344 110.407 206.736C110.043 207.128 109.861 207.688 109.861 208.416V212H108.377ZM119.658 212V202.2H123.088C123.854 202.2 124.488 202.331 124.992 202.592C125.496 202.844 125.87 203.194 126.112 203.642C126.364 204.081 126.49 204.58 126.49 205.14C126.49 205.672 126.369 206.162 126.126 206.61C125.893 207.049 125.524 207.399 125.02 207.66C124.516 207.922 123.872 208.052 123.088 208.052H121.142V212H119.658ZM121.142 206.834H123.018C123.718 206.834 124.218 206.685 124.516 206.386C124.824 206.078 124.978 205.663 124.978 205.14C124.978 204.599 124.824 204.179 124.516 203.88C124.218 203.572 123.718 203.418 123.018 203.418H121.142V206.834ZM127.677 212V202.2H131.051C131.826 202.2 132.46 202.331 132.955 202.592C133.459 202.854 133.832 203.208 134.075 203.656C134.318 204.095 134.439 204.585 134.439 205.126C134.439 205.733 134.276 206.284 133.949 206.778C133.632 207.273 133.132 207.628 132.451 207.842L134.537 212H132.815L130.911 208.052H129.161V212H127.677ZM129.161 206.932H130.967C131.639 206.932 132.129 206.769 132.437 206.442C132.754 206.116 132.913 205.691 132.913 205.168C132.913 204.646 132.759 204.23 132.451 203.922C132.143 203.605 131.644 203.446 130.953 203.446H129.161V206.932ZM140.437 212.168C139.466 212.168 138.617 211.954 137.889 211.524C137.161 211.095 136.591 210.502 136.181 209.746C135.77 208.981 135.565 208.099 135.565 207.1C135.565 206.102 135.77 205.224 136.181 204.468C136.591 203.703 137.161 203.106 137.889 202.676C138.617 202.247 139.466 202.032 140.437 202.032C141.407 202.032 142.257 202.247 142.985 202.676C143.713 203.106 144.277 203.703 144.679 204.468C145.089 205.224 145.295 206.102 145.295 207.1C145.295 208.099 145.089 208.981 144.679 209.746C144.277 210.502 143.713 211.095 142.985 211.524C142.257 211.954 141.407 212.168 140.437 212.168ZM140.437 210.838C141.109 210.838 141.692 210.689 142.187 210.39C142.691 210.092 143.083 209.662 143.363 209.102C143.643 208.542 143.783 207.875 143.783 207.1C143.783 206.326 143.643 205.658 143.363 205.098C143.083 204.538 142.691 204.109 142.187 203.81C141.692 203.512 141.109 203.362 140.437 203.362C139.765 203.362 139.177 203.512 138.673 203.81C138.169 204.109 137.777 204.538 137.497 205.098C137.226 205.658 137.091 206.326 137.091 207.1C137.091 207.875 137.226 208.542 137.497 209.102C137.777 209.662 138.169 210.092 138.673 210.39C139.177 210.689 139.765 210.838 140.437 210.838ZM149.384 212.168C148.507 212.168 147.783 211.954 147.214 211.524C146.645 211.095 146.318 210.526 146.234 209.816H147.732C147.807 210.134 147.984 210.409 148.264 210.642C148.544 210.866 148.913 210.978 149.37 210.978C149.818 210.978 150.145 210.885 150.35 210.698C150.555 210.512 150.658 210.297 150.658 210.054C150.658 209.7 150.513 209.462 150.224 209.34C149.944 209.21 149.552 209.093 149.048 208.99C148.656 208.906 148.264 208.794 147.872 208.654C147.489 208.514 147.167 208.318 146.906 208.066C146.654 207.805 146.528 207.455 146.528 207.016C146.528 206.41 146.761 205.906 147.228 205.504C147.695 205.094 148.348 204.888 149.188 204.888C149.963 204.888 150.588 205.075 151.064 205.448C151.549 205.822 151.834 206.349 151.918 207.03H150.49C150.443 206.732 150.303 206.498 150.07 206.33C149.846 206.162 149.543 206.078 149.16 206.078C148.787 206.078 148.497 206.158 148.292 206.316C148.087 206.466 147.984 206.662 147.984 206.904C147.984 207.147 148.124 207.338 148.404 207.478C148.693 207.618 149.071 207.744 149.538 207.856C150.005 207.959 150.434 208.08 150.826 208.22C151.227 208.351 151.549 208.547 151.792 208.808C152.035 209.07 152.156 209.452 152.156 209.956C152.165 210.591 151.918 211.118 151.414 211.538C150.919 211.958 150.243 212.168 149.384 212.168ZM158.801 212.014L156.155 202.2H157.751L159.697 210.32L161.937 202.2H163.575L165.745 210.32L167.691 202.2H169.287L166.599 212H164.863L162.721 204.314L160.509 212L158.801 212.014ZM172.836 212.168C172.174 212.168 171.576 212.019 171.044 211.72C170.522 211.412 170.106 210.988 169.798 210.446C169.49 209.896 169.336 209.256 169.336 208.528C169.336 207.8 169.49 207.166 169.798 206.624C170.116 206.074 170.54 205.649 171.072 205.35C171.604 205.042 172.197 204.888 172.85 204.888C173.513 204.888 174.106 205.042 174.628 205.35C175.16 205.649 175.58 206.074 175.888 206.624C176.206 207.166 176.364 207.8 176.364 208.528C176.364 209.256 176.206 209.896 175.888 210.446C175.58 210.988 175.16 211.412 174.628 211.72C174.096 212.019 173.499 212.168 172.836 212.168ZM172.836 210.894C173.191 210.894 173.518 210.806 173.816 210.628C174.124 210.451 174.372 210.19 174.558 209.844C174.745 209.49 174.838 209.051 174.838 208.528C174.838 208.006 174.745 207.572 174.558 207.226C174.381 206.872 174.138 206.606 173.83 206.428C173.532 206.251 173.205 206.162 172.85 206.162C172.496 206.162 172.164 206.251 171.856 206.428C171.558 206.606 171.315 206.872 171.128 207.226C170.942 207.572 170.848 208.006 170.848 208.528C170.848 209.051 170.942 209.49 171.128 209.844C171.315 210.19 171.558 210.451 171.856 210.628C172.155 210.806 172.482 210.894 172.836 210.894ZM177.689 212V205.056H179.019L179.145 206.372C179.388 205.915 179.724 205.556 180.153 205.294C180.592 205.024 181.119 204.888 181.735 204.888V206.442H181.329C180.919 206.442 180.55 206.512 180.223 206.652C179.906 206.783 179.649 207.012 179.453 207.338C179.267 207.656 179.173 208.099 179.173 208.668V212H177.689ZM182.728 212V201.92H184.212V212H182.728ZM188.975 212.168C188.303 212.168 187.71 212.01 187.197 211.692C186.684 211.375 186.282 210.941 185.993 210.39C185.703 209.84 185.559 209.214 185.559 208.514C185.559 207.814 185.703 207.194 185.993 206.652C186.282 206.102 186.684 205.672 187.197 205.364C187.72 205.047 188.317 204.888 188.989 204.888C189.54 204.888 190.02 204.996 190.431 205.21C190.851 205.425 191.178 205.728 191.411 206.12V201.92H192.895V212H191.565L191.411 210.922C191.187 211.249 190.879 211.538 190.487 211.79C190.095 212.042 189.591 212.168 188.975 212.168ZM189.241 210.88C189.876 210.88 190.394 210.661 190.795 210.222C191.206 209.784 191.411 209.219 191.411 208.528C191.411 207.828 191.206 207.264 190.795 206.834C190.394 206.396 189.876 206.176 189.241 206.176C188.606 206.176 188.084 206.396 187.673 206.834C187.262 207.264 187.057 207.828 187.057 208.528C187.057 208.986 187.15 209.392 187.337 209.746C187.524 210.101 187.78 210.381 188.107 210.586C188.443 210.782 188.821 210.88 189.241 210.88ZM194.794 209.102L194.626 202.2H196.222L196.054 209.102H194.794ZM195.466 212.084C195.177 212.084 194.939 211.996 194.752 211.818C194.575 211.632 194.486 211.412 194.486 211.16C194.486 210.899 194.575 210.68 194.752 210.502C194.939 210.316 195.177 210.222 195.466 210.222C195.737 210.222 195.961 210.316 196.138 210.502C196.325 210.68 196.418 210.899 196.418 211.16C196.418 211.412 196.325 211.632 196.138 211.818C195.961 211.996 195.737 212.084 195.466 212.084Z" fill="#E9EDF7"/>
<path d="M61.1247 161.192C60.3034 161.192 59.5621 161.032 58.9007 160.712C58.2394 160.382 57.7114 159.886 57.3167 159.224C56.9327 158.563 56.7407 157.726 56.7407 156.712V149.8H58.7887V156.728C58.7887 157.603 58.9967 158.254 59.4127 158.68C59.8394 159.107 60.4261 159.32 61.1727 159.32C61.9087 159.32 62.4901 159.107 62.9167 158.68C63.3434 158.254 63.5567 157.603 63.5567 156.728V149.8H65.6047V156.712C65.6047 157.726 65.4021 158.563 64.9967 159.224C64.5914 159.886 64.0474 160.382 63.3647 160.712C62.6927 161.032 61.9461 161.192 61.1247 161.192ZM67.3273 164.52V153.064H69.1513L69.3753 154.2C69.6313 153.848 69.9673 153.539 70.3833 153.272C70.81 153.006 71.3593 152.872 72.0313 152.872C72.778 152.872 73.4447 153.054 74.0313 153.416C74.618 153.779 75.082 154.275 75.4233 154.904C75.7647 155.534 75.9353 156.248 75.9353 157.048C75.9353 157.848 75.7647 158.563 75.4233 159.192C75.082 159.811 74.618 160.302 74.0313 160.664C73.4447 161.016 72.778 161.192 72.0313 161.192C71.434 161.192 70.9113 161.08 70.4633 160.856C70.0153 160.632 69.6527 160.318 69.3753 159.912V164.52H67.3273ZM71.5993 159.4C72.25 159.4 72.7887 159.182 73.2153 158.744C73.642 158.307 73.8553 157.742 73.8553 157.048C73.8553 156.355 73.642 155.784 73.2153 155.336C72.7887 154.888 72.25 154.664 71.5993 154.664C70.938 154.664 70.394 154.888 69.9673 155.336C69.5513 155.774 69.3433 156.339 69.3433 157.032C69.3433 157.726 69.5513 158.296 69.9673 158.744C70.394 159.182 70.938 159.4 71.5993 159.4ZM80.3048 158.632C79.9208 158.632 79.5635 158.59 79.2328 158.504L78.6408 159.096C78.8222 159.192 79.0675 159.272 79.3768 159.336C79.6862 159.4 80.1875 159.464 80.8808 159.528C81.9368 159.624 82.7048 159.875 83.1848 160.28C83.6648 160.686 83.9048 161.246 83.9048 161.96C83.9048 162.43 83.7768 162.872 83.5208 163.288C83.2648 163.715 82.8702 164.056 82.3368 164.312C81.8035 164.579 81.1208 164.712 80.2888 164.712C79.1582 164.712 78.2462 164.499 77.5528 164.072C76.8595 163.656 76.5128 163.027 76.5128 162.184C76.5128 161.47 76.8595 160.851 77.5528 160.328C77.3395 160.232 77.1528 160.131 76.9928 160.024C76.8435 159.918 76.7102 159.806 76.5928 159.688V159.32L77.9848 157.848C77.3662 157.304 77.0568 156.606 77.0568 155.752C77.0568 155.219 77.1848 154.734 77.4408 154.296C77.7075 153.859 78.0808 153.512 78.5608 153.256C79.0408 153 79.6222 152.872 80.3048 152.872C80.7528 152.872 81.1688 152.936 81.5528 153.064H84.5608V154.312L83.2008 154.408C83.4142 154.814 83.5208 155.262 83.5208 155.752C83.5208 156.286 83.3928 156.771 83.1368 157.208C82.8808 157.646 82.5075 157.992 82.0168 158.248C81.5368 158.504 80.9662 158.632 80.3048 158.632ZM80.3048 157.064C80.7208 157.064 81.0622 156.952 81.3288 156.728C81.6062 156.504 81.7448 156.184 81.7448 155.768C81.7448 155.352 81.6062 155.032 81.3288 154.808C81.0622 154.584 80.7208 154.472 80.3048 154.472C79.8675 154.472 79.5155 154.584 79.2488 154.808C78.9822 155.032 78.8488 155.352 78.8488 155.768C78.8488 156.184 78.9822 156.504 79.2488 156.728C79.5155 156.952 79.8675 157.064 80.3048 157.064ZM78.3848 161.976C78.3848 162.371 78.5662 162.664 78.9288 162.856C79.3022 163.059 79.7555 163.16 80.2888 163.16C80.8008 163.16 81.2168 163.054 81.5368 162.84C81.8568 162.638 82.0168 162.36 82.0168 162.008C82.0168 161.72 81.9102 161.48 81.6968 161.288C81.4942 161.096 81.0835 160.979 80.4648 160.936C80.0275 160.904 79.6222 160.856 79.2488 160.792C78.9395 160.963 78.7155 161.15 78.5768 161.352C78.4488 161.555 78.3848 161.763 78.3848 161.976ZM85.7342 161V153.064H87.5582L87.7502 154.552C88.0382 154.04 88.4276 153.635 88.9182 153.336C89.4196 153.027 90.0062 152.872 90.6782 152.872V155.032H90.1022C89.6542 155.032 89.2542 155.102 88.9022 155.24C88.5502 155.379 88.2729 155.619 88.0702 155.96C87.8782 156.302 87.7822 156.776 87.7822 157.384V161H85.7342ZM94.494 161.192C93.8113 161.192 93.2513 161.086 92.814 160.872C92.3766 160.648 92.0513 160.355 91.838 159.992C91.6246 159.63 91.518 159.23 91.518 158.792C91.518 158.056 91.806 157.459 92.382 157C92.958 156.542 93.822 156.312 94.974 156.312H96.99V156.12C96.99 155.576 96.8353 155.176 96.526 154.92C96.2166 154.664 95.8326 154.536 95.374 154.536C94.958 154.536 94.5953 154.638 94.286 154.84C93.9766 155.032 93.7846 155.32 93.71 155.704H91.71C91.7633 155.128 91.9553 154.627 92.286 154.2C92.6273 153.774 93.0646 153.448 93.598 153.224C94.1313 152.99 94.7286 152.872 95.39 152.872C96.5206 152.872 97.4113 153.155 98.062 153.72C98.7126 154.286 99.038 155.086 99.038 156.12V161H97.294L97.102 159.72C96.8673 160.147 96.5366 160.499 96.11 160.776C95.694 161.054 95.1553 161.192 94.494 161.192ZM94.958 159.592C95.5446 159.592 95.998 159.4 96.318 159.016C96.6486 158.632 96.8566 158.158 96.942 157.592H95.198C94.654 157.592 94.2646 157.694 94.03 157.896C93.7953 158.088 93.678 158.328 93.678 158.616C93.678 158.926 93.7953 159.166 94.03 159.336C94.2646 159.507 94.574 159.592 94.958 159.592ZM104.32 161.192C103.574 161.192 102.907 161.011 102.32 160.648C101.734 160.286 101.27 159.79 100.928 159.16C100.587 158.531 100.416 157.816 100.416 157.016C100.416 156.216 100.587 155.507 100.928 154.888C101.27 154.259 101.734 153.768 102.32 153.416C102.907 153.054 103.574 152.872 104.32 152.872C104.918 152.872 105.44 152.984 105.888 153.208C106.336 153.432 106.699 153.747 106.976 154.152V149.48H109.024V161H107.2L106.976 159.864C106.72 160.216 106.379 160.526 105.952 160.792C105.536 161.059 104.992 161.192 104.32 161.192ZM104.752 159.4C105.414 159.4 105.952 159.182 106.368 158.744C106.795 158.296 107.008 157.726 107.008 157.032C107.008 156.339 106.795 155.774 106.368 155.336C105.952 154.888 105.414 154.664 104.752 154.664C104.102 154.664 103.563 154.883 103.136 155.32C102.71 155.758 102.496 156.323 102.496 157.016C102.496 157.71 102.71 158.28 103.136 158.728C103.563 159.176 104.102 159.4 104.752 159.4ZM114.646 161.192C113.846 161.192 113.137 161.022 112.518 160.68C111.899 160.339 111.414 159.859 111.062 159.24C110.71 158.622 110.534 157.907 110.534 157.096C110.534 156.275 110.705 155.544 111.046 154.904C111.398 154.264 111.878 153.768 112.486 153.416C113.105 153.054 113.83 152.872 114.662 152.872C115.441 152.872 116.129 153.043 116.726 153.384C117.323 153.726 117.787 154.195 118.118 154.792C118.459 155.379 118.63 156.035 118.63 156.76C118.63 156.878 118.625 157 118.614 157.128C118.614 157.256 118.609 157.39 118.598 157.528H112.566C112.609 158.147 112.822 158.632 113.206 158.984C113.601 159.336 114.075 159.512 114.63 159.512C115.046 159.512 115.393 159.422 115.67 159.24C115.958 159.048 116.171 158.803 116.31 158.504H118.39C118.241 159.006 117.99 159.464 117.638 159.88C117.297 160.286 116.87 160.606 116.358 160.84C115.857 161.075 115.286 161.192 114.646 161.192ZM114.662 154.536C114.161 154.536 113.718 154.68 113.334 154.968C112.95 155.246 112.705 155.672 112.598 156.248H116.55C116.518 155.726 116.326 155.31 115.974 155C115.622 154.691 115.185 154.536 114.662 154.536ZM127.061 161C126.229 161 125.562 160.798 125.061 160.392C124.56 159.987 124.309 159.267 124.309 158.232V154.776H122.949V153.064H124.309L124.549 150.936H126.357V153.064H128.501V154.776H126.357V158.248C126.357 158.632 126.437 158.899 126.597 159.048C126.768 159.187 127.056 159.256 127.461 159.256H128.453V161H127.061ZM133.544 161.192C132.776 161.192 132.083 161.016 131.464 160.664C130.856 160.312 130.371 159.827 130.008 159.208C129.656 158.579 129.48 157.854 129.48 157.032C129.48 156.211 129.661 155.491 130.024 154.872C130.387 154.243 130.872 153.752 131.48 153.4C132.099 153.048 132.792 152.872 133.56 152.872C134.317 152.872 135 153.048 135.608 153.4C136.227 153.752 136.712 154.243 137.064 154.872C137.427 155.491 137.608 156.211 137.608 157.032C137.608 157.854 137.427 158.579 137.064 159.208C136.712 159.827 136.227 160.312 135.608 160.664C134.989 161.016 134.301 161.192 133.544 161.192ZM133.544 159.416C134.077 159.416 134.541 159.219 134.936 158.824C135.331 158.419 135.528 157.822 135.528 157.032C135.528 156.243 135.331 155.651 134.936 155.256C134.541 154.851 134.083 154.648 133.56 154.648C133.016 154.648 132.547 154.851 132.152 155.256C131.768 155.651 131.576 156.243 131.576 157.032C131.576 157.822 131.768 158.419 132.152 158.824C132.547 159.219 133.011 159.416 133.544 159.416ZM142.66 161V149.8H146.804C147.7 149.8 148.441 149.95 149.028 150.248C149.614 150.547 150.052 150.958 150.34 151.48C150.628 152.003 150.772 152.59 150.772 153.24C150.772 153.859 150.633 154.43 150.356 154.952C150.078 155.464 149.646 155.88 149.06 156.2C148.473 156.51 147.721 156.664 146.804 156.664H144.708V161H142.66ZM144.708 155H146.676C147.39 155 147.902 154.846 148.212 154.536C148.532 154.216 148.692 153.784 148.692 153.24C148.692 152.686 148.532 152.254 148.212 151.944C147.902 151.624 147.39 151.464 146.676 151.464H144.708V155ZM152.058 161V149.8H156.17C157.066 149.8 157.802 149.955 158.378 150.264C158.965 150.563 159.402 150.974 159.69 151.496C159.978 152.008 160.122 152.579 160.122 153.208C160.122 153.891 159.941 154.515 159.578 155.08C159.226 155.646 158.672 156.056 157.914 156.312L160.234 161H157.882L155.802 156.584H154.106V161H152.058ZM154.106 155.08H156.042C156.725 155.08 157.226 154.915 157.546 154.584C157.866 154.254 158.026 153.816 158.026 153.272C158.026 152.739 157.866 152.312 157.546 151.992C157.237 151.672 156.73 151.512 156.026 151.512H154.106V155.08ZM166.955 161.192C165.835 161.192 164.854 160.947 164.011 160.456C163.179 159.966 162.523 159.288 162.043 158.424C161.574 157.55 161.339 156.542 161.339 155.4C161.339 154.259 161.574 153.256 162.043 152.392C162.523 151.518 163.179 150.835 164.011 150.344C164.854 149.854 165.835 149.608 166.955 149.608C168.065 149.608 169.041 149.854 169.883 150.344C170.726 150.835 171.382 151.518 171.851 152.392C172.321 153.256 172.555 154.259 172.555 155.4C172.555 156.542 172.321 157.55 171.851 158.424C171.382 159.288 170.726 159.966 169.883 160.456C169.041 160.947 168.065 161.192 166.955 161.192ZM166.955 159.352C168.022 159.352 168.87 159 169.499 158.296C170.139 157.592 170.459 156.627 170.459 155.4C170.459 154.174 170.139 153.208 169.499 152.504C168.87 151.8 168.022 151.448 166.955 151.448C165.889 151.448 165.035 151.8 164.395 152.504C163.755 153.208 163.435 154.174 163.435 155.4C163.435 156.627 163.755 157.592 164.395 158.296C165.035 159 165.889 159.352 166.955 159.352Z" fill="white"/>
<g filter="url(#filter0_d_235_3539)">
<circle cx="114.992" cy="69.0001" r="47" fill="url(#paint1_linear_235_3539)"/>
<circle cx="114.992" cy="69.0001" r="44.5" stroke="white" stroke-width="5"/>
</g>
<path fill-rule="evenodd" clip-rule="evenodd" d="M135.155 93.5167C135.155 93.5167 135.155 75.0572 135.155 67.401C134.025 51.656 120.821 50.7156 118.486 54.5389C114.056 61.7919 102.92 53.0862 101.582 68.7674C101.582 76.886 109.678 83.7955 109.678 79.0509C109.678 74.3063 109.678 59.5581 109.678 59.5581C109.678 57.27 108.604 50.2647 113.919 50.6533C118.81 51.0109 126.409 57.0109 126.875 59.5581C127.341 62.1054 126.875 74.755 126.875 74.755C126.875 76.2229 124.684 81.7058 116.715 80.6697V83.0442V84.8575C116.342 86.8866 113.939 87.9228 111.495 87.9228C107.534 87.9228 88.0098 83.0442 88.0098 65.6516C88.0098 53.857 99.443 46.4249 117.6 44.6635H118.16C125.104 44.3325 138.403 40.2692 140.928 57.1166C142.612 68.3578 141.693 93.5167 135.155 93.5167ZM116.295 60.2776C117.645 57.8599 121.329 60.2489 121.329 62.1054C121.329 63.9618 121.329 73.5462 121.329 73.5462C120.987 74.165 119.94 75.3335 118.486 75.0572C117.032 74.7809 116.42 73.762 116.295 73.2871V60.2776Z" fill="white"/>
<defs>
<filter id="filter0_d_235_3539" x="27.9922" y="0.000123978" width="174" height="174" filterUnits="userSpaceOnUse" color-interpolation-filters="sRGB">
<feFlood flood-opacity="0" result="BackgroundImageFix"/>
<feColorMatrix in="SourceAlpha" type="matrix" values="0 0 0 0 0 0 0 0 0 0 0 0 0 0 0 0 0 0 127 0" result="hardAlpha"/>
<feOffset dy="18"/>
<feGaussianBlur stdDeviation="20"/>
<feColorMatrix type="matrix" values="0 0 0 0 0.439216 0 0 0 0 0.564706 0 0 0 0 0.690196 0 0 0 0.12 0"/>
<feBlend mode="normal" in2="BackgroundImageFix" result="effect1_dropShadow_235_3539"/>
<feBlend mode="normal" in="SourceGraphic" in2="effect1_dropShadow_235_3539" result="shape"/>
</filter>
<linearGradient id="paint0_linear_235_3539" x1="0" y1="70.0001" x2="186.885" y2="294.262" gradientUnits="userSpaceOnUse">
<stop stop-color="#56007E" stop-opacity="0.56"/>
<stop offset="1" stop-color="#5D0089"/>
</linearGradient>
<linearGradient id="paint1_linear_235_3539" x1="67.9922" y1="22.0001" x2="161.992" y2="116" gradientUnits="userSpaceOnUse">
<stop stop-color="#868CFF"/>
<stop offset="1" stop-color="#5D0089"/>
</linearGradient>
</defs>
</svg>
