<svg width="39" height="39" viewBox="0 0 39 39" fill="none" xmlns="http://www.w3.org/2000/svg">
<g clip-path="url(#clip0_64_100)">
<path d="M35.6273 10.8683L30.269 32.381C30.0831 33.159 29.6393 33.8511 29.01 34.3448C28.3806 34.8385 27.6027 35.1046 26.8028 35.0999H5.91024C3.50934 35.0999 1.79214 32.7467 2.50764 30.4412L9.20154 8.94444C9.42521 8.21542 9.87598 7.57695 10.4881 7.12216C11.1002 6.66738 11.8416 6.42007 12.6041 6.41634H32.1611C33.6716 6.41634 34.9277 7.33854 35.4524 8.61054C35.7545 9.29424 35.8181 10.0733 35.6273 10.8683Z" stroke="#C0C2C9" stroke-width="1.59" stroke-miterlimit="10"/>
<path d="M26.1981 35.0999H33.7983C35.8494 35.0999 37.4553 33.3668 37.3122 31.3157L35.7381 9.65993M16.1493 10.2641L17.8029 3.39533M26.8023 10.28L28.2969 3.37943M13.0011 19.1999H25.7211M11.4111 25.5599H24.1311" stroke="#C0C2C9" stroke-width="1.59" stroke-miterlimit="10" stroke-linecap="round" stroke-linejoin="round"/>
</g>
<defs>
<clipPath id="clip0_64_100">
<rect width="38.16" height="38.16" fill="white" transform="translate(0.758789 0.119934)"/>
</clipPath>
</defs>
</svg>
