<svg width="39" height="40" viewBox="0 0 39 40" fill="none" xmlns="http://www.w3.org/2000/svg">
<path d="M32.5591 16.184C32.5591 9.82403 30.0151 7.28003 23.6551 7.28003H16.0231C9.66314 7.28003 7.11914 9.82403 7.11914 16.184V23.816C7.11914 30.176 9.66314 32.72 16.0231 32.72" stroke="#EFF2FB" stroke-width="1.59" stroke-linecap="round" stroke-linejoin="round"/>
<path d="M26.755 13.64C25.8805 12.527 24.4177 12.05 22.2235 12.05H17.4535C13.4785 12.05 11.8885 13.64 11.8885 17.615V22.385C11.8885 24.5792 12.3655 26.042 13.4626 26.9165M13.4944 7.28004V4.10004M19.8385 7.28004V4.10004M26.1985 7.28004V4.10004M32.5585 13.64H35.7385M13.4944 32.72V35.9M3.93848 13.64H7.11848M3.93848 20H7.11848M3.93848 26.36H7.11848" stroke="#EFF2FB" stroke-width="1.59" stroke-linecap="round" stroke-linejoin="round"/>
<path d="M27.3269 30.4781C27.6589 30.4781 27.9877 30.4127 28.2944 30.2857C28.6011 30.1586 28.8798 29.9724 29.1146 29.7377C29.3493 29.5029 29.5355 29.2242 29.6626 28.9175C29.7896 28.6108 29.855 28.282 29.855 27.95C29.855 27.618 29.7896 27.2893 29.6626 26.9826C29.5355 26.6759 29.3493 26.3972 29.1146 26.1624C28.8798 25.9276 28.6011 25.7414 28.2944 25.6144C27.9877 25.4873 27.6589 25.4219 27.3269 25.4219C26.6564 25.4219 26.0134 25.6883 25.5393 26.1624C25.0652 26.6365 24.7988 27.2795 24.7988 27.95C24.7988 28.6205 25.0652 29.2636 25.5393 29.7377C26.0134 30.2118 26.6564 30.4781 27.3269 30.4781Z" stroke="#EFF2FB" stroke-width="1.59" stroke-miterlimit="10" stroke-linecap="round" stroke-linejoin="round"/>
<path d="M18.9014 28.6815V27.2028C18.9014 26.3283 19.6169 25.6128 20.4914 25.6128C22.0178 25.6128 22.6379 24.5316 21.8747 23.2119C21.7696 23.0304 21.7014 22.8299 21.6741 22.622C21.6468 22.414 21.6609 22.2027 21.7156 22.0003C21.7702 21.7978 21.8644 21.6081 21.9927 21.4422C22.121 21.2763 22.2809 21.1374 22.463 21.0336L23.9099 20.1909C24.5777 19.7934 25.4363 20.0319 25.8338 20.6997L25.9292 20.8587C26.6924 22.1784 27.9326 22.1784 28.6958 20.8587L28.7912 20.6997C29.1887 20.0319 30.0473 19.8093 30.7151 20.1909L32.1621 21.0336C32.9253 21.4788 33.1956 22.4487 32.7504 23.2119C31.9872 24.5316 32.6073 25.6128 34.1337 25.6128C35.0082 25.6128 35.7237 26.3283 35.7237 27.2028V28.6815C35.7237 29.556 35.0082 30.2715 34.1337 30.2715C32.6073 30.2715 31.9872 31.3527 32.7504 32.6724C32.8555 32.8538 32.9237 33.0543 32.951 33.2622C32.9783 33.4702 32.9642 33.6815 32.9095 33.8839C32.8549 34.0864 32.7607 34.2761 32.6324 34.442C32.5041 34.6079 32.3442 34.7468 32.1621 34.8507L30.7151 35.6934C30.0473 36.0909 29.1887 35.8524 28.7912 35.1846L28.6958 35.0256C27.9326 33.7059 26.6924 33.7059 25.9292 35.0256L25.8338 35.1846C25.4363 35.8524 24.5777 36.075 23.9099 35.6934L22.463 34.8507C21.6998 34.4055 21.4295 33.4356 21.8747 32.6724C22.6379 31.3527 22.0178 30.2715 20.4914 30.2715C20.2821 30.2736 20.0743 30.2339 19.8805 30.1548C19.6866 30.0756 19.5105 29.9586 19.3624 29.8105C19.2143 29.6624 19.0973 29.4863 19.0181 29.2924C18.939 29.0986 18.8993 28.8908 18.9014 28.6815Z" stroke="#EFF2FB" stroke-width="1.59" stroke-miterlimit="10" stroke-linecap="round" stroke-linejoin="round"/>
</svg>
