<svg width="56" height="56" viewBox="0 0 56 56" fill="none" xmlns="http://www.w3.org/2000/svg">
<circle cx="28" cy="28.0002" r="28" fill="#F4F7FE"/>
<g clip-path="url(#clip0_175_1280)">
<path d="M27.6744 26.64C24.5681 25.8326 23.5692 24.9979 23.5692 23.6979C23.5692 22.2063 24.9513 21.1664 27.2639 21.1664C29.207 21.1664 30.1786 21.9053 30.5344 23.0821C30.6986 23.6295 31.1502 24.04 31.7249 24.04H32.1354C33.0385 24.04 33.6817 23.1505 33.367 22.3021C32.7922 20.6874 31.4512 19.3464 29.3165 18.8264V17.8822C29.3165 16.7464 28.3997 15.8296 27.2639 15.8296C26.1281 15.8296 25.2113 16.7464 25.2113 17.8822V18.7853C22.5566 19.3601 20.4219 21.0843 20.4219 23.7253C20.4219 26.8863 23.0355 28.4599 26.8534 29.3768C30.2744 30.1978 30.9586 31.402 30.9586 32.6746C30.9586 33.6188 30.2881 35.1241 27.2639 35.1241C25.006 35.1241 23.8429 34.3167 23.3913 33.1673C23.186 32.6336 22.7208 32.2504 22.1597 32.2504H21.7766C20.8598 32.2504 20.2166 33.1809 20.5587 34.0293C21.3387 35.9314 23.1587 37.0535 25.2113 37.4914V38.4082C25.2113 39.544 26.1281 40.4608 27.2639 40.4608C28.3997 40.4608 29.3165 39.544 29.3165 38.4082V37.5188C31.9849 37.0125 34.1059 35.4662 34.1059 32.6609C34.1059 28.7747 30.7807 27.4473 27.6744 26.64Z" fill="#5D0089"/>
</g>
<defs>
<clipPath id="clip0_175_1280">
<rect width="32.8417" height="32.8417" fill="white" transform="translate(11.5273 11.7244)"/>
</clipPath>
</defs>
</svg>
