<svg width="56" height="56" viewBox="0 0 56 56" fill="none" xmlns="http://www.w3.org/2000/svg">
<circle cx="28" cy="28.0002" r="28" fill="#F4F7FE"/>
<g clip-path="url(#clip0_175_1314)">
<path d="M31.2513 16.0835H19.3346C18.143 16.0835 17.168 17.0585 17.168 18.2502V32.3335C17.168 32.9293 17.6555 33.4168 18.2513 33.4168C18.8471 33.4168 19.3346 32.9293 19.3346 32.3335V19.3335C19.3346 18.7377 19.8221 18.2502 20.418 18.2502H31.2513C31.8471 18.2502 32.3346 17.7627 32.3346 17.1668C32.3346 16.571 31.8471 16.0835 31.2513 16.0835ZM31.8905 21.056L37.123 26.2885C37.5238 26.6893 37.7513 27.2418 37.7513 27.816V37.7502C37.7513 38.9418 36.7763 39.9168 35.5846 39.9168H23.6571C22.4655 39.9168 21.5013 38.9418 21.5013 37.7502L21.5121 22.5835C21.5121 21.3918 22.4763 20.4168 23.668 20.4168H30.3521C30.9263 20.4168 31.4788 20.6443 31.8905 21.056ZM31.2513 28.0002H36.1263L30.168 22.0418V26.9168C30.168 27.5127 30.6555 28.0002 31.2513 28.0002Z" fill="#5D0089"/>
</g>
<defs>
<clipPath id="clip0_175_1314">
<rect width="26" height="26" fill="white" transform="translate(15 15.0002)"/>
</clipPath>
</defs>
</svg>
