<svg width="18" height="18" viewBox="0 0 18 18" fill="none" xmlns="http://www.w3.org/2000/svg">
<path d="M1 9.99976H7C7.55 9.99976 8 9.54976 8 8.99976V0.999756C8 0.449756 7.55 -0.000244141 7 -0.000244141H1C0.45 -0.000244141 0 0.449756 0 0.999756V8.99976C0 9.54976 0.45 9.99976 1 9.99976ZM1 17.9998H7C7.55 17.9998 8 17.5498 8 16.9998V12.9998C8 12.4498 7.55 11.9998 7 11.9998H1C0.45 11.9998 0 12.4498 0 12.9998V16.9998C0 17.5498 0.45 17.9998 1 17.9998ZM11 17.9998H17C17.55 17.9998 18 17.5498 18 16.9998V8.99976C18 8.44976 17.55 7.99976 17 7.99976H11C10.45 7.99976 10 8.44976 10 8.99976V16.9998C10 17.5498 10.45 17.9998 11 17.9998ZM10 0.999756V4.99976C10 5.54976 10.45 5.99976 11 5.99976H17C17.55 5.99976 18 5.54976 18 4.99976V0.999756C18 0.449756 17.55 -0.000244141 17 -0.000244141H11C10.45 -0.000244141 10 0.449756 10 0.999756Z" fill="#A3AED0"/>
</svg>
